<mxfile host="app.diagrams.net" modified="2024-01-21T18:40:11.417Z" agent="Mozilla/5.0 (Windows NT 10.0; Win64; x64) AppleWebKit/537.36 (KHTML, like Gecko) Chrome/120.0.0.0 Safari/537.36" etag="Rzjiwome_ORnL0vnwEhl" version="22.1.21" type="github">
  <diagram name="Page-1" id="42789a77-a242-8287-6e28-9cd8cfd52e62">
    <mxGraphModel dx="1744" dy="931" grid="1" gridSize="10" guides="1" tooltips="1" connect="1" arrows="1" fold="1" page="1" pageScale="1" pageWidth="1100" pageHeight="850" background="none" math="0" shadow="0">
      <root>
        <mxCell id="0" />
        <mxCell id="1" parent="0" />
        <mxCell id="8VBoaXz5r1ogeXgMIiz7-1" value="" style="shape=image;verticalLabelPosition=bottom;labelBackgroundColor=default;verticalAlign=top;aspect=fixed;imageAspect=0;image=data:image/png,iVBORw0KGgoAAAANSUhEUgAAA5AAAAHMCAYAAACjn0eBAAAAAXNSR0IArs4c6QAAAARnQU1BAACxjwv8YQUAAAAJcEhZcwAAFiUAABYlAUlSJPAAAP+lSURBVHhe7L1nlGTHed7/3NR58uyEnZ3NAYucCIAkCJAESTFTFCUqB9uyZX2wdHx8/Mn+oA8+x1k+/yPZspVsHWVLskSKFHMAQZAAFjktNuc0O7lz3/R/n6qumd7B7O7s7ix2FqhfT/VNlW91dz3z1q1yNm3alMJisVgsFovFYnnb4FywMbDT29nx1ZdTtXXaF2zH2GK5NG57a7FYLBaLxWKxvE1YlIFGNLZlonpp6bjo1HXuWiyWy2IFpMVisVgsFovlbYWRhcYtCkp9xbwWsSLSYlkpVkBaLBaLxWKxWN4miAJsi0AlHtNEtokcGQEp52XXSc21xfOkU2ZaLJblsQLSYrFYLBaLxfK2QItGLQAXRGBKW6MrV8QpE6O2PS5aJtP2y2KxrAQrIC0Wi8VisVgsbxsWrYfc85RL4bcd94kZ3krrZKeFcjG0xWJZHisgLRaLxWKxWCw3KdqW2Cn8tBSkPKTV0RN5SOEYyLmMOF88aL8qFIeymv22I2+2Ri71YbG8c7EC0mKxWCwWi8Vyk7L8wFOe1U66uo6nh64qsShnHS0EdUgznFW79slluOgFi+UdhxWQFovFYrFYLJabF0eEIV37UAtH42KkSUu8NOGhLh3fppyN5HwKPYUOu8IiIsWz0zkF64Ki7EB74k7bXQEmyFUEtVjWGlZAWiwWi8VisVhuMtpKTImx9hQ4al9PmKP2nAhuWkMG8+gv1DA2GKOv1IDv1sS3iEjHRSLOTKyjJedFaKejnBKRV4pEsJCOxXJz4/X29v5Ge99isVgsFovFYrkJaAuxBWGnxZmeJMfTe2kDObeMkZ4G3n1XHx55YD16uxNUylU0WgmSlM9F+jqsDm424hZfCiUaF4XjhX70cSeL5/hOkUpR68qReV2NCLVY1gZWQFosFovFYrFYbjLa8kxttIA0k+YgFQGZhgjSCtYV63j03i589iPjeN8DA9gwUkQYppicrqNShRaRLiPRz0dqt/hivCoJndwCOl2y5EIbfZbvdCIeHV/CcEZYntHpWAlpuVmxQ1gtFovFYrFYLDcJRpSRRavgovwTkSZCzUWCAE1sG03xoQe6cM/2KobyB3D3tiY++r4x7N6cQ86vScCWsg4qC2F7kh3tiElLRGR7+KmRlWrQrGOchBDX4VuuMgd6CRF2t900kTg4pDaWq1w2RPu1WG5GrIC0WCwWi8VisdwktO12HFJ6wbBSkWMiAineXCeRDm4DeT/C1rECxodj+OFpNGeOIqmewOaRFHfv7sVQXyx+60oMcigrn53Uoo4CUItETVsaLjzDqH3x+uKrfbl9fcEaKvuuiFSfz2KmZTlD0aon8dGxL8ZnsdwsWAFpsVgsFovFYrl5WBCOxnFD8aeffeSMq05Sw0BvjM2butAzUES5luDosRampxroyie4bUc3No36yAecmZUWQW0t1MJPxaIEobIwMno5psBcuLbgeM28Mwzti+xei/9UP4eZdSoYFrG6cdRDbzES0SoCUmW7UzhaEWm5ebAC0mKxWCwWi8WyxmkLLLXRgk07wpPs0uqhq15ahe+EWLcuhw0bh5DJ9eDwSRff+gHw9IsV1KMY42Nd2Lw+g1K2ASRNJKIWk9TTTuJT4tG8lGA1qWnhqNM0jlCE6qVB1Myu8vLSGvxkDuu6G3j0oXF89IO3YuumXmSCxXCpUpKmHBbLzYEVkBaLxWKxWCyWmwQjuDqEl9o4cES4OYilc1tHPggxNtyN4dFhNNMi9h5z8eTLwKsHI5Tnm+jKJdg45GGgS/y7La4WidjxxQUiAH05MsKQexSHxrXTlLNMTQ+aFVEpp5M0UQIyhQ83DZFJZ9GTKePe3V345Id34V13r0dfj1xTM/BIF1zpyHY52iLVYrkZsALSYrFYLBaLxXKTsGi9uwDRX3pYaCRKLkRXIcXocBE9Pd2Yq7k4fCbBiWng9HSK6fNVZERsrh/uRX9PDr4nwtCJRUS2rYfiQEddl6QiBkVEOomcF9eWiK5cc1M+38ihqlpK6mzJm1zzRcR2ZRu4c2cWH3zvGEbXuTh9+gjOnjunZoHVQ2bFN4WjEZGKZcpmsawxrIC0WCwWi8Visaxx2gJLbYyIXBRbfPaQx04ai3hL0NcFDK/LIfAzOD8d4dRkgukacGoqxuFTIRpRN/KlEQSZglqSwxX56KElLoSvJuHRQlFFuwAHpi6+8zpRFkgJwUlz1DU+9+jVsH08xccf24wH7hkX8XgSTz79Ok6erSJOPIlXItbBhc5EFk5aLGsWKyAtFovFYrFYLDcPSmNpwWicFnFCGoqMi9Hb5WJooChCzcPE+SamZiORhy7OTid49UADB066OHoGmJxNEIUJAhF9XUENfbkWij5nTQ2hlt4wwpBLfahus5KVKq0FOSlZUHJTWSO5/mQZfcUW7r+zD++6dzPCOMWTew7ipTcqmKsVJXccIsuwEpDLh6gty2Gx3BxYAWmxWCwWi8ViuUnQglEJr1SvsajPySHHsKYRMm6Cge4cBvtKSGIHE5NNzJYThGkOM/U8nn61jL/4+9fxte8dx6nzCR9eFNFYwe4NDh68tRebR7IoBHq9Ri0WRTwyrdQXF8h+RkRgoGyWfOKSE/CoIamy9ZMqejKzuGunh4cf2o58voRnXjiOZ16axvlKEaHTJ94kHolbAohjWdplslhuEqyAtFgsFovFYrHcRLD72haObQuesQg6Ih5zQYq+7iy6C1k06yFmZpuoNRMkTgaR04OjEy6+9dQpPL93DuV6Bp7rYqAU4uF7B/ETn7gT998+hlLBUc8nagHpSbweXIfLhFC0ioiUuBKHIpKDXyn+xJcTIufUsHMsxgceHMfm8Q3Yf2QW3/jeMew72kKlWUTs5CS79B+Ls1huTqyAtFgsFovFYrHcRFAuEmO5M07LPV80XinvI5vx0Wy2UK6EaIVyRQRgJAKujl5UkwHU035E6FLPI2bcFvqLTYytc9HbJTLRiZGmiTjqPfOEYwQ3bcFRLlaWxzjl8Fam3kTWmcf63hYeuSePd9+3AdW6gyeePokX99cx1+gWrVtQfike1eQ5C+Xo3LdY1j5WQFosFovFYrFYbhKM2OpcUqMNhZ7oSN8H8jkffuCi1QrRbHCRDg+uK2LPcUUGBmghhxB5xE5WhKCLRgOYmprD9My0Ep1xQvFIUSqpyD4nxnGTCnJeGQVvTq3v6CQtSY/iMoKfltGTqeDeWwK8913jKHV346V95/H0K1OYqmSQuCXx54h/Wh7bZdDRWyw3HVZAWiwWi8VisVhuDpSxkeJLizA9GU37XHvrB0AuF8ALPIRhJCJSRJuIRDXzqThaDjnPKi2SXLMxQQa1loeT50Llyk3aGgM5z+tMUMInDXTlW9ixMYNbNqXoL8yJj3kJ3YCXVlBwq9gx5uDRd2/Cxq2bsP/wDB7/4REcOZOglfZKjzsn4pExRhKfybUph8Vyc2EFpMVisVgsFotljWPMdRRcbUfxpcaE0hFaJaVzK159EY+u66IVx2i0IkTUkKl+hpGdXz0ctakckhjNVooDx+t46oWzOHKygkboi8DkZDfiW9JwxF9Pl4OH7tuIH/vYHXjffcPYPJSiNzOPAuawoT/Cow8M4tZdGzA9E+C7PzyNPa9OY7oSIE7zEouv0l18WpPoIbcaUz6LZe1jBaTFYrFYLBaL5SbCiEYRjE57vcb2ObUvWozi0fF8hLGDeihCMskhRlG0YFZEY4ogrSCP88inZ1H0ptBVAObKkQjIo3hl3xmU64wpULJOrQkpO61WC3HUxK6tQ/j8p+7H5z+2A++51ccdG2K8/54C3v+eLcgV+vHE82U8/kILZ8t9iNwBUasSueuJY5ypxLZgN9XFUCzsWCxrHisgLRaLxWKxWCw3CZR0F1rrjHRkt1ZJSDnhOByyyhlSXUQJh6x6cFJXxCPXaZxHSUTjUHESm9fVcd/uIj7w3m249batcIMcqnUReWkges/Xqam3ANPzCZ569iB++MzrKGYdfOyRTfjFz4zhH322C5/+4CDWDxdw6Oh5fPvJ49h/PEEj7JJ0M5IfPk8ZieOzmBS9Eh/zqbrhF5bFYrkZ8Hp7e3+jvW+xWCwWi8VisaxZtKBz9Lb9zglyEicrYtGXvSp6cg3cdcsAduxYj8nJMl54+TjOTszDSxvoDuYw3D2LneMJ7r2liPfeP4YPPnIvduzajfm6hyMn5zBfo9Cj9VHiF/FHAcnhrFHiYnaugdMnT6M2P4nhniru2Obglq0+Bvsg5yr43g8P4Yk9E5iaFcnqJPDdpsjEmojXhuQ1gsPxtSpm/dIlslhuLqyAtFgsFovFYrHcNGjJxXcuoeHKrisCMoc4DURC1kRA1nHXrgHs3D6IuekJvLGXgq+Bkd4WbtsKvPeeEh57z0a89107sXPHNglbxCv7zmHPy8dw4vQU4jiC56ZKPCrroYhHriGZIiNpuqjXQ0ycnoMXTmDrWBP9AzENlGiFLianHcxVUiRRHU44j5xXQXcxRS6rB/3FavJYbR21WG5WrIC0WCwWi8VisdwkGKudGf7piMCjLU+O01Ak3ix6MnXcsb2AXVsKCGsTqMzMYmzIx6MPdeEjj47h4Qe2YuOGdai3gJdeP4svffMVfON7e3Ho2LREl2D9uhyGB0SQxnU0wxgJsnooqqhEGhC9tIZ8EGL7eAG7d3Yj7yeYmw3RinswumEzNo4PoiuXIOe6WD9cxK27N6G3pw9zImJrNc7Cysl8RERych4WwWK5yXA2bdpkn9q1WCwWi8VisaxZqLNUh1UUV3uqHH1ORJia5EacmzRRcOawdaCJn/rEID7y/lFARODMXB1BroT+vkGkXhazcyH2HZzG0y+dw57X5nF8Aqg0s4hTD/1dET76/p3YfctWPPnMG/jh86cwW+tC7HRL0g6CZBID+Sk8dHsGP/HJ3bh1ey+OHTmAF18+icTrwW2334JNG4fQaDQxNdtCrVXCfLMLTz57Et/9wQFMTEdI3ayUgwKY0+m0y2Wx3ERYC6TFYrFYLBaLZU1jDHW0NlIyUjjypRbxRx0Fdw5DhTK2DKZ48PYs7r8zh6G+FMW8h+6ePjjZHpyZjPDMi2fx9SeO4htPTuDZ11s4PZtDPe4RgdglsbsoeFXcc0sW73/vDnQVMzh+8qwI0BaSxFNLfnT507hvR4RPfeQW3HXXbZia9/HV7x7Flx+fx4tvNHFqYg5x3EI2l4eX6cZs1cGLr53A8y8fFUEZIU5oyfR0YTqxlkjLTYS1QFosFovFYrFY1jTGAqnsjQ5nW03hpKGIujq6Mk1sHXZw384s7rs1i9u25zEo4jHj69lUz1E4vlLGs3ur2H8iwukpD+VGAa2kgFg91yixp+KSBrq983jkrhC/+DMPo6t/A/7sb57B1544ham5QInVneub+LmP9eBHfuRe1MIe/MO3DuKL3zqMQ6ciRGkO+aCO8aEmNq7vRpAtYmKqgcMn5jFX8SStLvWspp59legSqXdTQIvlJsBaIC0Wi8VisVgsaxpjoNNiSz//6CAE4gpG+j185JFb8KmP3Ind2wfhOU3MzM4ra1+QX4f9R+fwpW9O4MmXI5yc6cJ8uA5N9ImgK0g8vo6Vz1FKIl5SRSZuYKjfxYaxQdQbIY4cPYfZ6XkMdIf48Lt78eGHR9BVLOD5V6fx5e8exytHHVTjdYjcHoSRi/lyiFPnGjh6sorTEyFqzYyaqCd18pIWrY8sjSlR557FcnNg/gVisVgsFovFYrGsccziFyL61POPKfJZH8Vij1qG46X90/ja907gS984g1f2N9GI+xA5/Zhv+KiFRYRpb1vIkZY4Lq8RqtlWk9RFnDqYnAb2H5hCrRpifP0Ahvvy6Betef/uPB59z1YMj2/FgRMNfPsHR7H3SBX1qKCea6QtkbO1RuhHMx5EMxqU+AYks5Im8ir+C42Mi0LSikjLzYQVkNcIH6i2WCwWi8VisVx/zBQ6rpPCkz6Y5/qYm2/hyT0H8Md/8zT+6K9exF9/aRLf+n6MQ8diNJMC3Ow6pEEesZtTQ1YTzn7KNRnRFNfS+04icUrMIvJqoYO5Whb1MK+OM5LW9jHgQ+8dxO4d6zA96+IHz0/jhTcqIkxFWXoiSMUPhSiJ0zyitEu23ZLTksSRE0dLp+kzKjuq2tMS0opIy82FFZArRD2sLc7QuW9FpMVisVgsFsv1w/S69BQ6IvZSLfgcEYVzVRcv7p3G95+fwov7Qpw4DyQiLLPFLvVcYrUZoBn7EkpCi1Dkgv50evZWxsxFNUSQclZUrvfo5YDsEM5MJnjp5SMIG/N48N487r+zG3ES4Yk9J/H4s5M4Pe0jTPIS1pWwseQnlrjU05kqNg611ftMQvqKqrvIo0WnrlksNxlrRkB2CrK1BvNGkdgpFM3+UmFpsVgsFovFYrk+sPel1k+UrpejhoRmRQp2o5EMohINoZZ0Id+bw+33bcDmnTtwZirGa/snMTMXK7lGkec4IiBlm6pIdH+OMs+hAHRyiPx+nJ4Cvvn4q3j6mWMY6AMeenAzenq68Pr+c3jiuQkcPO2hFpZEcvoSNha5GMFTolbScBkP04gkDe5TtNKxv2gc0fv6tXjWYlnrrBkBuZateEvFYqdoXMv5tlgsFovFYnm7oUQknQhIJD6SJCsSLi+uhFDEpJfvR65nM05NZfC1x/fhiacPY2qW1kFXwkUi5ehSccqWKXuMTdsK+QxjLSqK6DyDJ3+wH1FYxX33jmDLzs2YmAvw/T1n8PK+ecxWA4klo0RfkrakX8jhq4yDQlH2naaIx5ZsO0Vkp0Rc3LfC0XKzsSaHsF5vi16nAFwJ9BvH8UKYpWEpIq2QtFgsFovFYrlOLHSz2vKR4pEzmpo1FVMRaCLSUjfAdNnDE8+exJ994Xl85fEjOHC8iQpnQk1FbLIPJ302vZ6kBFPx6cltKDETR4RhmkEzTOB7CW69pYT77t8CzynhuZfLeOblGqbmJS4RrGqYKqVoKiKR6bdj1ENkGRutnpSqfC2HvqJC2W6k5SZiTVkgPc9T7nqLsZUKPiM06fL5PMbHx7F7925s27YNAwMDKq9hGCpxSRjnUnFpsVgsFovFYlkh7J4t10W7oHslHtjnUvsclko7IifEqclRhPl6gn1H5/HaoRrOzWZRj7tEyhXkWkbCUXSaaWsY00IsIi49cez/NeG7IbZsdHDfXevRv24Qew9N4ztPncfRc3zuMcsoVLomY5SB6kjOLzgVO515FtI4XtNugQsOLJa1zQ1fB5KCi8Kru7sbmzZtQrFYRLVaRRRFcF35wLWvG1Yi/JajM1yS8L9F+pN6ufjoj3l64IEH8MEPfhD33HOPEpF9fX2o1WpKPGazWRUn9xmfcZ0sFZYsG/2sNB8Wi8VisVgsK2Fpn2Mpa7HPwRwtdRp9pF+ahWttj+pZRpf9RQ4V5b4vjstqcNH+QM7ROKGFI68rCSe7tKLoKPiurZmuCNAA8+jNVfHQXV149N3b1ejTb33vML73QgOTlZIa5qqiYlwqAnUgzthl1ElxiyksujZLDi2Wm4kbJiD55WYEFMUUrXqf/exnlYg8ePAg5ubmFkQW4dbsG2G5Eow/hiE8puWwUCgo4UfRR/FHTPydefN9H7fddhs+//nPKwvkzMwMhoeHce+990LqTu1v3boV5XIZs7OzKpxJy+ybPPDYOGL8Gcx5i8VisVgs14/O3+PVcGuN5fLY6dYizFWnW6TzjN5SAnJfScHUEUHHfYpC6c+xy8UymvLKy1XBeCGRczr0grSjqZDxgMtsuPDSKrKYxvhgCx987zbs2L4Rr+w9ia9+7yj2n8mhkXSr6DkJj4pW3jmHazu2tuNx5zmL5e3FhQrmLcYIK25p5aNQu//++zE0NKTOGUuh2e+0HC4VX+a8wXxBdoYnPE/r4bve9S6VFoemmvPGb+eXKy2jDz30kBKJr7/+Ov7gD/4A//AP/6CE5S233KLiuO+++zA2Nvam5yTNPumMsxOWg+5i1y0Wi8Visawe/L017lpZzbhWE+ans39h3PXoc5j+zqXcSqFP5RimfaDD6xlUOVCV6zhGnHnV4eyrnMiGE+HwKv1LOWVHOwZm308/h0jxSIGpZ3DtcCqkCs3ExEsFmbSF8ZEstmwZwnzNwYt7Z3B8AmjGBYmNy4GYMDpdxiKRt50Rj0ZAkkX/i85iuXm5YQLSfJkRijta7zgklEKSrvM6vzwozoy10AjJzutm32DOmS9LYkTk6OgoPvrRj+Lhhx9WApLX9ReUhvt0PE+/tDbOz8/je9/7Hl566SV897vfxf/9v/8XX/7yl/GVr3wF3/zmN3Hy5Enln8Iyk8ko62ZnvNwul3fC/aX5Xw1MOQyd+51c7LzFYrFYLG83zG/jaru1xHL5W+pWC9OHuZRbCRfkiGFUWOnDqa0+lzq+uEC5WA1N9eFIX4vXuXyG+JQth6G2X7wgfxziqgyNFy02w9KJPHRiDPamuHX3CHoHB/D6ofN49vVpnJ8PRDgGKi1Gw/i05dNIUCagnYlNo68uOstKWM02all9bpiAJPxSMSKLAo2Ow0uDQL4c2g2H13O5nBouSmsgBZr58jN+zJfT0i8qijWThoHxcwKcDRs2oKenR103os7ER7hPvxyiOjg4iPPnz+PcuXMqHxSy3/72t/HVr35VbSksjx07psJQkNJaeeutt6r4TdyE5WJZTBmWS3c1WVofnfudXOz8OwlTV5dyFovFYnl7sFq/vdfzN/xaWS5vazm/hDnTji+NntyG/UKfBRBZ1oKHGgKnAs+pytUmHFoalULU4RdQB4uxGjrP6JToYoknROAlWD8SYPv2cVRbGTz72lkcPt1CLcxJ8tIfUCG0JTRGFrGI2USErPQkVDxcxsOhpZPxcZ9xG7OoSofOcjlsv2ttc0OfgSSmgVCY3X333UrcPfvsszh8+LASfhRhnLTm0UcflQ/zdjXBDq2VDM+w3NIfhRsFJs9xZlTC88YPt0ZQbtmyRQ075XOWTz75pLJ8MjythhR3FIhRFKljWh85THXfvn1KKDabTRUfn3mkP8bFfDMcn48slUr4wAc+oKyb09PTOH36tIqLw2YpKvmsZ6vVUmLZ5J3b1YLlozMw7tWM/+3I0jq7FLYubwwrvT+d2HtlWeuY7+eVOMvFWa6+3ulutVgu7rfGMXGmzz4SxWNGiUSfzye6ZfQWahgdcNBdkP5aqyH9Pvb1vHaYVM2kqrXawo64N20UygvPyI6TRsi5Ndx9+6D07e7E/qNlfON7+3HiPKVgl/wW6SVD9PqRFI6eBNNDVZVQlLN62CyFY1s8tlOjtGwnZlkhnb/9V9MPsFw/nE2bNt2Q1swPuOm4U9jxGcJf/uVfxq5du/C7v/u7+NrXvqYEHIXYRz7yESW8KPJ4/k//9E+ViKRoY3gKR4o4TnLDCXj4rCJFIeM1aREKPgo2xsm0pqam8D//5/9EpVJRzzNS/FFUPvPMM+oan8X82Z/9WXzmM5/BF77wBfzRH/2RsiIyX/V6XaXxoQ99CJ/+9KfxxBNP4P/9v/+nrJY//dM/rcJ8//vfxx/+4R+qOCkqeY4i86/+6q9UHjvrwOTxajFxGUHKfXOemHQuR2deTJiryVtnWiuJw+S5M9xSll4zYchK0rhU3CvlUnFcTT1dT0yddG6vJ9cz/quJ+60o81rA3F/Lm1nr99/etxvDlbaLm/U+mXIuzX9n+S9VF0vDXaweVv9zxvjke01EGsVZktDy6MLHHAruWQyWarhtVy/uuH075mopnthzGvuOuQhTEXjUdyLgpDeh8kWjn8hR9eLecvAsU3QZJglRCubxofdtwb333I4f7NmPb/9gP+bqBfiZEjyJU35ZEMITecjEJKREIDkFl/RwECnH4bTKMX6pN649qdadXD4L152LtYXrjboH7bQNyx2bfJn9RqOhDDbmnNny2ltdBsvy3DABaTCNYf369fhH/+gf4fbbb8fv/d7v4etf/zo2btyIf/7P/7mySr766qt4z3veo6x3/+E//Ae89tprSkBSVHJCnF/6pV9Sgu/FF1/EU089hVdeeQXHjx9XaXDGVQ4dpfije/e7340f+7EfU4Ly6aefVs8s0rpJIcp0/viP/xinTp3C5s2b8eM//uPK+knh+oMf/EDlidZSik5aSmlV/MVf/EU1lPV//+//rcTigw8+iH/yT/6JGvr6+7//+zh69Cj+6T/9p8rvX/7lX6pJeGjBXC34oTLWVbPP50hZH11dXUpUXgrWv/mAdmLiuxJMXJ1pmjg6t51fABe7bo4NlyvHUv9Ludz1y3Gx8OZ8Z5k6udZ0rwameal0r1eeriXetZintQ4/E2/n8l0LS+ul8zvlYp/V68lq3CeT7864Os/diHLdKDrLfaV1ezn/S6931uty9+BmpbMMy5XnatrTlddLZxoMK+24LRzjVPozXGZbvHhoIo8z6HUPYnxgBvfc2oet2zdjsuzjiRdqeOVYL2rxIFzpFzIAxaDpMWj5yHQuXR6Vchoj4zaxfqiAUrGAk2fnMD0XIXZLcFxf4ozEV4RIhCbrx0l9OfbESbqOryyftDz6rjhPi0iVAxG1rE4JIe6t50a1V6bbmTZ/s8zvltl2+uGWo/bOnDmj+vAcrceRhxxZyGtX0yYt14cbboHklo6T1fzCL/yCWm/xd37nd9Rw0U9+8pNq+QxOUkPR9TM/8zNKLBoLJYUSn2WkgKN1j6LPDF/90pe+pKyGbHx33XUXduzYoYaRUoxSBHLoKQXkgQMHlBhkXPTLobNsuPTHJUU41JXi8siRI2qiHIpNClcOT2Ue1q1bp4Tv448/rmZopTDs7+/HJz7xCZX3l19+GSdOnMBjjz2mxCn90LrZKYZW40Nh6pMwbopfThTEmW1ZNrpOP50sTdvkpzOPV8rSdHi8XNrkUtcuxZWEudo0OrnUPbrWuC/GtcS7XFhThuuVX3I1ca8kzKXqv5NLxXU9y/1WsfQecvt2KNfVspJ2sdK2cz15J9+jtcTVfl7eTvev8/Ow9Pvkaj8rV1c/S9OiuOJC/h7ixBEBqc9kRdAVnEnkon0ohC+j6B5CKTOFwM+glg5jMtyNmfR+NL1NSNycdII4iY4Ou4CUS4vIN7OYdwpPQVRrEoeII4YQwSPpeH5W/ImPpCnxluGnM0jCKtJYhJDfjcTrReh0o5VmRVzGSogGHkRESna4tAiHtgoUkDeat/L7kHXb2TY6RaPZJ53+2DfnaL1Dhw7hueeew549e9SoQ4PxZ7mxrBkBOTIygp//+Z9XVkYKRA7x/NVf/VU1ic1//I//UTUkDielEPvOd76jrH38L8WP/MiPKOHJoaMcGkqr26c+9SlMTk4qa98Pf/hDZRF83/vep9Lj0FNaGikK2UA57JTDXmkqp7CjHz7zyDAUnBSbHF5LoUkL5MTEhLKCMh6KTQo0ClgKXlob+Z8S5oVDcf/ZP/tnyurIdM6ePYs/+7M/UxZPDoFlOqb83K4WjI8Cl0N6f+VXfkXVJ0U1P5C8tpTLpX0teTNhVyOOi3ElcV9LPshy9bdSTNgrzcO15vlyXO/4V8payYfl5uRyn81r+exeD2x7v/ngPbvZ7tvF2j3/oXyxslzNZ4VxXf1njJKKA0Ap91wRjhSQsu+IlHQikZMNZOKzyDTfQFJ+EajthRMdhxudRxQmaCTDiAv3wV/3YXg9dyLx+5E4WcmUSEH1LCLzJbGvIHv6HtN2KXkQAZvSifBTs7u6uq8KtBDgLNzqa2jMHEHUiuBn18EtbEKcGUcrGBQxmZeS6OGtZmirJ+GVNVJlhPHKVu9quH+duRHfg1fymWH+TFtiP5uj92g8+uIXv6gmsdT3x353rhXWlICkEKR4+5u/+RslDjnMlENR//2///fqPxU8/tjHPoa9e/fi//v//j917td//dfVkFQOIaV1j0NUP/vZzyoLIP9jQdFGyyEtcjzm/s6dO1VaFJn/6T/9J2W5ZDjGR3HH4bQUrhz+SeH53ve+Vy3ZwecZaWE0DZjDRHmdwpfPQFJA8rlICjheo7j9F//iX6iycFguLaIc1935X5fVxtQrRe/HP/5xNfyW5yhgKXp5zdQ7Mcd0q8XSOJeL+2LXLndMlju3Eq42XCerEcfFYNyrFf9K41nNNFeDtZQXi+V6Y9v71bG03szv3tL9q8H8NnZyM96n5cqxHKtVtpWl15kWf3v0lpPfKKujOA4F5XknrYpQm0Z/fgaj3ecxkDkBpzUhfawyynMTaFZnkQ08lLrXwStuR9XdgXO1YcyHQwidHvV8ohJpaiZUaRPqtTwXth8mrmd8VSVKOTMr49DrUDpuE33BcQwHr6GIE/DTEK7fAye/GXVvE85W+3BuPo9aWBDfOenviYhUYlivYOk4nItDJSVxi1tIlzWhUeleLLNXCcu40jaxWrBOjTN0njPnl15nPjnKj6P2nn/+edXnp3GGfWfL2mHNCEiKNj7HSIsen2GkAKI1kVZFOs7GSkHEoar79+/Hb/7mb6qhov/u3/07NfkNJ8OhiKSljWKUk+RQbP793/89fvu3f1v9N4PpUMDRKvdrv/ZrSkD+1//6X9WQVebFCDv6YzxMk8NQ+Rwk/wtCyyhFGC2M9EeRSHFJAUnrJAWssUDyOq/923/7b9WwV1pRGQfjNmKV+511sZowDQ7v5ZBfCloOpaUllPuXS8vk62ox8XN7qbQudm3p+aX5MdevJJ9L4+yM42L5MFyP+7McS9Mw5eP5zv3lWFoXK80v/a3Ur8WyFrmZ2+9yeV/6Wba8mdW65yaezu/45er/UtduZliu5erSlHO5a8tB/5evG0lrQRXJVv21n3VMuEwHRaQIBBFcPprIYgoDhfO4f7eLR+7rxbYNAcLIx8FTKfY8dwgH3jiFsaEA7394B7bt2onTUzG+9O3jeG6/i0o8iMTNKsEHNamN3F8mu6LbR986TyySsj4yvLIeSiwibDd0T+BTDzbx0G6gpyDxc01Ktx+zrUG8fCTB91+cw4ETDmaqBRHFWYlE+nyqvCJrRUByWKsykHbUmcqfaWdtdy2shbZq2ldnOzP77AObPjcd+81GILL/TYMPVzGg0YZGmLVQHsuFrAkBSSgYKcTuuOMOZSXkMcc+c8ZVrrFIsfbhD39YPQfJiXJ+67d+S82c+hu/8RtqWCkFJf9bwQlz2Ng+97nPKRHJoaUUibQMGmHHpTloueSENxR2bKSmIRM2Xg77pAXyJ37iJ1S++IwjhSiHuVKc0S/TovWT15lXWiAZJ9Ph8Ncf/dEfVfnlMdeMZFn4LKV5jpJlN/WwGpi46DhEhRMH8VlOps91LDvrgJituQfE5Gm1MPlhnOY5zCtlNfNzs9B5H0z9mf3lWFpHpt4vxeWuvx3orEfL24+327217XXlmHpayXedZeV0tr/VrVfGK/dKSSUlySQtDhWFCMf2ME8nhJc0kHOq2DTk4KG7u/DoQyO445ZBZLIe9h6q45s/nMEPnj2DUyfKGO1P8bmPjeEzn7kHTtrC//3iq/iLr03h6GReBGSJD9xJsh0CcoXovGkxo+qAs7rKRg2IjSsiICv4J5/w8LnHujDUJ/EnLQmTQdPpxdn5Al45GOH7z8/hhyIkj51J0IiLSJ0uKacvwlHEks++Gq2akRriqmjXu8opk1RHV0/n58NwIz4nJk2zvVi+jKAkxk9nW7SsPW7YOpBLGxUFItd75GQ3fEaRzyRSdL300ktK9NCZ9RspMCnY+Bwjn4nk8EwKPFoUOQSVs6Ry6CYn5uEzkDSBU7CZxsnzfMaRgoaWQ1rmjIDsbNQ8xzTvueceZaXkg7wUYcYv42RcFL00t1PYUkAyDxS3tJhSiDJ/nJCH1ksKOc4cS8yEPyZf10pn3gnLxzQ5SZBJi/BDacRc5765tpqYNIxbCeY+vNMd24Vpa537yzlzvdPfpfwv567U/6XcWrqPnfVinXVr2fF3zmyts+7t49imtXOV0+fZ1n3fQc6PkPUq6PbnsLG3jnft8vHxR4bwmR+5Dbt2bUG55uAHz5/F337jCB7fM4MzMwFix0cripEJWtg2nsOGIRGjIseOTSSYmOOTi4GkEcCXdPyF9Jfm62JO8iVbE05/PnVfTbp9KHiS5miIW7eX0FOS35mkLp2dulwL0dvlYny0hE3rCxjslfAiikPpz4ahiFAvBy8jwpYT8vjye+uJmOTnnfEzHUlTb680vytzuhw3xi39XV4O9kWNIxfzZ1kbrI5yuUbYSGg1pNChkKT1jg/PcuIc0+gp1ii8aL0zGEshBRvDUDjy2UWuG0krIye54dBN+mM8pjHymOkxPloZGYdptJ1Ch+cpCClmzQeAmC3j4JBY+mM8FL6Mm0Nr+Swny8LlSP72b/9WCTkKSlpFObSVw26NWd6kt1KBtRKYR8bHvDFPPO4U0cSkx2umfNyuhmNcnc6kczm3XNh3oltan1fjlov3cm65eK7ULRfvWnbLlWE5t1xY66xbbbdc27Pu0m65erRu7TjXad8n5aQvprYpfLeFnDOPgnMeo6U53L/dwU881oV/8uOj+NQHRjBQbOKNlw/g/33xZfzx3x3CEy+1MFkbQOiOIPKH0UARx8418eobp1CtzGLTeC+2bOpDt4g634vV8FOVtsP+38rbiQ7DbftYtTHtXNdHFLs4N5VictZH6PQCQTfqTQ+z03VU52YQJBPYuX4eP/poEb/8Y6P43Id6cc/2COu65pEL6mpCnVQEMNSMseK8jNRHIE76aAtC78YKvtV0neLV7HPb6cx1c431blnbrAkBSSimKLIoBrnP4agcWkqRwwZFMcZnGyn6jPChNY9Ck8KRlkgu6P+TP/mT6tlHCr+vfOUrSoQyTOeXA0UfLYl8xpFxMk0Tp9ka6JfCkuKLYTtFJoUZ46FIo3DlM5u8TqskBSTzzec1+UwnZ19lWswbrZOG6/0hYfzMa6dANvVAlpZ3tVhaLpPm5dzbHdN23gp3NSwXz9W4m4nl8r+cs1gsFsuVw29PTk6j13Z01VBQPpvoOxX0FyvYvdHHxx7uxy/++EZ87hM7sXt7L8LGDPa+/ip+8NTLePalszh6BqiEPWpoKmdZTZw8IqeAiVkPr+2fwtmJOXR3FTE63IuiaDLELaQx/0kv/TaVtkp0Rcg3vs6zPmzD/okuQytyJF3gzLQrIrYPyIxgplLEK/uA51+Pcfa8hI8aUrZ5PHSHj5/6+Ah+9lOjeOQeH+t7ZtTzna5cTyKphcQTJ0KUy5Yk0q9UfbXFPttqOv6OLXf+ejv7+/n25IYNYe2EjYsijktfcLgo103kjKVcRNRYzSj2uEbk1q1b1YxML7zwglq3kf+p4DWe50yrXLyfs6pywhqKNloPiREnTItxckgpLYX79u1Tlko28qUihunyWcyHH35YPdBLIWjSJIyLzxlu27ZNWR+59AiX++CQVgpFWktpAaWIpBBlPmllZb7od2manWmvNjfiA2y/NN6Mud+XcjcK3q/VcBaLxWKxXID8tqmJcuBRhsl7E6Wggjt3FvGjH96Oj79/O7ZsHkS9WseBfSdw6vQUwhjo6i2gb2hUxGMJU+VUnaP1LpX+GZ8hdJIacl4LOzYVsX7DGI6fi/HK62cwM8fHdrLKsqcxS3pcDv4Gd/4Om33ZihBl3t20LmmG2DRWxLbxPhSk/zpfSfDsqw1895mGiEkXpWIWhaKPTNBAKdfEhuEcxka71LOa1fmy9AkjJLEr0QYSLWeM1b/BfCbyBnYDrgtX00e4kX0hy8pYEwKSUGxx1lCKOj5LyGcTaYkkbEi8TgseJ7Ch+KLwo/WPzx7y+UQKOwpHCjYuqUELJi2aplNuGi1FIfcpLDn5DuNhHMQ0WLOlUBwfH1dLdfA5SeaJ6VCAEvNhYD5pDeV6knwOkyKWk9fwWU0uQ8JnICkcaVFl2SiAO5cDMdvrBfPINJamY85dr/Q747dOu5XWi/HH9mr2V+quJox11llnnXXWrabjEFDZUUNW5U0cR3LRAYHTRJcIqzt2DuLBe7aLyAqw9/Xj+OZ3D+LZl2eR7+rFLbvGcMvuDdi4eTPmai4OHzuHcrUlgktEoYguWjEDVNGVDbFzS5cIyHEcPdXES3vPYq4ifT63IGnRL7Mh/SBmga92/t7szFBV7jMMnT6vf1M5xFL6hqjDRwubRnzcuq0LXfkMWnEBbxxr4dt7ath3rIkyH4tMRUD6KXKZEMVciKGBLDaO9qCnlEWr0ZI+bFP6j/Snh9iqBLnsh1r6Q9Jqp32hM3ldmdP5Xv7aWnaWtc+aEZBsMBwKSqsjJ86h6KKFzsB9ii4OSaVFj0NUGYYikQuMvvHGG0o00gJIEcdlOzobodk36VA8Mi7OqsqhqMQILQM74hStnLiHAvGZZ55ReTACklA8Mn1aMSkyjTjlzLG0ktKayvSYH8bBdJnnzk7+9eatSMNisVgsFovlTUgXhL0QDv8UeaCsbK5aXiNEnLQwNV3Di6+cxONPncDTL9dwZhpYv74bt+8ewPBIIFoxEGHYwBtHJjFbiZG4OSR8hjAN1TDYvmKIW3f0it8x7D00j9f2TYqA4zqOOUmYQpMGBOlPcimOS8Jc6r6Zxvg3fShVCvHRgBu3sHnEw507u9DTlZFgJRw552HP3hqOTwAnzsY4fLwsQjZG4HsoFYCCCN2B7kSEJyfYySKVOGr1EM1WjCiRuF3Js+qvSV9U+pLcvjnHlyuDxfLWsCYEJAUORRyHiVJAUtQtHd7J4851YTqtarxGkUbH8xRnJhzp3Cc8pl8KPRPPUvFo9mnx5DBVCkKKUw5FJbxuwjEeikKKSabNY4pFCkqmQ4xgNJjwFovFYrFYLG9rpLtD8cheD4eBco/DUSdnWzh0oo79x0KcmnZRl3PSq8MGEWe7t2bQv85DpQ489dI0XnpjRvY9pG5ePPki5EIETlVEWYg7blmHru4BPP/aFN44OI96MyuxUECy70XRtVIBuRzmvKvkpZs2EYACMsXt2wsY6MnACQo4fj7FiwfqOF/OoRYWMD3v4uRpCuQGMhkPvUUfeRGRhWwDw/0uxkZ71eNb5WpdXFM9H6om11G1owXkIra/aFlbrBkLJKEYoxjkliydiYnnzbXO80aMUaQZZ653+luKCWf2l8K8UBhyaCzXb6TV0whbgxGGnXEZOvPCfHfmiywXxmKxWCwWi+XtBHs62mlhxPfECRAhj0bSJ24AYZqX6yF6Cy08cEcP7r6tF91F4OxkjO8+M4O9R5toxRSFWXag1BIZgdPAUG8iAnI9XL8Lz7w8gUPHq2iKv9TJLFj0rkxALu2XmdzrPpwr4jHrNLFxKMGdO0sY7M/CyxRw9FyEPa/P4dxsgMTtQ+yUUA8dnJuiiOR8HC66u3LI52PkgzLW9fkiIvuQDRxlGClXmiKqaZ+l9ZQiUlLl0FvmWzk5YbGsES40i60xOsXkxVhOgHUKzYuxVLwtFw/P0ZpIAclhqrQmLg3HdMy5zvNLj0lnnpa7brFYLBaLxfJ2Q/d++G6cvDu0uHFNx5yaUZUT7FCcbRgGdm3rRv9QH5otB0ePzuDEmRoaYUY6TxktrNJYHFd+dOEFJYmjB2emIhFrdTQiykWRqiK6UvHTmealMX4u7pfykV1nCjw9a2qKRKURwfEkYTeUdOnkGrJqltbZVj+e3Z/Fn39lHn/11Vk8/2oTM/Mx3HQWY33n8fGHS/jcY8O4a0uKLn8ebtKQ+DnhkAhJlRWmttIyWCxvDWtOQBphZcTVpURX577BiMfOcMux1N9y/k16FLKdYrbTL/c7r5kwJm+d50lnHGbfYrFYLBaL5e0MezzS89HvtKi19xXSRfKcOnoLIXZuLmDDSAaZjK9mNN13tIzTkyFakQjI1IMnfSeP4lH1vTw5X8DZ6QAHjlZxfiZELOcYn7I6LjihndSlEU8LFj+69rl2YNVv07tyTcs6Fb/D9bY5/paPLdHa2FDnaGVtuQMop8M4ONmNLzzRxB9/aRZPvhRhcla8pHMY7pvBYw8W8dkPDuOOTTFK/qycb0msFKqcoZVddelXMimLZY2wpi2QV8JS4XY5rtT/pbhUPJeK34pIi8VisVgs7zjY9ZH+Dy2JELGEtA7fqaKvFGLz+jwGegI4iYOJqRQHjtcxK0Iy5bIcIqgo2yggpeeFNPExJULsmRfP4blXz2GuTDHni2MCFHUUj1fTz1IZFMf4zP7F46EwTsUvn9/kBEG0pLpOS44jOe8i9rpRxwjO1frw1OtZ/PU3G/jec00pn+SyUcZAYRbvu7uAz3xgCLdvcVDM1FVcSkCmtERy0iBXldliWQu8bQSkxWKxWCwWi2VtwwGZSgiJHqM280TkuWgq11tKMLIug2Ixg0bDwclzMU6eT1FviYBy/fZSHJyLQsI4HEYaYHIuxcsHpnHwWAW1Jru1nD9DNhSPtAoyIeUuhxFnS/2bY3OOjy7prTmnkltwLCHzF4vTs81SiCYIZK8f5WQQLxwu4q+/Vcc3n2ri1DkgCmtY11PBYw/04JOPjGLnmIe8JyJShLJ+JlI7xm5yabHcSKyAXAHWUmixWCwWi8WySnBNQyWFHBFZ0r9K60jjED0lYLA/ULOTzlYSnJwIMVt1KcdEtFG4aUdBpt4dH2GaRSPKoZVkkaSBilP32Wh9pIjklqxEei3KwEU69tu7tDca8ahPsjzacbmSJGUeeCUWgdyC7zRky6GtEBHZjUo8gtdOdONvvl3HN56q4+x5II7q6C+V8ej9/Xjk3l6M9jbVJEGMiHHSkmmGs1osNxorIFfAag11tVgsFovFYnknoe2NF76ovRyHk+aI6EpjuEkVvcUQm0Z99Pf4cH0fM/Mhjp9tYK5Gs6P4dRlIxBSdnOLSiSlnwne51iOfFZStHHPm1QsF3hWigrHP13YXRMMDEaSy4cz6nkdhy6G0KZJYUtWX2tASqQawKhHJWWP1kFa+F1FJBrD3dAlffLyCJ56rSnkZV4gNg018+IEevOuWDLpzNdG/Iq6VYGZsOkadN4vlxmEFpMVisVgsFovluqAFVYcgW3AUTJwUJ1bLYowOJNg6XkJPKYtEhNj5mTqOnymjXJMYKCAZREmptm1RjpO2NdJ1OKyV4lJ88B/+V/VP/0Xpp3cZh3EGXqA8TeH7kncRkLwcRQlarUjNyqokspwzck/5Z4E48Q/zKfKRs7bGyKGJARw8U8RXvz+H516poFqWcNE8tm8I8diDA9ixwUPGq0jYmpQrkfK64nSsnbmyWN5qrIC0WCwWi8VisVw3Fq1n6glG5cwxZxzNuS2M9LkYX9+DYiGHar2F0+fmcW6qiUbICWQ88UchJo7bdryMWcvJdmzqAiUcu7fGUmek1mKoi8IIlHd502pU73fGQaEqG1fEo7JAyksJyDBGzKGrfFBT+dR5XUSX3kUoTg9NjdGFptOD148H+PL3ZvHGMQ5xDVDMzeOe3Vm8713rsGEoQeBWxX8oMXAYKy2uLK3FcuOwAtJisVgsFss7j6Xa4HrxVqSxBlkosuyoYadqqx2ntlEujUUUNpBxIvR1BejvLyHI5TBfCXF6ooxaU4SjV5A4OBupqUqKTrNHFsWoOte+tuAuq7Toz2zo2bjlEE/tKCkeM5kAjsu8OQgjEYQLzyrqOBdjUrlWnW5PSs6ZWrUgTGWvhNmohD37U3znuXmcONNE1KxhoKuJB+7swT23lNBfCuGjqWLVsagd7SyWG4AVkBaLxWKxWN4xmH63MjYpt3DmTS9zfuVucXfhrEmH196BUEApa9zCS2gPw1QDUpMmipkIQ30ZFHtELPo5zM6HODtRQ7kqPtJA/El3VQdcfLFO1Tmia1u/BBW57C3c25Wgc7Qci5ZExqklYibwEGQpIF3EUoxmKAIy0c9imhG0Wtiyq03HkzoNPblOpJ6LTFwfoduPqWYRT7w0jz2vlzFXlRBpBTvGEjx8bx+2jrjIOjW4CYVnu5ySj3dyu7LcWKyAtFgsFovF8s6g3dvm5kKn340V65pchwbpvPJOxdQqK0ZXTbu25Y3PBFKMDfQA64ezKBTyiJIMJqdaOM/hq00HSSIxSMDFal2uNvXVjqoXeHThmYtz8Ti51RMpiqMgTRLkMikKOQ5h1adbUYJ6I0IU80R7uQ05r4Uk33QtaKdxXSm7G4mfFJGTRxPdOHDSxRPPzWL/0QZazQhd2XncuT2Le3b1YKAUw08b6plRLUdNq7VY3nqsgLRYLBaLxfK2R3W2pfduOtwXdr7NUWdHX3fRL/XqDNfprGWoQ7qpumBtmkN9hee4QEcglTU8AGwYySKfzaDZ9HB2oikiMhQxKWLMCVijKqSGW71vziyeMzbOxSsX7l+KZe6YWgJE8i5KUM22quJKUMimKBVc+IEDV1Qkn38sV1qSd/qggKQsJibnOk/6ZdoXnwQN5TTXiZSNW0LoFPDygRiP76ng7FQKz21iw0CM99wzih3jeeT8moRpqTidVD9/SZbJucVyXbEC0mKxWCwWyzuCzo72hbJCH5lRjwtOnb04nfFp2KXXL4uGNUFBbfY1ckINwYwQeAmGBlwMD2aRdQPUysCZcw3MVSix9BBRLT8ZCQXdUsxd4tbsXwkXCaMyLU6SdikgeS6NxaUidIEuJSA9ue6h0YxRrbYQhuI/5TBWCkQVQF5ahLZjazt9ndPocEZWLvWh1pB0ujAxl8VTrzTw2sEGavMtZJwmdm4q4a5b+jHQFcLjjKwc+auWLlmsUYvlrcQKSIvFYrFYLO8I2N3u7HLrrj2dvJS1adGx47/UmZc5NlLAxKvd4uvNKb4TYfk7rWWscdZdjCRpoZCLlXjs6cnDSTzMzLZwbipCK87B9XNq6Qp1f1RoE34p+i4uuivEiMVO+B8E5lqPQ5Wrcp1DbsVvqQD0dmeQyWTEm4jeRoqyEpBsF8xhZ/eabcs4RivXlTVTO107scTLa1Jev4gTkz6eebmMs5MiLAMf/b0O7r9jCDu3FFDIttqx+u04uG+xvLVYAWmxWCwWi+Udh+p4S6edawnG4tj11+8ibBApFzsxYleO6WQ/ceS8OJ5P1Lp8OhRfREsNYkQEz2hn9t6xSGXrl64dLliRpk2UijEGe33kSnk0Eh/nJhuYnA1Rb3mIac1LKbxEcMo9UtGo99WgfTfURrUG7lyIVnzmQPzyucUU3V1AjwhI3/MRxx4q1URchDCWvKpoFsOpEpuoVTLyprY8QT/c0f+MYJuJ0gLm6zm89EYLBw43Ua+nyGZCbN2Ux+6tJfSWRFSqdqctsxcuFWKxvDVYAWmxWCwWi+VtB7vmRrKYl7H68Aq3ytYoh1pEimRsu9gV58UI3QgtEYwtbuU48sQfnQjKWM7FFJNKXC5aJwnjVi8+p9YWTos5MnvvDLS81oqJGtCV+qD0cdMQGS/EQE+KgV5XzWjaiF2cmarj/FyIpuxTG+m7xB2psVWttLbwam8W74pJZHFfi7REshDB91P0dvtaQDoeWpGH2UqM+WooYlJCSBA1Q6qK2JRd7XZgzrE90K9Z1oPCMCPtqoSzUwFe3l/DubM1ibeOnlITu7bksWE4QDZotzNlzdT/qFhsWRbL9ccKSIvFYrFYLG9DOrvwZtApXedLn+PwwguOGa79RvGQyD6PjTOoYYntkCIlF8Rn4spZxqni1fEt17l/e3f326VTuqYtAqXbSfnoSiX6aQvFTIzxUR+jQxlkMx6qjQSnJsqYLoeIUi6HwYlm9HOHDM4YjFtVlLXQuGVo3+c0FQHpJejryaGrKwtXxFsUuSIgQ8zOcxZWkXEi6jizqnpQ8ZK5NWlRQPIZSBGRkoZWoDnURZjuO9rEgeM11JohAr+OreN57NzSje4CZ68NJQz9cuZX2523vLXYFmexWCwWi+VtgLbCmJd57oyWRWVJdEM0xbVcWhZF7NHKSLFHf9LH9xIXmdhHPsqg2Mqgu5lHb6uIvrCInlYeXa0sSnKe1wri8mGAbOTDl3C0OHHoKy2S2mrZQlMctzwOHYpLXmd61Cva7rSY57czWkRpm5wedsnJaFw00VeKsWVDCYMDBbhJgvm5Bk5PVFFpSPfUzah60eJKo2JicDp9apUwkbadHOs7xLah/wXAVxRLvqXN9HR5aiKdRI6bLWBuPhTxKxIz9SWMCF8dqXC5XJq6ka0EYnr63UMLAY5MuNh7tCHxN6R9NrB+0MPOzSX0d7P+6m2NymG+7ZSkLevca2exXC+sgLRYLBaLxfI2QHWhFe0uuR5aqkSiiEU62dfCUa5LD4jWMF864Pk4g564gHVxF8biPmyKh7A1GcX2dAw7xG1P18vxCDYnwxiPBzEW9WMk7MNQqwd9IjKLURa5xEeGQ1YTiVsEEp+ZjL12etyHbNtOSRIKV53dtzVGzKj7IXu6zKHUfKSGr25cn0epK49WrYVzp2cxMVlHlGThuDkJKHeIjjEsiDth1SuOEZqc6jQWk9BSMpF8RHJfM5kE3SUHecme6zqo1yPMivCNExeuF4j3tkhuZ/Xi6BS05ONwXTWwV4dzXWmjBUxWM9h3tIpTJ8uIRKmWCjF2bO7C5rEs8kFT9GIk4SR//IeESo9xGhF52QxYLFeN19vb+xvtfYvFYrFYLJabCt1Z1k5rDOlEt7c8p565o0ukSy2ddL68xENGBF8hzqInLGAo6cGYM4CN/hA2BcPY5I9g3B/GmLhRb1DcAEaCAYz6Axj2+jHk9GGd04sBtxe9XglFJ4cCKCIDZJWQ9OGJMNXP++mX9PElX7qjb6yjqruv8qvtkOa1WCLjFrnQ31pG50+9q8Jz1lBfdmOpmzK6s3XctdPFe+/pxfr1PZiZc/D0i3N45tU5TJWzIrrzKrCWb9e/tIy/LVUFLe70/WImeJbyt4FNQy08clcW27b1IQiKOHMuwtMvncOhUxFqUbf4p+WUFkIt5i6PTlnbdHT6ZpKcJKEtsoHR/rbQLki7CvKYrQDHTs2jXPVF2GYlAOtIy3Mdm4nTYrk+WAFpsVgsFovlpkWLC91l1qJMCzN2xWldzKUZdKcFlJyi7GcRRBnkoyx6ky6MpH0YTwew1R/FtuwGbM6ux4aMiEYRikN+Pwa8XvSJ6/d7MOD3YpBOjoc8EZB04mcwkOteN/pdcWk3+tIudENEZZpXYjJLMSmClWKSWpF0ikcKSpaCyzgwz4vdfu4Z14kp7dLzaxOVW1VuLrDvyStExpnHWH8L7727hHt296Gnpwcnz6Z4/OkJvHa4gUpYFGGUUZZcJ+XkNabMZCWi7GowKUj8zLAcUI5p+cr3EIFTwy0bYjxyTwHj471IpF0dPl7HUy9N4ti5FM20KD45hJVizjwDeTnMvaSjiNRiEI6IQ2k7cauBoojtbZu7MdCXQS6bQxz7OHZyDmemErRiEawUuOlibhmTxXI9sQLSYrFYLBbLTQu7y+p5HOk16+U4pPMu/fYg9tCV5DHsDmBTZj3GMkMoJSXkWzn0oxcb/RFs99djhz+GrcEoNviD6He6RPjlEKSBCD5fOZF/IkR9dS4jYpSCtCBCtOTk0eUU0OOU0Od2KYvkiKQ17NH1idDsUedLKCAnnXw/puWzw8al9IK2cOkzRqho0WHOaTq3xt0cqNxKYTlEkyX00yrybg27RIh94IFebNvYKyXuxuuHGnh8zwSOT3CAa0kEpAhOCki5mbTg6iKvRJBdLe16VWqXFkDeifZwVMSS7zq6gjru3xXgYRG+g0NdqDXzePmNOTz98hTOzHJam7z49iSUtgauLL/tdJUjOsVE2htnZE3jqsTYwKaxPDaM5lEoSHv0XJw9X8PBk3X9vChDOKxfVVMLXM/asryzsQLSYrFYLBbLTYuSX/KnluMQwUFLTBD7KEV5jKQD2JYdx7bcBgw5/Si1CuhNurEhN4LN4sa9QQyJ0Otx8yIURQAkMapxE3NxDXNJHWURDRXpvFeTJuriGkkLzSQUoRCqZxk5tNGTjntWQucpKkUsdjtF9LpF9HldynLZK9tev4Rur4iim1sY3srePSc/0W/E2E71MUWEftd7i/siTdq75syapJ0x3h8tqrSw8pOyCLEa7r3FwyPvGsBgfw8mZgL88KUZvPD6HKarGUQixGiN46L9tMyqEaQddbOaLNSfJKKtwUbE811EnOwq62NSwUh3C++/rwd37cyhkM9irlqQfE9hz+uzmKllJTzzTRnXISAXElgZ9E6XioBO+U8Mpw43bWCgJ8HWDUX0dAXIugnqTQ/7T9RwfjaSds8Za2nh1YnptC2W64cVkBaLxWKxWG46lHDUO8ryqAWddPkTEY+xiMekHzuCjUpA8pnFUphDl5wfEMG4LuhFr1NA3vGko56gijom03mcjqdwMj6PY9GE2p5JpnA2nsYEXTLT3k5jMp7BjPifTcsiMKtopE0027KSIpBDCjMiKvlcJK2UvU5JD3OVtHvdLhTlHK2akrSIBFq7ONFOqpcB4UlxFE3KyUvb7vRLl1mLkzUtFBZuD61iFDiyTVsinuexcSjC++7rxu239iCTLeHgCeCJ5yaw90gV1RYnz8mIk1JLORfLaAT26tLOprQDpqTT0+c8uSuBupe+3N+cU8WdWxx88ME+bFnPYaoZnJ7K4nvPTuD1oy3U46LOt7AoIC8P01LLfnTcU57j86JqUh22qlYdWa+pZqwdHvCQD0JJJI/Dpxs4cbaCVighHFosuaTHIqtfWxaLxgpIi8VisVgsNx1GUHEZDi6RQeuRn3goxjkMJb3Y5m/AztxmrPfXIZ9kkUsDlJwcii6lnSNCLUTFrWLCmcGx5BwOxadxKDqNw9EZHE8mcDqdFPE4hXOyPSdC8lw82RaU4ngt4fVJEZVTmErmMAMRlE4F8+KqaV26/ZESgBnO8ppmUExy6BHx2Bv0oMfrQskrouBlkXH1oFYK4Ihl4doMUh4KCiUmJBIlIaWAarBiW2ioQGuZdv50rilsWBYRQm4Nt+/I4v0PrMOm8ZyInwyef6MhQuwcTk1wttq8aMdAhSVaiBm3+phq5L0yaKHOPIiAlPuSQRXre+v4wLtKeOjObvQN5NFKS3hxXx2P75F8TwVy37rEP4Ul8yn3ULaXzrFOcOF+qoNOASnvyou07biJNAwxti7ApmEfxUICL1PC+TkHB4/NYLbCmYazEoZWS8a5cgFrsVwNVkBaLBaLxWK5edD9btnoHU5EQ+udl7pqOY3hSIvH7dlxNYNqKS0oEefLdc8V4ejFIhzrOC+S73gswjE8JcJRRGM8IcJwGtPePMp+HTW/gZqnXdWroyrH1fZ+RVxZxCfF4pyIi5lkHpPxHCaTWUxGs5gK51EREcm1ICMRE/qJOke69wFyIkdKIpJ6RUD2BSV0uwVlqczQgpRI/hKKYVoyJZSUSz8j2fFSxeZ5Vfw1D61iqZQNTiRSch49uQYevLMX775vGAM9HiamUzzxYhXPvl7GfE2kvZuTMkoYeWlhRUVEp6K7rjAJ1xHBq5bUoIB04SZ1uWPzuHVjhA8/WMDODQH8TE7yncF3nz6PPa/OY7bOSX9y4l8LQI3J8PIZ51k6NctrGyMeF5xc4zImHrMUheguRNi2IYeB4Sw8P0BF6uvwiXlMzIQIEw6hpQVUwoiKNO3EYrkeWAFpsVgsFovlpoCdYg6FZN/Y2HcopDhIMh9nsS7uwdZgDLvymzHiD4hoFCESS2daOtSJm4oobGLKreB4cg4HWyeVeDyZTGEyLaOMOhpeE6EXIXZj5V+7RK0fqdaT7DjW60rGCEUYNdwQVaeJslPHXFpti8qKuDJmUtlK/PNJTQRlpJRBIAKpIAKlK82hV+TkgN+NLr8kZ0QAMK8iIiUXyrqacqKdtqTQQ1lZZpae5dfn1yImV8oqpgRkC26sZ199+N4B3HbHMHK+gwNHqvj2c2UcOp2iJfdQWf3kRmsh1nZvRREpumTD5zU5dFUNB0255Mg8+vNVPHpPDg/fE2Cw20UUdWHf0RTffnoCB04maCRcvkPyndLqTOujshW3HdFttZOFIklZ9VWeMdba9pqQPMdnIXkursMXMTs+6mPDpgJyGR9hlMHxszUcPVNHtZWRPGQlBNsJLZC0ZLejtVhWGSsgLRaLxWKxrDmW9n3VMYWFNq2oIZ/qeUH5K8QZNWx1M2dWzW/EaGaQM+pgqjWHCmpIgkSJx7OYVsNU97dO4HB0CmecGcx7dTT9CKGIwVSEoREtNHrpnr2kJ3+LEqAtXdseUunnxyIsQz8VARpJOiEqktacW8Uk5jGBWfX85PlkVolJSQ2xCBOuS8llPorIq4l3umSv5OaR97JKOkQiImOmq2ZqZXGYJ5Zf0lRpE9YF3dpDyyIOMQ6UIHPSOvJOGbdudvDwfQPYtHkAYehgz0tT+N6LFTUMNE6l7C6HgRJdv+rAFPcauGhNtU/qZsW6zUh+c2ooqJtUUPRmce8uB598tA+7NqfI+D5mKoP4/gtl/PCVeUyWc4jcAmOQOEIl/bTU1//oWJT/ms59/dwlpZ4WrUkqIhB0FLB0FI+0TPvSAOrS0FoYG/Gwc0sJ3QWuqRng/EwoYraMmTJjzElsHO4s7YttpDMxi2UVsQLSYrFYLBbLmqSz77vQF5aePTv3tAKGIiCDxMNg1I3N7gi25jdgKNuvxNbZxiQON06qoaq1TEvE3CwO1k/hYPMkTqfnMetXURexF9HaKN10CjN2+SlfzJyhfBm7nzqSDr/xo65Q0MoeZSeH0YaSp5bE13IjEZMhGhJ/VcRk2a1jzqlpa2RcRjmqohFTSHKWUQ6v1UNbu7g0iJdDzudi9K6ISCljKo5yWbZqRlJ5afFqakTVypqD+WTOEhFBdAHK6MtW8ODtRbz77kGsG+jG9GyCJ/acxTOvNzDXyEsgTp5janQVVOMSLqip5apO0o5FxMWgiG+KwJ/CeH8NH3lPP957dxF9pQbCuITXD2fx1Scn8MaxELWkiMRlvnl/aIFkvo0FcvkyqCsd4pEiUVs9Fx3XzdRWSB6zNVKc1jHYG2H7xgIGujPwfQfluoMjp1s4Nx0jTiTfDucTlvpTZZP0l5bRYlkFrIC0WCwWi8Wy9mDHt935NbvqUPrEat5S6ajz6cJilMOWZAQ7+MxjblBZ5041J3CgcQxHktM4585gMp3D6XASp6LzIiTnUAuaiAI+YyjRUcQlWjwqkSgnzb7eMy9JX9Jml167hbOSG21vY3y6z84z8lIZNuIyRt3lxD0NzIqQnBUhyeckG3xKUq4H0vEviHjJi5DMu1lkvSyNqKi3mmikIRJPi1wtHpmGTlu7G0Fn+p1uEX3kS5YdBOksxnpreOT+Xtx1+yBymTyOHG/iO09PYN/xFK2kBMelVY3htIDUJV0lVMQ6j/p90al3Cjo1Ky+HEbsqv/2ZebznDh8/8t5ebBx14XsOJue78Z09DTzxwhzOlwO5eznxzhYRt52gI9WYe3bBObYQ2iq59AaHrMpFaYcO/0kgcbgSqyv3XNcDL0mepf0gqSHrN7FxfQFjowXkMxGiNItTUw6Ona6j3vAkal2HrLtVrT+LpQMrIC0Wi8VisawZFvrZ7U5we3fhPAWishjKxUziYyjpwU5/E7YUNkjnOoOzrSnsaxzFofgkznuzmPPqItiqSrTVXBGOngg2V7rv7NMnjpp8R1sb5V163osvpqlTVfvyps+Z823hqISHPudJfMxTIcmoCX2KYU5t83FGBImIBfFLIcl8cCKfedQwn1RQTeoiBCKREx6yrrZG5kRE+p6n1p2sxw31rGXisOQ6LYoy7ml3o1AFv9BdAHNKUR6ioIavtvDouwaweUu/WsfwudfK+P7zUzg7E4gI4zIY9E/RxGf4VhmJkPer/dfh9Lua7IcCVl6eCLVcOoXd6xv45CN9uPfWPAo5uXfpAF464OBL35vEwdOJ3Ju8Fp28K3JvGNNCzO2NYXHXiEf9rKNqRWkLvrTRnFdB0acro+DXEDgNpHGoLOpqaKy0kyQMMTTgY8fmInoKIbygiPNzWRw4MofZMv+lQoslS8GWQmexrD5WQFosFovFYlkzmI429ZESS21RZ65QXvA4E/voj0vY7AxjW24cfdkezMdVHGqcVOJxMphH028h9GIRbVzqQ7r5SjXKn2zYdeeC/q4ISM76qVMw7/pFdEectMOq86rbr/KorKE8EvEYSJ64BuVA0oWRtB/r00G1HuVA0o3ulE87ZsBVOkI3QhgkaLgtVNOaCMgaalFdBEqEQARkwcmKzwCe6yrRWI3ryunnNNs5UNnTebkRmJTbNdF25hzfKZBYr6mIoxrWlSp46LYAD9zZh8GhbkzMAt/dM4Xn94qAbnDtx6yUiXXdXoKCUawCJk/6Td9Lc047pqatgalqD00EyTTGe2v46HsyeP8DRQx2R3Kvizg1M4Cv/XAWP3ilgplqtj10Vf7kHjFu01J0zIswjfZdEz8UnL6IQlotpR2mDWTSOXQFs1jfW8b2kQZ2rG9h41CCvlIsIUKEkcQtSXDN0KgVYrAH2LWF+QrhB3lMlQt4ff8Uzk+HiFJOWMS6J4s5slhWEysgLRaLxWKxrBlM11sLJKI73nTK/iYXKPxKURbjItC2i3gcLgyqdRdPNM7iSPMUJrwZNIJQxbEgEMWpYadKmzj6PF+OiAfxqAx6KhUthLQvw+I5RrogmSQySgdC8dgV5TGMPoz7I9gSrMdmfz02+MMY9gawzu9Dv9eNvKNFZCxvizO5hqiJcKkmDSRJKkIziwItkGoCnQR1uTYf1dBwOENspwjSr7eWhZoQZ2pi8VjDPQ7PFEdRjHlsWtfAI/f14rZtPcgX8jh0OsbXfzCJAyekDpK8uj8pRDApEWniuXY6a8jcY5Nb/W8EEXLqAp8ddJSYG8jO4X13e/jE+/uwZYO0G89DubUOT7wUq2cfj593pLXlVXj1Lw0lIIV221hIRjApLVqMKe5YL7Hs1aQ9zGG4q4o7tvqSZgEP31XAQ3eUcOct3di2uQcD/T3SJlxUq02EodRP2kJ/V4rdWwsY7YuQyRYxWyvi1TcmcfJcFa0ko9bRTNVsxfr+WCyrjRWQFovFYrFY1h7S12Z3W+8sHMgun6fz0RcWsMUTkVZaj2w2q9ZfPFI/hdPJecz5NRFakQhNrr3IZ/C0WGxLxoXXYqRatOgOt0Zvded70Wd7TwkFXhX/TCP20BcXsVnk445gHNvz49iQGcVQMICBoBd9fg8GxQ353O9GhjN9ilAMk4hPQKLpxCIOQ7UcSByKNIkz6AlKyHsZpVGaaYhyUkcZIiJohVTpMie6FDcCk+4F9ahg3dCipyeCcdBAzpvH7i0u3v/gCDauL6HZBF7eX8MTL1RxeopDe2l9ZBwUY6sreC7MnewpYUXhp4eQqjuuzsl9lHru9mfxrl2xmnX19h0Z5DIpGmERL+4H/u7bk3jpgIj9kGsuUiDzJlA8mjzrO6KG7aqtbk9cRkbDdNkeuZRLBX25aWwfbeGDD5TwiQ8M41Gpn9t29WHjWDc2rC9i43iXiMhRdJe6UKvUMTdbRl2EZFdRBOS2AjaOAPmubsw3urD34DQOnyxLXtlmuCYl029bcy2WVYYt2WKxWCwWi2Vt0e736g4wbY+6M+4lLjIi2LrcIgYzfSgEBVTTBs6FkzifzKDqNqRzL36lX8+lMmiwUzJBOvGMibGoVfLaIlCd4QQmal9fV1uJQ7mFc1oa8Ei/GL+HrIi9/qgLW5z1uDO3A7fnt2LMW4eSkxORmKARt0QoxsikAQZSPVvs7fltuE3cBncYRU4eI2Kr6aco+0219MfZaArT0RzCNEZexEC/iM8+rws58cdJfnQ+TI5vDLruFiSS3peNmV2Uooz7Dloo5SNsGC1iaLgbfq6Ac9MtHDg6g5n5FHrpCvqXGBnNdULXmsg6NXRUO86ASjsg24Mj4tHnOpW9XKeyW8RjHnnRYq24iFNTeXz3mUm8+EYZtWYerghe3YFmLbC8bGE8wyG74lI6tj06lku3JbZjN43UM5a9mXncsSnEj3+kD5//9Ba8+12j6BvIodwCTk6FOHm+gkZzDsP9TTxyXz8+/shG7N4oGQoTzM3HmJyuyXX5XEid5XIu+vryyGVZgTHn4xGYn+tYoZZ3NLr9WywWi8Visawh2PVVfW6BM6Wys06rTiACkpPUcDhoX9Ct1g2cSyo4F09j1imj5XEpBdp5OCSx3c1vd+A5xYiWorrr38mClUjCKiGkc7DgeKzCta9TjPiJj56ohC3uetwWbMF2bwPWoVdNpjPTnMXR+knsrR7C3sohHK6cwPn6NNIwxqAIyS3+emwO1mPQ6UWW1jrJdOgnqAZNnMcczoYzKMcNScVDt4jlXq+EvKMFJJ3KUzsvNwQKRSMWjZPMcMIX5knXs156YqQ/wo5NBfR050Xe5HDqfCQCsiwCUk/6ooKKWFYWSF3L4q4P7bvYfjeij/bSCnoyc7j3Fh/3357DYL+ISr+AyXIXnnyhiqdermCqkkfiFKXoHjPM6GTDMnuyFXGXZsUFEp+2P/LFrjafrVQzqSJC4MyjO5jGrRsTfPLRAXzkfePYMN6LSj3Biy9P4gtfOoL//WcH8Ed/egDf+vohnDx4DH25Kh64oxf339aLdX0earUU50WEN5qSB/nLBAl6u7Mo5D35PDBTOl8Wy/XCCkiLxWKxWCxrEN39Zm9YW290dz+TeCilOSUeaX3kMNDpcA7TyTxqbkM9U0jrD2dXZRxquQ8KGlfi4Sm1mCKdumzeFmkLAybJePiiSKKVyizUwJx4qY98nFXPPO7yx7FVBGE3iko4zToVHI1P4dXmAbwc7sOL4Rt4obEXr9UO4nRjAlEYojvNY8Trx4DThZwIUcoY/rW8WMLXcT6ew3xcU2tBclbWbhEzWRGQnhrlqfNFdG7fVIrrhkmHEkylLSdMHoyY1II/lEqviTALsXHIwfaNeZTyAcpV4MipJo6eaaLaEv+0VKpa49BcCsjrBfOk7yDv5KL05d1sIeuWsXNjhPfe14sNox68wEUj7sUrByM8vmcWp6ay0rZK0pZcJZIXS8sKkFjYyHhflFPV0o5dT5rDLrebtuROzmPjYBUfec8APvDwDnT1dOHowTl85Zun8EdfPIM/+3oVX/g+8Pffd/C3X2/hiacnMDU9hf7uGLds68LGsSyNkJieC9FoyT2gdVsJyACFnAdf2rlOW5d44cBiWUWsgLRYLBaLxbKm0VJFuuKJi2wSoEuEWskrwvM8NTvpVHMOFRErfD6QNi2tNykeRcMoschetFKPyjKjOtaCkmHtDvbiOXFyoK7pI+UYF9dz1MMdXTVpTi9KGPfXYZM3hD6nqJbaOJtO43B0CgeiEzjknsSRzBlxp3HAP4m9yVEcbpxCuVVFIHF0u3lxWbVsvZsmcEUsctbVutfiapXqucdWEooEcVH0csi7mbZdVWd6USrcGLSI1PdG1xPFIOtXjkUsIZ5HX6GJHRt8jI1KKeV+nT7XwL6jNcxUA/GelWC6DHxXu+rmrSY6fpVTjmu+4JlFyS3XW0wq6CuGeNcdOdy+K4Ni0RXhXsCR08D3npvCK4cjzDWLIjs9yXNnHCwt126M5EoTXloT15BzkbqmfXgiODlpDmuniWImxD27M3jgviEUSyUcOFDGF752HH/2D+fw3ZezODw3gpl0FHNJDw6c9bHn1TJOnpyWOOsYWhdgZFhbGecrIiA5hDWOkfNT9PVkURQB6an86dwpFnYsltXDCkiLxWKxWCxrFt3/lXd2wEV0UW51uSUU/DwiL8FcXMF8VFETzdDaqPWCvIka0d18Cj7pdMfiIhFfsRwrZclr8uKQy3YQw+Iu90QQKe/aksljTppTpPXR7cVYdgA9ImYT6bifc6fxRusoXqsfxrH0HCaDMqb9MmYzFcxmqzjvzWMyFWmY1hkbMqIEsiKqPMk3n5Vj35+ZCZ0YNaeJuoiRSMpFwciJd3JOVg3NJSrP7fcbga4Zja4f1pN0K9WENCxPA1m3jq0bgN3bRCj3BCKGXRw7U8XhUw3M17iUhR4+uiDUr1txmIIWe+qem/Ro9RTRx+Grm8cS3H1rFv19/BdEBjOVIp56eRbPvjaHmXoesYh9ilsuq6FErrQv3XJCBFLO/lIT4+tiDHS3kPFbciVWlkrKS52WSEk3RF9Xglu2d2PdSC9OnQ3xjSfO4pvPVHFookfa8hjqznqE7hBa7jAqcQnnyy7OTjfRbEUiOLPo6eUMq0C5mqDWiBFFEXxpLz1dIiALbEuqpUp6Fsv1wwpIi8VisVgsaxjd5acsoQUyl2bR7ZWkk85ufw2TEZ8VrKFFMaB8U8h0CD456ccu8nGAooQtUIKmgcgwPsem/akdbtqYXRWX2rJLrh2fP8yFHvqTItYH/RjM9MANHExhTq0/uS8+juPpBGa8GhpehEhUIZfrUJZRV8oggpFbOYtQxCFdLC+mop5vFGESe7EIiBANzrqa0polZXB85FxOoxOIV10w/XprWUhPdpgLOsIste+S6lx6aRNd2Qg7txaxdUsfcoGP+XKEwyfmceq8lC3Mig7TYlPDUOJU2VaBzswpzAmVO5WqmjhHWtFgT4T7bi9h27gI+kDqPurCoVMunnl1FiemaDcsSFtiXvXwV91qGIO4pIG8V8GdOwv49GOb8NDdfeguUZhGCyXT+RApKcIzlwP6+0tIogz2vDyD779YxonpImppn4jUgrQNPbtrLHUTipCtxz5qrRSRROJnpO3mRUBKGapVoF5PEYqwTJJQDV+lgIQTStraCkkW8mCxrCJWQFosFovFYlmjSC9YesC0H3HgZpB4ao3Ekl+A67oopxXMpGW1hiLloxZ82s7EoaAM7IuKLEgnfMAtYizXj9FsH3o8LunPzrb4kE59pwwze9yqK+a6sj5B8uCgFGcw5HRh2O9BzgtQdmo4IaLxcHwKp50plIOGmhCHk60EaQYZ8V+IsuiLu9TkP4WAi9AnqIjwLUe1BZHoUqRIIolaG7KFppSL61vyZCACMu+JgHAySmgyP/qlJbAqzFtNu7K4URZIlQfeqQR+2sJQb4wdm3owMDwoIifAqTMVHDw2i9mK3KP20h0c9Kr/TPhrhFG8KRpzkqn5zJ0SWU5ak/psYOuYJwKwB/09PJ/BZLmAZ/eWsf9kSwRcAamIOk7yQ/HIsimrNfOs3pooZuu4e1cJn/7QZjz64Hqs6w/gqodVmbYuGcUj6ymWMjeSLhyfzOK1IzFOzeTQSAuSNRe+5MVL5+Em4rh16vD8SISjB0faWShtL05EWMYOqjWg1gAiNVo2QTbjIpelAKeg1O1JwTxaLKuMFZAWi8VisVjWNBSQnBQnk/ooIoeSCEBPOuLzcVXNwNrk+onSQVciRvrLlI5GVlFAdot4GROxty0/hI35AfQ7BTUZDz3rcBd2srU1zTh5tcWjJydyEq43zWGYs8B6JXX9POZxPDmPs+ks5t06mp7kRzw7FAXyysQBusMCxpx+jAUDyPtZNNHCTDSPspQhVDlmKSk1OPgxQksEWD1uyDZU6dMCySU98m5W9ikUJIh+WwMYccZ8UZi1UMqIeNwQYMuo5DlXwHzdx/6jszhypopayGGYXCeSISm01a5w9eVhFMpJFJ2OGHGaShtCyvtOK2ksIreKgUKIu3eUsGk0QCCXGmEe+49F2PPKDE5PQuo/q+Kgf2191JGqFiEJcFmO7nyK4Z4Q67qrGOqL0VWkpZn+dEtUYcU7lyyZq2fxwoEE33m2jNePx5hrZtQTlHAoTikgRTSmDWScmrSTBvpLDoYGivA9D7NzVcyWW5LHFPUWUBcBmUp7zPgeciIgi/lA0mXe2GYlaSa6WLkWy6phBaTFYrFYLJY1BzvBWtiJrJLesFr/MQ1Q9LIoiKM4qIb19vDVCHz+Uc/+qTvMqoMvh570+Usi4IacIka9LgyJBO1OMgioBZQ/hllCOxptfdTQ6peRPBQlrgG3hEERpCU3z5QxkczidDyNOREknMgncpl3EUaiHwI+Lxll1dIdm4JhjOYG4LkOZkU8TnKpjrSm8k5bHBNjuFjEREtkZT0RMSoiMhFR5olopHjMubSdakvljWAhWVU/uqr0WcpfIeVUMw30FSLs3pjHhnVZBJLvmTkHbxyex5nJCE0RPXoeVL70kFDtlrkXl2MhQyYXFzpN+4aqbq8ndSfCXoRfTu7ernEH99+aw8g6H65XwEwlh9cOVXHsjOQzLojfDFy5ka4TSXnl7kg0/EcFUbJUouag0qzbkpirquyeG0lK6t8Z4tplk8qK0xym5kv41tPz+OK3jmP/8Qoasa4HilMOe+U/NXjGTZvozkTYNJzH2Gi/moDo7MQ8JqbraMUpWhJlrSHtjJ8N30FW9HipECCX9VXbUB8FFZfFsvpYAWmxWCwWi2XtwU5w+0XxxrUVs44nAipAIFuKqkbK5wRDRO1nDHUwvvi8mobTtGQ59DUR8RmL+BQBmBNRR8sk136kSFzwLGgZRKd64Pq6/PmpCLgoQK+IimG/HwMiIEWGoimd/oloDufiGcyjhrrTHnYq8WfEf3ergLF4ADsyG7AxOyoCOE9fOBudlzCTKMsR547VqS6mSRHZiJpoJJSSIrekDjiJTl4tYk+xafJ5Y9A5pdMySb3khCv3xEtbWNeTqNlXB3pELDYdnDkT4tjpJsp1DiHNSNYZri2ulGvHyEhWgCn9SrzrmOmb9SZtIxFBKOK8Jxfitq1ZbBtLpV010YpyOHwywqv7ZzBdlvw5eSU2Ke4cNSRacsosSt75HKu2uabKcpnxZJ9WRDppm6ZMunbYiikls6hKezhy2sGBEy0RqxSA5p8BDM99CkBpn9I2R/tT7NxcQndfSdqCh9Nnazh3XlqDtC0pAhpNaTmxToszv2Z8aad8hFIqhS+L5XphBaTFYrFYLJY1gxZwi7BzzS48hWDgcrieLx1t6S4nsVoDMqL8Up17IxN0DGbLPbXYeyTHIiQDyj7ppHM5DN1vl652u6+t/Xd2vLmfKEGnJs9JMuhxS+jP9KLgFeSSh1A68I04altBJR8SmZ96IlRz6G2VMBYOYLe/ETty4+gOSup5zbPhFE6HE5gWydn0WhI/hzm28ytpscwUAHw2shmHaikP5jEreeeakGoCoHZubygqn3yT3FPkyxEnz8n7EcZHPWwYlTorOJiZT3DwWAXnpni/uJxHoMqoRZm5d206q/9itIt+ZTVA8chWxL0WMurZRwd37Cyit0jBn6BcK+KNI3UcOj6PSl28K0EnAUQQarHLA52qEoZynrPnZgMHWVFvfC5XX5VCqHIsHAlqsK44X+LNSiayesIcCaNikzpMObxW9p00RtZLsG2Di51bulDIZDA1leCoiNupGVpKi5KvQM3MGrUFpBqSKyLWc5mabocrqUqL5WqwAtJisVgsFsuag91fNSxV9mll4jOQWTeQznpG9V4oqloirmLVuSemY687N9wqSUaxKVsO+4tiRzrZWeSCvIjRQPujF9leQNuCQ9GgXiJ0eETLZzFbRCbI0SaFiAJCxGi3U0BPXER3mENPK4/BRhdGm33Ykozg1swW3JLfjMFMHxpuhFPxFA43TuNMNIWq20DcnmyFAkztqMKIoJBdiuNGysl09KQoWRENXMbES/22/xuMyWu7xvk8IIXZ6ECK27aVsG6QQtHBuekI+0RATs6LtElz4pPllLuiJqZhJMZdHlVL4nXlpTdxM9VARC4n+Cmjv9TCvbeVcMvWIgqlLGK3B0fOenh5fxXT8yLmnIwKQcnHBHWe6aSsynGfwi1VzyAGAS2H7dK0i6LzyHee51YLUldEnhF7LAv/wcH4aBHn86MeKhjuD3HH9jw2b+pHEmdx6GgNh08CtbAfmdw6iSSLZghljRQlCj9wkct48CVOilqTIjFbi2W14CfeYrFYLBaLZU3BPrgRblpAOsi4vnTUA+m/p2jGLYQiINlbZ8dd95KlE85dOnWepxyEEkFDOvuRxEEBmfW1gDRDXZU/BQPyj51vWnYWZWQkgieRXlOccTDv1DEVzaOKBjIeJ+gZxHZnFJujYWxpDmN7OIpbsAG3Z7dgR2ED+jM9aHmxmqH1YHgSx1oTmE3riFgwSYnrW+qcaCFGmC6H5tIKGYnQYiZpN/VFPHrKkqYkzVtOWxuptHX6rC1az2j1qss9amHjcBa7tg2gp7uIZsvByXNNHD3TQKXByXMyEiaR+yP3jlsVx5VxZWGMb123XPA/55SxbSzBXbf0oL+Pz9NmMDOfx4tv1LH3SAPzDVoJRRAyhLSjditZcBR8clrBthMEIiD9toCU8xzmaq5rTFi2ST7PyrU9QznDOuNpSUG2rohHP51DV2Yed+50cceubpS685guR3hl/ySOnY1QiwqIkUEiwjGMXEQxxa5IY99FXgRkhkNr5V4wNcLo1ZBbZtRiWSWsgLRYLBaLxbIG0eKN3V4ONw1ENHExfQo2GmxafDZQRAifHySUYOzoq5fqvEtY6cXTL1fkayUxYooBEQaBE8BPRISJP3b0dUqyFb8qqMB4OBrQF8cJNZmPlhNhOp7HscYZHK6fxNlwWvwnWO8P4I7sNtyb3YV7gp24N7MDd+e3YVt+BKUgh4rbwLFkAnvD4zgYn8GUU0VL9cA8uJIPWlfVixmQlLQIEdkqOxyqG/GBNznPyXMopFU5ld8biORRSTLZqoqjTTapohC0MD6UxfqRbmQzBUzPxjh4Yh5np0M0IxFmKve8D/reanS5tVsZF/dp4mHutGhkPdNKx6U43KSCwe4W7r6lC1vHc8jlMlK/PThyGnj+jQpOT3vSVnKSQw4nVYVTda0c9xljW4ypY9n1KSBFvNEamcj90gpS/lS9XOi0lVH80PpKoSf5giNpMW9pBUVvDttGY7z77n5s2tSNtFnFiaMnsG//cUzPVRBLuwdq0uoiEZDSNuL2EGtprFxrM+d78CUpj+mIT76pUrBRWSyrhPr6slgsFovFYllrmC6v256BNetwRs9AOs/aAtlMREDSSimdZHbqjYTUUBTymp7VlJY8dqLZzedThHyO0OXwP9XXp9DUMlKlKRHSKsiJc7JqFtUM8mlGBGiM8+EsjocTOBKdwdHmGUw355S/kUw/thc24pbiZmwrjGJdtkutBTiFOewPT+Ll+mHsa53AuXQODVcEhCtikLngcFTVHWO+mXvKEmZBtnJKaRHRj53lWnQ3DpVbyYJD8SsiyJMDzw0xPJBi84YApd6c1HsBZ861cOjYDGbLHJBLUcbOpx76qUuky63d4uZyXLr0jIQpcLIlilZPibkkpfiqY2wwxm3bixjsYd1nMFsr4qV98yJ0ayJyCxKcAlLXv86Ovi/c13dHtsaiJ+X2RbFxCKm6FlMc6rKZEJ1OXxG/FLQqj6bNthA4VQz1RHjPXVncvTuHUreDSmUKE2cOSVudxchAC8P9tFDOIOO0kMR8NjaSuER8ioDkc5hZEZGc5VdF2caKR8tqYwWkxWKxWCyWNQc772YGVC/xpJufQZZLWDieGk7aiJtqrUQuyM9OfGcXmeJLd9Y5SDIFl9rgMFA+L8krnEQn4/B5OD0UlHAI5mIsWkAGSYAuERQjcT9GnH61DiPnWJ31apjwyzgencPh+imcaU2ikjaUKPQzAUJPhGY8g8Otk9jbPILXmodxODotYrKMpsvlIJgCC8i0+LYgXQW5wuvKcZ8CQ3fXlC/WyYLfG4xkQ9cf8xipiV82rs9g28Y8ijkPrSiP42cjHD1ZRrVBzxzm2e56qiIwLF0H11A0I9vouJ9QOMp9ThEoa27K4auZGFvGfTXJTy6TIk4yOHkuxcv7ZjExzRU4+Ywt8ygx0FIosejYtDOoY7kXTM3zHLX+Io9pOVaCTW6yfhmBaMrJkBK/tC+KbzqmxWU7cn6IXZscPHhHFiO9VbjhNPxkDusHQnzggQI++1gXPvm+DN5zR4xdGxK1VIqHmmRR2p7k3M+ImBchq5Nq5/Ua6tNiuRjtT7HFYrFYLBbL2oMdcD73RwFJ0cfOOK2JnFxGz8BKUUWP0lOWreq7y6ESoO1tLCKTS2twOCivuyJCacn0ZcvuvfbJ59E4VJT73GgB2ev2YFN2FJsLY+jP9sARpdDwIpSDJibcORxqncJr9SPY2ziKQ82TOCzujeYxvNI4hJfEvSYC8lh8DnNuTa0PyfJoSynhBD0sg+SL6escqyuq5JIHWkq5BiRP85lQ5V9ei4LzBqAyryWV2lI0xQ0UghCbx7owtr4LGc/F1GyKQyfrODfN51VFrEt9K22vss6dRTvkhWW/chbysnBE4aedHi7alHqsYmQwxM4teQwOZOD5vgjbAPuO1nDsbIhGJO3L1XmkRc+0CWXJbsd8IXJd2p2rBGT7noo341c/K6mtjLrLTWfKS/86jMvhqyICuwsJdm7twfj6PDKBtIkwRD7r4bZbBvDRD4zj8x/fiJ/79Cb8458Yw099egD33FpUdZ42ynDilsqHNBckknc9AdVyebZYrh0rIC0Wi8Visaw5TOeXz57x+UcuX0ELJC1YLRGQSj5y+Kry19lRln1lbZKNKAGOUo3aQ1hpheTjhBw66nMWVgoa8actRKQzLun2S/hCkMVAsRfrSn0o5oqq/8/0ud5jxauLiJzFgYhDVEUw1vaLO4CXGwfV846H07M4K9fnvSqabgsJLVoSvZY5knc1/JaiUPK70OHX6fN5SGUF5cRBympHGROrFwWkEsw3Aim/qi2pG8o05tlBU/Jax3B/iq0b8ugdyKvJXY6cqGHfsRoqDS5XkVX3TqEjkJBGVJFrLQ+loo6Li/57qCPjVFDwqygGZWk7s8i5FWwccbFVWUjp38epiZayPp6doQ2V1koiwlOEo5a3WpoSc3e04z2T+yBwCK9P4Umf6qKORbU/iYXpJCpuLtLIPOoYtX2S8XOe4BjFgovBdUPIdW+QNjaESjiERroOideLjLS9rlIO63pz2LFpBA/etwl33DaGbjnnNJsiIEWEUkAyapUvnQeTd4tlNTGfWovFYrFYLJY1A/URO9icwEYJSEcEpDj2zTkhjl53sd1Rb3eWL0T1pKVbnirrY8hXEiFNUngcwupl1XBY6eW3/S527FWM0gmPRYg0RShWkyrmoyqqcV2JUCUe5JV4CZpBiNmghrP+DI67EzjqnMMpdxrn/TLKfhNNT4Suq61Yi5Kr/VKiUXf1TUnodG70rLM5L6O2tISFiZShY+KgG4JkUVl5aV2TeqRYoWWvu6Ate1s3FJDPBag0Xew7Wl2w7HH4qiqdLmi7vHpr9q+FhVqTDdd5dJN59BcauG1bDnftzGG4u4m+XIgd490YHy4iELHVaHk4fq6FAycbmK36iKWd8T4pS7Q4xrjwrKNcMfeMF9hsVL7lmI8c8p8NamKjtnbTvtv/JGB82vdC+bUPnudSJpKWiNByNcXB4y28etDFCwdyePaNAE+9kuLJF+p48rl5PPnsNL7/7Hk89cJ5vLx3Vq2rGUOEubQRhqeI5WyszI9Oj04dWCyrihWQFovFYrFY1haqk60H+HGGUk5Sk3MD6fT76hmzRtJCkwJSdcDZ2ZcA7Z657jYvdprZ4VfLYYi/mIuuyx+FaE4EpJpIp/1iapyp03S42b0PRUDOxhUcq57F4bmTmKrPKUsmNYVHwSDeE0/EbNBCLdvAfKaGOXGVQISjHyOicKTAkPg4fYyyUFE0KreYV51fnS6hEOHMs3kpc0EJSG0pbYp4bIhTS4qosusyL26vPzqXxrLGVRVDuGlVrat4y5ZujI50wZeKmZmJsf94E+dmfclvQcJwIhvmtH2/BF12nXvWx8owdcVaXbxf3FJEqStpC1m3iY3DPj7x/h34zGNbcNt4DrtGgdu2FtDXnZE0A7Uu5b7jFZyaYpvKSh7YEjjclaKusxWZPLJV8LVwRu2xPSgn5dJNkSGlhpyGtJMysn5F2ltVUqzLMZfvYBysQ24pHiWQ3Oe5WoAfvDiFP/niEfyfL5zEH//9afzJl07hT798Bn/6D+K+fAp//uWT+PO/P4Y//dsj+MYTJ3BuWlp2poDU4xqQ0rY5C6soSF2zJocWy+rCT57FYrFYLBbLmkPN8JnoJTw48U0gQorDQJsiEFoiXGiJYweZ/W+FbLVIEdpikF10DnWlrSZOpFMfO2pBflo0A0pISUNLVf1SYWQjpxGJ6quIVD0dzeB0OI35uKriYsza6RAUC0whEsHJ4bKc9ZXCgMMTOc8nBTCHpOpOvXb6pdPTTkPxSL9cZoR5zEleM462jNViEapcvkSVXISYFNwIhbcOk1c9lyrkXgRpHaN9CTavD1DqzqFRi3H4yCwOn2yg2iqKVy0glchq51fH0pH3yxVjsYoEHnQ6jRZvjCgWEZtgsNvB7dsKuGd7IAIyxf27PGzfECCfy8l9KuHo2RCvHZrBTF3ulJdr54/CT8dnYIyqTejDBRbqXglLbW1UZ6W9UoT6almOGWxbn4pwzWKopyn3stYOx8RkT8KqyYCdrLTpLhw95+EHL9XxxItNPPV6jKffSPHUG8APX3fw1F4XT4t75nVgj7jXDoeYKkvLkzbC+Lg0SiCZV/+sYIYtlusEv/8sFovFYrFY1gTsihN2fynQOFMqhV7GDdSQ06htgTTPQGq06DIoYaaO1eBANXlNSBGZhKL1EmQkTopIxsvnDNnZ1qF12nxnzJyDs+4mqAQhqr6k6So7pvLBOVa008NsPQmgtmqf5y50WkAS8dBOR5eS5/WLKDkr4X0RzjnJYU6EM0UoJWMtqaOaNJVFVaJTYZXqecuh8GHatEE20FeMsG08wMigiPzAx+RcitcPz+L0pIj9OCc55/N/4l/EnRZP5i6bujD1cQne5EWfYHy6BvSemm1VDUFNpc2EyDuz6PEnsG2kgbt3ZTDUz3z7qDQLeONoDftPVFBuSjhXzxC7WJs6PhP70lzynxbGqdI40i7UPw6YvnSv4whBUsOoiMaPvGcMn//Ebbj7lhJK2bqEoT/KPAlLASlbLnEiuZV23Ys61qGaDitXc0bRUG69uA3K1TGIRpoRv3y+l8OIJT3JJoWvmhlW7g1zvVgWi2V1sQLSYrFYLBbLmsLIC3bOlTVOCciMdJA9tRYjZ2BtchgnPUg3Wb3Y+W+LqYV36chTAMSyG7mcSIfDP0O1SoMvb3roqu5sa3mguv/tPXbqUyXcQk7CQ8ui7FOcUJYa/+xI+bSQMo+cLVbtU/bS6qjFKeE7s6u2C07LEzqzVh/zFCQicBNfW0lpXZJyMf1q2hDx0FTCmf4Z2rzeOnS5KWmRNuE7IUb7UzV8dbC/iDQJMDENtabibFW88rlVVUu6rG3ly5329krR6Wtn7oOGKTAtlZLUmWhZuSsVNYnO1vURNm9wkc+naCYZEbdQz2hOzklJRIzRJ62kas1IFUfnapW6hnXOZV8lySM9MFk8CfLG4c1yyvF8RGEEP4mxeSiLB27rw/sfGMOdO7rRV5JY1QyvrBMdI9NgWrG0l1jaUIKs1G5WxCG3GWnn4qRV8V8fyvG8tHf1rwwl5OkWolPoz0LHCYtlFbEC0mKxWCwWy9pC9Xt1B1jNRMrhqyKkONtlLMKpyclkEOl+u/Hb7iub/rQ+oQVAIr0dTmTDCXGUBHNaapip8ktBo8Sbik11jFTnSA75TFvbriWO3XVutb9FoalFi1nTb8GiqYTSoqM/okTkBU6utNNnECkxMiIeC8ih6BXUZD+JZLQm4nEuKqMm+VcCckEg6HhN/q8fWqgyq6o+KMTTKgp+C5tHXdyytQe9Pd2oVB0cOtnE8XMRGqHUJK1jgiqiYHKr0eW+chhG2+30luj8GWHG6slkHHhyrwvZFtaPpOjvEVEXuKiFWew9Mo9DJxpoxSW4Xl6FS0T806ZKayAFWiKOz0Wy/k38eo+ObYv+pWUkKaIoFr9yRlSrG1DsSbsVMdmdd9CVaWGgO8XIQICSHCtLoVyn401nfIu0W5bExTbnSjs1TrdB7VSrk4C6duld1yVftMLSWSzXC9PuLBaLxWKxWG48pjfNPrS8OGyVazZyOQta9TiJTivh8FXpSLOTLf7VMEDxr7vMnd1x7utjCsiq08BUOo/z8TTmknm00paKQytOSU2lKZ0j2bKDZIan+rLlMFK1UIP4ZToUe3x2bdFpkagl5pvd5WB8jJfCM5uK0HAK6ApKyPo5EcspylEd83EZDRGSqWSQYnpRzrw1qHKouqJkbkm91LCuO8KuzVmMDhfg+VmcPFvDq/tnMDlH8cXZQZlD5vda89kZnjVF4ShCWu3TEYoz1grbjQhIEYueL3IwiNDVBWQz0nZaCSZmErx6YAanzstxXBDfGSlP+58NdBKHsm3KVt+7RWcsyvq++iKMRZDWIlRrMSJkpbHk5P5IbD7/2eFgeqaOyak6miKmHS8r+dNDV1WW5br+BwZjZp1KrI7kwIlkP1Ti10NT2iC3cix1ro7F0U7pS1A6tlsdHyPW6MOOExbLKmIFpMVisVgsljWHkgHSOedgUJ/PAUrHm52WJGmv6cgufkcvRj1JZqwustFdf9P9F7kjHfNpVHE0nMC++gkca5xDOamLWFCeFTpNvrcFpOwoO5GyLOp1/nTHvBOdgkqtLTgW9jtd25/2q+NYcHKajnmRbCIvQqTHL6HkF+C6IheSlgjIKmppHZEbqcxxyK6O73qxmN83Ow7eDJEVgbNx2MPOLd3oKmXQCoEjJ+ew99AcpssiwlSdLRV6dNdCZxxSX+r+LdYuYVqOKP9sQVqPR0t1C26QiJAMECUFnDyX4MDxEDPVImL0SrMJkHKJFzQkdEOia0pckWxp7TNp6bahMaXRFsip2ZYattuMulFrBKg3OJTVRywC+qSI1Odem8WeFyZw5HhDrYnJZpqKSEzVP0Hkj05iY12pgbOSrifpu8rxHMWlGuQqwjESJ+VJubrkwiBa5RRsa9JwF7JqsVwHOr56LRaLxWKxWG4wpr8uULxRNgbiuDQErX+UInwOkrOQGgvLojhZ7ExrXciON7cOQjfFtFvH0ei8CMiTOBFOouY0lWjj84T0w9eb4TklJ9v7bVT8Og291ecWMFkybgkLYdjhl+ssA0WwK3qrlObQH3Sj4OXEQ4qqCN25kNbHFhIphyov86wDXid0xAv5FFhSimGecETElLIxtm7oxqbxdchms5grN0UkzeHMZIhmnBVPevZYJe6VY5zXmuHOHJktY1W1ovbiJIYj9ZTPS5txm1JVIgxVvrtQqRex70gdJyZEKiYlEbmu1HkFGUyhKyMuO42cNydtrioiTYRkKoK9HbcWZbLPSXp4Rg1x9XF+JhVBGuHgMdkermBmui7xZtRMr+crBXzr6XP4/b/Yg28+eRwT4jdWGdUCMuFwZB4qZE/ipljU7UqXdfHFI2nT4oc1y7UsA09/LnglkYijSD4ZbBdtVJYtllXGCkiLxWKxWCxrBnbVVWdZOsW0+HBoIYexcsgmRYASkPJS3W76kR6y7iQbCbHoVCdcicNEDXmtiZiYcSs475Yx59bQcml1WuzA0ydjuzAWOSP54GspbeOXTkN12i/hKFTbTg463CJMJxP76EmL6Hd7kHNyCEUszyU1zCRVNFTJaYUVJ+npiXforhOqcJKYcu3apYqSncCJMNoXY/t4Hn3reiRfGZw4XcXhk5zVNIvUL0kvk/axxfDXRmd43g0t6vVd5lW+5F5KfXG9z4wPFPNSn14oFykCs4iSfhw+keD512Zwfpb1J7l2J7GucAq3jU/i/XfH+MiDJbxrdwEjvQkCaS983lCnwVYkUZk6UUcUkDnM1bPY8+oc/uZrh/HEM6cxMydpSn2EKKES9+LwORd7XpvF/hMhKlI3lIigBVLdTV0ukwZZ2jp0+bTTrTWFLwI5F7gIfIpkNXMPWiIeG61IiUjVNBQLOxbLqmEFpMVisVgsljWH6qcbAen6cF2KBZEIyvqon39UXWwl7gTVT+Zbh6Ow091+8RYhcUPEvnSwuci/OL1eo/bLd7N9k1NpMZ4L4dnL0Sk8GftiCgYtG9TSHbGDUprFOrcXfV63evaznoaYSiqYTTj5Dy1WOp4OhbDKMDfiVLZNjuWlss3EWaIYBT/BznEPO8azKGQzqDcDEWdVHD1dR1X2Y+jZYyFCh/FoVi/P2rZsRKTOGqEo43qIhSzQlUuR9cSn+i9DN8qNQbxxJMLBo3Oo16vIe9MY6zmHR+9q4ec+3oN/9Jkx/NJnd+MnP3437rttDN0F2sB53/lOu2BbwKn2QMeayKEed+H1I0184wdnsPdoU1tf5d7Fjo/IzSGUexn5vYg8EdqunrBHy0VTH8z8ojNnDYt3QfZ1svBEMxaynghlfkJE5qYuGiGf8ZQ2Ql26EJ/FsvpYAWmxWCwWi2XNoPrm3KqX7mp70ltWAjIV6SiCikNYlTVPXpw8h771pDJEn7+wg65FpHFGVBLdLdeoq4xXIjJOn6dsMOEvxJx985UL0blq+1RpSKx0bSGo1n0MffQ7JQwFvehyclLeFPMiHCfjecw7NbWWpakZPVnMIpdL/+rQsTKLSuYyTQ7fjJroykbYvTGH8dE8fCeDqRkui1HD2ekUrUTEkwiamH4lMPNp8nrt+dR3VsfIbqzZl/Nqw+cHExRzUAIwwyGeaU7ysg4np0oi9GqYmq4j71Swc7SCjz6UxU99ch0+9ug63LGtgP5ciGImRW8pjyxnVJUoGTej1umY1HRZEicQkVhCOSxhssZtERGX2hAfqqxqmCtndeUzkeIkRl0H+j6qmJc0OF7Xji+2Pd3++KJ3WuczgYPuUoBsRk5wFlgRjdV6hEaLQ1gl16bxWizXASsgO9BjyDVm36zL1HnNYrFYLBbL9YO/uEomtMUHxaPjUvbx+TZ5F2GiX6pL3Q5xIfo8afuQuNjp4YL/fiKiVLbL/rLTe4czKZhTV8uCWFAw1rYwUEIYCFIP3WkBg14veoOiWqeSs8TOhnOYjmb185ouZ+iU+pA34yT4KtMZIfMrTgQQnToSAc/ZVzcMJti1MYu+/jxqLRcHj1Vx4EQd5YaIJ5frKkq5KCCljCqPq5RPHY0WkcYZIamSSfXEM6L/REAGCIKCXOpFtTWA14+GeP3ADOrlGrYNJ/j0Iz34/CfGcNcd/cjkfBw7Po9vfHs/vvClZ/DCS4dQrYaSd06gxDIksm0/UysJ6XupLZOUrKEaspoX8cghqhy6y9xwqRhayzmEltM+Gcu5oDaM40LaV2W7pOVJODVhkOyzDQSBlK87g1yO90U+F7GDai1EvRFLHTCXtotvuX7Y1tXBUgFJ8RjH/CCaj7PFYrFYLJa3BN1nFpEkTt7M7/KCaLzgp1l35pdCL9qblhkqPtkz7sI4Lo62StKtOMgCRgYQLSF1PhcskMyUECQB+tCNwaAPhUwBqQ9U5TXVmsZcNI+W01JhGFrJA5ZFnI5t9WB8Spa1+z56YX1fjmnJ49IRdQx0x7h1ewGbxnLIBB4mZyK8sm8KJydaapF+lUsKp4Wy84zZv3ZMbDpGU6v65YqAzPgJero8FEtZuJleEXaDODHh4PlXTuPUqTJ2bHDxYx/qwcffN4Btm0rwnAIOHYzw99+cwN9+cwrff76CgyeaqNZpLdQCjbVAWbhY57yzPGi3DakbPlOpciUeeE41OIpICseFLUW1vo/q2VplKaQ/49p77TjUZbr2dUpWxhN4KYoFX4Sk9pAkLmr1GM2mtCkufKpaiQposaw6N42AvJSIWy2Bx3hMXBwu093djeHhYRQK8kXevmYtkRaLxWKxXH90t5gd5raljQJSTurOtexc8Ht8+X7ANfUUTOBriWQhrC4VD6Vnoc7w+cdsLALS6Uav3yN9kEBZHKfjOcyJa6AmQjPSISWIEo8q5GrCOjV7zKFsVYVLSqJmKbm5NqGfNjDUC+za0ofe/iKiKMXZcw31/ONc1Rfv+XY8kl815FaXVLvVoiOudqNQz8tKP82XNPOZFD3dOWTzeUQiDk9POfjhs8fxxt6j2DgU4rMf6sKH3zuA9UMBwoaLgwdSfOXxCr6+J8WhqV6U00ER7H1S5ywL/9VAy6MWkbre9f1TCdMyKYJOL/YfypVInTOX6VR4ySadqhp9euF9WdphFe19PVmTCNVYi+R8jp+LGEmUqCVUKCBbLfpdFI+XSMFiuWpuGgF5KeG2WqLOiEfGl5cvnfvuuw+f/exncccddyAIgoumw/OrlQeLxWKxWN7JdHZ4+cuqh56a31ktbZRmuIqf3XY/fMGtBApY9bqaBDtYjGMxHopBL3GREYHG4atDXp9a/5EGpNmkhvOtWdmW0fJaogk4NFPbw3Q9sAtn3LXljahYJT/tGlZOQcujpMqF+b20hqzbwJgIr03jXSh0FTFfjnHkeBmnJ2M04ryEyrbzqaed0fEYqbwa6PjMHdS1oezJkn8OHk2QC1L0ioDMF4qoNj289MYknt5zHKWgjs99pA+f+MAoNowU0GwFeONQjP/3zQl8+cl5HJnsQk3EY+T0yj0oiBNBrFLRJVhMdRFVV6qNmvK2RXPb40K9KvGnnYF7l60ZaTOc+Va/eF8iEYyRiMcUXQW5JyKYozAV8ZhivhKjyUln2Ura/VLTt7VYVpObRkB2WgA7xZo53/kB6TxeibCjn07/3OfzFqOjo7j77ruxe/dulEoldZ2YODvTtFgsFovFsnrwp5ZdZiUe2+fYfV50ZPHaarOSmLWfleXA5Ne8K4uZvILEQy7JoM8tYTjoQ5ebR0tEyGxSxWQ0j3kRbZF6ho4CRfonKqLFelg9dGwskymXQ+ubssDJKw1FQNbR3xVh64YMBgez8HNFTMwm2H9sDuemKV4CNYGLEsYmv4x6NbO5DIv1KVJXDjIe0CPqqtjdhXKtieMnZ6TeWnjswTw++uggxse7EaOEfcdc/N23z+EfnpzFsak8QlocJQKuz8jB0uau8Z1u0Z6qz5PFveW53PWVcEFfNonguRyiC3SVUgSB1LCbQ73hYq4cIoo54ZRe9kbdt86wFssqsaYFZKdQo0u48JHQ+WHoPN/pj9vlMH6WOsbZeVyv1/Hcc8/hC1/4Al555RW0Wi113rB037ibGdbqUmexWCwWy41BCwI63WvXv0pqV72E6/RDpfoZ6o8iTfoVTqKcurbwki6U+OvoklwWLdEoq3R4P/URxD6KSR6Dfg/6RURm4KOWNpV4nEkraLihCBdatlSWFpyuhYUnQgV9dilLwzHlxSON2VvoxSiLl5RP1bk49m+SOgInxNggsGuzj95uF63Qx4mzLRw8MY+5GpeSCMQr75iUUMJQ1KkYFiJefRi16X4xXXZsuQZkVzGLTFby2JxGd76KR97l4bH3lDAyEqAVZ/HGkQR//93z+MZT8zg+U0DL6UGq1q0M5Z5yKCqdlowqDfYTWRWy30617S480mcu5HLXLwVrUL90+fgsZeAn6O1xUSqKYBa17HhZVOspylW2hwycDsupCncljdRiWQFrWkASirJMJqOeRaTzfV8JRH4YOMyU50ZGRpQf45/X1Ixt/LCbb5UOeJ7OCE2GLRaLC3GQRqOBffv24dvf/jZefvllVKtVdd7EbeInjIOT7dCZOE26xs+NwOTj4o5+6FG7jl1x+nXhBe53HnecWnAm7rXvrpbl4roe7lpYrXgsFovlhiFfX3ron/xmG9e+oL/buFXeVhlJhfGquOUlmbjw1fbD7rzkSS2s387ZcixeYfe/LUkkEpbHp/UxDtDjlDCY6UPRzSFOYsxFZUyEs5hLawjVdLG6/DpxxqJjUs8YKqdztVI6c7s054xZi1wtdHWZY7nQQNaLsH7IweaNGRTyHqbmUhw8XseZyRaakYgvEWC622PqSfZYR29K5VpgXMYJqjLbQ0dTkdpRipx050o5iECvoOTP4O4dCR59IIfRUR/NJrDvUAtf+PYZfP2pGZyeKyH1ekSEcXAwraYcKhyqZxpVHauU5H3hPl9ZXV8ruv51ffIfBny2NJvlM54B8jndH41TD/OVUPqqEaJED6bV/jW2L2BZbda0gGSDpwDr6+vD+9//fnz84x/Hhg0blDWQzyRu27YNn/zkJ/GjP/qj2Lx5s/JLIbhx40YlLDkRzqUEHD90g4OD6lnHRx99VD3r2Nvbq65RDA4MDOBd73oX7r33XnU+iiIV59DQELZv366umw8lxWdXV5ca6sp41wIs+5U4eVP/YUvazkxSsJzft4O7WpaL63q4a2G14rFYLKtP5+dzpe6diCq16rTL77UaSvnmeuAZqSF9sNBdvnJMPLSdKclE0SiiJBZHy6M+FqeMcrRIskN/NekxduljSHjC4aultIB1bi/6/B4EXoBGGmImrmA6mkfNaSEWXZZK+bWo0+F1WS90vKLLoTH76qrU3YK7wL9+V9pUOX2s+gDta0RZ45wQxUKC9cMZ9A/mkUheT00kOHw6wnzDl7BBO3FdXxS1nXGsLqYMGm5VSmmENE5QoIDMhvCbExgolLF9o4vRdVk4bgGHTqT4+++ewTeenhXx2I3I7WOHUMLrCXA4w6kWjjr3Ov52K9OHgk7/+qBLox0x+8wP/2kQIxOkKBUDtRYke/IUkJxAp9aIEcX0u6a795a3AZ4Io99o769Z+vv78YlPfEKJuePHj+PVV1/F2NgYPvWpT+EDH/gAdu3ahXK5rK7ddttt6jwF3/nz51Gr1RYslp1QCG7duhWPPfaYEo/33HOPEqf0f+rUKbU1ApVxMu4jR46oeN/znvfgfe97H5rNJg4dOqQsobfeeiseeOABJVynpqZU+BstJC//Hyf9BcgXBz3QcdR/58j/9lem2lc+F/4Dp92FPwza13IwLxdzhs791WRpesZdKcvFsVpuNVjNuN7JLFeHpm6v1hn4PdR5bHlnYX6H3qmC8Eqhxc1NXJSSHAa9PvRmuuF4DmZEWJ0Jp1BJ6+3fJToJwC1/g3igzl2Zkzdx3PA3kCv2xUooqglSmBf1+6f9cvF/vhimM45LO52EileEjif7+TDAkNOPTZn1GA4G4MPDZDKPw9EZnIqlL+E2ReDw11klLb+4pu3wjMTZ3mPE6qh9QqelrxPuMRaeU8JOzRKqj+knWQjDs9q/+n2XMqswaMFLqtg8luLd963Drt2jiNJuPPtKA9977jxOTIRoJRw2SYlDayUd49fh9RIX3K6GY9R6qzJLzDZuIUir2LYhwkN3FTDaV0PGK6vnBKO0F8cmSvjKk3P44hPncfCsL6XqEa3FJUqa6hlJTsLDyPRLFWHB8U2la17meNWdSa+dpmy0HZRtkc+h1jBQinDfLXncti2DUncXqo0uvLJ/FntencBU2UcsQlm3llCFZtjl01obrpPOY/tduXZxNm3adOGdW0OwEVH8UZT96q/+Kt773vfi937v9/Cnf/qn+JEf+RH84i/+ovKTzWaVkPuHf/gH3H///UoUHjx4EN/5znfwxBNPYH5+fkHMMT4Og6XFkpbLO++8UwlDxkPB+Mwzz+AP//APlYh88MEH8Uu/9Esq/d/93d9V8W/ZsgU/8zM/o4Tr3/3d3+H//J//g1tuuQU//dM/rUToyZMn8ed//ucqHsZ5o0Sk+dCZD2Lnh9Cc4xeKfm8LRvGjBCSvy58nefccPuKv/fAfivoLSf+PVsXIc7LDOHUSPKE8XsBimsvD/Bk/11pnl0tL51Xy3+GI2S5l6bDky8V/NXSmvdw+t2bf5N9g8kZn/lnSeb0Tc974obuS8lws3tXgSvJxPemsT3KldbQcbNN017P+rhdXUvabsXzXk8421Lk1LL1u0cinT/3eePJb47U8rGt1Ybe3BVtLGxBkAxxqnMbz9X04gylEXqTrUapQvtHkJfu6Wq+o7dKnugsMrqyOzIV+ni5IfWRiX3mIvASRXFO/meK3c1itdpeCmRQh40TyWxuiEAVY1+zBLm8zdud2YF2mD6GU53B4Cq+0juC0O4Wq10TM5SF06PZWCwKiUuWwTfU7JdcSVQPUfRq1lXOypShmnXAxenV6weOiU22R8ciWv/Xqn8YMg4bUwxTuuzXAT358K9794CbMzHv48y8exVceP47zsxK3kxfnq9xpySPfecpkqzIm55gg09Fce7tnWdv5lne1PmNUQ5fU22P3R/jFzw5h9yYRXE5D8tWLU7OD+OoPG/i775zHq8cSVOIu+EEJge/Ad5rS3ih6GR1j4w43uj4NbBPXH1UacUxLt0I99670X1FD1pnBttEmfvaj/fjIgwF6h4ZwbnYE//crx5U7NVtC4g1KNOy/1SWclGsJV/LZuFoud387v//oTN/PPBLWmcdrbyuW1WbNC8goipTVj0LuYx/7GP7gD/5APZfIY4o/CrX169crkcdnFWkNpOMQVw51/cu//EscOHBAxcfGyThpaaRFk8NiX3/9dfzVX/2VOveTP/mTOHbsGH7rt34Lhw8fVmL053/+59W13//938dXv/pVjI+P46d+6qfUcNq/+Zu/wV/8xV/gox/9KH7iJ35CCVk+O/mDH/xApUur6I2AH7RcLqfWsWRdsMydH8RF9A+kui6fTT1kRZ2WY35Yxckf/aiTcqB/UuQlPwqUkfwPKn/p1Wbh8639my+F5dNeZOkXw7UKSMPFvnBMfkynno5+l6Zr6q1TQHa61cTUVSfmXGc+CdPu9Mtj5rHzGdzl4iOd8V1uiPfVspK6Mfm70nq8HvnthPmhM3VpuJq8GhjW1Le5h2sFU5/Lle1S1yxXxuXa7eWuE/pZib+3A/Ip5Jv6taEBpaeSx4ZKP/oaBfW5nPIrOFGcwVyxjigIpXsc6/pRgSU0zWlqd2Vt1/hSWkkdUZZIt13EWCbx4ddEOE7X0Wg14fRl4PXnkQSuskLyd5DCxYS7HI7rKAFJ0VdqZdE/V8T6+X6MhUPIBjlUekOcK8zjTDCN+WwDLRGUHEKr0lFlpDDrTEt/X0X8zorlO0t9bYkPloVeWCmSJiVvlEqn3IhHOSO7Eq/+/TNLdbRrceFdjzpimi34IiC3jLp45MGNuG3nCE6fb+Fr3z+NfUcqaEVyrxxP8sqVEtuhVSb0fjtjF2Da89W2a52OltPcU2tjxlX0Bqfx7tuq+Mi7ixgfDKWEHkJ3HK8cK+LL3y/jlaMJymFehHlG1akvHRlPPfeoK8zkfxFd12/NV6FJm/eDrYqlo2WX63DG8l5F3jmHLcNlfOxBH/dtq6LQ1YczlXF85YdlPP5CHdP1filbn4TjHZU26xgBeWG5rvd3u/pMLrm3y53j76I5x/0wDNVIvunpadWnNv0ay9pizQtIfjHy2cKf+7mfU2syUkBSEP7jf/yPMTExge9///t4+OGH1XOMJ06cwEsvvaSskRSXHFZKi+VTTz2lBBXj6+npUYLvIx/5CM6ePYs/+ZM/wf79+/GZz3xGWRZpufxv/+2/qQl07rrrLvzCL/yCEo2M5+tf/7pa2uPHfuzH8LnPfQ5f/OIXlVhkvvicJkXn7bffrho+LZbMX2cn9K2Cz2PSUsohv8yv+nERIU4u/OC2vxTVu65vWhwzni8fYg8t+YFrigvlW1l+R5U//rh48oPArzJuKSD11y13Loy7My2zv/SLgyx37nJcKgyvXS5Oc51b06lfLoz50lq6fSsw5bhU/gzMF9uaaW8X82vi64z3enC5erpc2syfiWNpWS5WttWg8z6v5o8Wy2vqnaxWvJfjWurqSsO+VWW6Wemsz6XtYCWfxWu5lzcfrBf1qyIixEO3CMjMwRBnnzuKU0dPwhnOY+ChcRR39SHO05bXUvWzaA0UpG47W+Ty9ad98J2/cXqmVS0fgthFIcogW3Ext/88jj2/H1PVWfTfOYax+7fB7y9Id74tIFUs/O7V+b4YtABS5fC+c+3HnkYe4RsVzD59BtGxOpK8g+zdA+i5ZwQYzqCVk7JxOQn5HabQ8VjGdkwKHkiS/K7ixDsUzvq6vMtvuWpesque2ZTc0u7Z9qDCMN8Bv5tYCiMgaTFse2Jw1iJDU7y4aR2FTAvrRET3dGUxV45wejJCveXBlX4DxTF9atGo41mM6eJcedvWBdP5kzSZnvypexHXUHKPY33PMXGTyLtlib8bkbcDJ+eGceh8F+ZbnDRHP6/pSf166p6361TiMrWokVTM4aWLsUosps2c6JfkVZwr98DDPArOafRnj2FTaR+Gs4ekEEVMJbfi6PxmnK2uRy0ZkdJ0qRhc9dmggOws01uDua9Lt52/hWTpPgXk6dOnsXfvXtU/P3PmjHpkzLK2uCkEJCfG4RBRWvn++q//GnNzc0oAfvnLX8Zrr72mRB6fSaQgpEWQVkkOT333u9+tLIccekorJoeuGqsioRj94Q9/qEQf4+CzkC+++CL+83/+z0qIcg3ITgvkN77xDTWBzqc//WmVHwpTNmxOsvPkk0+qfQpdCsj//t//+w0TkBTcHGJLSynzHol47MwHP6DmpvMLX/0Xkk78+K0IXrUJJ4yQFgsIC1kRkPJj48vPh2z5bDa/XNWLP4IMJ/Hp/2RKfG3H+Ds7lEzzYl8YV8PS+JayXGd2Of9L/fH4YnFfKr3rydJ6JOZcZ546zxln4LWlZTPnTLiV0Bnn5ehMp5POPBiWy4M5t5z/643p0F9p/RgYprP83Ddxms/i1cS7Elarrkw8K4nvauvpncLF6tLUGc/TdR6/U2EdmPIn8kviOj5KrTzil+fwzF88jme+9zSK4/247/OPYMdjt8Id8NBMGwwpv2MihUQ4XVn9SduVHzBOaqMnzEnhi7jLi3jMz/uovjaJA998CYf2vIG5pIKxx27B3Z99D0qb+9XsqHLn2r99l2//FKgUcZ7kMyfxZyaAQ195FS994WnMH5tGMFrAzp+4D7d8/G5k1xXRdEPln6VRacgO09N1pKK84LeWp5Qfh6NLtD2NdUgByBf3OCwYsVwRp4aycoIeebkqjBo0LCdUQuo860OlwjRFyKpZTuMQsfQraJ103EDNXup63NeZYh753s7WdUPnjDXPsupUPRFMmeQ0vHAvWvMH0KpOy7U+ePndcIs7EQZD6vlA12Nb4f2LpFy0YOt86/hYh7qeyVv7eTSVpkun97hCQFtApjPI4jjcyh6kk99EUH8ZrbiASu5B+Oseg9N1j4jlUbnbBZVvJ21J2BsjIIn5PHfW4VIB2Yn6Z4j0+7mUHpfQ+9KXvrTwKBpH8RBzXyw3lptiCCsF5I//+I/j85//vBJtbFicRIcCkI3qX/2rf6UmtqFl8rd/+7fx9NNPq+cj+ZwkBSefVWSj5KQ5P/uzP6sE41e+8hX1/CItkxSPjzzyiBoKS8vjb/7mbyoRSgFJ/5zVlWl985vfVALywx/+sIqfQrFSqai4GRcb97/8l/9SPT9JATk5OXmBcHurKBQKeOihh1TeOcEQlyCh6OaHkvCDy5vOIav8wqcIzIkrRAnys1W4x87AnS2jNLxOvpAGkGR9RFkPtQCYlx+TefkMV+U3KGSHWOLw5OXLD2IgcfgSL3/o+MPT2bCWfllc7Mujk5X4Icv5W+4L5mL+Os+bcBdLe6V5uhY689RZDnOO2+XOm3Bma84TnrvU+ZXQGe5S0J9JiyyN3+Sh8/pSP8uFeStZ7fRMfNya8i4t42rA+Fcr7xeLZ+n561GOtzOrdX/eCVDUcfbRfJhB9mCIN774PF74/nPwe/PY9aG7se2x3fBGM6jLS1nppJNMa5rUso5gRYiwknSUgFQiC8hyWY1WAZnTKc5+9yBOPrkfjfNV1AohSg+NYNvH70R+Sy+aPoeE6tSMuxjyyUTkaitgPsmiKywgOVjD/i+9iMNP7UPSjFHY1Y+tn7sTQ/ePy++u+OeMokrkdMa/JBV+l7R32bSUP6kz/hKzPJGjS8UJgGhV5ZIhQUN81eW8myAspCKqZF9+1x35TdfDZBleohanaoTxSniODE7ktz6JZV+6NpRtrsRBRzGq/pMsnnUbX/ydutR3hPk8XO33iPzSMBdqSzypLz+dgxudQVg/h6jVkGvd0jlZDzc7hNTPK/+eCF5X8qufD9T9NOZF1/abecs+t6oOO5zUuxKQqS/5DdUw4kxyEPnWiyg0nkUuPIhG2odZ711o5B+UvtpuxJ6UU4lOxhHJZrF8bwW8l0zL3FPum7SX7pOlIzDY72ffno+Ysd/97LPPqn4s+9hX204sq89NY4HkEFM+o8iZVWnZo3mbk+lwSOq/+Tf/Rg1Z5aQ5FHr8rwXFEy1wX/va15Q/Cjk+t0ixyEb5P/7H/1Bx0FJHyyav83lBwiGsjz/+uJoUh3Hs2LFDDWGlBXLdunVqaOiv/MqvQOpOiUX+d4QT53DY6K//+q+robSM/0YJSH4YuTwJrbLMK+uMwpjCW314xQ9zFdH6KI6DI4pxisEoxWg1xPpz8xiYr6O3WEK2t4Qwl0Et52PaT3BWfoxOOhHOyo/NnO+gzg+0I19s8qNCIerLL4x8Ly8MtTFfEJdiOT8rCWdY6tccL90uh/miWwmr7e9idOZpaf46980X6XLnLsWV5q8znUvFb+JdiT/jyEry/HbAlJdczzJ3pmNY7tzF6PS79B6Z44vFt1y53in3d6Ww7i5Wf5YLiWixk6rqbuYxNF0EjjZQOT2LNJDfrQ0l6cDkUelrouJUpZ1J11862+a1Mtg2tX1OiVU5cmMP3VEeY1E/BqZziPaVkU60+G9SVAtNzI+EiLYEqPUlqPhNhJJHSVaN4rlcqixPIh57ogLGmoPonvDRODSH6mQVTRGXtZEErVsyiNaJIFJDV5mnN0saHptznR8v1azkWIeCGv7KNCmqs7GPrlYO65Ju9LXy8KoJGl6E6e4GpoOa/JY3Vd6MLY/vnbDNcqioEpAUNQnluviXNBYEpBxrLgx7qe8A81m4lu8JnVc6WrZYhlDagvR30qauwzQr9SGCnb0dSY+GUm0sZd2a2mL6utxLc/KWfl5VPZr8cMM6z0gZMtKvqksf6zSGiqdw79Y6do9V0OVNoRoP4tUzY3j2YB7nq4PSt+uX0Px3PstHC7aO60Z975h0uV3qiLEsEvZfOX8JR/QdPXpUjSykAYR9aV67EX1qy/KsaQFJjIDkkFWKPwrGPXv2qGGpfP6R4u5f/+t/rWZQ/eM//mP87d/+rZoJlRZLPif53e9+Vz2PODIygl/+5V9WQvN//a//paySHOLK5x5phaTFkbOp8nnH//Jf/ouaqIcCklZPLuPBIazf+ta3VF5o1fu1X/s1NeSVefmd3/kdZfXks5hMg+nTAknhZqx+bzX8QNJaSusp/5PDZUg6x5Dzpof87IrLiKOAXBem2Jb4uDvOqK38PMNT37RASz7fFfmROC9fzMeTFo7J9qT82EwELuY9H3WH/+0UvxKxLy4jXwy+OHfJj8LFfiTMF8mVslw4c+5ScZp8XEl+lv6XbLk4GO5S6a4mJt3rnd7F6mg5VlLnb2UdrUVYD9er/JeK+2rSNGGu9t4xnAlr0VzNfXhHIs2Gy1eEslMMc9jYGMRWZwQjwQCCTIAZlHEoOoUj7lmUg7YFkgKSrh2e0mDZ+maTbJ+meFDLasjvmSciqygiazjqxfZgDFu9EfQ2C3Ab0okX/418jOmc/J6mZ3E0PovzzjzqfijiU35zJU5KqnakGjnkLvPBjwHTYESDzS7cmmzETn8cfehCMw1xKp7G/uQEjgbnUM025bdXgqt43vwZYioqpQtPCzp9NVTWiZS1k4IoJ7/pPVKO0bgfOzJj2BisQyEJMO1X8ZpzBgekHmfdCmIRsbRW8ZeuXYuKxWS0wFJz9YhTz2VKmbR4JG/K0FuIqRWde05wFEsmdd3psrAtsE/DPKsbQsucss7p+yNNR5XvrcekybzS6TxppL5FANOi6DtV+PFp3LGpgp/9xCje/f+z957BdSRZdvAp/yw8QAD0tr2ZHu/Waldarbz3IW8jZEJ/FKE/+qsIbcSufMitTMhvyOuT1ml3dnZcT890T097ehIk4d3zZb97Ml8Cj2iQze4mAZDM83BRLiszKzPrZp66aZ6vohrEWGmN439+PcZ//X+LmFspSXnk+EemA59m2y/zLuylTjZhDr6H3B+MC/dNnNjO4j6XwqPRwxBG0/7itb2Mv8Wd8VAQSHbJpKWQ5IyEiCSRS22QFHHyHJI5kqWf/umfxq/92q+pgsf1G7n0B8cm/szP/Izq0vkX/+JfxNramiKDBEkmiSUnw+FAXRJUWhH/9t/+24pAchIeEkiOm6RlkxZIEjN2hWWYP/IjP6L6Z//UT/2Umi2K4y45NpJfTdiVll9O9oNA8mU0X2s4Gy1fNn7RGfxyw0zPRJGyYiPhK8u1ISGQM7mHc06I4wgwLAqoxmvipiQVRCQ1GjvDbGYpFooUV6R6uiQV/FURWiQ3JW1il4Pw9SQ7gYTriWypjQ946QcVzAfhfimQ3ZTRoHIbxOA5c8/O++90771iZ1wOCj7MM33QMwz6ZfYP6nNbWFjsA0QdsG6i9SyRuqeSRDgST+CsfwRnh49ipFrHarKB7228hzfTq9jw29L4LxSBJDcwfIZ+yJE+UNCN1S3Ibi4EgoSL5KEcRzjUG8UpdwZnKkdwqDymVp9otTuI0xRhvQyn4uBGbx5vNy7jWraIjairiG4gHnBiOYY4qM/or1kzksM9ojTAYXmWF72zeLJ2AtVyBcvFBt7uXcHb3StqaZKu11PNf2Xj20U38gkGnmIApAtCidltVQikBIwwCzCS1jGbTuCMpN+50lEcCkfg+Q5u+Rt4Ob6I11uXsOY0kHnysIVeMoSWSEI9j9oz6D+jREDFQ1283cV+gaSXqUzhghe0RWqw7ZPKVY51lDKgiCPbJlo0+s+lD/YYgznKGEj8GE8eyW6GSEhhIE+0jkqxhh/9FPBnfvcsnj9bRuAFuHCrgn/9vxbwv7+6hOVmRfKea0AOPtvBBcu3EYLtVr6jO8Vgt/fBYn9g3q4DCxYcEh8SIBYcfpFg11Na93jM61wug2SSS3Bw9iYup8FrLIicOIf7tDKapS1oKSQx5MypJIUkiySWBLuxcsIdbmmxY7j0j5ZP+pVKJcJphWle54Q7nGyH5JEzn46Pjys/zReU/QTjwHRjXJkmTCeeU2s7UoTshUL2OOOqL/s5rYiBj/nAwffcFF9xOvgKOvi608NrToILonwXs0RVSDNCLl9wq/iSP4Qvi6L6TBHh2cLH8dzBmFwvy7tO66MEhELC4lYPspfqU4Th+f6gSBxEeG13YXy3RT2HnOd2UIz7ned2Hg+KCXtQdt5j7tvteKcfPP6oYvw7iDL47B8ku90/KHdyN+iHlYdDdubhnWS3e61YuZOwzPism0SnBtStoY88ALrooZN2VcO64kWoB1VU/DJ8N5BqRutfVacEWgKp04KtLUUa4UZfy3mvX/+EfoiyW8aYO4QToZDH2jEcqk4g9YFrxRLeFpJ6Pp3DYroqdTswIgRsIhpD3a8hcMN+GRf/RHxuTbn35Xk41k4kkOepOiVMYQTHJYwj1RlUw5rqurqYrWEunce6u4kiEOrTv/9Owrr0dmEdy4pX2kxCDHkcOr6EVMERTODJ4BherD+B54bO4nBpSuISoin1+mreQjvvSh3NXkuSJpKGTEtuVXrKs/C51IQzrH+ZN7TgSVhyKNdE1L7ES7m9PR8/SNSz7HL+4wnbOjp+RlxP2oPyjCovxI0a68l9iuSRaYcEfqDL274IwzYSSh5FUg4iKaOhlFWek/RyMgzVcpw6VsH4sBTEvIdeGqjlVK7eaKAT8/nFvTysOO8/P8/pfGR67x723spWOZa4ccv3km1oirk+SBzZnjZicXAgxetgwhQUFiBa8UjwKLTu0VpIcsdCxr7R7D7K8Y+0+NE9CR+JJruScrwk/SLpfPXVVxWZYrdXEivO4soxkvSX7jmjK/0mSTRrOvL+9fV1RSh5jmCXUI6R/Nmf/VkVNoka48L7SDg52Jf7+1XYB9OOLyixFRe+kCJ8LTmLqupiKsJFPtqiTFdDD5fLLr4vLPC7JeBlP8c33ATfKHr4VtzC690mbsQ9SccM45mDp50In3cr+BLK+EwW4KkYmOllqKYZXMk3dqCRlFA/Fbz6T6gY9OWDMOh2271RMEYMzLGqKAauU3bDTjd3crcTu91nRFdk9y67+fGoCzH4jgyeH8TgPVYOnuxWngdlt3usWPkgoaqXPaXxWX8kTopW0UVHCE+apQhyD3WvIkSyDK+QxqioEtZ2ysLEHSERFI7zl2Iowu223/SV5h2GEAo7HUrKmMYYjgrBGo+GkAvpWMhX8Z4Qx/ecG7jmLmJZiF6cxqhIvTcaDKPm1eBL2Cqmxl9uuK8io0Utj1X4GM5I6CYVgRyRMDK/wGrRwI10EQvZClpuB5w0h7fyHpMWO8XMNEtRYajnlVSiuVSeP5Q41SWs6WwcT7jH8Fx0Gmejoxj3h1FIGqw4TSHEt/BO5ypuxUtCy3tynx4PKD7Lj/6Lp4Nx4M/sM1gl2+dl079273K/oWsTWt5oReX6j1wDkdZcrvHI59Ng0Cp4JdoOuf/Q7SRtN9SRUxZUx5coii6V8u9JO2xiOMfx2TKG6pKGUrBbcYirtzqYX2a7TC/3wWfS1se+j+Z5+9gtL/ZadsZjsL4YvEbsV1va4u7wRkZG/lZ//8DBFCAWHhYsfp0gweN4RXZTJWkjkSQ5JLEkcTP3kHSS/HFmVloI6Z4T3ly+fFmdox+0IJIM0m8SPs6qynUgackkoaQfFM60yjUeeT/jQsJIv2n1JLkk+AWFBJPuOWENhWTSvAD7Acb1TuFvne2/l9xwVtZEKpeO6KyOkElO1NaUSmVDKqY1qZSWRSmvSoXbFLecGJoV3LAbYNIJMC0V1iH4GClEEdBinAuZFoXNJUAK5om4Z1xYz+nQdyrtuymIQXeEvn93uR0fJ/15rxGLvcNgmtu0t7B4/LD11vd3OEmbL3VLqEhjFSNBHWWU0JV6ZjnbQCNviSshCFJPKch9u9YoPCn+KG/5T4S1UjWLMJ2P4KQ/jaPlQyiFEdaE2F2M53Ahm8OK11DdVMuIMO7WUferyKSObGQdrEvYicNePvSUzXX6K9u+MLRA6sdKLmEIoXvKP4HjpRlEQYgNIXJXkpu4JOEsOqvoeSQ9+qdiSV2o9wZEBcTHUP7zuXUXXB02CW09L6vxjmecI3gqPIVj/gxqThW5VMArbhMXhTy+nVzF1XwRG1Kjx04sxJLdPFWQ/WfpJ5fevR0qXjo+5v9Hxf3V8TpWunXRF5UHFHNVC59ssJ6haJfvx4Ovh4z/OnyVuowPSby0sXjooSMlvoUXzjj40c+M4viRUNqdVSys1/HVV1bw5sUuWklF7impe9USJYy3irvx/2DgboRw8Npg/lgcPBz4MZCm4JA8snsoCRoJIQmfgSFKFJJBUwDN1wweGzHuSAIpdENwn+cJujPnaU5n11daLklCB+83/tEthd1jKXTHODKuPE93+wUTx90weJYkj7HUU5lr8DqFSpVXPXmeappjKnNwVORM5uIJt4TjjuSNKDpP0mrFy/Fm3sFreRvvIMENScaO7yFj/xGmlaq85aeShL5yx8idoPPig/FB/lhYWFhYHHToekdEdtiLRa+b6GMsqeJMJKSoegpT3hgW03W83HsHF5M59Pwe9LQxcodUGbyf9YypxwgzS+tWTSF1ki912Xhcw1M4irOVYxitDKPl9nChfR1v9a7gureIrpOillZwPD2EF3whZEOzUq+leLd9De/EV7GEdSSukDCOXaPfJHPKogcEnJgnjTCRDUt9eRzPRWcxXh7FptfGFSFyb3Uu4ZLEf83Tk9hwpBstqqx3Cf1/K8bqmNeYNpw9llMAqYGaUtf7UidX8gpmC215POsfxaw3iciJ5BkSrPgNXM7n8U73Cq5mC2i4bUkr9hHqk0flu7Sb6Hkf23X0Dhgnu1zaX5gU2sb24wxGevC5+OS6nbFbe+1Obaj7DgmGwesYsJwGEnfOKBFL3q5iPNrA7/vxEfzBn5jA4ekEeTGGl98u41/83Hl8880u2umI5CR7yrHs8aOGlA95eJ0a738uC4uPgwNtgTQgCSMZo7WQVkbCEDezJQzx4zm6H1QEJHzE4HnjdicGz6X9bqncGveDMugHiSO7w3J7N+K2l/gwcaBTumaHHKYo96l4aZnkkh89j8t2OFK5OmiIMtooMjTyFF2ScXneUEhk3fMwJmkyIm4i+iBJnci1WPnhIpUt/d2mhHdQanRE2dq5F7EK0sLCwuJhB7W5guzoGkOD1rUKShh1ahj1htS4P3YB3ShaetZRR+gjyZSqZ3b79cHKTkBLX5CTmNZw2juMmeokUr/AXLyIC53ruJkvoel31eQyrtSMnABnKK9iKKwhCEIVZjvroJN10WP4rtSF4rWeyIbE10NZyONkOiT+z6oJbCaDUXGX4Za7qojv1eSWskSSPKpZTeUekhkdw36dxgMjffCjL5+Vazmya66feYqozgipOOcfw1PhSRz2pqReDtFGD4vuGi5mN4TwXsb1fFER2MTjOpNsq9DrgfTZwvvPECY1d7vjIMHEjtudYsrAwJn9bUKoKDACbKtyS+LnS9vKg5t34efrOC2k8ce+OIknjweI3BiduI6X3+jhq68sYnHNkTJXlts4/REJJD+98DfwfBYW9xHb7fgDDkP6DHEzYmD2jWVxt+s7zxnQbyM7sdt9g3EhzL0kk4Mk82EEY01hwVAij+rlosaUyAm52pVnXIk8XK74eKUE/GqQ4Fe8GN/K27gStxEkKZ7MPXzRq+ALbhnnpIIeTaUyFT9o3dTfO1nFvj+9b8MHXLawsLCwePRgVL+pj6RCVcQsEbLUFMK2GbeQFCkiL8RoOIRhrwo3EzeZrlX4X1sf+z4UssevobKvN/0QZEPCFrqREMIIeeBhs+hgobuGtaSJWGorOmXPGS7B0REitpoIYZXwWT+OhXVMCZGtF5HUb6762MpePGrcfyHkNIswnNZwzJvGU6XjOBxOwA0crLibuBzfxJXeLawUm4jZBVb8I0EmdeS+ipz4xfgytv0YK8JH0TUow2Ed7aOeV3AYk0IcT+Dp0knMeBPyXCFafg833GW8nV7BW92LuJbexCZnXBXCy2dTVlmJ61ZaKWyF1pfbwXAfBtw1luriwDPvyyP1w1YbRoBC8kfaJ1s5ZP64RQ+VIMOpYwFOHA1RlnYXLZMbTQcXr21idYOlgeMfCbaySB4NEd2XB7N4DPDQEEhi0NrHrSFuhtARZn8nuTMYJHc73Zqtwc7je4Hx/6Pcu9/QympA5BytkVRLoRxrEWUmz9bzhESGHq5WPDXhzrfCDL8u1eu34gYu9VpSkec4LhXqJ+XuT3klnJXtSJJLRccvxAViKXlS3yvsTCkem/AtLCwsLB5TSD1gqA3H76VegbbQuqaQvE7eU/XEqFvDhDuCclFSYyVZc8hpda8ijRRdq/CsnJMLvCaHtPQxhFQquUYYY1nI3FJ3Hd0kRsktYUTI4ZAQs1IWqLtjN0XDaWMjbaphLVWEErYQWKeKwPGEQHLdSjbmXYRCHoeSqiJ1Z4KjOOpPo+xE2HBauJrO43L3BhayVXScrrYiSgjsqsv48H4lg88j0MSNH2JzqT/Zm0p3ka0nFczmE3jCP46ngxOYdYQ8OiEabhdXiwW8GV/G27Q8YgGbvqSgmyh/GCblNpjA+mHdCYyLjs/BhnmK26VfHkz5UGVkPzEYq/5P4qSPcwRuDxP1FOeOVzE16sIL5X3wa7i5kuHyzQ66aRmuX5UyzdzU1kdutb8WFg8GD0UXVmI3QjZIDA0G3fH6nYjc3a7thg9LCD+s+4MCE2uTsjzWVZqIHKjKXLZUTalse3LQE2LfFgdtOdsSgsiFn0k8h4REjor7kheoL7OdPEW7yNEVt6kQUE7Cw8WXTZjc4b4RjfefuTOssrSwsLB46NFX9/2mtNLs5FKshzhmkd1Yh4MaykLyQkfqlyJDM29L/RKrbqUkNvpO48vtNQjrMEWdVHdR+l+obqWttI1Ot4uSX8J4dQS1UBrluYM4T9ToSn48ZZfXchFiyKug6tEUlGMja2LJ2RDC1lN1I7u6jgh5PEaLYHQcJ8NZ1IVktpweLuW38G7vKubSRT3rKruuyi9QtSvnCuBT6hirmOu/Pgxt48jHXNKCM7sKSRXyeM47gieiY5h1JxAUXDGwjWvFohrHeSGdw4K7hnbQU91sxQMJzZPnYVi315v9UB8DHISn7MeBBZIbdWw+HGhxaGnHJs7NxviRz43g9BEuN+Kg1S3jG6838WuvNrG4EUl54NhHud/RBFJu7PtrypOFxf3FQ0Mg7wU7SdvdSNy9Ejy6e1jJ4P0An3w30SqJe0ImZZMJu2TX1hZnphPF1U1TlNNMzcpa9aTCdT1F2ltCIhvivisEktUlZ9Zj9W381T4O4s5X3g9LIC0sLCweevTVPWsH1hSGMhHsTurnHkoOSVwVw26FVEjIYxcNIZE9IZFqHKSAVTf92K5j9FYHoC6qWqOLWJroTbTjtrI2zpanMFs9hJpbVfMmNBMhp+KKFZ8n4ZNE1v2KIpi0Oq5kG7hZrKKFnlwLMByXcSQdw1PhUZwtHZE41tFzMswVy2r2U06es8lxjx4Xtidt5FPqsY+cefO2mkyum2MzOY9EQVkrq0kJhzNaHo8KeTyOWX8ckRDqTXRwWYjq2/FVNYvsoruOji/kWpFHhuerEHVaaEpK6LTSP4u9A1Ob5UCVTslXfoLXHzjkTN7CkN/CZ59x8cVPDGFyuEAm5e/WWhm//K1lvPqelN1uRXzgZDtSRBWB7JcY1XY1YmFxf0EeYGHxocBxkRwPWRKpSJ1eFvFkPxYSueL7uBD6eDVw8IqT4t0iQSwV8IwoxWe9Ep51I8xkDkpJppb7IG6rLC0sLCwsLPrQ5IZNaxKnDImXKLJ3K17GWrIJOYUxt4ZDwahs68o6SHKlSafcS0uMwjZNIrSvQkvdFF2/h3WvoZa0IFGtFAFG0yom8mGMO6NyXJH6yhG3uVpqg91Y1eQ9sm25CTpSz6VFqqyj9V6I2WwEZ/0ZnAymMUoSKkRx3l3Fe5w0J57HetEEbZrspsi4bnW9VVHTMdsp5nl4pMgjlwUpRnDam8HZ4AhmvHEEJI9eF1edJbyTXlOT5iwLeex6PUWqdXgkj9ryamDpxf6Cear+qXLLstCfylDKlY8WZicSPHOmjkOjAQLfk5JTw9X5FBfn2mh2+Gbww4N4wI8LyiPmKO/X5aofgoXFfQVLl4XFHaF02oCYioZbrygQiER94ZfZ1HGlAvNwXZFIFy+LqruSxsjjFIdFKT7rV3BOVOJkkiPijLhS+3O2Olac9NOIhYWFhcVjih3tXW1J5OlcdTVtCyFaERq5GK+gk3ZQ9gJMBsOY8kYwxJGJOUfusyMfp2sj8dQEjNB1Gcka6x3xUeogjidUM6jSQifuPSGLIZfEEDJacSsoOSV4aoxjIQQylTqug8ViDXPZEm5mK1jPmyiEyNaVRXAU57zDOFs6igl/SFsonQ1czOdwKbsu8V5Dj2MQXVI4Wpk0WVBxYgT7e2osm7ImicfqGUSURQrKSjop5PaUP4uz0VFM+0Ie5ddweriCJbyVXMEFIY9L7poijyTRpIx6kh5aHgebfrrWNT/CpJXFHkGSXbeDKJL+fauziy4qQQdnjgVq/GOtLBedEK24jHeudjC3lCArAnie5CfLB0XuY+khCb09ny0s7i9s6bL4QGiFpGH2jSg1JTuBVGoRRfY5trHj+bgSCYn0ge9nPdxMOnDSTJHIJ90Ip2U7JASSc7JS5Rn/Pjo+3t0WFhYWFgcNpmZgk1jTGxLCniskzmljKV3DmkiS91CThvWUP4JxZwjlPFJWPd6p6xc2zHWjXAkb6WpffiRlsjWWQB5zmhrHlXNcHkOIo+9oqx2vJdJIbwkpW3TWcTm5hSu9eWykbZQkTLX+oncUT5SO4VA0Dsf3sIoGLsVzuJBclXuW0XU1oVMTnojfuhnGGOjYavJohISWH1pTiWym6tpIyONoWsdxzOBMeATTwZiawIdrV84JPX2rdw3n05tYdjYRe5zdlYtBsNuvPJ8QY6Yhw+k/vfyIbfJosXfYTnPJB1XudH7oPOHY2A7GahmePjWEmYlAdU9N0gA3llK8dXETK+u8X8omyxPX83R2Lt3RD8EEY2FxH2EJpMUHQ5SPUWpasd1+TKF+8kUBhn3h19VG6GNOSOR7boYLRYK1LEVZLp2Wiv5JBJiQezxVkfHLqvjTHwOwrfz434RwL2JhYWFh8ShBNanlb9typruScvbS1WIdt5IFrMdrCIQc0QJ5OJjEuDuEqODMqVKDsP5Sk8VQ9AL9qr7htn+d/tI2RxLJKonrGutahS5yeNJA59hLuqRFsSvEbNVp4Wa6goVkTc06figbxhPuUTxdOoHD4RR818eGEIAr2QIuxNfF7SKaQnoLIaaKrklYFFPLbUOuywkKI6osqAW7nxZCHj2MZjUIPVUzrnJ5kBJCtNDFXLGEd3vXhajexJLTQM9P1dIjOqy+iJe6ZtVPp4/7v74bi72EyXlJ+632D7NdCqG0mQIkODENnDsRYXhISqgfoptVcWkuxuUbGZpxRcpjqAqLLtPaL8qWXzw2wVhY3EdQe1lY3B07lM/goVZQWqi2WD0Hovx8KkA50fFc3AgcXPAyXBdl2JXzk4WHM1LpzUilXhatx66wrMC0wtPKj6L/b6vBuwththYWFhYWDzu2NbohOH3CJQ1mdmVtoIkb6Tzm4yVkeYYxv45j0SEcCScxWlSFcPnCBl1kiogZ/0wdI8eyMUtmGHKqSJSIrln4X9/JbrS0EpHQsbtrFyk6SSzt/ByjeQ1nvSN4KjyO2XACgcdZUFu4InEjobuRrailR3gvibCmqzo8gv+3jwQkBCIMWYUu0fCFPNaTMg4XEzgbHMVxbwZDTk0tbbLobOA8rZwiS0KqVRdZxpk3K19F9J94PVjLUsRznTAW+wbmBEuAKQWZ/LVRDVI8ebKE4zMBIvJEv4r1Zoh3LzWxtO6rsZBcD1LN3EuLtpQr3q9z2MLiwYKl1cLinqAr1G2oY9FTuhLWZ1ypnGiJ5NhIdrdJXAfLgYtLXo5LRQ8raayskEfdAIedQCpeTsbD8RnaB9OBh9B7KhQ56Is53lUsLCwsLB4Z9OsX7mz/qO2FXAmJa/sxFpx1zCWL2Og1EOYepr0RnAqmcdyfEhJZU+MZsyJDXKRI1Zh7qXSkLqE/xurGH0maEu4zDO6LI65bzIEWXN8xlnsptFB6qYN6WsKRYhxPBsfwTOkUjoZT8FwPa84mrma3cD65rtZ8XHNaQjrpsxBHIcGkj/pJCBWaClVTWfV0atKbWLa8EhQBalkFs5jAE+ExnA6PYMStqbituC1czhdxIb2Jeayi43blGdN+XUxabEKScBSjFB/lmqlSlagw9c9iP8Ac0uSR3VE9J5b8a2JmIsFzZ2uYGJb8ylMkaYTLNzp49/Im1lvsvxVJjsm9zE/mdP8DC7GdnzZPLR4MLIG0+HjYoZ+MGvTlHIUnmj4wL3JNquBbWVcq8gwjnocjbojZwsOQ1GleritlVtgU+jMoClYPWlhYWDw+2Kpfbqc2ivA5DmIvx7rXxY1sHTe6K2jEHdV19bAvRCs6hpP+IYyiIgRMGtdCnjIhVhROnGN8NMt0mbpHBSk7bJKbKWxIHjn2MeN1uRYmnAiuhjOYxvPhKTxbPoXZYFIa/x6WhNCeT6/j3fiykMebWBUy2fMkPFeNRFSNfJI2HZImdEY0sWM9SMKqJ5jzEaCeVaWunMBZeabTwWGMoKq68a44TVxM5nEhvokFrKMtaVG4JI+5skVtT6Oi/VfBWhw4sKzpz+iSWxzrijaGKymePRvhzMkQ1bK4cEtCGn28fXEd12520EtYppnD9EBKKovSFrbLlIXFg4IlkBb3Dboalq3oLFaCJJC0Qsaui0bgYVFqtBt5D8tpVym8GalQTyHCuNTKfi4O5R5W1rLp+9GXvp96z8LCwsLicQPpj/5JTSCkj0KrXivIsey2cSVZwvXeElppT+hVBSf8aTwdnsApdxqTeU0tzcH6iDa9VFrb7AJLayStffSV3Uv1ngqgTyjlPN3IPrucRlzjMSljNhnBEziMF4NTeDo4jkPuiLp7vljFu8lVvBlfwMVsDivuhhovmbPqKqSxn0slyApO3Cphq1+1/HlOwpbwtMWTlk8JU+6ppCVM52Oq2+rZ8CgmJSwS6FW3gYv5TbzXuyb16jIakgZckoQWTF/ul6TZAUaCRMWEdrtY7B/4UUJTfhJIycOsg+nRDM+dq2NqTM5KwS28YVy7leKN99ax2tCEU+UcyaP2ZZfctbB4cLAE0uK+wagrbqnQOLaR3Wio1npCIjeltM0XCebSNjazGKNSOZ5yIkxLdcdurarrjihDfYep7m4XCwsLC4vHC7s1hVkfsKZIpV5p+AluuGu4mN6S+mUZnTyGUEac8A7hWf84zjmHMZ2OoCpkzCeJE6huqQMWSSXyI4nTIVI4eU2u1nespBEmkjpOZlN41j2O54U8ngkOY9wfQix+XC8W8VZ6WcjjRVxSlscGYk+ooMSPhI/eqnpMVWQSc0UcB8ij/Ffzkst1Ci2VpTTAeFLDCSHBJI9T7qjQBg9Nv4urEt67vau4ni1i02ltkUdOHcQJf3Tste/9kM2BxQGCKg7yn9ZHzszrCoEMJS9Pzro4dyxANeghTwtstgK8eX4TF6510Y4DuYVlip8amKn8oEJ/uG/EwuLBwhJIi/sKpbpYT4mob2Rygl9Ceb4j55alipwreljKeiiJo6NOiGkvREUcsBurAd0b1Wp1oYWFhcXjDVYDW1UBP0yKsIag9abn5VgNOrgiNcx78Q1cT5YUiayjitP+YSF7p/GkdxxHcQgjWQ2hEDMnlxoq1x8tFdWiZZAfPeXIldY4t05WwE8c1BOpp+JhnM1n8IJ/Cs+XTuN4NI2KV0Lb4fIZy3grE/KYXsLVfAEbQugS1U1W/JJwJHq6NlMsksLwtOVI13Kc3dWRewChC7yEUuILeazjGKZwKpjBIW8UkROg5ce44azifDKHqxnDagiJNst16JlkhYpIHaz93P4cS5itxf7A5IXJB1Oi+YmBXZtph+xiajjDs6dLODzpIvDErVPD/IqDNy80sLDuIslL/XLKsktftn+Dfm6HY2Fx/+GNjIz8rf6+hcV9g1ZdWnlRnTlSaXJmVi/P1DIfdcfFITdCzQ2w6gE38wRNuZ5yQVyBqryVUCXqylCfsbCwsLB4nLFVE0i9wB/7rXBm1B5S9LIEaZpKfeOhKnVM3SnLtoKKX0VJCB+EYOV94kgSqrp7ioekXZU0VAv0z0QTGA3qimQmSQJXmN2oO4QTpRmcFOI47g/D9Twhb221TMc7yRW8l1/HLaygLQRAglDjIX3aC/uEjlUY68FtSmeewlX1WybHtIryF6YextM6TrkzeLJ0DEeCKVSdEnp+JuRxBW/3rqoZV1do5eSMqy47NApRlbA4KZDyr19n6p/FwcDOnNDHujsqy0kHobOBZ09k+LHP1nH6sIfQ99DLJ/Hdd3P88suLuL4SSN5WpSwxX/kRwhDGneTRwuLBwhJIi/uHHTrLqEa1w6+u3JdKm1/ZqlLJzXI8iRehEbhYKFJsFhm64pZfTXmPqWjV/35laGFhYWFhQbAJ7am6AWpSGUriJOhmXSRprIhbSYhX1amg5laVRE4ELxeGlxVwsxx+DrXIvp/7qKVlIZBDmI0mMSYkMcgCBHJ+SBrsh/xRTIajQkRLavKeJWyqrqpv967gYnoDy2q8Y6zIG7uZeo4vvE6TR6IfTQVN6ZQNaYs80pbE7rOkEiN5GSeLaTwdncSJYBZ1VIQ05FiUMN5Orqmuq0vFGnoMT8gjrVd6YRBFVVVg5qMru7Nu/yz2BzovtttDPMetbuUo6yNSKZfrGK908EOfrOCLL5QwVueHjgpurpTwS99axitvt7AR16SNVFbWx36p2RblN7dG5NjC4gHBEkiLBwCjtagaqcTkWJQZvxJzVjmeq4jem818jAmB7IQeVkUZbuYp2kIuufRHJkJfVOWrKkLCbC0sLCwsHnfopne/ZpC6RU9CwxlMUyGRMbpCIlnvBK6PEn9CJktCIMuyrYBDJwJUixBVt4y6kMTRvI5pZwzTwQSG3SGEeYhI3NW8Cqp+BMdz0HC6uFGs4kIyh/fia7iWzWPDayERUsnYKKujmh3TELbteot7+nyfPMoeP5iayeM45KMqhHU2H8XT/kmcCY9ixKmrenPVa+JidhPvJFdxq1hG1+2pZ4UrtFGtAdj3vU8ct0PSWx0L/d9sLPYIKjvkn0p35jp3+Z/lQE+GQ+tj2dnEMyeAn/jyFJ484SCS8tbLxvH6hRS/9M15XF4AYgxJOeeMvqkIS84A+v7fDh2ahcX9hiWQFvcfW7qqX2n1lRpnolMEUhRpKS0wk3qYkEo5C3w0SSCzVJHIjijNxJNqjxWq3Ex1uFMlWlhYWFg8pujXMdwMClkYSRXrGS6D0c17aKVcOioRB4Vao7Hkhhjyqhj36hgXkjjuDWMqGMchfwLT7iSmZTvmjQjBjEgF4QhBy/0cba+DJawLYVzC+d4cLiW31LqLDTlP8uiKO1oB1RqPfasfY6XHpfXjtwUeib9SF9KGlLFnjuywC+10MYwnvGN4KjiFQ96EhO9g3W3hKhbwTnwV1/IFFWZOu6XcT7Jq7JwmDLM15NocW+wtTNprYduHZ0kgueNKcfUlH0kgU/hoYLTcxQ+8NCJSw8RQR5yUsdQYx69+Zx2vvNXAWrssLsviGX0ggdyldaTC2A7VwuJBwRJIiwcGrb60qpT6VCp2Y4HUBHJaCOSkV4IXBOiJElxPY6xwLKTvostBKQJ+kTWwJNLCwsLCwsA0j7fqGjasRUjaWN9wIptW0UMjb6GZt6XJncB3A5SdCDWUMOzUMOoPYSwYxZg/LmRyVI11LBeRomTsEtvxe1jGGq7mt3AhvYFL8U3MZctYdZvoeLEae8mwSeKU3VGzBAVDHg3MFdaC6oOq2uds5UApC9T4y3NCHp8pncERfxq+kMNNt41rQh7f7l0W0noT62rGVR2moo58Zrl/O1QNnSYajMV2TG6Pk8WDA/NI/0x+6IzSrSB+PAhkP5D87yLEJk4cSvDjX5zEU8ekPHBZFozj1fMufv7X53HhRoJeXlHWR2Y479afH3ZCAlBlUAVkYfHAwA9UFhYPCH0lJmJUKDtqxEIOaWXckFqTFkfkOYbk/LBUh1VReFz6gx0zqBrVeEh1n4WFhYWFxTZYL2jRdYwicWrcIa17QM/P0Sz1cMtfw3v5NbzRu4h3OpdwtXsTy8kGOkIocw6XKDz4RaDGRwZg90Ahj06OttvFfLaixhy+3r2Et5OruFosYNXbRNcneZTQufQCqRy/kqrI6NpqJ3nU0PUZ48a1KBkGiWo5CzFRDOGMd1h1XT3qHFJdZ9tuDzfzFZzvXcfl9BbWhLQmru62qJ9S99RhDcm1l/UBw92WrZ+c10uUWOwltlNc572aYYk5JuUGrie7kotOgmqY4cmTEc6eCFCThpDjl7HRqeCNCy1cupmgFYdSbkge5fZCtY5EdsKE0Rd1bGHxYGAJpMUDhyGPatyH+joslafnoiGV2ZoQyDQvUJFrQ44nW85ax+qO5FErX1Z6Vg1aWFhYWOyEqiPUjzskUmzYSG3DukYOUiFc3SDBut/BHIQMJtfw/e55IYTnZXsBb3Wu4N3uNVxsz+F6ex5rvQ30ii4SL1GL899IF3GxdwNXs0UsuQ20/B4Sn+tGSlgShiJx6ifVG+uuvtwZrAMlXn0CEGY+RrMqTrrTeDI8jmPuFMpFiJbTxVwh5DGew5VESKvTRCzhskur7rTaJ486ATR2BGsubZ3ecd3iwaJfKgeSnU1udl31JPddEbZtUrhFD5NDGZ49U8PUaC7lSsqXN4IrCznevLiJ9U4gx2V1D/3kGqK7t4lsBlvsHSyBtHiAoDLTCo1jQlSlLlvuU/01RAmuCoFMihwlWh+FQFbFVSDMUX1NFbCSZjWrPqZZWFhYWFgMol836Ma6onGqjvHlkOKoJTsghNBBK0yx4K/jvHMD38vP45Xkbbwcv43vxu8pQnm+fQXz8RLaQt5I1hpOG4vFGpadTTS9HnpeioxWRwE3ap1jCVdNh3NX0qhBFxRFHWXHzzwMJWUcdabwhJDH4/40aigjdlPMO0J246uKQC5K+B0hwrmEwTrULNdhHp7/t0Lv75iw1OFtDiz2DJLu2uq7lRMCXWJUB9Qik9NtRE4PZ445ygJZ9dvI0gzNbhXvXG7j/PUWNjue0ExaIPnxgQTzbpk5GN7d3FlYfDxYAmmxRxBFJhWeJpGqukVLlOsGMsRCINlpqCIEsiwuQtnnsPJBKDWo60qzsbCwsLB43MGqZWtX77GZTXIXSJ0T5p5sfaljfNWrpe0nWAsbmC+t4lppEVeCeVx2b+GaO48FIW1Np6XWVkyExLXQxUbRQtuNkakB+ay/NDGlsLeMxwlwNCW8I0ydRTLBbqs8puWxHpcwU4zjbHgMJ4PDarmQrpDUBXcN55PrON+7hnmsqfAZuifP4skzkT/crR6k29vwvhMWDxaDucPEN9KHtHVohXSKFAGaODQS4/knqjgy46FUkstBDTdXfXz//CaW1jKkOcdKslUkLSiV+X2xsNhHWAJpsQfQik6pVH45lWKXOa5Uig4abo6eKFG3yIRAOqi6HkJWylIfU10aHanvVbuDatjCwsLC4nGHVBA0yGnZrm9oreOyGoGIz7GRygHHHqaIvRgdryuEsqOk63aQ+VIXhdIs8jgGkh83xQ16iMU9PdS1l/bHkEfakvhJlDUTP4wOgkdbZ2SHPWrUuEe5v56RPI7hTHAEJ8PDGHeGlIVp0dvEu9kc3kvmMO+so60m6qHNylWT6vADLDvMMjT9Y8jvx53OW+wlduZCP8ck/1mSvCJBhDaOTxd46lQZIzW5Jnndy6t471qMd6+00YlDOG6k3LPBrsoTrd36z8Ji32AJpMWegmqT/0kge+xSpJRlCkekJISy6rlCIFk568pfue4rSwsLCwsLi/dhl/pBnZIKhHWIsRrSIhkUfYtkLg14fqhU19jlVeoeJ0AUhPA9WohypEWqZm4thEySsrHBpBvx9F1bHk39pBr2O0BXWzAH4j7kElZZHae8GSGPMxhz6xKGg3Wvicu4JeTxGm7lK2qWV3aZVYRVfppCKE/6W4uHC8w3nXf8zuEVHYxWYjx7toKj01ImnQRx4uLWco7X393ErRUgKYRAqomaWPbYVVrdbmGx77AE0mLPQDq4RSCl6HGpjrajLZBFxh7+0F1YpVL3RXRFraHvsrCwsLB4P4yGPBhacq9jo8KShrURghsjBN1oyyGtkdJYLzjfKu2TXPzfRSTHJSdE5EXg2o9JkaGXx7Jl91EhkEL83Pz2sY7a4rgtmlgayDmOWRPRY9ckfKnXotzHSF7GMXdCyOM0Jr1heHJ9023her6AC/FV3Mjm0XBaSIW40t5I8qgtqLrJJo9h8RBAlUdu9WG/dEghQCrXeojcLs4dBz717DCmxgK4jo80H8HlGznevtzBWjtEJucKLtuiuj73S5wtABYHAJZAWjxwmCpVqzx24KAFEuiJdOSoK+QxzzNFGiNRjKHc4EslTfdUteZ+CwsLC4vdcLC05H7EhvWFEQPGg11azU+DLjQt4/IdbIxzUppAiF1UhELmpMEuhC4mgSwSIZBSPw003pWv9LNPDrVdcjDU2+OhQi6kJpM6zc89DOUlHHbHcTKawXQwKoTVR9vt4EaxiAvJVdwU8th0m8jcRIXJtSVpId3qkbPls8XDAP1BQ5cTVYL4V8SSrxuYHuvhM89XcOa4j9DnWMcy1pp1vHmhg6vzqbSNIrXMDC3g2uJt8r9fBvobC4v9gCWQFnsIUwHrvUQOerLPSXSyLBeFCmWFjKSuZVcj/jjpgVrOg8IbLSwsLB5LUHtS7gBl7thvLdmPoxAro7u5b87rnz6639j55DzWtFF+u5BIXRtp8XIXJa4DKQTSrAOZSr0Uc5kpIY9cbkFBbfS9WoQUOBQ28uXybQ9Gx7xT7hc/eFTKAkzlo2rCnKPhNOpeBamXYdFZw4WUaz3exBo2kXgcc6mpKbvf6tDM51QVCYuHBLrEkzz6IoHKPt/poBY08OI5D599cQjjQ1wP20EnHcb3L8T49vfXsLjOnlrSIpLyxbxnObo951ng+rsWFvsASyAtHihMdbeTAHKf4yATqXiTokBWsKtOgdCVilzOB321e1uV2a+c+xsLCwuLxwTUeoNi0N9Xmy1NKRh0s9eQsBWTMnEwcRrcu78w/g6mgMEWddwikZoQ6j261hZIdmGtsAur1D4uPGQ5CWQmjXhxyUdSvpnnGhSNnWFvh6DrtkDCGC5qOOHO4rg/i2G3jtxzsOo2cTWbV+RxCevouqm4ps+cNoX/eST+CAnVNaJgMCCLAwiTQZr6C2WUrZBH5qi0dUK0cWIyxheereH0jIOyl4nTOhY3ynjl7SbOz8XoJj4ch52rdVvIlASb9RYHBZZAWjwwGGW3rfC2K11FDIUs5iKxVNT82ssP1aHriTL1EUply7EmO4mnhYWFxWMPo0q3cLum3R+wiWt+enIaPRkaGxp6DBdozZOLyjJ5n6FSQPy9rc5gOCqsPp0TEkkhGdM/7dYhgXQClNwQoTTaOSYxkzopUQSSfurGu4Y8nwSihfeqkPUlHZi4Zzia9PFOP3VRS8uYdSdxyj+CQxhXYW6gg+vZIi4lN3ELK2hyJlhxz2t6tlX6qP0f/Fk8HNBWai4fIwRS8hMcqlO0MFbqCnkM8cmnQ9SDDr+moxXX8b3zHbz85jpWW5G8L5G2PivR5YrYLgO2HFjsLyyBtNgbKF1HJag65agKOXdcZJ4QSLmYcIyIXA/lXMnhUh664aGwrTstLCwsLLYwqCT3U1Ga8DV5VKRRRBNI3YzWTV8dY3PmvsfYBGDQ39cb3fDeIpE8y9a5xILjC9l1NVTdV2nnE/JYJEjzhK6UGyUDEe6f0dIPR4F1mwqHBJJLUrkopyEOFWM46c/isDeJslNC103UTKuX4pu4kS5hEy0kaqwb40PyyI+oJkAGYMTioGO7mPDTiRDIggN0uHxLGxW/haeP5fjyixUcnszhefIuuGO4tuDim68t4fKNDL2sApdLtvADhMryneXAwmL/YQmkxR5BNywM2IDgV+hURBNInjUEkkt5yFGuGxxKeaqvvBYWFhaPJ6g/9ec36kYR6khe2AKPzJm90pc6zO2fHDFeW8FzhxY17uu4kRMZzb4n6AeluJiKiBGmJbuv9ruwCoUMvUC54+Q53aKHWLZCBZVb3qOfcNsPTYMJuSI36ifUV5XlUshjkIUYy4dx3J3GUW8KdaeM3M2w6jRwLZnHXLyI9aIp9aCyPfZ/2+RRUV2JtxZ1yuIhgZ44h9MgAZ7TRclr4Ohkhi+9VMOTJ305TpBnZay2anjlzQ21dEc7rsL1qnAcfkjQPbO2sV32LCz2G5ZAWuwdROex/jb60BBITqaTyDFVIlVtJDuhEEZ+ubawsLB43EGdqcijMAhXFCcJj56Vkz+BUZX7ojJVDNR/TRSp1wvEbo7YEyLFRflddVXLPsRRxXArXE38KNpK6qg1IdmFNfIjFL6LnpOinfcUiVQdXVkX3SXe+sn4bJpSasrJdSZ9lIUgHHLHcTw4hHGH6z3m2HSauJkuCnlcwFq+qSyP7LbKJUYkd5VvOrh+oCbsu8TB4gBBioIqc+o/S0YiZWETo5UuPvlMhE89N4SRqmRm4aOXT+Ltqzm++b1lzK/ww0NZSKO2WOpxr4OZbwuAxcGBJZAWewatSgn1TVVVsqkILZCxNDjY7YdqM1LCfa0srcq0sLB49GE0pNaS22ADlBYpESGP7N7ItQu3FpZ3KOJmgFDu9OGe8ZFuNhqaGrwQnZ6jI+SxU/WBySF448MowlBZ5PSTfMRgdoHx54P9Mi62G+E6Llwigz1ePJSk1gndUFn6ulIrddR/Pk3/+T4wEHEgfwW77MotXLKjlIYYLeqY8Scw7Y+jJCS143axUKxirreI5XQDXSdRlkXmpyeEgh8GNJiaA7jtwOIgw3xvYE66RSbksYGy18STx1x8+aUxHD0k76/HMbZ1XF+t4uuvb+K9awm6aVXuCFQZ0i2iHWXAwuIAwRJIi30Dx6Fk/FIt+2opD1GarNAjV0TOcfyMgVWiFhYWjwf62k7xCP5zVIM0l3/s5Mg5OtXM1bIl19iiG2QtH1dTfpTbVQR0UzdzcsRuhg67kRwexchzZzB04jBQjaQ5rBscSvrhfMzYfiww2qxvaIHk+MeyGyEQgsd07uYx2kWsupUy3oaY78Tt8ddpoNeMlDos81FPy5j2xjAbTWDIq6CQSo2zrs7lK1jI1tF2Y+SqFaatyoyL6rqqSORuIVocdCjypwoGSxc/hHcRFg0cHU/wpU8O4fkzEepVKVVeFeu9Ebz8ZhPfeG0VC+uutIGk5cPsV2+5sT7u51tiYXFnWAJpsWfYqQq5T9KoujvJUSr77O8fONvLeBBWhVpYWDyqMFSBjU3TcZEYHFPHtQg7bopuSYjkcISs7iP2cySkkRwnpVusalgAhfxD+/kB2HKkd9RPvBq8zzgxMgh1LO41cRJi60gc3QTJcIDo9AzK544AY3VkvjQ1lJVUk8ed/twrBuNB4VMbvmXO3Q3KvRL+1+7VR0shjiSQoSsEUq51s1iJHpdIt4z7tu/GHwNzrD+KkkACpTzAuDOEI+EkpoJR+I6PlhDGW8UarqeLWENTkW1OKEdLMuNB0T+LhxEkjwoO+0/RkpjByTcxUmXX1TI++8IQRutdFHmCbj6Cd+eAX391EZdupejlFSk7vtycSv6TQJpSSsjezhfTwmKfYQmkxb6CCjKTf6Jm1fc2NjI8V48CMYXT1NvbytTCwsLiUUFfwUkDUVkR5ZBn1FlpkNLWGAt5bJUyZIfKqD01i/oTs8jHIvQ8aWiSsNCd3ErqQj2ppO/trtgKYBD6pCEw5vIH6V0zFpPkifHsRim8QzWERyfQCh2sdBroJrEijtrC1r/xI+B9t0ok1bNS3vc8d0D/HoW8gCsVTyTEseRFQvI8ScNcyGNXGvg9SXndkNfk3qSQxla4RuTBeC971TAy1byEaX8UM/44am4ZmZdjtWgKeVzCzXQVm+ggk0ThZCk7ux9vhWMCs3gooPJSZZorRUtKjZShyG3i7JECX3hxCEcP5fDdrpSRKm6sVfDr313G98830OiFci5EIY0evu/gbLxSjlSZlu3AWy1C2IJhsf+wBNJi36ArXSGPonQ5FlKPkeFYEBJIjvWRA54zOrOPHYcWFhYWDy2oA5Xoo75QF7LhSHtYithP0B3ygOMjqL14DCMvnoB/ZARpWVyJgjRz1Az6pYTnB9B3pnTqtgxSlx3onzaWTcqWUxFu2IjwHFc1fnuRxHY8QunYKPyhMtY317Gysow01gRS63Le9dGx9YwUHg/Kh/BaRUVuYNdRjn2k0AaYFRl60vDvFWzok6DT5bbH3FNHDH9LSDN1g5/Oo8zDGKqKPI55dVWfNZwObmbLQh5XsI42eg7tx1LrCfPXlkcNs7V4WLCdY9KUUSSyUIWikDLVwexYis+9UMMzZ0JUvBYyaew0ukN4+Y0OvvbaOpY2fSkFZbmRb1IuW1q9t0beCmRPlcHtMxYWBwGWQFrsK9h9JxNdG+fS8Mh1n3924ghEV3ICbKrmQbGwsLB4FGD0mWkavq+JSJMibVpCYhIvRTYaID8yjO5MBenhOtyZYWSVQPSn6Elxqipz3nObJ+/H7Tp1+7cb6NVu3m25ZrgiPOZQhKQkFEziVj4yJudTtG4uIl7ZgJekSp9v+7Z7eHfClmvZMb4YnwZxz75LA58/kke/8FUX1sANVONfUhrdvKtIZKbWZTT+6VTakn5g3LC5z9qL/pUyH6N5GbP+GKaDUVTdEmLJw0VOnJMtYjXbROwmQriFcKr80vUcQb/MM1g8LBjMMclJ+eNHHxRtVMMunjvr4bPP1TA9msP3PGnnjOLdaw6+8soqLt4EumlZ3LPLqy5JWoyfpkQMhmFhcTBgCaTFnmOwsqSqTKXSVmtB5pzKvEAoDigkkqZxomRgn9g6r44sLCwsHk6YJqKRbeVWIHNzZEEOd1SIyEQJy0GMtTBBPhShKHHMHvWk7rFxr0sfafq0/RuE7i6n9wZ/9N+TwCiq26oR+SmrnZshrQkROzyOcKyOdKOB9OYSvM0OglQvmcHxmrc3kD8cdGe+2+V9dYAc3M133kOo2WxzD4FI5OgZWB3HRSKN/25GC2SsuuVq/3U4xmd9bjtcnpWkUGR0WAjBoWIEh/0JjHg1dSe7q87ly5jPV9CWfXZT3H4CDRNn5Vdftk5aHDDo3Nc/k4fcc6V0y7mihwDrmB3r4XPP13DqMOd26Kk1Hxc3hvDN15p481KGdjYqL1RVyo62PpoSve2vLgD6vw5TwxYMi/2HJZAW+wBRguzrIWBTggSyJw2QOEtF8eaiaCEVuuhVuaa69oiu3EkeDXYeW1hYWDwM2K0JuNV47F+k/UtoDLLIgztWRVYPhIx00XZSoBzCDQPlD92rBfHlXs5ezYpd6cbdAunDEMCd0M1hLVw6hOtO+iKBuGXPEOV/XxhX6vCuxLQXyvHkEEqzk3D9APHiGpylTZTjHKHcT/cqQsritt3ovheoWwXb92mYmJrn/SDf6I/2i51VuYSHh7AI9QQ6vl7Co5fH6OQ9RSRNR0KTTiYeW+ifUP7Kv5BdV7M6DruTmPRGEQqN6IpPy/kG5uJFrMg2dRIJWxNqM2mOwfv8tzjA0Pm2Xe6kdMr7QnhoYzjq4MUnAjx7NkS9zK7KAdrxKL7/XoZvv9HEciOSElZBribcMR9VWL51iTDkUaMfii0gFgcIlkBa7DmMDuSWajORvZ7UvknObh+FVLqOVOr8mqsVplbOGlZ/WlhYPDIQ5dZvGm6LUnJCzET/pSKkG3m5DH+kztle0M0TpSsdT+iHx0lftF5kZe7LjvrwRr15B2XJ05Tc4cQ35nj7v7GDMA60NFIPB+IwzF1FIj3R0VqkoSvOEgms4+dIayGqs5OojIwgaXXRnV+D3+ihlOmuoqph7MhW7qHvCjqYe0PfHSkr7TxKCop+3kG5u5d9AivuVJdTJ0LJLcF3++MfOftqkaouubRAEoPR5BmTPgqSFvSP1t8o9TClrI+HMOQNwXF9NJ0eFtI1LCSraBRt8ZOTHkk8JSH40/5tY+exxUEE855vnC7X5phdoPlGRk6MM4dzfO7FIUyP82qm1ny8Mu/h66+u49JchjjhYmWuFB8hl6qrtH6TWTb0xx1u5ZSC+C/n1NbC4oDAEkiLPcOg6qMuNJKK9ER5cm0zOvKlWJJEsiEkhwrUo0aXbulUCwsLi4MMKrC7SR+3neorRnaHS4VwpUJCvEoVYbWiGqh5kiCLE2lcSmOTTuUWEkHerX5Uo3dQkoM6lHRRbw1kTwXNsD0hRFyXUDeRCRIfkqpMWg0Mj/qZ98Rehm4kd4xXMTIzhbIfobu0gWR5E34vE9KpmxnU86nsctI0NpX73t4bxC2dkxzqbrSaxKomPKPNeOrofwD6T03/JI1pgSw7JSGQkZwSsl4kqvtqzJGQ8ryDU5kY8MzOtFNrSQrBruURprwxTASjCMVPLtOxWjQUedwsOkjET1KF2wioxUMMeVekfPN90e9ehiJpYaSc4NPPRHjuTIihqpz3a2iko3jlzQ28+m4D6y0u8UEreCrvMGWbQOqSNQClD/r7FhYHCJZAWuwZBnWgaeRQZSbSoOiJxKKA+fU7kHNch9rvf9k14B51qZy0sLCwONBQqqqv5yi3YeC8IoJbbtgM1VuSNJKuzPfgV8qISkJypIGa93pyIdNNVpIxcUM9qidyEYIn/pnVC3UkbhfVHhWhbuWQAVrxtJ41jVdtVaH1kcdqTKCfoV0q0CoDjbBAV5ilDpPrUyZIKi6iqRFUR4fhxTni+XVgtYVSIuRK4kji2BXF3i35Ih56wj4ZT0P+GLVd0Y8z46O600qcKLQcUrhPMJ65PEchxJIWQSXEDo/1WU3f2DU3LHxUhUBGTignaO1NVffVWIgkJydieuo00eAeg1RpLtf5YxwCYdWV1MeYU8ehcAxDQhjYutpEG/PpChbTdXTdFLmn05QRUH4pXy0ePrAMGcInhVnKon6fOgjdBs4dBT7zrJSFYSGGeSZtmxou3szxyjsbuLUeSJtHyoeUAY64deVt1RMG6nJJmLKhzxixJcbiYMESSIs9h1GHuvCxceGi67iQZpE0AjgLa4FIhKN79Mx9A7A61MLC4qBhsJ0nsuNQ6Tpa87akf27QjfovZIQ/QhFCYVhF6CKsCsmJQjhxgqLVgUsCKXrTFeF9mtRwa3zSvhghBo9J3LRoHatJrCZDmsxK81iOe0WKDT/B5rDo6eNCDs9MIpuqoRMK2RKHsZMLGZRG8lgZ5dlx+GGIZKWJ9OY6gkaMMGOzGIiFPBajFVROTiM8MomkGihLponLnWDia/Q+u/Wy82rmeNLsFlHx1PHV5FLvmy6A6r4+lD8Cdap/PRACWekTSBJCjldUBFKIJNPe3MSN8o5prPa3ySWpQ5T5GEkrmHZpfRxByZN0EGK9mq3hZryItWJT0ouLVRFbT2XxsEK9JPozTSFlkW+zI+9KULRweDzBFz85hKdORyiHGRyngpWNEN/83gLevNTERhxJWZDWjbw7kHLGd1B5pzzeCZY2C4uDCd2Gt7DYY7B5o37soiUSq6+/hkACJWkYBVJZDypWNeW5hYWFxQGC0mMDpIViQN2lLGY5J6IRndYX7rPb4wBHESif+j91iMKTf5GPoFJCEARwejHQ60kYQlxIFtX98k+FK/cxnELPLKrCEFFxkrYqLW48NmETJES0phG0aPoiJLhkZbFQtEaQozHqIz07htKnT2L4M2dRPTUNVALR1zkSaTunFQ/h1DBKh0aRpSk6N1bhLrUR9eiXEE/xvxtJmLOjmHjhDEaeOg6MViFR1HHrh78TPM1nYto5XOapELIqD9LycrSFkPYiD6nvSSOGE+H4iIpAbQN5fl/OsQuusVAOgo1+/ue1UFzSAsltIgSgXfREYnk2kgMNnRuapJtz3GeXXjVGUv5KeYhDzigOBxMYcqqqrmo6bSxmqyIraMl+LoRD+cR6TXtj8dBBlwVmOq3vtN1nUub4GcHNu6iHHbxwJsCnnypjrBar8h0Xo3jvWoHvvLWB+Q15l1CS8uP2CSR9EB+lQClRR4QpaQT3B48tLA4GLIG02CPcrgCNSlQKmORRKtVUzrAbEr/nhXIcUClbxWlhYXFAYZp7ulm53eGMFasSaRQaIZkaFEWe+sK7+Ntyp45ER5JdBT78UgjXFc2YpECW6QlY+EEtEw0q7VC612HyvNxDP2VLJzw218yEOCSJHHXVc3PVHZVEkESSRI3XOBtp1wfaw8LUzkzCf/4wkjNjyA7XUJoYUvHp5UIWRWtnQxGCQyPw6xX0Wl0k8+uImpkQOh+566LnO0IghaiOlREcHoU7VUNW4TU+4Q70T3FDUdZaEkjZT4Q4NoMM7boH78goqqdnEEm4CH3VHTZVwq6xEn8RlRZ9fzS4Jxf6dQq71pbcAFVPCKSkbZwnaGUddPOekF5JVHF++/3bIEGkBZIX+RGgWoTK+jglEjqhsmSu5g0s5avYQEPirgdoqHGb4l7HwOJhg7Y/a7CMaYs437MEvtvGqdkcP/jSEE7NFAiKnlyv4uZyhK+/uiIkksvDVFFIWdOdzFnGdAkzbyj9tLB4WMBSa2GxR6B2HNCQsssjLuOhJliQRosmkIVU6C581UiSC+LIfLWlWFhYWOw3tnXRtl7jOU0cSX40UVOVrOgvjqlTk9D0hXdovabdcXIYXyTobzXRkJ8vVCjUY/SKVAikkDySSZd9N0kmFSlRLlWXUs6I2ouEcAX8OKdjxk9xEqQinfwox18iBDGrhginRhBODiMNPTWRGd2xeduJhCLN1hE+MY3kcB1rUYKNXKhRlghvzdGSBnLLT+EKoYwOjalZYXvrTWClhXKXHwB99WGw62bghJNJ1RMiCbScFELRBmx8OzCg5I3OZ3p1JGF6Iz7KZ6Yw/elzmHj+BIqpCjbLOTbKBTarDpoi7RJUGiQSLomwrjkkHWSjj9hcNxPohKj5JQQkkEWMpiKQsaqHJOoq7/TdBv0486Q4YLrS2lvLIkw5IxhxOfbRQcPpYjFZx1KygbbblfjrfFIfDrQPFg8r1LsruejIC8SPOlKWnWIDI5UOPvVMBZ94MsRwhQNyQrR6I3jt3S6+/cYGljcDKVd6HLMjZY1rourSpApTX95f4iwsDipU3WZhsXegytSi1KT8k7aSmmSBXZT4YwOHE+lQNbOAqq5agj6XtLCwsDgAMA09TcgMtMVRrvKUOFHkR8hM08/QCHPVLbRNkkfLn7pPW6UUiRSS4QsxDEj0qA/ZyPSEdIQ+5+nQH9j4cY1jH1PRnIkmJvz1hJg1heR1pgI4p8bgHR1GVvNFtwpxFb3aE8rWEyLDBf87birkT4jgaISxc8cw+fQpOBN1ITu50sOJuIvLEp+ZIbgiScmV4ORcs4P2WgPdXk+t+5gNh2rsIyfPydo9dLn243oHEg3hV0LK5PnVeMKS7FQC1S222+sgSeTJVbx3YOAEya78KWtghzO9Vl2UT0xg/LkTcA8PYVka7UvFOjbHHXRO1ZE8NYb86UkUZ8eQzVTQqziI5XmUpYce0zP6KzWLL6SPXV6rbglVL5L09NCTRn0ra6t1IHXnxJ3Q9iftG/PYQ5AJoc1CjDp1THjDaj3JnqTtmtNSE+esi39CFZR7RVxZiVk8vFAfJFgCWBbkPZP/vtNAyWvg3DEXn3txFIfG2VU5RZyN4MJNH197dQlX5/leVUU5yD1Snl1+UOgrCPpoxMLiYYIlkBZ7CCrMbdHqUqp3UaiZKGV+k86kkcKGQ+BoCyTJJPkjv9RT2aqb9I0WFhYW+wZyAXb7pNDSRdEXtJA2cI3ElhDGjSjDetXBxrCHjRGRmoPNSK4J2eBYQtUwldpYqzba5riMhGhFEUcIZB64QnAyIYMOwlIJoZCzvCN0rCf0RAgnrW1NTwjQmIvs6XFEnz2O+kvH4c7W0ZNwOqr7p5BXIYWtCrBZFjLrddFwO+iO+CidnIR3eBTdioQjpCvxC0UO3XG5oeSDSysF7RzxQgNZs6cIbT4cwJuuozo9hlIQoLO8js78Krx2orrJ8qcsrkL+PCGPQS2SxEqRtroouonqLrubKmcy6qSkBbUQUitkl8uEzA6hfnYaxUSEubU5XLlxHo2oB/fZQwi/cALhl0+h9OWTqH7hJMovHEFxWJ69pAmo6u4rqcrwOA7US4SMFhGGvBrKTqQaQuy62sxaQvgkTRXxpHsTQxUhyWOJk2xzzgKb+wiTAMNFHYeiSQz7deW+KWm6lK1jOeEcrEKembFCWt2CI0xNk0vH54PFYn/B/Kcw3yimPPTPF10ExTpmR2N87oUazgqJjEJ5L50qFjtj+NbbLbx+sYVGj5M0cd1HlhB+nBj8QMGSZvPb4uGD0WYWFnsMVs5UolSdmkByHEvORoXoUZJHWiFVNy0Ro16Niu2rbwsLC4s9w256R+skaRj2u0jwmD0q2I2yUSrQHA+QnBiB+6QQnWcOI3rmCIInp+EcG0UyVkJHyFFbCCDJZNNLhNgl2BBpujESR8iMEDBaBNtZgjgUIlapKRIUCxHLexw5XqDL62Uha0KasrNj6JysoTg1AkeO2xUhqpUc+WwNwROH4EnYxalRFBKvbr6Jpe4KWkJug9lhIYWRsvbFgfhaE4JYL6HkeSizR95CE5kQyGpQQWm4imJIiOfsCMojdWFfKXrza8iWm0LOtEWVoNWUs8iWhsqoVIWMJqLpm114vUx0e9+NUeoCk74mjRUBDwvEYyEqJybhzwxhpbuG5ZUbyIQcVs4eRvWpw3BPjSE7WkF8uIT0OLvdTiE8PYl8RI5VZLSw+a7GgWYeqk4Zdb+q1mskXewIGWjlbcSuXsJD1zoqZ9WW9/NHAkkrZpgHqGVlTPqjmCoJifYixE6C9aKBxXQNm3lLwpY6Tggk3bPz8NaTKYZ8N7E4OBgolcqCTGGespNqG8NhFy894eMzz1YxUpH3Nc3lXR3Bm9dcfP3767i1JvoAUljVhwRjv+77uFX4bf5bPHywBNJiH6AVKKEIpBxkIpwEISt0q4ITHHAWVj3Fta7KB1Wrud/CwsJiL/B+naO1EQmGmfyGJJJWt44QsEbdRedoHcXzsyh97hTqIsOfPokxkalPn8WhT5/D+AunEJ08hM5YhNVShhXhYhvTZbSO1NA5VEY64qMQYkirGJfUKKISXF8IjxC2RIiYmjXG9dAVWpMI4QuOjiGfqmI9jLEZJegOe2jXCiQTIcpCXuufOY3yZ0+h8ukzCJ8/DkxX0ZRG8CZ6cOoRioqPDi2QQvq8WgnlShllIT/54gZ6c8sopQ6qtQqcUPS0+F2eHUWpFCJZ3UQ6vwGv0YPHWWwE1NrCc1GUAoTDNUSlErJuD9lmWxFIdtndDSZV2fUkFvLHrqi0dPpCVlvSDt/ImkiGQ5TOHcPoycMoRyHijU1s3JzH6sICNmMhuiMhgiNjcCZryAKutMeeLvSZ4xBdRGD3VSG1vjwdu9pK2jaFPLbQUV2BSfxIFFlTbTf39TORFJM+hJmPUbeO6WBckqIm2eCg7XSxJORxKRFSLn7RgkxwRliWE8U/xI97E4t9Q/9l1zm/XQrUCOLC19mT94RAdnB6JseXPzGMM7MuSmrw8ggW1iv4+mureOtyF60el+zg3PLqpv5Wb0ypul0sLB4OWAJpsQ/QatP8p0plNctv6coKKVsSSHb44YQSLKRaeVtYWFjsLwb1EGmBWi5CmBKXyeBVWvA2hfQlx4YRfeI4yi+dgH92EiAhrMh5L0XOLpkjJVSPTqB+7jDck5PoHqkjOTsBV9yXP3sOtU+dRXh6CkXdR+qnyLwcHi2QQQlFVwjjZhcOrX0SB1o8US8jGB+GK4QtyTNllYwlnHxECNyJUYSnxhCPS5N3OIB/eBT1Z4W8PnMa2cSQkB0hqBLvIgRiIVBFOUBpuC6kL0La6aJx/QaczSZGhofUGMHNuAF3oqom3/ElQZKlDRSLDQRtbVkkWVNCAsllSKoV+BL3pC0EstGGz7GbTC1Jsvfp9b5VhvUCJwVKqi6C6RG1jmRTnimplhEdnUVtahJhIul/fR3Z63Poffs8em9eRrKyCXB5j+GKSBWIAmVRZFxYk3i5hwpKuvuqEEieb+ZdZTFsCRXn85sOrIowqNqHYLx0rxlOeFQWAjnm1DDpj6ixlJk8+KbQ8UUhjytCIrvy4/AMPo/yYbdntTjg0HmnSwBz3pcSQAIpe0UD49UYn3uughfPVVCLpNzkPlrpGN64GON7b29gsykvlFORe/mW6q6rhC0HFo8ClEq1sNhbiPqUP901iCqVa0HqmVg5HohrQVLdkjwG4m7rS/W2JlcY2LWwsLB4oFBkZ0AH0dqolsjgVlWlDhLZcLxeb7oC75lZBE/MACNlxL0eGjeWsPbOVSx/7zzmv/subnzvHdy8fBnLvXUkQi7LLxxH/dNCGp87CueJaZSenEV4nAQyQuaLnhRxhRhFfggnLtRYRD/Ryx45vqu6m3rVklavmRAv0aWpL41WLvJ/dBJuLcDG6jJWrlxDZ2kVkeehduQQosMT6Eqc2YU258Q4wo5yYYVBJRAF7KDdFXqZdFEfGUJJyNtmYw0dIVnhzDh8CS9rdpAubiLY6KGWcg1GV4gT1NjDTJQ3CaRbKcFxPWSdHpx2jEiUPS22VO1MU2XZ6/8IbklAU4lLMSz3Tg0J+Q5QBB5KtSEMl0YQbWRI311E9t054PWbcN5dAG6sKf8d15WwJc1U4lAkLG7lX5gFGEINo/4wyl4ZicRzPWtiLW+i48ZCxrdnb1V1VP9eUw2xVwzHeNaKCBPukJDIutRTgaRJguW8ochjW36ZpCfX+lPB61vVcxl/LA4eTF5J9g9A55mmf56IlGcnRi1o4fkzHj73wjCmRqUV48o76Y7i4o0AX//uKq7dyhFnQh4deV/7/vRLfP/I7FlYPJywBNJi36DGDFEpb5HHAkkuDQcSSFb0jodQiujW1OdW41pYWOwxdONvd/WjNZj8Fx0WC1lqhTm6owH8M5OITh8CqgHylSZ6b91E++XLiF++ivw7N5C8dgPN14VMvnMRS0s3kdZdjHJdQ3bTjFJsOF10OXNpvQxEEQohRJyN1RfSF1BZNoQktRK13IfD1i7HLJakcRuwShdxXMSiRzl20quHiMZqEvkMnes30HntPTRFGtdvocjl+pAQ1KqPvCIN45oQXyF8WdxBQsmFUIkf4dQYKrNTaCYdbDbX4Q/XUJ2alOa0i95aA9lKA1ErQznjGT35TcJuoEJEnVoJrhBNLluQtLvwulwjUvS6aX6oRJVU5FYbaOQUpxGSuoCkebSGfEhbCkuOj9E0RPVWF/n3bgl5vIHw/DpKSzE8Ia9eqQo/LMMRgpd1YjVrbJGk/ZDEL2GU5byEMW8Eo94wAjdAW8jAcr6BDSGQPVdqob7VUM8CrnPf5DuPaH0syXPS+jjhj6DuVMWdh42ih8V0Q8hoQ56dE/GYTrD6Pu1L3yfjocWBg8kvnWe6SGryyLYKs44zH7dwbDLBl18axtljPsIgkbMRlhoVfOP1Bl59p4XNti+ekDz2y/lg/ltYPAIwJdvCYp8gFb0o5URETfkujQxOpMOKO5RGkCKQdCV61yh0CwsLi70H7QdaNEg0OCU/LQ+FnuW0KqeODCE6MQFXiFu20UT+7jy8126i+s4Gxq4lmFxyMb7uotISQpi5iGplVMfq8AMPndVlbF66gO7qYt8KpoOhknSEdAWFh6gj59e6cNuJ6i7KMXuxnyL1E7VEB9eNdP0ASZYiSXtCQF3kJSF6WYyk0QSW19G7chObFy6hsbQk5xMgFGJVqWJ4eASVMILT7iBtNJD2YiFkEYYmJ1VX0LX1ZWVpKwuhrNeG4AoZ7C1uoFhtI4oLcGgk46w+CDJdhND6QoJ9jpOMEzXxjwQoz81pZWiF1Gte+tIyp+VSETY5x2Y2x8NnEi9HyKNXjRAJeay1CpSubCJ75Trw6i2Ur7cQNdmHRZoyw1Uh4FMojQyhiDPkEiesd+DKPufRYVfjsAgxDC65MYphry480VGWRxK/zbwtycwHYP1D99L0Vx8vdZ4zG5QfQh7rQkK5bMeYO4wySopYbKAtRHQTzUKIt9AJM+aSfmnLE32gcN/iYQBn3S2kHcKP3FIUBCmKbBP1sI2XnvDw0pM+xmqp5K+HbjaC1y/08OuvruHGiicuo36jZTu/bc5bPEqwBNJi/0DlKsLKl9PTSzNGTaTDKpakkUt5kESqQirnLSwsLPYHWlnpH0F9xPXeaGXKhMBl6Ax5KI4LATs9jcrEMLxujOzyItx35jFyvYPpTR9TcRmjWQnlPFBdUasT4xg7fhRDI8PoLa+h9dZ55FeuI2x3USKB6QgBbAoJ6uVqzcEo9RE0pRErxKjgRDpCeFpBhqQuYQ8JSQuEtInyZGM36Qghknh69ZqyTGaBg2BqFNGxGXhCWAsSyk4LeZIhyl2UhcxWEgcV2QYSXr7RhteMMR5UMV6qo7fZRGt9BV4tQnVqHBU3BITIdm8JgWzEQs5EV7OhzVRh+EKgciHFJMghxz92e+g2JU5CIGkhJFk0wl4mmj7KjeIHLaiKasn9wmjVBDwlIajp5SU0X72MXNK0stxDKJUGZ7ttjfjIj44gPDKGsFpGIfHO55vw1oUAp2zocEiEi2oRYcwbwlgoxM8vI84TLKXrWBHi1+UkRRKm7prM3OaRrneYnqynGMdyHmKkb30c8qpSV3ESo0T8aGCV/rDzMB9BP00f9GeQPG5fsTg4MLlEIfSHAymLcoE2cVoeK94Gnj6R48svVXF4PJZz8h7lVcwtB3j5jQ2cvyHlMWXXVX4ikTew0JZoC4tHDZZAWuwLTPVJtarW1hJh9Z2QQIqwIcJlPAI5pxbKlhpdi7rNwsLCYk8w2ORXpEBOKHLBCyRJ0kCMvRTZeITK2RnUjk6q8YXuYgPFxUVE8y2MdFzUhDT6QjZiuaftS3N0SNwfnkJFyFg3SbBxbQ69W0sIwgqqtWEEcYp8bQNY2YDfjtW6hZGQl1zIWnejiW4q20gauJM1lM8eQeX4DJySaExa7uIEmRBYv1RFVB9GKiQRgY/h08cx8ulnUP/U04iePI3y2ATqCFHaSJBcXUL3+hL8ToZSFiBf7sK52cSQRCESIta7uaRIKSfOqUyMwE/kGeY3kHLpjh4nPhOyJ8RPkS1JHLV8hhDXqFxC6Ptqzcq43UOeskHN5GNnQImrtELYVVX4p26RuOIB/2Tr+NII94XQcr8To3ltQWQeObumujk2ggSLIzl6p4bgn52CO17T4z8l7dMbkm6bqaQ4aZ/4IeS4zkX/vRqGhBR74mer6GBZCOQmhEhL2LTybuVvH2olKZ7hx0xOwJNFatzjWDCEUEg0p9xpKH/W1FhKTmjkOJwCjgSC1NX4t+2nxcEC84hgW8RYG/kRgARS9YeScySKQd7AkbGekMcanjsTolaSsuzXsNkbxnfe3BRZx0rTk/ZMpO7RH5jMhwOb/xaPFqiuLSz2BVpp8wsflTQJpOogotQtr4XyL5TGkCfC420VrO+0sLCw2DOI8uGSQtQ+bBpqPcQGJ8f7ZUgqgDcqZKlaErKToBAC49xqImhxyQpNIbribtNPsS4Nz3iiAv/YBHrVAMsbK2i3G/AnxlE7eRKloWFl8estrQDr4k+rAw6pK4TgNJMeNpImWm4XvbqH0vFDmDxzCqNDYyh3pT3bTFERFjNWHsFoaQTumhCvy0L+llsohSVUpsdRP3kYY0ePY7I2geEGkF1YxOYbV4QkrsJLONYwQrAmcXx3Ea3vX8fa65fRujovCjmEd4iT51SQb3SR3FiHu9lDQOIlBFI1viVN2ACn9ZNbX8gjSVzaFVLbk3ThOHdJC+p6Wg/bVSHVkm5pPUAa6HuZsqReTi4uk1i2qeaVJXEr6bxRz7A0lmP5iI/uU2PwnzuMytEpREEErEq6XFlGNt9AIMSWecWuqOVUCHRRxohfEULqoZP31HjF1WxDzb7KD5TkvAybwgzXs7Hyx0OhhOy+WlQx7g2rZUDINjue+OPQ+riBjtMTYkvaKORRkVHjk8XDAZ1T/K9F8k/y0Cky+EUHw2EHnzoX4fPPDWGsznLBD0ITuHjTx7de38C1hRxxLuRRNa1ZykX4RcLC4hGEJZAW+weloXXlzIaHWgtSVdm6YIYiJTnvKzWulbByq/b0voWFhcWDB7XNDo3DthxpSBgAAP/0SURBVKX8Ux1ZpZGYORm4lAN7T+SNHpKFBpyNRIgf1yHUuo3dOrvipheKm+EyspEymuz+6grxmB1G8MxJ+LMTQm5SNDkGkZZDx0Wv3UG700JPCFejUqBdE79GRUtO1xCM1lG0hZy9t4j89RvAhSVFCo/6oxhtB3J+CZ1Xr6H32g1031lAd24VxWoLkRDL8EYL2VvzaL9+Hbi+jkgtw8Hunj7qXR/u9QbWX7uMVSGXcTNBMDYBf3wMXOoxXmqgkGcM25yVVHc55UdA9ibZmnBE9pUFUG7IuzHyHsmg1vk9YWudWojs5ARKzx9HdHYWhaQJOZcaGyluXBLOjSbiRhNpKM31MxNwXjqCzosTaHxiHPmnD8N/6RiCo5OohjWU1wukF1aQXFpB1EgQaTMSI6WIH7udDos713fRKFpYTFaxljckT2IJV3+o1DZDARv+IubHDI+KCKPOsBDIEambQjXB0IbXwhLWsIEGesK+c3kuuqZ7/aHB4qBD55fO8u2FW/hfU0Ev6yHM2jg3U+CHX6rjtGxDeRcLecdurZbxtdfW1PjHRq8KhxPnyK3m84OG2VpYPDqwBNJi36CUtCKQ8pOSqBpZcsxuTSSMnL+sJMLOQEr/ilZm40IJ77WwsLDYU1DzGO1DkqS73+c0j3kUdpaU406CeL2LopsrbcZJZchlqMpU65IbcR+Ltus5CTBWAY5PIpsZRq/kK4JWCcuoC2HzKjU1oUycxYhDIY7jkZCuMYRPHcHImcMIPB8b795A81sXkHzrMnrfEbL3xk1k55eRXViGe7WB8vUO/LeEWL1yDe1XLqFJefkiNuWe1utz8G62UOmQOHqikrXFrpr6qMq5bK2DhBP21GqozUyjUqsLoePYx3U48owRxxgKe+TQA+pwnTpCnYT4shMnJ8wJxY3fE3LaSxWZpBtOmpYNlVE9dwSTn3wSE8+cQjhWV2mkCKTEweumyOY30Lm5rCb78Q+PIBLCGH7+NEqfPYnK80dRmRlHxYnUTKzpW4voyrP7i22UuVSIpDV/QRZgrBjCdDCBWlhVS5WsC3FcTNeE9nXUMbvEauprCARjSVqsLZMex4gWnDxnFGNCHHw3EBIcY7VYw0KypNaR5BIgzHHeYz56arDuEl+1xxYHDjpjmGeuvGss/yhoRZYyVHA6nBamh2J87tkKnjst70bYQZ6F2OyO4Dtvt/G1V1dwcy1AUtTEF2nMOFwKRkpCP79ttls8irAE0mLPsVWtyo5RrKqqdgpFIPVEOgV8uRhKpcsxkFYBW1hY7CtojVIWqW1wn+QwC3ygWoZTioQYurqbZpKiSKUR2ddnVGKekKpAdjxhWgW7uTa7inx5nNF0qA6ulchJX+oFJ2opI0qE/kgrNBAyGXkBsozLckQYfeIEZl54ChOTU/BbEs6NDQQ3O6gvZUIW2+i9cQMrrwg5fOcWwpUYI90QQ5sOSuLGvbiG/O0FpO/MI7u8An+5i4qwuVAazGSujC8bzn7OLpgeEt9DVi8hmBlT4zUj10eytIHuvF5z0ZVnZcNbjWfkk8qjsmERsPHdk8b4Zg9RK0e5RyLJBnm/4cHEo2PZUfpd9gseq/AlTfjcco8330F8YQnxzXW4SYFSWUjn6DBqQ8OoeiWUG5ImVzcQf38OvTeFDM83EEm4ytLJsIQU14oKDrljmBLiFzoB2llXjX1cyzbRkx8b+1p25C/jImcYl1LmQ0LEZDCKoaAOV/KyI/eyC+xKsoZuQX/0fdv1lfaN/7VP5spgKBYHCywD/OzAeYEl74sGakEbL5yN8LkXueZjJuUzE7I4jvPXXHz12wu4cD1BN6tKYeNnb5Zf1YG77x+xXSIsLB4VWAJpsW/YUqmiZ6Wup9pVFTgbW/xxkgOfX21Vw2LbrRILCwuLPQaJzWBTkBYGziCdl0I126lbjpDJMUmk63FSGeOezUqBKLJACGOYSANzeRPZ3AqilZ7qLjqUljDcEbKzmsCd28Dm+VvYvLQAp1tgfGhCyEsZ+eImnEYP4+U6xvwq0qWGGu8XriWopUI6hSiNx5H4ISx0vgmsdhDGULOscu3Ccuyi3nIw1HTUttZzEWWO6raqYypxV6RJP1vPdxAPlYAjY4iOHUJpqIawGSOdW0Wy0oCTGrdaZ1N7U0GTFIdCkn1xmwjxS0X8zRiREMjAYadWWjslrM0umudvYP7Vd7D41iXEa/J8ci/TSo9b9FDdkCMhvZ3vCUF84xacSxvwrzXhXd4A3llG9t05dF6+hO73r8NbbKBEi6j4QDLLri2RpMu4M4zZcBIjHi1EBTaShuq+upk3hTOn8sx0K/GXh6Hw2VV+yZZ5zrhWxZ8xt4ZRn9MO+cr/lpDGtbSBRtZRx2xQ0b0Bd7cOB85bHESw/UFh6VHUUcpggqBo4uhkpsjjmaM+oiBF5tSw2BzDt9/q4s0LHbR68o44nPaPmcxlPdixvY+tHQuLRwveyMjI3+rvW1jsKahXWVlz7GMglfdIkuOQnDjsR6gGIRrSEJvPE5EUm54jDTUqdTYO9LgEq5ctLCz2CtQ3WvjTTUXqLuFg6I2U4J4UknVoBB5nYG1wGQkhOKttZXXzhTRpYiJEhWQrz5DFQsS6XRS9DGE3R8jxkrcaKC6voHdxHo2ri0Ko2hgansDR46fUsh2r568gW9qA10iQCPncfPeGkNB1lDsOSkWoiA3JjlpXUcTjRC4ST5Ix7pG6BfKf1kZOfKM73IoLNpzFHbf8iepVwwp6ZXEh5LH+5DEMHZtG1Q+RX19F5+05OEstTT4ZAN0r4T96xFPynELMuJA/2kIk14SsbXQQSHqoLoK8Kc+RtTroLa8jWVqH04pVvM3kMyq+su90M6SNLlJJz2y5hezWJuKrq0ivrKC4KuR0oYVSQ9KR5JHeKqbPMYshRtMhnHRncDqcRS0oo+F0cDWZx5X4lpr8JqU5eIv19eMlItHgE6i4lDMhj3kNJ/wZHAuFSDuhmjBnoVjDleQWlvN1xJzlSO7Rd/O/2tGytdM/b3HAYPKFW7YzfFWO/WID46UWfvBTJfzYl4YwO5HAcwu0skN4+R0f/99XF3DhBifOqcqtgRQ5EkcphHzPFfr+2my3eARhLZAWBwBsavS//vX31U+3aJQLA1PNW1hYWOwXDN/gRpEmV4iW76uxkCQvTiDUJ/K2JlShG5JNzjxKS1ckpKTaBYJbQobeuIXet66g+/UL6HzjAnqvXgWurKGynqGWRojaLpJLS0i+fx3+u8vI35jHxrcvYf21q8hvbCCiP7knoUgYyntN0PQiEiRUjB/JbqFIEQ84Q6hiiEq/UufKIS8JHHGneoIw7uJtFAl5KtcxmoeAhNd99ybchQaChHdKY1vC0s/Y90G8pK8MnwTT2+iifX0RvYU1eD1a++hOdxAspy4qzQzRqhBLId1cGkQ8knjq+oDdREtFgKEswkjbR20hRXSxifC9DQQX5NmvNlFbTjBEAp2RbrpIJR5MaxK/WlbCEXcSR4X0VYMKek6KpWwdC8kK1tFA7CXkmTo9JE6m/mH4pAA6pkAo6TuCmlpDsuwKiUaGDrpqFteNrIWuEAdFviXM26ASxuxYHGzoUitvkypHvtNFxW/jyRM5Pv9iFUemMiGPiZSvYVxfCvH111bw3tUe2rG2PrpS7vRc8lIWFLbLgsn9HaXDwuKhBrWmhcW+wNStSthgEPW61RgRIVSbpH9gzllYWFjsJwxP4MZ0+SRRIxlR4+g8ITEkbSLakqWtYrqrJy0bXJDex3BPZCVH9VoTpUsbqM61UVvLUet4QppCDGcBvJUmNt+8gvzCAkZXCxGgdquL8nKMSsdV1kSuOZe7uZoVlDO9qnGZEpImddzq8EmuKIkcK6Il1/SQAQO9T4KUFgnypIfe4iqa711H83tXsPndi4jPLyDYTIVUycNRXxvdbZrH3PR3OREOF/v32im8bqYm1CHJUuvqiSNaSyuSSFUhaCXxj+55q0krM5yB56uZj9EkxHgvwJiQybFugOEkkPOeSk+GzzU2U3kAh112hXxPFiM45c9gJhoXXuBixdnEXLyAhWwVbberJr0hlB1WyCoz0DwLeS5jwyVYIsmrUVdItF9XXXATN0WjaGM12cRm3lbLuKg07N+zO+hCubI4IBgoqn1oAik5LGVzAzMjPXzpk1U8e85HOWhLQSlhrT2Gb76+ie+8tYoNKYOFnFMfkeSd4WeHQT91WbKweDRhCaTFnmNLYcuOqlK3ThCmAjdHA+4tLCws9hGDFIB6Sc3OKeJkmZo0B7Il/VIzMMoFkkdD0EhIlG5TSq1PTIQ81VMfI0KERuMAI0Iaa0WoCEsg10IhXFFHGrObHZQ2Ewx1HYz2PCGeHmqJr0iccCZkEp5ZRoSkKFFbTcIYUaVRGRcSLHFLosl7eMy4bj+VgOcY0yJHkORwl5vovj2HxncuIHn3FoKNnrYsknaphjOfqb9VHohvDFft6PGQnJDHE1FdV+Vv6zrBqPG8Ev7pH9ON8VOWU9nnLUzrQMJmuoSSuDzmtUSepyukTiivuOO4xwDj+RCO+9M4Gk6qyXaabgfX0yVFINeLTbmH1iLmCKOkw1aR6zeLDHnkEiVVRBjz6qh7FTiuEFUJayNvYT1roo2ehMtFWtg9Wd1q8RBCvZ+S3/wg5OVNjIRNvHDGwUtPlzFWZ1kBevkY3r7i4euvrWNuiRPphFJs+fmB5cjM4MuypEuVhcWjDEsgLfYNrK+VnlWg9u7vWr1rYWFxwNDnN33RP6oqNUt0N0baaCHjOodyrFSZEA3VM1KgVZpRbLqZqY+1vYpNUEXIVJXM6/rXH40lDVq5I9PCWU9JXI0vjBfHVuZConIhRdwqUtgnaXRnYq325dr2rKMUCWlgn57Smspxm7QKVntAmRPgrAuJbaeKvHE2Wd3VtX/PAJR//Z/yTPzSIUsTm0RT/vRVuZf/5Zyy3dCdXFPjx/pC/5UlUh5Yk2QRIciKLKvnJVHOEcs+SR3DjvIAY1kdx9xDOBZOYzSoi/8ZFtI1XBfyuJxvoOtIPolbEkQVpBIVMYH8kz+1BIk8P8l83amoCXhKTqDCJGkkgaQVktZIxovPon2zOOgwea7eaZbJrXP8ANFD5LRw7kiKH/7MCE4d9qS8p0jzKm4shfj176zjzUsJWnEkrj2V7/yMof3gT7/H2j/9juoQ+sXLwuIRgSWQFvsGKlOjUNkGGVSy6rycuM1Nf2thYWGx5zCKaADUSb60Hd1ugmy9CbQThIUvpM8T97yqm5TUb7qTpb6LXtE6yS6uiZCjWEhQT6Qr5IiS9MmSciMNXHZJ1W4yJYmXKeLEbqtaedJHLarRSlLL0/2zBPcpJLxc6864N7L1473y4wQ87BrKGVy5ID8tflyTlxY4ZblUjebb/SApIxgOwcZ57rrqGYR36gY7z/NHP+SYzyhBqK2+fruf+owmkaqLrhA2jl1UW6aFpAGtrXKrEF5ac8s44kziZDiLCX9E+b1SsOvqIuZT3XW1oHsJjGPd+KwE/1M48Q/T0JVnd2kFTkMMuTUMCYFU3VeRolV0sJk20S66kocSR69Pfi0eCrBUaaicVkJrOnOXE+dMj/TwhRcrePHJCoarzNgymvEoXnuvh2+/2cDSZiSlIOr7o3sdDPpKmPdPFYvbL1lYPBJ4JAgkX3zdlcbiYYNSsAOK1hxzh5udepfXCXN+53ULCwuLBwKjfJTW0dqKFqxQDoNYGpDrHfjrMapJiHIeCbHUC5FvazJNcsyeIk6i7EhA1LhE2bILJruY8hwJ1/tFd+nUE+KQwmlyJZfeB4ZzZ/CO20UTKWlQS5xzeRzhkfJPzslWjVvse6gshdJy0JbHQeF/7Z6gbwbKG3FvhI7Uz5zTztS9OiYmNvpY79Ft3woposd70vKoxx/S8jiSVnAYEzgdHcaRaEqtnbmSb+JKPI+5ZBHrRROx3Etiq61EfX8HybCKnw7XK3yUnDLqXh1VryIEw1MdVjeyppIeYk1GlX/0y+LgwpQjEZZh2bC8agLp6/KeNzBcWsdnngvxpZeGMFGX/JWXIc5HcPFWgK9+dwUX5wspQ3U4UraUpbxPIFmK+iVICcGipKR/bGHxKOGhJJD8QqoWHBYY8mgJ5MOLvkrvK1ndGKIwh81XaaK/2YJR0mZrYWFh8SBhdBOhKIMoHy4zoRbIX4vh3mohWklRakrl2hZd1p+Qkd0edQNTayuzN6jD1BnWyNR5/WO9ZSOXYs5ruR2MjSFE27bOnfdo6T+FUqy3i/lxn5cZa2Ud7AtJrCK+vK7cGeh7VAAK+njQxRa23AymgnlKuUsCfp/oK32XpHtCIkVSNt6lLcBupmNxHUfzaZyLjuNYaRrVoISW08WVdB4XkxtYytfRcWJF0Bl/E0fxvk8muBXfKfJjmIH8akIca34VXCSF7rt9AtnMW0IfUwme3R61bxYHGcxhQme4Io5qeR0hj7yWd1D2mnjutIMf/dwQTh0pEHixlLAabqxV8NVXN/Hqex2sd0I5FyjCqTtf6/JC/82vX5oYmIXFI4uHikCSJBriyG2apshzqeJk35y3eHigKtx+tpnKl1vzLUB/E96Rr3c/tLCwsHgg2EkSDIEibStlLsqbQkwuraL75hziC4solpvwuSSc44ouMw1LYltrcU8dKcW3LZrIcEshyZGd/rVtN/17eSg7imZp0yDPaL+Nuy3RfvWp2tYFQ9TUMf1RbvQhCaOxgKoPev2fun9Q+vcSW/FR5+UE62e15UXtVIvxi7J9T9+XrTMEXei45KqLL6219DfKPCGPVZzID+Gp4ARORDNC+CpoC9W7lt7ChfQ65opFNNy23KsZvfF/MGSC+2pmWokXn4HdkasQAulU1NycDLvt9LBRtIWcCn10hcYqAql9sTiY0CVJf1rRn1d4FEiGU9h1leMeGzgzm+I3fLYsJDJDJWzJpQDNeBzffSfBV7+zgZurkZSPktxLP/RnFF3YpRTvFOVqWywsHjU8VASSYMXGhZrL5TJqtZraNyTSWiEfLhilTlDBsgHDxhhFnZM8zUWs8rWwsNhP7F6zkGjwv4NQmqC1ntRNcxvYfO0iNt+8DKw0URIHnitNVo4b5KQ6fY+Mf9yq/Q9qZZrrO6UPtbt1vOPCbSL/uN2BnafMsbplQIjbNXL/CQZPCdThwE3meY3T22TgduM301Rf51b/VHdfSt8d64lKFmIirgl5nMKTwXFNHr0yOo6Qx2wB78ZXMZfPY9NrqVlX2URQy62oUPowmSIw4TBsjoFUa1CyC6tbhu+4iIsEm1lbrf3YQawIZf/G2/20OCDYzhWWJIoikPzQkpM8uvCKLiJs4OhEBz8q5PHzL4YYrbZVnvbycZy/EeIb32vh4g0XnaQqHrlShvpLduhCui0Gg/sWFo8oHioCSULhSmU8PDyMT33qU/ihH/ohzMzM9K9aPOygqjdrqRm1b/SwrZwtLCz2A7vpHtVelAsUkkguT1FJHVS53uFSE66Qx6ibqXUOOVELp/on6NdOuQ2mIXqbmJ27wTSPjY93c7/l8W2iadPgsfwX73bKrhdUuOZeYmd8NIwL42o3mOtqdlZDGoWoscsqzzM9ozzEUFLGoWQEp3EYT4YncDyaRd2vouskarzju72ruJLNY81tInYTiaa0H8RPznmjGv7im7Zvyk+eYTCmJI9+5qGKMsb8IVTVWn+FkMaeIo8kkar7qmQrP1zffrfFwYMpVdwwr/g+OkIeE0Uep+tN/IAQxx/5TB1HJhP4fo7cm8T11SH86ivrePWdLhrxkNxWhifk0ZXcd/nxQLy6LecHgrGweNSxLwTSdDk1YmAsiKr7zMD5wX1aHA8fPoyf+ImfwI//+I/j0KFDt1khd/q585hQCr8f1iBMuIPud3O30797xW5xsdAwVTCFjTFthZT04sUB7JIdFhYWFnsC6qPbdJIcmO6pXOw+UlYrPXNpIFu17mH/urnP6LktVbZTyX0k3BdP3o+d3m4df1B4u18ffPbb0kBBn+GdJOW07dEaqNas7JNHriVZTkKMxFUcTsZx1jmKp6PTOFE6gnJYRtPtYi5bwrvda7gU38Sq01DdXUkaWKeQON4e5gDFZQDqOq1SnpD/QHVdHfGHUXI462aOVtFDI6f1sSfx4rIh2j1FExOLgwVmqgHLFruTc8IcybMilvK0jrFSA595ysOPcdzjTIrAjZEUddxqjOHXXmvhK99ZwdyygzjjpDksL4mQR23N1n5aWDyeeCAEcpAkGdI0KAaGyA2eG8Sge7MlWaQF8sSJExgfH9/1fnOfkZ0w4e7cJ3Ye3wl38nsn6NfOuNxrGI8LmBJGuDA0199SDS8mF9ONGxEFm2wWFhZ7CKWKdoqc11YsDWopPfZJDqjzRVGpRcl5LReHatmMbSgi05f7B3r2QR6qCPblHmG8fZ/Xgxfed1GwfX7w6lYM5OSWDFzQ48cKaehrqyN/rAf8zEU1LWE8HcKx/BCeCE7gqfJpHC8dRiWoouF0cIXdVpNrsr0l5HETMRv68vOFENKquBWIktvBOFLoirPrlgqu/1hFHVUEiJC5jhDILpppWyhEDwWXUJG40aLJ+oo+Mt4WBxEmz33JsUDlk4cmav4Gnj/l4sc/P4pnTzooh1zipYzNZALffjvF//vWMi7dzNHLOO6RPqSS2ZnsiA9sz9nstniM8UAtkIYk8UXjPrufErQWGouhwSDBMtfTNH3fRDn0x/d9te31eojjeOs8wS3F3D94r8HgsbmPx3SbZZmSnWEOuqMMxm0Qxh0x6G7QrfFv0N/HHayESR619VHQT2fmkpzaarRZWFhY7AUGNbPSQ30ZhHHD8xybx/UaE9HpXPdQLXehXOj/PDK4k3/3DTrAXfDAQrw39IM3pHEwmtT2ijA6Imp9S5KzAkHuoZxGGElqmM3GccY9gidLJ3GufByHonE40q5YLRq4nM7j3fgaLrPbqtdE6mVcnlFZgoU+Sjg6NJMbgyGr/xIWr7L+oTW5hBA1IRNlpwTX8dFzMjSEQLayttAIWh9ZnxvfjF8WBxPMH3Yl95UAseTuprI4/shn6/jEE5LXJSGPRYhmMoU3Lvv4fy8v4+0rMdqxkEfHk7JEqyNnxeLHDV1eLSweZzwQAklSRLJotoPEkftDQ0MYGxtDpVLZukYYcsb7oijC6OiosjIad4Zw0QpJkDwaAmnC4T7BSXZ4/8TEhJpsx1yjGHJIv8wxhcS0Xq+jWq2qMEyYg264HwSBegb6za2Jj3E7CF6jn8Ytw6Ab426n+8cBg0+s1bqUE+at2tfCipzYdmsraAsLi73DbppZaaGBC4NuVLdL0WNmuzXbqfyZxibv30meKPeGHXeJ/1p2nOaGYfTD2bpmYC7uE0zQeqMjx3SS2lWRR86UygU6hI4jlMQcTsqKOJ5zjuKZ4AyeLp3ByegIRoJh1b31ZraMd+KreKt3GZeSm1gRYhB70tiXioQ1s8NZUlVoOhwtJmQDcSMR4zFJqyfhlt1ALQUSeoEiix2n33017yJTFmWps4Ro6p/FvsBk4l0yQOcOhW1AyfsiU9bHyaEOvvhSBZ95roTRele56CSjeOtKGf/fV1bw7e9vYr1JwhnAY1mSsuZJmdTv1QcEamHxGMAbGRn5W/39+wKSKLMlWSJx4jhFkq9ut6u6nn7pS1/C888/rwhVp9NBq9Xauo/3HD9+HJ/+9KfxiU98AufOnVPums0m2u22suSdPHkSL730ElZXV/H1r38da2tr6n6Gwe3U1BQ++clPKnnqqacwOTmprJWbm5sqDILkkOA93Ge32CeffFKFy/BphWS8GJ4hfIwbn+WZZ57BZz/7WRU/ktvFxUXlP8OmO27pp6Stek76yXs4dpP+Mt6DBNI8++MKNrQiSY7xOJOGAnA8iFBxPSwhw/UsxqIo/KbrqC5ETDVDMi0sLCz2Ajubi9RD0hbdIiKE1ujEtkt9Tv7zVH8zKMT2fR8D9FtE9eIQn42oMOScCqNf5+gjTZa2Y7E/UGTOxE/gCHFzU6lrhT9WUg9jeQ1HcQin/CM4HRzF0XAaY8GINOh9NIsWbmRLOJ/O4YIQxxuZUEeHs63GKjFYRziq+7DxX561/7isSXRtsi05KSzvI3nMQkw5IxLeIUz4I0JsC6mP1jCXLGA+WUHb6SKXxFb1t/pZHCTofBGwbcWuy46QRykRzGXPaWO8uo4vPe/gN395BGeO5Ai8VPJ4DBdu1fA/v7KBr7yyicWNAJlTEU9cuCwXDj9E9HuR0XdTdAhbAN4H08YlHvc27qOK+04gjaWPRIlWxM985jP4gR/4AUWwaLnjxDc8fu6553Ds2DFF/i5duqQsiXR/+vRp/Jbf8lsUQTQEjOdu3LiBa9euKRL59NNPK/LG46997WtoNBoqbIY7OzurJtj5whe+oKyXZ8+exYsvvqgI6Pnz5xVhHAQthLSGktRyVlfG68yZM+o5rl+/ruJHkGA+++yz+A2/4Tfgc5/7HJ544gkcOXJEkcz33ntPxYsviXlRGPYP//AP48d+7McU6eSz8j76+8477ygyTezlizX4Qu83zFOTPPJrfUmiNtnLcCx1cNKLUPVcTSALEsgcTTlmtzBCNY76z3JwnsjCwuJRwx21s1wwuoduSN4IQ8u2sHXYvyLudrhQuLMeE9fqT1zQkewbt/SHXf/Z3TLoi8/umrKl6HF5miYZf5RQdypdKiJuNIyvDxj94NSak/040WJLnR7lPmpZhJG0gvGkipliFCe8GZwS4ngsnMWYEDlffp08xmq+jrl0AZeyW2rc4yLW0fK6qtsqLYlqLD2fX0SlfP959f/bhSBxJEnkGU7UU0tLmHHHcUQI5JhbR+KmmHdWJMxFLKfr6HFWV0l8/nQqi09yu7E0Wzxg9DNu2wKsT+j82M5XlixFHNl1lUQQbdSDdXzqCeC3/9AwXjjrohp0keRlLGyO4RdfbuL/fn0Dc6slaX0IeVTdXWmYMFZsQb8dQtj8vjPud9vWktCDh/tuyCFJoRiiRosjyRwJIckXrYIkfm+99ZZyR9JIspmmqbL8kXCRxM3Pz+PNN99UhItEjd1QDQGiJZBCUkrhebojafvBH/xBRQRJKt944w1F7EgqSRJNARyMH4nh5z//efz23/7bVVfTd999V/lNgkgCmySJiiPjTzcvvPCCIpXf+MY38Mu//Mv4/ve/r8jgoN+MKy2UJJCM1+uvv4719XVlgSSZJJHmM/OevXwpTHgHQeSf3gqohJmzLIycQMeMheQVNi7Uhf49Soj+/k5/rVixYuV+ifzbXdhEHdjnhzDu6400Yo2IDtMu9H86UF1bB4Tndgtbi7pLiWoKs66TrSfiy34g5wNx5NOt7NOKlkjTNy44cym1qhBJR0ilWrtOaJrxt++n8l+JCe8BS/+n/5g6AtHvjFs5D3HIGcW54BheCM/ik9GTeC46gxPhDIb8mlq0fyFbwbvdy/he+128GV/C5fwWlt1NdLxYjZv0JM1VHSJCuuCoZ1afHGXLB5YQ+/lC8JSqgeQclwuhI5LUKA9QcUooOSHvVN1qO+gK/eioeOS3kcc++EyDz2rlwYlJefXXz4F++ss/tc+tesekNGjbYYLQbeLsbA8/9tkaPnEuQD3sIi8CbPTG8PLbKb7yXZJHT96firQ9+HYRktOFvFlKuN8/LXhfvKzcJmz/7nb+TnIn0B/jl8XBwX23QBqQSLF7J61/tNyFYai6s5JI/ef//J/x2muv4fLly7hw4QJWVlYUefutv/W3KgK4sLCgzpP0kXDRYvfVr34Vy8vLW+SORPTmzZv49re/rayLJIK08P3m3/ybVfjf/e531ThIWv6uXr2Kr3zlK4q4DoJjHUn0fvInf1K5/S//5b/ge9/7nurKSvJIMknLJ7vM/v7f//sVGaY///N//k+8+uqryvJ469YtZT0lSAoZP5JMkk36T4LJ8yTH7ELL++kviakZO/mgwZfOkO+9xl1feImTmXgikP2xOMMhYYyHAqm0fQ9zUlFfzmMsCtlvsQurukU3ongv961YsWJlr0X+KQJx2/EDEvmneI8ij7lU2qIjfdnS8kgLJEljz0nR9FJsBilaJSAue8gCLlkgOjjXJJZ+5bK/vdXntsLpu9kT6XctVeMeRbzMQTWOMBtM4GRlFkeCKUz6I6h6FaX319ldNVnClfQGLotcz+axgDVsOG317Gzgkyq4fFY+in4c2fBs/7cVrhYdF00MUolFIonELrRRGmA4reBwMImZcAIVROg4Ma5JmHO9RTUOMpVYMd3pT38uHe2fCcfK3ki/HJlj5oneF8JYsDccP7XI9TyBiw0cG2viJ79Qwo9+qoyp4baUDgetdByvXw7x37+yilfe6WGjW1akUnuciR8iOfOb/qqz/TCs3E1Mu/NOQiPObud3CmHakTy2JPLgwBFio3PoPoKZzMJBi+Dv+32/D7/n9/weRZZoifvFX/xFJbQ4siBwS7e0Ov61v/bX1JjHb37zm8qCyPvZjfSXfumXlMXSdIulZe9P/Ik/gW9961v4x//4HysSx66uf+pP/SlFCK9cuaIIKEkg/eH9tGZyvCVhiB7J7R/9o39UkU+Swv/zf/6P6r76l//yX1bjLv/Nv/k36hzJ6l//639dWQ7/xb/4F2rcJf2i9ZN+8cuIKewcb/mH//AfVmSYVtS3335bEUlaKV955RUlJMJ7if164e4WLq+w4PEreSwHVTk41U7wvDQkXqoMoy75/BYSvBw3cSlLsOY5SPgFSu5ho4lyP7AXaWOU4E6YsM31O7m7G+6axh/x2T5KPCws9gqmXA+W7zuV9QdRlhmStmxo8Hj30D8e6L/yW3bYCYPkqD85qTqnul36BboijVAIZKlAOhwhGBP9Wakhaklzen4T7koHYUydqclUxgaxYllMH/Frl/R80GDDnT92G81dkjYPY3EFZytHca5+DCNFVc2+GksNsZo2cTNewa10BSvFhpDGJlpOR2oHvQ4j51j15b+2sIrn+tEErJP7e/0dlZ5K9LMyPThBDteKTCWRufbjcK+EI8k4ni2fwrnScQw5Vax4DbySvIs3uxexLuHHrp6Flb6orsIimkduBW6xB1ClqF+uWaZN6ufaRi8ZwutCHos1IYxN/KbPlvB7f7SOczMxQjeRMjSJ8wsj+C+/sob//bUN3FyL5JaStFdpvxbf+K70c1YXLr1rcXdQlxh9wndvUA/fSc8M3kPs9INtbQpxJz8s9hYPlEDS4vh7f+/vxR/8g39QWfj+7b/9t8r6SGJlChTd0fr4O3/n78Qf+SN/RHU55bjGpaUlZYkk4eI4Q1oS6ZZWR46h/ON//I8rIvdP/sk/UVZNWh7/0l/6S4oY0rpJa+Pc3JzqxkorIruPkhTS6kn3HBvJuJFw/sIv/AL+3b/7d4qc/q7f9bvUeeJf/+t/jf/wH/6Dsjz+sT/2x3Dq1ClFTukHraaMH+PJSXFoXaRVkWM+//yf//PqHlozaaUkYSSB5b3T09MqLRgnktudL82DANOEZJpEmfuDL/Pg/r1iZ3x3i/8HPZO+qq2K/PJblu1ML8FpUfhPlmuohBEuy9V3shg3RZriHyfRofKm3fZ+EUjio8T/bjD33kva0u1HyQODe4nnzvh8nGezePCw+XN3MH2MDB7vhCnvH+f92g27hfUgwdCUvlPWNdrUVJ9PCL9C20ux5LRxs2hgvZIhnajAHx9CrVRFtVEguNnE0GqG8TREJfMV8eSwAD3ej9DbvX8m/VMkWJ4lzDzUkxJmglFMR+NSH4SSb0BHKORyvomlVIhj3kRHGv2pkDe1jIY4IHnzpUbwHE+ShM9giP3tjVaCx9oFod1pIi3kUbYkkKU8wli3gtGNMiY2KxiP64iKAOulLq6PrGGp1kAn7CHhGEi5j37xs6YhkOziaLG3YDkiFInkVsoB13rMCiGQeYqw2ETVvYHTh1bxY5/y8YkzMcp+B2k+jGZxGq9druMXX27j/K2S6rrqysvm8ePA1jsiYUgQ2ncTmsWdoN4zSTCjU3hs3kVzflDfDJ4bvMat6aXH9jUnq+TwMRpj0pSzNFvsNx44gWTXzz/wB/6AIll/9+/+Xfzqr/7qlhuChWRmZgZ/7s/9OXzxi19UZO6//bf/pgoKhWSPM6mSYJJ08RrHSZJAslsrLZAMi8ckqrRKsisqrZIkbryfpI0T87BL7X/9r/9VFURaCXmORPOf//N/rrqV0l+SR5JVdkv9+Z//efzTf/pPVSFmN1xaR9kVlUSU5+iG/pNQfuc731F+0c8/+2f/rLKcknySNLLw8/lpieRzcHkRPgfd0KpJCyZhXrz7gUG/2BWY4zxpcWV4gy8o0+7DYGf8Bv0axM7j94PX+5Wu7IayHRUCPllIufF8+I6LNUnjBWlcrMuz9MRNLslEnc7U+jAE8oPjso1Btx/mvkHsdt9H9euD8HH8vdO9DyqujyqMLrsfYNqb9Lf5cHcMptVuMPnycfJnN//vp57+IJhQaAfh0hGZKD9+SJMmFDbzLm5113Bh8xautJew6nbRLTtIywECL0C5lWOs4eLZygxeGj2JWZdkyEMh9Q11qTxJX7bTiM91P8vzncDnogjvUg1+T+IVCcEti0RCCSVn1RIdXSdB243Vlt1MJYLqmvoJoVZjHXmunx/9p1D/zZHBzudSYfMcSSxFzlXyEkbbVXTfXsPc1y6gdXVdW3xnyxj7wWOoPzOJrJwh46ydkisMqd8vRsSQV429KiOPK7bTmh8GmNakePwo4cu7IgRSGhZu3kQpv4FK8jpGnddwbOQmhssNybsyut6T6EYv4VbrJG6uj6KTjQDy3rhS1lwpbcw/rjG6VbZUWdEhWdwZTCeTZtzy2Lx7g+cNuL9TzHkz7pGGGralaYihUYjHbLuatrPF/uCBEEhmLIXEheSR3VhpSSSBZCHgeEgDFg6SMnYbJUH7Z//snykCyALHrwwkXbQu/sbf+BvVpDUkZb/jd/wO1fX0V37lV5QFkv7R6sfZV2nhJCGkNZCFi6SRVkF2KeUsrP/+3/97FS+Gx+6mP/uzP6v8pXWR8aRlkqSQYy9pQfx7f+/vqe6qtE7SL56nmDUmzWQ7v/Zrv4b/9b/+1xa5pZ//6B/9I2U9Jdmk5Y9LeZC4kkwy3rRi8pp5Ye4nzAvLNDh69KhKL86Aa8IyL7lxd6/YGdfd4n5vz0M3rHCp8Dmep0AtS1AV8fqkNhUi2RTC2xYymdD6KOAdJI+GQN4p9neK525xYxqYdLi3uN8dO8O6m58709/ky859g7v59WFxP/2yeH9efhQM5gn3H9U8+rhpZe6/W/rsDOPDhnmn9N8KW/2X4/72fsL4zfD5gS0WFtMSQrWOHhbiTcw1pUG1uYgrq7cwt76IZq8Nz5f6rlZBZWSIih/LtxaQLbfw0qEz+MknP4+Xhk9gFFwUnX5S5+nxfzw2Yd0Ng+l3L+l/N/AufSfJm6SzNNldYbVq8jTxO5dnzZxUSKTEUZQ904AVhStEk11WvYJu6Qf/adEx4n8TJ7O9HXSh3DIo+dEPfbcjRKOE6lqAy//vbXz7v3wVSxduSVo6mHjxMF78w1/C9KePI48Yp0zixHqK9/d/Uk+ZMD9qulh8VOhcZbfVgtZr9REiQ5gvwe++Caz9IryNX0ZYXGPmoOseR6/yJWD4B5CXnkXqHpJXpiyEkf70RPQkhyY/LT48zDuwm97d7dzgO7Nzn+3ojY0NZTRiG//ixYvKD7ZvuR10b7F3eGAWSPZVpqWOpIxCQvUP/+E/VIXAEEhTANjd86/+1b+qxh+SWNE6RwJI0sUlO9h9lISU5I/jI//QH/pDSjghDS2EtKr9hb/wFxSB/E//6T+pc7QOlkolRQxpVeRMrhy/yEltfvfv/t34bb/tt6mJcP7BP/gHKi5/8k/+SUUGOU6TYZOwciIekl4SSEOKWVAZfxI/dgnlpD8kySzQtIZyvCTHYnLc5U//9E+rLrl0TxLHcGnJJNGk7PYS3U+Y9CXRZdqQeJOQsxuwWbfyo2DnfXc75v7uz8lqW4TX5SgUN/U0xlCeoSYVti/xbrse1uX6pkhXjtVdfCa1VYe74k7PZc7vvM743emej4Kd4dzJ753pstvx4L33M47Eg/T7cYHNk48GU9Z3lvmDhP1Mf4asdJzs0OrY8jJslIEFp4OLrXlc3LyFm601rLUa6DRbCLoZpoMqjo9PY+rQFDpujnduXcHiyjIO1yfxpdln8LnaCRxiFz1hY2xqcywkCSR1MJ/1g573bnn24dNKdBv1G/fkXj0Fjq4L1Fg2IZBsxNMd/0gwaeXj/KqKRJJMyhlelJpZ3GsytwU+j/xUAu6ACoM76pI+4n/6WeuVUV50MffVC7j89XfRXmkhC3KMvDCNk7/5aVTOjCL1EmV9VCScXgjoFYnto/zOHmyYfAylTEeqbEVuE0P+DYz576GefRN+52U4eQPtfBwL3TNYKT6JrCISnJR7KggkP11XyhwnZWKZMplr8ZHB9+FOOt7oHPPODO6z3WrA+zlRJoeMsf1PYw17EfI83Zutxd7jgRJIWuw4gQ6tbiR7f//v/31l3TPdKE3GswsrCSAnx+EEOySK7PZJYslz3P73//7flcWR3VpJhEj4OLEOSSkteiRtDIeWTo5dJEni8h3sFkvLH4nhv/yX/1KF/Tf/5t9Uk/b83M/9HF5++WW10D/DIWH8H//jf6gJef70n/7Taozlz/zMz6ixiiSzjCstkWbyHFoyuTQJiSHN6rR88t6/8lf+iirsJKdc45KWzi9/+cuKbHJSnX/1r/6VGp9pXpIH/QIw7uyW+6M/+qOYmppSacT0Je5HHHjfzns/2D/Jf7nMal+vA1lgXEj/kbzAyVIZtSDCiqjxK1mCuTzFhsSTs7XSR73GmS62uxXeneGaY8aJ2C2+xN3j+9HwQX6aOA1i5znjh9kOXr+T/w/iWSxuB9N4MG9smj++uN95T9/YCOZOImSwEeZIZ0eQz9Sx4nawFG9io9NEr9FBvtaGv9LBeBLgUGkIUbmMjSDFQqWnJtUZqtUx2QkxO+9gdFPP4EqqxlklFflSAd49/tQ5g3rnXnTQ3aDvoPYnXFUH6LqAcdITl7iyVb1N5Of0F4MngWTFwT1lrRSX6ikU6RyIE38qXrfHzbgYeBIRHQ9aNYd6FUw1hlFZ8OCtis9pjk2nhc2xGN1jDnrDmdRDHP/IWTk1tF8SHxU/i72ATufbc5FnsyJEkYfw0cJQsIBnjrfx+acSHBm5hiC/KrlWwfX1w/ja2xHeuDaCRn4UmTMuHjhCIGN48q6pYiXYWQ9bfDgYvbAzHXme7U6K2ed2cH/QHe9nbz32XmS7mWTSTKbDa8a9xd7jgRJIWgBJrkjuuG7i3/k7f0eNS6RFzmQ63dIqRosfrYokOyR1hkDSysevDiSQnHyH10kKOWaS1j12MaUlkV1HGQ7dk1hy6Q6OfaSQPP7f//t/FXlj99O/8Tf+hiKQ7KJK6yKJphmzSEsiu7tyHCPv+6mf+ilFBjkjLC2kXNKDhZjPR4slJ+FhIScZJUnmuT/zZ/6MsjTS2slus7yX97HfNp+DS48MFvwH8RLs9JPEmSSSExYxTky7wZf1fsfB+Mctcdu+PqEqYPWdWdoGZbl2uBPjyczBC2Vp8EQlLIiLN+M23kh7uOW7iD01L5oikFze98PAhE3s9pzm3OC1wXvuBYPPeC/33qv/g3HjPYPhcN9c/7AYDP9e42Lxfgzmj8XjiY/zHu4G5RPfSUfPENqICvgnD2Hs6RNwh0pod9tYX1pBd3ED3loHwVqMaqdAlHvoFRnWKhk6p2oYeuEExg9PI7++gd7XryCcayBKpWEmmpQNZdIvvb07qB+MjtipKz7yc5PwKa9En8l/dlMlndXWRyGQEs4WgVQpIu7YTVQizB8JpA5ZPYW6fzBmu+WJur7liDsiKh5CIArOBFvHmfwIniqfxGQwrtbUvFWs4p3uFVzMb2LTb4rTRPw16abjpby5j/lvcXfoEkPhAUkGl6zxkEsepnEMP13HE7Mb+L0/XsePf6GOqTrHsnaxmczgV18v4+d+YRFvXgE6+agQyJLkHdcQ7UpJY6uEE7fYvLwf4Duxm74w74rZHzxnwGNDINlOZzfWNE1vG/bF7U7/LfYOD4RAEiRYJHu07HFyG5IpdiGltXDQAkmwkNAKSWLIiV5IMDnTEoVkh7OycgId46expnE2UxJDDqzl/SRzn/jEJxRJZGHjlwpOcENLIgklCx+71XJMJcdFsiDyywbd0PpIfxgX+sO1ITkRz3/8j/9Rmcs5NpJkmPdxshxaIWmBJCH+9V//dUUeSXo5NpLPQGsj40SixvMkjwyD5JYvA5/fCPEgXgL6acLgvuk6bLrkftzxl6ZLL2HCMvt3gnLHHcZJfrQqxq6Dqpw/0UrwQuLg81Eds2GERam8X03a+Hbew5XQQ1tIJNU7Rzd4HyK5GM/dsPPZdx7f7TkMdks/3ncv994rGMZu4RB3Ct9szfXd4vNB1y0sLO4Ng+/o/XiveHffBzUOsB3miMcqKB0aRRhFSDs99NabcDd7qAhxrMYOyqkLT1RdVwjYYiXB+okSap86jemnTyOfb2LtV94GLqygHBcIxJ2iXRIIRSKsQrsT+ByDzzK4b5713tB3O2At1ND1gf6ZDq0kj3Sq7zHDHQhXCAPP6/4zvGbukn196o6PpE4rR33X4pAWTi7hMZOO4jnvJJ6qnsJINIym28OF7BbeaF7ElfgmWl5b3Kf9kHir+Cb3mjAZe4v7id0zkemvPoKoAyGOCKW1wFmGJW+SJYxHDfzkF0P8gZ8YwpMncgRehm42itcv1fAff76Br3yngdVWSd6tUv8diMXPWJcnzt56h3At7h33ogPNtTvpkJ1+GELJ88YAwvbd3cKweHB4YATSZDKte7TKkTjSAkhSyIzfCRJDdnmlxZCT0rBQ8B4StEGTNUEiRKLG7qQkgOxiSj9JKNlFk34QvJ9WS3abNYWN4XBMIK2bvJ/WRVoU6QfjTHf0m8t+kCTSbM4txzD+0A/9kJoRluM4GSf6z66rnMGVx4wX7ydBJonluEuSND4DCSTD4PhKwrwYBPcf9AtgwjDCYyMfFR8pzv17+m0CRSC7JJB5odaB/ETPwRc4licsYdXN8ZoQyG8UPZyPXDR8D5m45wLaH4ZAPui03Qt8lHza+dw7jz9O3ltYWDw48M00bye7Z8bCDLvSrs18V+u/FPCSApEoxFLuIsodaULzjgI9pFgoJ1iZljrxEycw+4ln4LekPv3aO4jfvIlyK0WZ07CKOtBdP6VuMIHdg6q8H3qEPlAGn1ODpIDkUYchNZS6ziC34qiu0wJJEtk/I9eMn9vu3g9e0vdo1/yRpnpFgCiNcKI4hJfCMzgZTiPyQyy6DXw/voJ3ulexXKyh5/XkDjP7KqF8lHMU5bHFHkCnOkEaKe0Cjn2UM16+JuRxGV9+rsAf+E11fOKcvB9hjMKbwoWFUfznn1/Gz3+1hfn1qiKP7IicO9Im40cBR/JVFSQ1t6/Nz48Joxfu1P660/lBfUI3O/WLOWd4xJ0MBBYPHg+MQDKDmbHMZJI2ZrohgXcqOOZLwmDBoD8kYYP33KnA7CxYDM/EgWIKIt0xTjw24xl5TDcmHLNPYfgkh7VaTZFUTtBDyyK3vJ+k0Fjz6N48B4kk/eF1ntsZxuMK5oJKAdkhne4JgSwLgTzRTvF8D/icX8LJqIyOB7yRtvG1rIu3AwebgSdK3+kTSFbZfX8sLCwsHjH0qZPaVxY2OWQDV+s/NpbZuZMu5OdIQ5hf1dwCaZFhNUywMZSj/OwxzH76BVScEKvfuYDN1y6jtNJDnWtCyr2skVWbeY+UqQnGWBN5bCbTuR3vj4yKYx8kgVKjbzvr7xq5ExTx7LuizVKlnRCQMI9QT2o45x7BS9EZzPpj5BG47izjO73zuJjcQNNpIXGEjCiqQn/4Xz/HB4Vr8WFhMntHqvK0OmVykkILpLwJeQ8VLOKTp9v4o79lFF960UU9asv1MpY7R/G/v57i537hFi5cD5AUQyhcuU+NZ43FO/UmKF9pUdafB2yOHjSw7Wza8Rb7jwdOIM2+gSFZu4HnzTW6u1NBGbzfuDEFa6ffu/lh3BKMI/fNMbcm3gYkfUSapops8n66IUE05Jgw/vB4ZzwIE8ZBwceNz27PaHAnv3kPr6g7ZYfLwcaSvpEQyKPdDE/1cnzSC3FaCGQhhPG9pIOvpR281SeQJJz8PujfOeiPjLs9z4fBQcnne3meg1YmLSweVtwv/WFg3k1DlhQ/FBapmrcMShhVJhe7boqmnyIZ8lAfH0a1LA3m9obIMsJjk5j9zIsYHxrF2ntzWPz2O4jmWhhOA/FR6ioJQxFIFdLeQUdfNdcVgSTupIlui1vfEdNk0L3yT+/eFeoe5VDII0m3OnBRTsuYTEfxtH8CL5RPYcypS7omuFTcwrc7b+NqvoDYi5E6XP+RtEXyQTFaCknovYVv8SGhMoztMZaVwfT2RNj2IoGUNpyQx6DYwNlDTfz+Hw3xk1+uY2q0K7c66KSH8NXve/i3/3cT33k3RTsuSZaH/XIvLZCBLsn0vxjIVwsLiztDM6MHAEUUWEHsaKDerZKlW5K1QdmtgbvTnQnHhLnz2k4MnqMbg8Hz3DdCf0kY6ZakkdZIThBkrJiD7g3M8aBYaAyWgIEUk8q5QE9aRh1xwe+8kmhSTbCQiivedJeyY2FhYfEogc1k/dOg9ZH6ksdqwhjRl5mQoJ6boVku0D5chfviMYx/7hmMP3MaYbWMtNFEst4QHSpN7lqEvOwjFSbKrqvKT/V/78FwFXEc0Onc201uQ/+k2nA7IER/84Fg+tHmxCERJISkIxX5XxNiEboBGwaInQytrIt23hWaoZd20HlAuqHFQD2P3rW4X1BllOSR24GclTxQk+YUvlyV1kGRwM83MDPUwI98qoQvf6KC8WobSDMk+Qgu3gzwlW+v4u3LQh7TGnLJ21xZHSnMU3pqctDmooXFvcIbGRn5W/39fcduhOuDvuoOXjf3GOJojs32ThgkmoaE7gaeH3S70x2PTXy4b8RidzBlTEVOolgRkj6SFZhyXIz7ISLXw2aW4lqeYlEcsKsrK231Yz7JPXcvHRYWFhYPOUTRGT2nlruQFq86lm0i5LEdZOiMCel5cgrlM4dRHR5GnuVoLC6g12ygMjKC4bFR9NIEG7eW4Kx2UMo80bnUoOKf+KaMLnusTHXoHz1Y3sd4q7jfIzTx4/PyuZmetCYC5TTAVDGEw/6E1D0j8DwfTaeLm+kSrqeLaLqcPEfdKa4lQFWv65h/iOAtPhD91NxKVJXLeldOksDrPORENySPMUJsYLLawA++GOC3/tAYzhxO1aQ5uTuBG6vD+IVvruEr323i1noNKcqS9ySOHPe47a/OTwPuDx5bWFjshgdmgfyoGCRddyOPvDYogxg8vhcCdy/hEea6CZNWycF7zL55hnsJ+3EGU4c6nFumnCKTIokc5CLsssWJIaRppAqqTU0LC4vHDqIHSVzYXTV3aQcT/SjH7EwZOyl6oRxPVFDMDKM3EqGZx2g2W0g70lDuJMibtMbkCHwPriea9AAo0/sWPCsOyoeAvoU/xkOTEnYN5uqBkePDlcjlDm1UCbpFT9I4lrSX1JZzu8FE4UNGw2JX9FNxKzFZUnRpUf9Vm4qzrbpSjFNFHkdKm/j0Uz5+4kujeOJYgShMpeEwhpXuFL76vS5+5TubQiRL4rok3u7Mra2ALCwsPiQOFIE0xGxQ7oRBkraTqH0Yf4h7cWPCMe4GLZE7Yfy7F38fV5iU020ZfcQvi7RGclxkJsnGs4FU7pzugRZK5ap/o7nfwsLC4rFAX+nRcsi6h8t7dLwc6VCA6Mg4gqlhOKGPtN1De34F8WYHiIVqJhzjpZc/Mj03qHP3s35iqEb2Alv1RX+Hz81dqcUVGfEKD6ETInA5NpQEPUNcxOiy+yoJpJuBXYZVjI1nsjUW0L16jscHTFRpHVBUgouodGb3U35Spg2ygYrXwFNHC/ymLw7jE2ddVAM9aU4jO4RX3svxSy+v4/zNEM2kJvfxvdEz6DpcT9T4a2Fh8ZFwoAgkYSq1j1uxfRh/PmpYdyKQxL2G/dhDJaGkFX+yz2o9Z9qpSw5cSWM9qTbFqnwLC4vHE9SK5DB6Ap3+ePGSaMnpYdSOTSGqV+D0UiRLG+gtrCHvpuLYE4XJhriQojhD3stoXlP+PLZ6VFUiJBPclXpFfaSk9bGM0C3JRRdZIQQyj4VE9pAJ6SB5ZLKrm9WOOba4/zAlU2WUJLW0ABSZZNvARyotghwJPKeJ44di/Njn6vjMUx6GypviRt6LbBJvXHDwi19fwltXCiGPw1Lkyyq/+IlaN9v6fisheNXmqIXFh8GBI5APCyxBvJ+4XXmbPSp6Ekhl7e0revXf6HzBwK6FhYXFowcqOaPoWOeIsPtq25Nm9GgZwbFxBJNDiGg9W2ujc20J2VIDLrtyeAFcX85L4ztp9pC3E7jCIXn8eGpPXbuoj7/9aoejQQOEKDkVhE5JrglJEcIYFwmSgpPn0KFJL5Gdyaa9tLhfUJZeA/3pWM+4GkipF3IvpT/LGxivd/Cll0r44guh7LfFbSKkfxjvzkX4+a8t49tvNLHW4lqPkXBPfjDQGX5bfqr3wMLC4qPAEkiLfYFW5f26V30S1KKOBVTy1PcsoBQ9dF5dUG4G9b6tAiwsLB55UPfxw6X8YjdHryRN65lheIdHkYU+gk4GZ76BdG4FfjOGn0rjm10zvQhRJlq00YPbTuFnbJJrrWn07fbO4wRaYrk8ioeoCFF2JJ2cUJFLNbttQQtkIqRFuVT/SUQsHiBM8vbJnm4R8CTnyQ2k/JNCNjBUaeCTzwT4oU8N4/BEDM/pCakcwrWlCn7+6yv4te+sY2E9EPJY6uecGhij/NT+iTyWZd7C4v7BEkiLfYWuIrRCpz7Xs7JKE0kaSqxD1Npn6iqhK3C6U9KvAygWFhYWjxa0XiTJ0aLJY+Jk6PgZ0pEA/uwIvPEhNWuot9JBcWUFWGkhShwEQhr91EM1C1DqFPDWugjbGQIqWYHWnY+L9tTPrKFrHQ6N8IU8BnmgCSRCoSi+SpFYCEfXSYRAsjbSd3Bit8HUUrnzuCTfA8d2/ugWgRaT4mqhFTVxTgc1fx3PnczwGz5Tx5PHHJTCRE2asx7P4Guv9/Cr31nF3LKPpKjpe4pU7uMK0px6ip5JWO/LN5WbetfCwuKeYAmkxYGAJo6cQEcaSKLoOeMgO65wuLxe8lqOROmzWjFQdYDV+RYWFo8sdMOWFkOP1bXoxa6XolPK4UzVEE6PwK+WwIknnZubyK6twGvGiiSWCh+V1Ie72kP36gryhU1E3RyBGk+23YZ+X1v6EYam4PLjQ4u4khZB7kNSUInQcKmLCvSkJuoUiWyzvt1K8qHPFk16WfJ4/6HXBuXajGb9R532+kNHgshp4MRYGz/yiQo+ec7HULkLx4nQzqbw2qUIX3m1jauLPnokj6r1wPsyyWdOobPt5zb6x2qj3zWNne4sLCx2whJIi30HVTWFJDIVSeQolx+nU9czsLIBtTu29P72xsLCwuIhB7VZX0TJceIcX4STuXSCDPGwj2BmCNFIBW4m2nKliWxuFf5aF1EupMgV8uiGqCQuOtdXsPTWVaSLmyhlrtKn297z32MGlaSq5oAjlY4vJLLsRih5ETxJD9Y9PSGPnTxB3CeQvKmg5WoA2geL+43BVM4dV4RnEsmrNUxUmvjC0z6++EyIQ0OxuHUQFxN457KHX/z6Kt66AnSymrwwoTI0Empj2L7a3iHnlGVyMHQLC4u7wRJIi32D0df9qlxtzRpnrMR5xZPrLKRa71O5v1/B36E6sLCwsHjoofSb/KPmS4XOdCM5mKggmhpBWCnB7cTo3VhGemsVUTdDqG2V8IUcBamDbL2D9vwaMo6LpPVRkaTHV2uaJ2d6amLuCnkM9SRE8sskdeIiRS+PkaourOJI/kzNM1gLPb6p+OCgLY4kjr7kBGdcZXq3UY828cJZDz/yuTGcmnXhu5wpt4oriyX8v5dX8K03mlhpVsQ9Z9KVe9S6ncbqyBy7W26ZHLWwsLhXWAJpsefYqar1sVHu+ttwvvUl0IHr6CkflPCiyOAMuDv9s7CwsHg0IHpOFJxWhwUST6TmI5wZRTQ+jNAVsrjZRXxzBflaSwhjv1IX/ejkhSKRnrShnVT+cXHdvrZUTWv6q44eV5Au6nU1Q9eH73C1Yf0BMyk4o6exPzKVdErRvZLHO+EeAHSC7iSP3OcEOJHbwunDKX74s0N47mwJtbK4darYiMfx8ttdfO1765hf9ZDmQh4LTh7FbrBcskNy857Kucljm7EWFvcKSyAt9hy3q2ittNUoB6mV9UgFHlHrs/uqFFJHjwHaqrxFLCwsLB5daL249RPdyHHhSSD6kUt3TI8grJdRJCmypU3kiw34nVyN4eMHN679yNlEVXNcvCJJ2tag/f+PdVtZpwVrFqZZIMLuq0wUrvvI2Vd7eaItkDrJ+neIPNbp9mDQT2KBkEfJEUqh1n/M4OcNjJU7+NwzIT79bAnD1Q7yPEOvGMHFmz6+8doGLt8CukIeC/WxORNfOHGOGffITwL8CWzeWVjcN1gCabFvYEVM0YVQa3ZW1krt9z8bsjpQFbuqYfqNKeXSwsLC4tGF/oxGbSekRqTr5Igj0YgTNfgTdXiRj6zRQXxrDe5aVy/PIQ1oRXioPpUKNX7oc487+9GpqS2weoZOT6iKj8DhapBMIK6xqQlkjET23t/Z9/FOwQcHlfpS1xeOLzvshp0hLIQ8ljbxySccfPnFEmZG25JnPSH2dVyd9/GVlxfx+vkuNrpc79ETT1Lxh+Qxk60mjzrHbK5ZWNxvWAL5/7P3n1GWJOlZOP6kvbZ8VVf7Hu/t+l2ttEbeOySEhASyHDznYL5wOIePwDlw4IcTCIEkhP4ggyQkrexK6/3OzM7M7njX3pSv69P93+eNjLq3aqrtVHdXd8dTFTcjI8NlZGTE++QbxuG6QeUZtdnG3YhMHGlFw1GqvE4NJKHfEUUAom8bwsHBweHmxFBrmPoF2mGGZDJW7aNP7WOWI1lqIz/bQtwx2sfCH+pcrN5FiaQ1Gq8DYfSPvmofuX0H7SwfksakyFT7mOs8OumVyj7Ild/VQlmyQuqLQgikIMjaaPirePR2H9/x3jE8eFuOmt8RPw0stifwiSdW8DEhkKeWQ3lWdXlGlB4SeYokj4zPPS0Hh6sJRyAdrgtMd2yO9qO4+VZO7aP9QswzuW49lx3CdiRyw4uDg4PDDYUtrZecKnUUxkfD80QIZLcmltkG4j1CIOMIWTdBstgGVvqoJKQ/1L1w+THTPrJhte2k2T/XGAdTvjq0V8qXxDv0hEByDqSUE0uQcyDTQkpTSYkRlBjG4S1ipAhHS1PrZllHdRuPvIuKt4Y75wf4lnc18c77Y0zUE/FTQSvZg6df9vDJL6/g1dM+OikXzqH+OFfyqPWe0dCU8Ts4OOw8HIF0uO5gR2I7Ezb4XNwh5z5QQiApFKmxHlyX4ODgcNNho4Ezkq+cj7aJ/SBHf0yozvwk6lOTiDwhkKt9DBbW4a0PEKbiL8+RSZvJ9pNEyBJGQ4GsubVhSsGQR3649KWsubEJyaPvizgkjlw4JynnP7L0lYbTfxme4DNxuAyMFp4cR6wGrK9cIVhK1vf6iLCKubEu3vdIHe9+KMbs+ECek9T5Yi9eOl7FX3x+GS8cLdDLJ+AFNR2lxD0kdR9JjcU9IweHqw1HIB2uL9gxi2GHzhN+8eUQIhrtTMQ9IJEsje2HTMcztDG4RuHg4OBwQ0FaLjaCirJN22jQSkITSIs4VRMCOYVqrY4Kt+dYaGFwdg1eJ4VclihM2I2gZVxvJpE0tzJMCXHAKvsX85GSv6Zc+PEyyznrVPqgjedisOXU4RKgNU7KbUOjLmZYJ811HboK7vqcIyzWMB638Pg9Mb7+3TPYPy/PyeNbMIej5ybw559fwheeXcdypyHBGkL85Rl6XDnBxGaeroODw9WGI5AO1xXauZSGIG1MpVam0uPwjwt5R+IWS4/AjbTtl2MbYuPXRuDg4OBwI0HbLjZserYBtn855+J5CfJIxO3pBoLpCZ2x560MkJxaBZZ7qORcAEYIkK6+ykhKo4SSYIOperQN42BA0siyCzyzTq0tKV22SMrelJopT9PvuNK7HNgayLI1dlOWFD05ZJX1Vd25aI4XIyhSVIsW7tmf48PvnsT9tweoxH0gGMNCZxafeGIdH//SIk4shkjyhgSUd0GeEwdv8wG5rWkcHK4dHIF0uO7QDkRgyCMXjDCGnTe1j7H4EPkJoXjgd2KGMN06ewsTWjuNMiIbn4ODg8PuhW2prMhb6gnllPoYLgqS+xkSIZBpI4Q/O45wrIkwkbbyXAvZ2XVE3UxEaCE/JI8m9EabaOI1ZvhXulgvtxg2SkPKlnYujhP63MLD9CymjDgL0vwZX4TpcxwuH8OqZmgk9b0qegpp5LBV6oLVV5YhzDrYPz7AB98+hnc8VMNYtYs8A9aSCXzx+QR/9oUFvHqaQ1c575Hkke+M2a6j4J6P7ik5OFwzOALpcF1gOvLNJpPamEo/ktIuDlxEh9+FY+ncqYW0Q1j1p/zSzr/ROBwcHBxuPEjbJg0YWzUjXotNHDIvRULt41Qd4ewEomqMoJ8recRSG9FAruX8+MZ2UFvHC2CkpbxlG0tbBoQ5bsx/1PIjfZRy5wqsanN4q7Albsty2HOzzLnTM1fA5cfiFiarHbz7gQjvf6yB+am+dPMpBpjAi8cD/Mlnz+KZVwZoDaoo/BieDkeyK65uTmercXBw2Hk4AulwXcEv4TQcesIlCzh0lcdcyCLX0QnEPRKyGEgvoF28HCkoGWM6B9MhGePg4OBw48G0YGzf2NbxjLO+epz7VQ8Q75lAZbKhIzK89S6yc2vwWwPEuRkKyHbT0h2NyVhHQAdrbm1slIBapMypfdThv/aa0UMau+tV3gpYhmq0QnKMkSlV0/GzR4+khDl8tYdauIr7Dqf44LvHcMfBQvr9LtK8ghMrY/j4E2v48tc6WO02UAQ1EQbkPeCej2KGcQ4PVq7YMOaSg4PDDsIRSIfrDjbu7Fp09VU5sktISCCFQVIDyan1Zv6jpY1bOgQ5kaAb2HTNwcHBYVfCtlRsvYzRP3UukHi5rr6ajsVKIGtjVfjJAOniKgpqH3siZIsQzpAqoI82gg4XRln0LDIKQSxFU3xD8qjGlenOoKzTpUXAghUjBVwUQgSzdeyfauP9b6vh4btjNKp9uRxhfTCFLz2X4DNPrePcakVkBCGQJPsSRqQEicGulLsFNqnRJB0cHHYUjkA6XHfY9p1HQyBFeBLymOZyJqQx9DzEvi9Ekl2O6RFG+wXtikYdHBwcHG4USLtlV1DlLztltnADX0w9gDc/gWhuApVYWsBWG93Ti8hXOqikZhN8Nnsb2kfGpTaH7TDaRWhZiwPJoxGEeLUwo194Kh7MTAlXolcOU3bDMUMsYbGxTGmKAYpkFeNxG+96IML7Hm9gZoLk0EMvm8Tzb/j42OdX8NJRygR1+IFZqZX6eZJHG6dNx8HB4drBEUiH6wY7tGS06adbJlJQwtUHhUDyOisph7GSSA5XYX0zXBfi4OBww6BssHgYGvmVfw5J7YcF0uk6goNzCKaaCHMhNsst9M4uo2j3EUljyREabEWVf5Y4T/PosAGrbTQ206fIj/wreSyNenLkccdA4si5ulnh67EoEunbW2jGa3jkjgIfftcY7tgPhEEu/f8Ejp2tC3lcwpNf62G1U5fwHGosYbxMjKnlJdV3cHC4DnAE0uGaY7su2biZL5OqhZQOnJpICkaspCSPgRjt0+l1S8fBM9eVODg43DCQBsu2Z2q0EdMNJNDxUvQq0ubNTyI+OAu/VgHaCbIza0gXW/CTXImPEp0yBg0uVnt0OB+khKR8WES62q0caUhGrPaRxhXiToAlybppTC7kUQkk623RRVSs4869Gb75fRN49O4Q9XggD2UMa/05fP6ZHj7zxCoWVqvi1pBoSDv7Yozm0Tw394wcHK4XHIF0uG7QTlrASsgv6doVSKedCVHkHEgSSJJJLrXO61yvjUITof2PCk82FgcHB4cbB0YANobtGts3tmYDEZS7fopsooLK/hlUZsbh+wHyxQ4GJ1aQr/fEv/gUxqmbTciR4dweeJcDltSokV99GENqQuMIyk6B5aprrYqVvXmKEC3MjXV1xdX3PjKGqWYiD8GXvn8OLx2L8NmnVnHsrC8+6xKG2kddZk/8CJGUR6bDvjdIvnmGDg4O1w6OQDpcN9imn50BKyI7BP1Kye6FJFLOSCBVAylugVzXMEocDYYdvD06ODg43Fhg66UaRbH0QiCph4i48ureaQSVCnxu3XG6hfxMG1HfbG9Ev7nul2vC6TmPjHDYRDq8CVpiamwxsezUjUctw5JImgsOl4WyEMWYX5ay/HLfR6m5HIIaFmuYrLbxrgdDfPAdNeyfGZhhqf4sTiw28ckvL+HZV3popw0giIQ/ZiIfGK27ygqb/hwcHK4HHIF0uOawnTbBxt+QR3NihrDy+yS/NYpdzvnHIaxcRMfPxaONQPybzsN2Ifbo4ODgcOMhldavK8JyMl5BtH8GtalJBCJ4Z4sdZCeWEa/0Uc18EaR9bRuV6OiRzaL5pXEt4fkwLCNjiGFpsQztn8OVYFiWxiblaDt36cFVB5m3UA/W8NDtPr7lfdO490iBOJT6nddwbr2Jzz2zJmYZZ9ZjJF5VglIi4LBVgr/DNBwcHK4fHIF0uG7QYSilndDFC+S4sSekmEwcuEpeLIZaSO2LBPwwPAxL22hMDg4ODjcG2HKZlUDNfo79SATmmTri+SnE9TqigadDV5NTQiA7KSJpIBmGAzE4QoOwFNIYh0vDiPZKNY3mbLQEnQLyclHWQanH3FqG5WdcWNY+gqKPKlZx174U3/zeSbz9gSrG6j3xH6KTzeLLLwzw0S+cwiunM/RQR+GHEodZddVohc2s1TIVBweH6whHIB2uKyyJtB2C7gXpcd6DWUiH67D64hZxGw/VRpYBSgytI44ODg4ONwLKhs+2XllQIGuGiObHEU01xUXawJUOktMrKFZ6iDIzlH8jhDSgbBOtsRjaHLbHaM9hy3NoysficCVgp16WIH9zJX0iahYpgnwd+yc6+NDbm/i6xxqYHutKaWe66upLJyv48y8u4emXO1jrxeIalQSeBNKsyL61tjMFHh0cHK49HIF02DXQbkI6DG7jQcOv8UogxT2SXiIUQsnFI7RPkR/TgTg4ODjcwNCRF1x9NUcSSps3WUGwZwxhMwYGCdIzy8jPrsHvcxgfW0MabQUlrLSauqiItIvSGKrs7nDJ2NyHsEyHZvM1hwvD1EdPDsZm6jTJY87JJ1IxQ6+FqVoL73qggg+8fQIHphMExQApJnFscQwf+/IavvxcF0utWNyk7mvpcyyS1bNLjByuvWHc83FwuJ5wBNJh14CdAQljJh2DGrGz6wjkArsTkkiuVGg6KNfBOzg43NhgW8ZVptnu9bwM/aoHb66JYKaBIJbWrt1DenIJHrfuyKQ9LNtF+2fjcLh82P7DliQ1kZ5nRKKhktdccbhEmCopYP9Mo2uny18f9XAND9xW4IPvGMdd+wvEflfKuYlz63P4+Je7+OgXFnF8MRTyWNfwXsGFc8zcR/usNiwbDg4ODtcLjkA6XDdoHzDaN4vdLKJjvjtyFdasyLULqkhV5TxIkkkGdP2Hg4PDjQo2e2q0/fMw8Aq0wwzpeITK/ATi8Tq8LEO23EJxZhVRK0Eg7JFbHJFEmi2MDGxb6NrES4EpeTvfnr/sY/inV8XRlzKm0Ucj55aoO1wIpIslaSxErKTRtYL5l6HitXDbXBcffHsDj9wToVHtIS9CrPZm8MXnPPzZ51fw8vEc3aQqcQTS23PkUSaGz2W0/M1T2+zm4OBwPeAIpMP1AwUhOdiuwO7rxE6IcyCVQIohgawqgeQkfDOIi1DvPJpTBwcHhxsHZeNFQtj3C3QqQlWmqqjvmUS1WkHe6mFwdhXecgfVgVnDcqO1M8zT4TJhSk1+tfzKYcPS26SF9DQcCix/gRcg9ELVRg73Gi7L3WFbDGsjbaR/UlsLIYL8AJytYzxq421CHN/1UBVzUwn8gB9DZvHisRB//oVVPP9GgUFehxeEElbKWp/FaLwODg67DY5AOlxz2E5h+y7ZbN2hGkjpvFPpSFhJY99DLO52CKvHlXXEZjWYrqNxcHC4ITDSZpGfsK3reTn6dRG4Z8dQnRiTti5AsdoRArkMrHPxHDOU3/GYnYDpO7g6G1cKzfhXpEoWqTOLhPzEXiR2OdPyHi1419O8GfzoKyXEwpLiYSnqZ1859bMu4mIdd+7L8d7Hmji8DwgDKW9vHMeXavjkE8t48oU21no16dMjeSTS32/EMyx1BweH3QdHIB2uKzZ1EEIQzfBVIY5yTIQ8kkBygYhIrkUe9z8z3Qr/VAwwfY1Cj+pIi4ODg8MuRtlW8SNYFkqLNllDuGcSQbUCPyl09dV0cQ1efyDkUdo7bfo4RFBDO1wRyqGpBPsbOeHem9REkgb5Ur6hkPc4iIRIcijlqH9HaN4Mlo4YKUvTL/NXxEpW6lzIYN7BnvE+3v1oEw/dVUGzlsILaljrT+Dzz6zh00+dw6ll6evzWOq1ZzSWjIFRMnoHB4ddC0cgHa4rhp2E6TFUmJIzrsCa0C6GnYl0LwjZuSihtPMiDIlkJTbfQAXG2cHBweE6g60TzfbQ+WJyWQlMLERltoFozwTCMILXTpAtrqsWMsjEp0YlP2K46I7DW4dZsM0MYU0KeQrCzEkYSRxj+Y04BDMXF3lIpsTLj5alcTCwZTHskdkn50LE+5io9vH4/RW87/EJzE2ZjrmXjuOFN3Ihj8t49VSOXhYpfTdfRkqzYXdwcNitcATS4ZrDdgubOmL2H3Kg4UIRieejJ25d6Ug4tKgi7jW5yiO386BWkp5NeBXFNsfn4ODgsCuwuVVSTaJA2zoxfT9DwuGrcw2EU3VEfoB8qYP01BoCLp5DlulLV63RlIEdrhxSjrrJvfxlXPlWKORA/jiUlVQxFOIYF6EQyAi+LgZjPk/a0S6bnuamk1sPpmTMKCEl2mJYYkHRR5iv48hcgq9/rIl7DnmoRIl03uM4u9bA555awTMv9bHWa0gMcfmBxGow7Z+Dg8NuhiOQDtcN2iGXnbKFdkfSmwzErEun1MrN4gZcm60pQlRd3MORcLab0Q5M7NoPqYuDg4PD9YBthd7cGhkXI2gTAy9HN8yRTlWB2Sa8aghvkCFdaCFf6CDqiUCem7UoqSEzLaRp8xyuEGXxFVL2qRDIxBugr/sRptqPhAhQ8WKdB0m7eVKby9w+WfZDtyZMqbBcOPHE6Gil7grhDvIEYbaO6Wobb78/xuP3eBivtcRrgG4ygWdfHuCLX13D2dWKUPYxIY+hmfeosZXGRu/g4LBr4Qikw3WF7YSHRNLQwFSIYlvc2nmughM1j3UhkDUxSiBzdjMGG8Rx6OTg4OBwHaEtUmlKiJWCNufZcTEwasEG0pglzRDh/DiimTFk0tala11kS20E7QyVPJIQgWoqnVD91jH6RFie3L5jUCQY5AMpe86+F6FILkRCasxCOmYIq8XoIxi133oY7X+lBxZyWBSxOHOdgi7GojYeuzvC+x9vYv9MX8pxIJem8PoJH5/60hm8fCxBL2uIW8VoH/mJhEc5Mb25g4PDbocjkA7XDbab0H6DhsSw7Jg4jLUrji0KVEIiQyGMVc9HRQjkxkqs6tN0ZezjnYDl4OBwfWFbpu0bI7ZxXE2VR86/G8QFspkaov1TqI+PIUwK9BZW0T+3Dr+b6zw8dtNOqN5hSPlTocsRLCSOSZ4qeedz86WfCfmhUgzJpMP5oQNWvUD3dMxyrryaIUIbt+3L8KH3jOOhu0JU4z7SooJz61w4p42nnl/HcjsUt1BisBpMs64Bn4Biw+Lg4LBb4Qikw3WB7Za3ds86FEb+uQprVywd6UhSIY8UuiJxownlOjd6Zh/DhRB0eJcYnrt+x8HBYbeC7Z2OlKD20cswqAqh3DeOyvwUalEFUSdD79Qy+gtrCAZcNExaRLZ1pXHYKZiewvQhXIWV/Qj7HrPuaiBHsw2++FBi6bAV2ldLKZE8QvfNlHLK1jFW6eBtD9TwtvtjTI9zz8cYvWIWT7+c4VNPLuPEgo+kqGm99gr29Oy9+SxYztY4ODjsdjgC6XBdYLoIds9DoUiFK2NVAtnzfXTEiBwlHY2HWKprLD5CsbOb3/h2KYH4oViNug/jcXBwcNgNUOLI1kksiZejF2RIxyOE+ycRTzVRSQr4Z1tIT6/Cbw20vaM2TAXtjZ7atWw7ghGOQvpC7aMOExbDouYHy0DKXemk9iubgtwkYF26/PpkQsivVEru95jnQiCLHH7RQsVbw/23+Xjf4+PYP5fC91MU4TyOLYzhk0+t4bk3ErRTO3RVem+PPf1Q82h6bwcHhxsBjkA6XDfYTllJpHTgw+7MzIHsBD5avoc+t+3Ic1T9ADUvRCSnQS7+xbOSRwlBIYDGRGBjcXBwcLj+YFukBFIMyWNHBOd+3RfyOIV43yTCSgh/tYvs2BIKIZGVgafDVzfaMNtYOrxlGM2ZKVnbb5BAcq49i5jXOfdRCaQY4/9mw5Xd02goro6uvbbH0hqgWqzgjr19fOBdY7j/dh/VuAeEY1hoTePTT6zjS8+uYKldkb69LgQykHAsbe21FTdjKTs43MxwBNLhusFoC4caQ18sNDzLfR89IY8tudrNM/ZWqEinUxcTix8upGMrr42DZFKHIknHpEO+xG2jU3K9k4ODwzWHNmjaVikdlP+BLwQyypFP1VE7OIt4sgEvk/OFdaTHlxCuDhCnvoTxzehJfixTixijxnQYAZv27cxmDMvNkB7TP3DUiiGRw8kQLGIOYQ2FGI1QeMXNU/p691IOI3dUFlx5GIF1KftrfrkdAccBxVjH/FgbX/9YDe95uIqpZp9KSXSSSTz9EvCpLy/j6OkU/awi4Tn30cRhYyY0R5ujdnBw2MVwBNLhOkF6Cu09hj2GntKIG7fySOSkK71QXwhkLkJUJNW1Kp16RY5mKw92+oYwctGdVOyp2g2ZtHGbX8GGxcHBweHaQJsiaa+0zZK/vl9gUOfKq5OozU8jrlTgtfsYnFpBfq6FeGDaOvpWYb1sx24m+rJTuNIm3c4pVdIihtrHnKuwkqiLoeaRJFL1j1rsN2HnYW+Jx9KuJTJKKrfed3lqfbDXDYo26kEbj97p4esfb+LwfI4o4NDVSRw9E+HjX1zE86+n6AyEPAolN6HNZ1+btEYrP6MpOzg47G44AulwzVH2QWU3IrAOJUgKucQ9CWGCHEmeI+McC7lWkU69Kp17KNcYTLWN8mc6JIlKOn89ihmCQoARBLYk5eDg4HDVQSri5562Y31f2rOJCsJ9k6hMjqFSBMgX2uidWIK3PkCUkbaU7WD5N8So3cG0/GKkwDZIoRJD2wu82WwqQfVvCCT3G1a1mTqXBF5+GZ+6lebGRnkHejClt3F3UhBFQa23WfWX7mUJSHkYQ5gQZhWCAD1U/GXcsT/Bh989oauu1uMBcr+GhfYEPvOVdd3zcbFNzWPVxINMQmdl/CadrdjOzcHBYXfBEUiH6wrTPRnYzoqGusVMOptUepKEdjG+dPIcvso9ISMNZIWrAqGQzFpWoCH9fz0TP7nxr97KTsp2VfrreigHB4cdh2mPjCFMy2O6Ws7tLjCIc3jcumPPOHzOfWwlSE+sIjvXQjSgplKEcwrzEsIMxzfGaIZG43ZQSPGSlpiS4dGWuTUW5nzUxZSkhGAZb/wREo8QR9LJYdmbw2j4Gw4bRcL7GSkpqXNc41x6WCGQutZ5eYUH49cY/pJgGtExRBt7xtp47yMxHr8/xESzJ/49dLMpPP0K8MknVnD0rIdBXpO6TO0jiSONrnlro7QpbRxLZwcHh10MRyAdrhNMF2G7ewPbSZluPPcpcAED6WxIIOmXXRy7t0B9CKSzioUoNpMMMymwXzq/eenWGkIiuZJeIXHQn/3SudFRaWAHBweHHcaIwK1tDlVcYmNb1vMyJA0f0d4motm6XBNBerEDnG4hWE8Q5WYBFwYkcdkgkKa1cyhh23EtJznY0t4wqjU0vqzfjTCCoZspVy3hslMY9hQUj3wlkfygqb5KP4S6jEa6y6F3xRE6G7cgd8+PrLk46M1Q+xjIvbJ3NVpIc79aOvpnSkdiYr0tehiLu3jbvT6+/h1NzM9Jp8utaYpJvHIixie+uIbnXi/QTWoSkmOGLJSWmz9GZRxNvoaeHBwcdjkcgXS45tjoMMSmHfimTsNoH7XTls5Fv9jnWTmElUNmpCvSTlv8SOfHCtzICswJebwNMe4M69gnFJMEkp0l50bqfEh2euWvsQ2PDg4ODjsKabdsW0OBm+1Zj1t3VERonhPyuG8K8VgNQSKt3ek1BGdaiPoU3SWE/Ct5lDbO/Lm26nxg2Qy7j62lZPoXYwxK+iOXRt3Zl5hldLg1hf5lQuQz7gUpPYw48xpHxNi+SdMdRrrrMZpVNeVHDcIMT5W7KhLhhYkczV0OyTEt7GnZ+4pdrgfoIypauG1vig++o477b/dQrUgc4RQW2lP41JNr+PwzHSytNyQMh66y3IdPytZs88dzBweHGw2OQDpcN5ivoWX3wX7J2BTsvLiQji6MU2TawfOqdmX8ETu7OW7nMZkUOJKHuDts4LBXwaR0/hWJgN5IQA2BNLDxjzg5ODg47CCkdSmlb1+O7GRJPjpxgf5EjOjANOKZcV1x2lvvGQK53EWUlUHlAtss1f6UDZVtt4xD6eiwURrGsH8wRkuM5ad29h005oyGCkpTioYsSQ+jNl4Ich+x9CdNv4q6XxGyJMRJLqXig0b9CfTxWKMuuxuGPA9Li3XU2PhxtidmHaG/Lv3rmtxvR4xOHBEfJNEsA+73KPW56CPGGvZOdvG+R+t47IEKxqo9ZLm4JrN48qUMn35yBcfPhUjyhhQpt0TJtcwJlh5fD9ZvRyIdHG5cOALpsDvB3qYcfqrdv5wqhdSOx3T7/I2EQHLo6hEvxqFQyKN09mEmPnN29JxxYTqm7YyDg4PDjkMbFzZUtPMjWY7ES9GpCFGZrSPeO41KowH0MwzOrCE5s4qwmyGUMBSlzbDVMg51M8ehcRhtv4clMySQNOpLiEuxYUyoIekTf+pGosRRLlLuckoCKU8J05VxNZUiEtLkKxGib0N3GH5odj8MWdyc65JACiEM0MLcVIZ776jh8L4AjWpful/2noY8crYj50ayLgd5C5OVDt71QBXvf3wM85OZdtdJMYOXjwf42BfP4oVjUt+TKlIlnnwenPM4fAabYUrVGAcHhxsFjkA6XDfYLoOdGC22WyPMUX6lZzJdj3T35SdM9ScdmS+mKmRxRvq5/dLBTUh19oU4pmISucbtPAibjhpxGz13cHBw2AmMtE7ml+2VCMwkL/0gRX/cg39gEvHsJKIghr+WoHt8EcniGoKUQjaXFzELhpk/gTJJUh2rCTKpOJSQQlJOMmJ4bgnk5j8DfTpkijRKakojdv5ztdzIC9GMa2LqqEjfEuUBKnmEqAgRkEwyjhsBI9m01No48g74lyP0Bhiv9fG2B6bxg9/xML7x6w5j3zT3wiSBNOTRHKUXFvJY89t48HYP3/TeCdxzOEAcZNLnjuPs6jg+95U1PPncGlY6MXJfCKc8DA6P1VotfbI+IMI8nhFL6e7g4HDDwBFIh+uHsnPjQcUj6UN4HOnzpFuxooDp9Lg/F7uzSDr/OC9Qlz5pWjr0Ge4PKdcGRYZOIcKaeKfW0salGkx7MuLu4ODgsFNgu6ItlhIUaZxEgE5IICvS/szXER2eRtysIegLXTnTQnp6DX4n0QW/TMPEhUwkBnte/qpN3RxGYUqohJ6ULiNEm8WWl18OLW0y1w2tzOX5ZErb9TOlhqHPnHwyE+ouHUc1DTGR1TDtjaEZ1IVOmfmAZbS7FyOZs32pKQWz0m8g/WUkBHK6meHReyfwoXcdwLsfmsb+GV+IJfdf9pFxYR1+sM07qAct3HfEwze/fwaP3x9hvNGX6KpoJzN4+qUEX/jKCs4shVKadXGXdHwhoUpEmfKuLikHB4fLhCOQDtcP0p+wG6exxJHCE79TssvhHEh26brwd9n3hOIWyXksDhXp2Gvi3pTzpu/r3EiSx44IBIPAdJh2X0gL24W5rszB4caAbSM2IG3A0NUQglGXq4XRNLZLRzmJtjrlGpbS9nBuXSeQ9mhCWq2Dk4jmxxFVIhRrXQyOLwMLHfiJ0BgJa/QzYtH7G0I1asoorXF4E6TItOSl7Iy2lg5i1/5EngbLtCxa+Zcj/Rn//LDIRdryvNT9CpvP/AL9NEHaS1FJQszmY7gtmMed1QOYi6eFdMkzlEfBZ2ae2+6GqTk2l3LDUi4sB9bTSPrLRphjujbATK2NmXoXE7VMKDLLxPTBUhpCNlexd3KAD7xrHO95pI7pRlfKoEAnm8XX3gjxF184h+ffSNCTsir8WMIkksJADEvIwcHhZoMjkA7XDdqR05jeTbsZDjtNpFMfyJFdTyLHVM5T4wWB2GNx436QkQSIpSMkiaxIR1YIeezl0oFJTAxD+Ft6d1r11Fx2cHC4QbDplX3T+zt0uFav9tZ0bLvCkRTUKFI45xZE7aoQkr1NxIdnEYxXpFFL0T+9jP6xRfirIphLGzW6oMiwwbJ2e+6wHd5cQnwyJEgi3hQ05knpUErpI3Soqjpxiw4x0ldw/mOWGU1kKp1GRq2kPKew72G+mMQ9lcN4sHYn7qwcxEwwjhicsTqarklj90Jyajta7WkJcwf81Tqbd6W/XJX+tYeKVGCSbJYPF4Dy/Q4mGh08fn+M9z3WxP6ZVAjmAEk+gZdPNfEnn13GF77WxkKngn5RkXAs/UxMKjZbq3d7GTk4OFwOHIF0uG5gd6JdCsnepr7FXOGXYRJBDkftS5fEr/mB2GOpthUxSiLFVHzunSbXi1y6NH4r5aIV0mmJX1Zwdo7ad2qsBnpanlg3BweH3QC+kUOtIt9VvsvlK6zauOHqzXzPrSn9aliG3Bm8KR8b6YxAk5NU5SJnyLHNYXvUjYQsTkfwD0+hMj+BMAyRLbfRPbaAYqGFSiJ+PUNi2A4yGjNqgkI+iY4Vvh0uCRsF5cszCKSPiFDLK6gLqYmkl+DceTMXr9RAsofQIZp8XgWSQgik/BV5imhQYDqt487wAO6v3YHD4V5M5A1EaSBka7SO6VMrze7FJi22vi9GA2vBVVchphJHiONYipDDdIUKFh0hlW3ce6TA+9/ewO17czlPgHAWZ9fn8PEv9/CJJ9s4uSLkEQ0pRw7D5rghOySYpiwdY3VwcLgJ4Aikw3XBaFdruhjOxwCq0pM3swJ1MaF0eCSRJJAd8ZGoLxJITzWPqoEU4SuWjo79YCa1OQmg2ktu2k1QkGMl56n0meZYGgvXpzk47EaUb6kc9B1VgkWRX/VGYicRIMGyf8avxVDA3yGU+diajkIcta0pDQdD9oIcvbEA2W0T8A5NIqjEiNo5khMraiqdAtWCmizqaky8tq0iNpLY4du4eWEIEXsJbp/ChW+aWQ37vFkcCPZgomgi4kqiUsosa0OeWEtIIg2J58cBxsD+ZaKo4lA4hzvjQ9grcUR5jN5ggG6/pwu1KSQiE8vuhs2fPVrybN4mOZf74HBfeCHCqC6mJj5Iwvuoeas4NNPD+9/WxGP31lGvpEiElK/29uKJFzx84svreOOclE3RkDKUDlg6WvuOMgVbPtYoNiwODg43Kq4JgdRNZLeY3Q6O7Xe4Sigfv3YoUsxco41dGoehTgpx3CfS1IHcV3uUp6p57MnvoBChUeoORQDuWUztIwlk6EudCjzVOvalRg/E2BVYeTBCmenIyqQ0XbU7ODjsEmiLYKwCyrNqynPaeJWrL/tFBt+j6GtJpPGnPqSNMALyzkDjLfMxakazS9JIrRQXXGGOen6Odg1I948huGsP/LkxRIl4P9VC+toSgsU+Kmm5Uf2GmD2EPdOPXjTlucP20PLZqCwkMB5iIZDTQhrvCg/hvsodQgb3YRLj4h4rYcqEBLKf1706lfgwrHmOtTzCbDCBA5U57ImmEHkxVosuziQrWE5a0helmpyB9D/6a392JzZnzbwjOkRVjbxJOtw3lNcnROBHYk/hpcuYilt4+90R3v1AE3smPbkWIimm8fxrKf78M8fx/Our6AzEu5Sll3NBKA5v5QceWyrDlDdc9Dk5ODjcyGDvddWxlTxaQ+xGojaaP4erB5Ywnz73PaPNbMnh4Q7prO8LKrhNOrQpcQvzDEnGr54cFiPk0Q9Qk6rLRXT4/T70RQCTyPoiVHbpV+yZPD8KcmUt079RuP7LwWEXgi+sZU3lW2sNYT8EGcolxvor+5HSVTyaN39HIFHZ9C1snjS7YkhYQmmEaB8IsW3FBfqzNUR3zCE6MIkoDhGt9pG+eg758WVUOtzDlgK7BBCYkJth437zFQeLjeeilmGd4FBVPo8Jr4GD/pyQyIO4q3IYB6K9GEMDQSY1SPxkXDhHwkZhiDAMdI59lIeophWMS9hmWIfve2j5HRzNzuCN9AxW0ULqcy4l0zJPZ3M+didM1vhrDcU/s5osh/ByZG8hFn6gqYRyNe8hSNdx594c739sArfvixDLfWdSPqcXB/jCk8fw/EunMeitCWlckX56BVHRkT450feTWt2ijH8Urj47ONwcuCYEchTs6G1nn+dc5ct8BdyNhG2U3DpSufNgx0LiZ4ZvSVcjndeYdGKH/BgPRXU8Lp33/YgxI26BEMlcDJ9AxQtQ5dBVCRzJecDlVwUpyaMYnX0h1wk+wdEFKujTGgcHh+uH4Tto3kjzq62C2GzbS3fzR1C3xC33UzG6NYO6l1eVwFl/Et5Y7eGy8eZwJv6tfyQdgRzZ4nCxrxa1jxMigd82jejIDKJ6BVFPWrmTq8heX0C4Qu2jeJT+xX48K2mvw1uAKUN+NhSZotROe9KnRKmH8awuRHIet0cHsMeb0jmRgfQj7BukZ4Ef+giF5Id+IAQy0uGqXiFUSJ7lsr+O15OTeLF/FMfzc2gFXWSeIZAWozV2d8G+D2LYD2q5lHWulG9s3rMskz42EfKYo1EZoBb0sH8qw/sebeCRu2sY58qsLC+JYnV5AUWygHuPeHK9ivc9VMGjd9ZwcCZALbI9um+0mlvAHFnj4OBw4+KaEUiSMUsYabiYwNTUlBqfGqRdQiKZB+bFGubVujvsEKS3Mp0Wl7lnN08SSdLHClmgJkRxX+7jEVTxDq+OO1DBuJxLvybXOdxIiCONhItEaAyVLHrSAcrzEkMMnxZTEZQOPNhrQz8ODg7XA5vfQQq1/EikG/eYc/nlwjT0mQtNS7wYvaCOftBE6tfEBwe0k75xMKjQOfYjGs60A8TQdnnYHM7kwRrmyRg5E5LC9Dinru8XOnQVB8YR3jkLTFYRC4EJznTQfek0slNrqCTU+/AOuVq09IeM0uEtwTwVPgy296SEXEgtRTtvYylZRj/pYCKv4IA/g4PRHKb8cek7hOTLM6MiOOVUiUxYPfuYgpvm+xgEQh6DNl7PT+HFwes4kZ7FutfGwEvkmXE6Besqa4k1uxisqJLH0V/T88pR/qXLRS9JkSY9VOMU49UB9jRTvPOBOr7u8Rnsm6aGvQ9PCCZXa52fyPCBd07gx757P372B2/Dz/7QA/jR734E73hoH8ZqUiryHvN9LRCKsWKmeZ8dHBxuDlwTAjlKyGhIxqanp/GBD3wAH/zgBzE+Po4kSfTa1cLF4rb5skSRx3q9jrGxMQRBoF/nrmb+bkVoaWrPb8jjwPewLt3O0qCLbreDaRG07hUCeW/YxF4RFMfEU1xQTBQRoRQ0dT6U2PjH4Tc05gkydtNBmj+TlMWo3cHB4dpjuAok31l5n7lyI+ddFUlp5P0t21zq97gzXV9IY9rYC3/mdgRj88iDqmo59MPSRjwShsFM0LcMJYmlnVDiWP5putru5Oh5GdpxhsFMBeHts4gPTiGsxohXBkhfXkD/9UWE7UQ/hHHSZKb7DbIcGL9rkd4a+OyNoZ3bcAz8DCtC+I4lp3EmOUcVG6a9Jg5W92BfZRaNooY4D3Woa9ZPMOj0kack9FwAKcFq3MVxfwEvJG/gjfSUkMeWklISVPu4bHpDs1vBDBtje0iTd+kl5dAfAN1egiTtIfTbmKoP8MgdBT70zkncdShGNRTyKAQSeV8oYQ97ZiM8cN80Hn9oFo/cPYl7j4zjwJ4axupc0I6yErXAkoK+30Ps9lJycHC4dFwzAmmJmSVhs7Oz+NCHPoRv/uZvxtzcnBk+UWr7toMldzYeYus5YePf6k5svTZ6PhoX3ScmJvCe97wH73//+5Xg0s36v1Rsjd9he3ABCqIXeFgKcryR9/Byv4XFQU/nOx6I6jjkVTAj0lYt46wKEk5DIjl6NQikGkv5plLeXKk15bVSMGPULHlT+pu7ewcHh+sH+w5yzhpXbAxE8NTBqUIkA3mX6WbEXX4A4ueiCINoHJi5A7VDDyGeOYwibDCkxEIfXFzHhtlZDDWbti2RFMWNHJcaK+pM14MUrQkf4R0zqNw2Db8ZIUrEz/E1IZDnhEj2UZU2LJCGSdsgiYjGRmrjdbhSmJad5cgak0p9WvO7OIFFHO+fw1q/jUie1Uw4gf3xLPb4ExhLK6ilIepFhLrUL5LJVJ7jupDHk94CXk1OCHk8LTGsoe+xdyF5lBTEn2rGd31HUmZQi4adIkU+mmFt4+qrSQoMEspgfanPa9g/08fXva2Gx+6tYrzSE/LdEp9CIIVAe4G8b34NrV6M519dw1989nX8wZ89gz/+6FN49vljaLdJspkWE6VMNywkzcaIcXBwuHHBluSqw5InS6TY8dZqNczMzGByclI1fCSPW4nWqJ3Yep0YJXX2mnbspbu1b3eNGLUTdojt3r178eEPfxjve9/70Gw2NY/ni8O6b80bYf1tTcdBykQ6MZaYGTBUYCBMcjkCjlaA5/wEz2QdIZMD5EIQp6MqJqXzq6cZqlKWMU2aoirhIiGZJIzc/7Evwii38ShCidH35ZnIc5H4xVmhfT4N7cbpvNBwm2xDFwcHhyvD8J0avoccgUDql3uhEkVSSY4tKK9q+5n74laZRDZxCMXU7UBjDzJqICWcCva69xy1mDSG8O0EbB41zjcZQyu7ktVWU27iyARqd88jnm4gTKQvObmC/gunEZ5qoz4QcsnGZwNit5FLXA5XgtHy5DMqjThnfo5umGAp7OB4toiT/UW0k54ukjPnTeFIMI996ST2ZGM4UBFCWZ1AJP1GN+rhTLCElwdH8Uqf9LOFfpCptBSwTxELjRGfaDf92O4Gc0gzzLeB2Wwjk3rJD7JCI1ENezg4l+L+2wLsmejC94Q8UvsoFTWXHrebT+LYUhMf+2Ibv/p7J/Erv3cKv/Gnp/DRz5/Fy0e76CWRrmrrC4E367uaus33ZLT/dXBwuLFhW5Grjq0Eys57XFtbw+rqKlIhAzw/HxlTAUKInY1n6znBMIzXhuU1ajbt8FNes7B+CcZD2Dh5jVrH/fv3K8G1ebVmFPS7nRnF1nw6WEiZyD81kFJqunJqO/CwEPt4veLhmSDFk0IiX8/60oEDkZB47g851k8wPUgxKwLaVCoEUsp2IKYrHSAJJPeA5KbQUuhlt1nWBzlcyVPY/DSJN7s4ODhcGvSt1H/zNlLMHHBuY9hEL54WAX5GCNm4iLIx6aD4oNZH2l4RSvOogSSeFL9y3a+WRJNgrCSOqW4jQMF1g0BuaY/fCthWUcsZ5dx2iKtAc9XVwgxdna8hvGcv/PkJbWz8cx0MXjyD4ugyah36N2RD7sTmTO+O4Ll1c7gcjJYaS9O09jS8kgjxa4cDnPPWcCJdwLlEZA3pNybzMdzm7cM9/iHcGezHoXgO41ETqfhfwApeS06o9vEcltHzBxoh597rE5Tjm5+VfZK7GbZkKPcYu+r5i1DkLw/9XoI86Uo/28dkU8qo1kPsr4ivdQ1SBGPSx87hxZNV/P4nl/Hrf3IGf/FkjmePT+Do8iwWupPoZE15HytaRiU11ZRc/XZwuPlwTQjkKHkaJWI0vV4PnU7nTWROG2m5TvJHcnm+OYijZM1et25RFKmWk/Mt45h7Pw0JKu1Ma6uhO/NCjaMljtbdgnFsl+7o8UL+HYZgqbDL515c/ONwtK7nYzEK8Urs4QlvgC9lbTxf9LEcmOc3LZ3d7VmAe0V8O5ABoQh0HemoelySXeoJhbs4kWMqRp6D1iwJV9aO83RkJiejhiKpmcfBUwlFs9EV0tHAhnBwuBVh6//F34OhD2rv7HBTksB+NI5s6g74Bx9DcOhtwOzdyGrT4Mbk2pYWXHJGDmGEPKwIufQhPKC8xgtl7PKj2zhsrDa5MzA5569pT3RzAsk/58StVVN091YR3rcP0eE5hJUKgrUU6UtLKF5aRFXsVQlFkXo4L8y0dxrnzmXzFsewXE2ZSt8tJvEztMIeTmERJ5IFITkD1IoqDmAP7otuw72VI5gLpnQv4WWvhdcHp/Bq7zjOFEvoCJni6qV8ehx6rARS+3Z+BJA/uWbNbofp0UwpGTDPJJAB+gMfa2tddNttFHkPlThDQ+p1IPfPAKk3hpX+HJ54OcBvfXQBv/fxZTzzWgULnTkhlfPyPs4ggRBwIY92BXT9oCNPgOluwu4vKgcHh0vANSGQhCVUXJjm8OHDOHLkiA5jJTkjSPAIS9YsoaMfEkAeSeosuIorDQnFKFmz4ei2b98+fM/3fA+++7u/G3v27NnQcvK6tXOuI7WMFen0LYm18dm4CHttK+h3qyGYVzvslW42T9cTu5vIkkRyfhAXxAgxIImUDv2VqMAX/T4+h66QyAFWpPcZFwHy3to4HombOOKHEG9o+QXSTLqwtMB+L8Ihv4JZ6RjrQiZ1hhSfg0lIUjJlsFESpYWHDTeBEkcFQ5Zmk6dR31vPHBxuTVzKe8BhpkGRyDufIZX3NImnUczeCxx8O/wj70R08GEE43tRBBV560wbSqNtmLzQhYSDvO+MZyiuCqmU9mOgdr7v5Zu+Q+2uoSNihJxy9dSekMeVaIDWHmmDHphH4959qE7UEYvMXRxdQ/7iImrnEtRSadcoVLMN0vaXOSYREfuwkTF5dbhCmNKzv+bPkHbWmYGf4py3ipPZOazlLc52xIw3gUPhXhyK96IpfUkrSHA8WxDyeBKn0kW0vb7UI2rRuAKpPEOxKYHUP5OY6RVs/7B7YXo/vhE6UFzsrMeszbwSIUkDIZApWi1+rBf5KvIQVUWGCavI/Cksdqbx2Wcz/Pofn8Gffr6D18+No53OSPmMSXjq4Rk/ZRwj55g/WypDmz04OIziesvGDleGQMjTPy/tOwpLVGzF4LHRaOCd73wnvuM7vgNve9vblNSdPHkSn/zkJ9HtdpWkMRyJF7f3ePjhh/HII4/g3nvvVb/9fh/Ly8sbJJTEkhpMuqtgIUYbLzEcgvqN3/iN+OEf/mElh08++SQWFhbUD4kn5zi+/e1vV3PHHXcogWUeWq2Wkj0S3Mcff1zdPve5z6k742V4ajaZP8Y7GAw2SCbBeLgoEPPHhYKq1aq6M4/Uoo7C5vlqw+b7WqR1JTC5Mt0yu2h20qw1ic+O30NXhLW2dE6JuIVytSkS5JQXYlz8RVy5VTq6MyLMrXY7iLMC+xrj2FOtIyq11325bxqKf6XoxgTNkeWif+xcbV4EGxZamRt7fejPGpUBaRwcbimUFZ/tyiYzvLQB667vID/qcLEcbobI97uOfmM/8rn7kEwcQV6dFG/ytrbOiVmAn/U1RBI0kAupDKYOIAqkrVg+CiwfR5D2NHpqK9MgRhbWxM7tPYbv9VsD4zHZp1jMRbq6QYa1KEV7VoTnB+dQuX8fwkkhjwPx88Yyes+cQHxsHc0eNxhh3iSkRGA+ZJkc2fwZu8NbgX0+Q5sYKWv9Y5nLaeZluuVKI68IeRzHtJCfahGjYB8S9nG0OIsXB8dwND2LVb8jdYnTWdjnCJGSP/ZLFtojyCnrg3mivGbS240wubPG1Doam2M/62G6keD+O8exf74mMo748evoFdM4sTyOTzzZwe99fAFf+FqGhfak9MWT0p/GGpPvJVI2/GyTipEyvgG0sQ67C5cqm1pZ1mF34KoRyFHwoVODyFVNv+u7vgsPPvigkj+6Hz9+HJ/5zGfQbrc3tHwkYFyd9Vu+5VuUqJGMvetd71Iy8Pzzz+vcxB/4gR/QBW5IKE+dOqUkjuF5JAEl+fzBH/xBTfcjH/kInnnmGSVxJH933nknvvM7vxOPPfaYDnElSb3ttttw7tw5HD16VPP1wAMP4NFHH8XKygo++9nP6jBbEkCSz/vvv1/J6fz8PJaWlvQaYe+T5Jh5f/e7363klPfKdAnmj6STcTG/59Ns7iRuhBfO5HCk+6VFDBfX6EkH3xHTl7LLxHBnqbpcrHq+dPI+TsXAyUKIfKuDGeHoR2oNzIUiGCQ5WlJn1iWqLrUW7DLZAGnU/C2/J4tVhQC5RuFWLCIc0LfpZo2AQMPvtbysocRm4tzUXV7HvnO750y3yzE3CrbL+6jZbdguj7vRjILt2flBv2LKIOZNGcXomY3XvEfUOpJAcu3STEhfx2+gW9uLdOp2ZPU98s4LKeutIF9+A37rDII8lTcvQhJNwJs4gGBGDMnA4uvwVk7CzxN5XyXGsAp/bA7h+BxSP0Ke9BFwmKzeh5gt93c5oEzMltps8ZBjvZKhMycC9P17UXlICO2ecdRyoRmnW+h+7QSK1xbRbAOVXFsU3a7D7Pdo8yDlrcfRcnK4UgyfrLHxUW/Ua/lTrXEodSGXZ9IPMeU1MRk2tUauez2cxBJeSI7i1cEJLEuPkYTSkfjsD8pPmvKY2NLzU7Fp881zK1PTX0X5OLf0CrsCI7lU8N61D5SsBkUX1WiAO26bwO137UOtOYleNo7XTlXw519s4Y8+tYSnX8mx0htHKuS7kHdU+0Mhj4Y40kjpMLKNhGgxJ9q22OdRGofdi9Hn9FbNxUA/lyoHX0p8DtcOV10DSVDz+I53vAPf//3frwTry1/+spI5DjElgSRBs1pE7rtI8sj9Ibm4zhNPPKGavIceekj9fuUrX1FS+Q3f8A1K0CjkvPrqq0r0GJ7EjNpHEkRqED/60Y/iN3/zN7G+vq6VlJrF7/3e79X4nn76aZw4cULJJtN44YUX8NJLLynZY35JIM+ePbtBIElMSWap1WQeGYb3xjwsLi6qH4blsFimw/B2qC7vlWSSR5JIajR5z5ZEWmHtWrwgTIvpXK7Zih3Ls8RjREvbMYsRN86RIhIpn4Gk0ZfzXpEiFQE0Ez8kj2uxh9eCDKeTHpq9BLeL4HgorqEp4mk7SbEoBHJFstcJTPzUBsjd6J9mX66x49P9JHU4nJm3QbGP86h0IQBe47kYA96vMYzDDEszLrsJV/Jc7DPdzbiU+9ot92Hz+pbfkWuA0TK7UPnxTqzhrxFEhy4E3y/rZnzQ8D3i0FW+Z7n8CXlEDa1gEoP6fhRTR4D6JCJ578LOOWD5NSGQZ4VAZiK0VjCIp4Q8HkY4tQ/FoANv4VUlmBzGmiBEWplAbf4IKrMH0U0kTHsNUbmfpO4PK9m57FpR3pK2GIX0LyLndCoFkj1VRA/uR+2BQ4jmxlGV9OMzXfS/ekK37KisJKhQwSopZiJUW+KhkINpS0Zzcwk5ewt16EZ4r3cS1A5aGOIv9c2X+icsviIPsRFUUalU0Y8ynA3W8Ep6Ei8nx3FW6GPXT3S3C88rySMrgdYdfXCl0Rrxpj/+64HXd5GRnzLPhMmk1ojyY6jvifyFgcgzISZnpuV9GsdLryf408+cxZ99dhUvHAuxnpA81iQQSzRVzSOJI5fBsj23orTwYM35cKvVyxsJWm92CBd6zlv7ndF0eW6v72R+HHYGV5VA8sFTY3f33XfjL/2lv4QDBw7g//2//6ekjnZq/kj+LEHjkFCSPvolWSPBs6Tt9OnT+NM//VMcO3ZsYygo3alN5DUSP6uFZHrUdJKg/fZv/zZeeeUVdacm8Fu/9Vt1/8kzZ84oYSSh4/BYEtPPf/7zShiZD2onSTIZNzWk1HSSmJLYck4ltYhcQZbaRsbBfFETyvsmmaVGlYSRQ1hJgkkwOWyW+aW2k1uDkCCTSF6NF2P0RaSdZWONdbPHt2recjwMP/LHMzXlNVI6rtDKr/8DEcU6eYrlbICz+QBHxbyc9rAqz2Nf5uGusIa9UUXnrCykCY6nA5wTwaEtfR7TsgSSkFNNhgImBVtLICngBhRvxZ370fHoq2cDFYVZv8XO0jTxlc9wxN+1xoXq0fmusUyuBpjeTtVrG9flxHkhf1vju5pmNL3djtF8n9fIH1ejNOciXouh3R6NmznKj9hF3JT3loYaR75bobgVXiyCehOteA7dsSPIp++EN3kAYbWOCnqI2qfhL76GoLOkr1Ti15DWZlGZuw1Bcxrp+jK8c68g6i7qOzfwY2T1GVT3HIHfmEabUxFai6jk3ACd/YVEovm6TMP3mkH5J+eJEJFOVe7n0BTGHzok+RmH15MW6sQaOk8dRefpY4iXBqingaQr7S6DsxBYviY2iUdPthj5uZh5C7D3c8ugbNZY4kYHbBy4EA73EeZHyLY/wHLYwYl0Ea/2TuBUsYhelAjRZAvPcJZAMrjtm4agso0pjGKrn92CjVzaeqB10thNtchEXpLyWO3j5Ok2nn91HZ/+8jl88ouLeOlYgU7ahBfW4flcd4JyFkfj8L1i73xp2K7+2XrpzO4y1wLbpUtDWd3az4cLXXO4dvCOHDmy4y2eFUr5kEnaSAi/6Zu+Sec6/vIv/7Jq7X7u534OH/jAB/CpT30K//bf/lsdOkpy9Vf/6l/Ft33btynp4/xIahs5d/HjH/+4+iUBIinlMFdqAjlMlfH++3//7zUOEjOmR/OJT3wC//2//3clf5ybyPmOf+Nv/A0lcCSnJHrMC8P98R//sZJAElkSRWopqTHl3EnGzbyQ3P7Mz/yMDsH9vd/7PfVPokoiS5JJTedrr72mcVDz+Hf/7t9Vcso8PPfcc0qaGZakk+mSsP7RH/2RDp3d6ReCz8DGySNJMcuNICknzkceLjcv9E8z+twtLiWurf5HzxljIuckbBRCYyFzuv9jmqEuV3knA/HEoavv6eZ4rAdMCXlcl3t8NgKeiIGXagEWK+aeTQlIGhQMKOSy+ys4/EZATbD8hZJWyEas1FwUJN4icHAOpf5JuMLXdRgZSA1tXEBgJOvXBVvL+1LK/3y43LCjz9+GPV8duxKM5mdr3rare3Tbmv5o3gjadzKP22FrXm9k6J1sKS6+TeZdKK/TA8tUy5WCJq/K+8NVknkWVtEu6jib1LASz2MwcQTpxEHk9WnEoY+JfAXj66+gce6rqAiR5PDUVjCO9dp+edHvBMZmEbTOYGrhK2h2T5KWouWPoV2dgz+1H0GljnT1JGrLr2AiW5Grqcmzklq+r5cH1g++4SQMbT/B+phEc5eQ1fv3ClmtwFvqIXttGcmLZxCc66KBGHEQqhaLhu3Kdrja9e58uF7pXg/o1hvl7VIryUXaoiyQfiRGPWygEtfQz1KsJGvSZ7SRcZir+PfEH1cG3yCf0gfcDKW20f6xD9NzVlKxZH0xXfj5AFGQiqwgJFvKqZtEGGRSxwORH6JIZAfztutYYHnzLrUu2XS3838r1cdLhe0zbNnY8/NhJ8twNK2ditfGyeOo3cK6j16z9iRJlANQYWOVRySZDtcfV41A8kFzOCfnPZJ0USP3b/7Nv9FhqNTicSGdu+66Cy+//DL+v//v/9O5jSSZP/VTP6Wki8NcSdpI/r70pS+pncNbaViZOCSVQ1j/3t/7e0qOSPJIAqnl+4f/8B8qGf3P//k/qxsrG4ko503+lb/yVzQsiSGJGzWXnB/J/B06dEgX5aFmkKu30nzhC1/Az//8z6sG8Yd+6IeU4FIr+Z/+03/S4a/MA++FpPTP/uzP8Lu/+7t6T7fffrvmgwT6P/7H/6haVuaTw1up2fzLf/kv6/xLkksSXasZ3EnwOfAZ8L44p5PEePTrzqWmyXhGX2wL2nlt68u81c/5YOPdzv+om4qgRpUhXZfULSFqdA3lnJrBWE6PDIDHTi2j8dTXsPLqUayHARZuO4DOo/dh5eA8FmPmUcihEEJKEtzomF9TKRqmUg49aZcWezmWuwNURaiYHGuiIklGJK1iAo9ztkg07ZwPChT8ZUfMeOQ+SmH5UmHvkeWwUxgtN4vt3IjzuRMXunYpuNTwl3rvW+MbPR+NY6u/rfG/1fu6UlyvdK8Etsy2zbNcMq4jZV4ezTUK4NTmK1U010RI5QI3Ay9C16tiIanghXM9PHe6i3NpA/3qDJKoiVzakUrexZy/ikcmB3h0MsFUOBChvo5z+Ri+tpDh+TNteGGEh/Y38Ph4C9NYQxLUsJg38dzZHl45s4qx8THcd2ASR+IWxkkgy8V6PLZTV0ggzT16uvJquyrtxVSI3iR1WR7qq4WQ1RSVtQyVVAgKPy5JgDwo5J5MOIfrA5Y8yb956jyTGirPk8+Hy/mSQLG6c1IEt2Qhe+R6q9RU6iq5Wof5IWrn++drDb6xWhP5Xtt3m0fWb7lIbStvMy/7SP1QKtc1HMtFvNLwHdcALBeN5OK4UPt3qX3ArYSt5XWx/mMny3A0rZ2Kl3FaY88tRq+NXqdcScOFLDlSkbL6G2+8oYofSyQdri92nEDywZOY0FBLSML24Q9/WDV2JFJcUfVHfuRHdOsMXk/TFP/hP/wH1dD9+I//uGoOX3zxRfzGb/yGEjRWFhJGEkMOHSU4lJVaQy6m89f+2l/T+Ygkiv/1v/5X1fz9o3/0j3RxG2o2qRFknkhKSWSp9fzDP/xD9U/SyKGsPFIzSAJL8keyR/L4fd/3fWr/L//lv6ifv/N3/o5qR6k1/MVf/EXVNPI+SIhJLJnfX/iFX1DNIgnsP/kn/0SJK+/v05/+tGpBmZeDBw/ib/2tv6Ua0f/23/4bfv/3f3/TC6ECS/kivRUwTjunlPdiFy4ajXvUvl1jMeq2XZ7oZt23uz6KrfFfLO5NkOvszFLxlkjnlciR+3ZxmFhDim5/v8DM117D+q//Nl76+CexFoeI3/dOHPxL34PgkfuxHIkIIX5DqZdGoKCQF4pgG6Jf+Di51scnnzuOZ48volIbxz6pm5P1KsYlnqlGjMlagPEKMFEtUA8GiHTVOSGR0tFmEp6xUkNK4Zn3daGXamt58XjR+78MaPpl2dp4eb41jVHiv5PpXy62y9uVwMZj7/1iuFR/bwX2vq5n+V4uWC4XfyYsO1N+/IRi5EkK32boN93krpU4pl6MXlHFOmIc7wT40tF1fOb543j51CrWswh9v6bbbyDPEKdrOFJt47sf3YfvevwA9jQiJHEdr7cC/MEX3sCffe4pjNdj/NAHH8G33DeBSXkX+1EDJ7ox/vBzL+BjX3gKdx45gO//8Nvx8HyEetKCl3P9ZmZH0rgCAjn6Muv2HX6KbpjJUYiyyNLNfoBmKu1NwbU6pf6JlM2hqzr3kQUzEt7Clu3l1MErrUM3Ut3bcUjx8u5Vg8z6KA58Lpk8RzOmRK6TLNKr/NBGLaVdKI30ybTml/6cdjP0LuQ+t96NV3BRHC70x6P5ICpSnNRPvjuJ1CHzTrM8aBiDnfu/HbbWa9bBW7oeXiIu1O7eqOW3XX9yofpg6471QzmW8jw5AuX2p556SmVvh+uPHSeQFErtMFOSsp/92Z9VzRu1eJz7yGGhJJCcc0hCQ00dNZNf+9rX8Lf/9t/WIaEkaNQe2q0zGBdXXP2xH/sx9UetHbWI3M6DJIxDRVmhGIbkjKSVw1r/x//4H+rO/HDF1L/5N/+m+ieRZRq2AnM4KYesklz+1m/9Fj72sY+ptpGElVt4kBQS//gf/2MdxsphuL/+67++MRSUK8QyD1SxM25qT7kwD92Yx1/6pV9SLSrJJDWVnPvJ++EczV/5lV/Razv9RYXlxvvmvXFFWBJcztXk3E0OCRh9SS8E+xJvhQ2/Vft4PmyN43zpb5eePeM3YA5ltQSSQhrls4ZcmO+kaHzpWSz8/34Tr37+C2jXYtQ/+HW4/S9/P0IhkCuh5FME20jSNV+XVdQVISJCT44vnm3ht0QA/cIrCyjiBpqNcYxVK2hwSJ3ENS0kct9UDbfPj+HwtJDKCjcHH0hXy+dWfrkV+5asv+leRjF6bbv7vlKwbG35ng82va152ClcLP2rAaZp7+FC6Y/6u9q4VunsNC5YfuXRCpKGQIpdDDWP3JeVg8sHYvqc0eg3sJZX8cbyAF969Zyal04tot3to9ocRx7WsNrpS7skb+NgBXc1evjh99yO73r7EUzXJA4hiC8v5fjtjz+LT3z+CRyen8CPfus78Q13T6DqJehEE3h9PcBv//kT+NyXn8Lb7r8Df+mb3ol75yqopG14GTWQpAGSsSt5HsMbpkgtf4Z48DyQRijKuX8t4zWE0RBHUzoWo+X5VurEhZ7LdmBaN2od3DFIkbEEpCTEap8Pn6L52Ed3/dsgjeK7DKOWjd+bAObWttwP71RkGSGRKAIpk9KTlJHHuY7UzLJv07IihqEvtVxcPXxr2K7sLrctuF7YLp/nqwvb+aUbRyKSOFL5w+lnjkDuDlwVDSQfOFcefe9736tzDjk89V//63+thObv//2/j3vuuUcJGLWR3BfyX/7Lf6kk6h/8g3+gw0xZSf7dv/t3G3tDUvtI7ST9/+///b/xJ3/yJ5oW4+OQUBI7rpr6F3/xF3pOUkp/f/AHf6B5ITljHCSQHFLL4a7U+jFuGi6Yw/jTNFUCSO3mT/zET+iCOySD1ECSCP7Tf/pPlaCSqNq4OeeS8zBJOEmK6ZfpkZB++7d/u5JEDoPlAjvMG/PBoaskwLxnzp3k15WrAeaPJJfaUJLI++67T7W5nLvJazSEfZlHX+rz2UfB8Oe7thX0Z81WjLqN+tnkV7LKzl8c2e2rgGYJZE06vwOdBIeeexXVJ59FX+6xVYuwes9tSB9/GGv75zYIZCx55twWXVFRSCTnTyVehBOtDJ8/2sJr6z7SeAx+VEUUxvrlOvR8VKMQE40aDs40cPtcjEm/BX/9FOJkTYgkh+yJOCIm98v7LLO9FduV2dbztwr7XC+EbctYsBN5uZz0rzVG0z2f/Wrget3v5eJiz45XrQ/qKCiS8x00dycuQqYyhEj8KvphE4PqJLL6LDpeE0fPtfHisTM4t7wmbXsLRdLWdhW1CaxSEylkM0o7OOCdwzvmgUf2BGj4mWooz3QjPPPGEk6cWcBsM8Bjt03hzmmmmGE1mMLZdBzPnVjVESWHp2I8fGgSe6ryvuu8Ln7kIWFgzq/sOWzcM9sPiSPISR7VRa+RkBTlkFXjLOnwQhlwtFyvdl2waW1Nx55vdb+U9/WGRXmr5Z3rr/Yj/JX2mvduioP9A9ttWzZynRVbrdbtZoDU1zfdDh1ofCkPOYixXjh01ehtywtXCNY5W+9MmQ/PHbbH1vIZPR99Z2m3ZidxNZ6RjW+746ixbkQqcjmHsFJ5xCGsnGK20woXhyvDVZkDSVAweP/7369aRaqeqbUjUbML05CA0c6tLv7Fv/gXukDOT//0T+uQVFYWEjHOe6SWkvMMGRe/PPzar/2azkEkWImo3eRwU2odqanknD8SJGoNv/jFL25oRLnlBsksNZxcCZYElpo4rpTKIZ4c4kr1OK8R1HaSzFryy7T+2T/7Z0rCeC/0y7SZf2oqudrq//2//1fJL/eJ5HBZajuplWSlJ0lkejxn/jhUlkeeM3/2ZdlpsFFh3kgiea8kkEzbwqa99aXdaVxq/Ntd31pBKaCZTpCdm5A7Esh+hrctrOPhHudNhUIYPXy1FuCr9RhHqzxn52g1kJKOdpYUP6VD9UO08xgLeRPtcApFbRx+VUhkpa4LfnhhTfxURWKsolGvYbKSImyfQv/kV4GFVzGeraMRCK0NhHwOu14xbNTNmcHwZPQ+t97z5XQENizDjNq3i2O7sr1euFBerjSfo/fMOLY75/FK479SXOv03iq2qztDGMLEO6JgaZHmHgZZgH4eIRXimNVmkI4JC+SiNhN7kUd1DAYpktYq8vVzyNfOIG2d1fnHxdheFDN3Ih8/iNhL0Vh7Ec2l5zDePYFq3kPmxegUNXT9hn7Y8dM2KskyxoOOXPOxHEyjWz+AePKAtAQ58oXXEXZOo170ECMRNz738r0o83s50DAaXkRs+eEwVQ5d9TMTn2q0yD84dJVHukrbIlbxeeFnf+Gy3oxLrUc2zq3+b7R6eDXBktBPCtInGOgDNFYljjT2Gn3bsrvxy5C95oWw+eql18+LwdY/2w5bu8ObcSnv7mjZ7WQ5jqa1XbqXi/O1RxZ03+6adafsTfmZShdHHHcXrtoiOiQtHO5J0kYtHec1ksRxCOWv/uqvqpaP16gt5BxBrrLKvR2p+aMbF7bhlhqcY0hyR//UGvIrBL9I2KGTPHIxHhI+zrUkqeMcSc6HJFGiBo6VjhpRkscf/dEf1UpJzSI1nJwzyfwxfQ6xJakjCSWp/Mmf/EmtuP/qX/0rJYHMLxfM4bzKr371qzo8lGkzDYal4cI81DJS40eCzLQ4XPbZZ5/Ve+dLYFeUInlj/lleO9kAjMLGy/tnfklimQe6M2+j6Vq3XQfJEnNpc2qPzCkFNM5Z2d/P8f5OivcGMfY26iJUAl/KB/icCKCv+oUSyFyEhVDukausGsGO98/4SCSpNanrYh6ZEMY8EhPXVfAtKmNin5RCnENlYg/iagXeQAThMy8iO/EM6mtvoJGtSnQcHmXqpSnbMuPqwJ+Ru+C5vbbD2K4ubedmcT2f+fVK+0LlsdPYle/URXCx8iGNpKE+LpV3p88B3eEE8voc/OY8fCGNxdgc8sYE5IWRV0Pauv4agrXTCBZeA1aOIesuoyPEM528DdHhd8Df9yBCeVfD00+iOPo5BMuvoZpyFEqApIjkXWzqNh9I+yj6q4iLri7MsxzOIJ+6DbOH7kFFcrP+2tNIhUTGQiAjbgYvxc9HoO/65T738tFthBKLWSBILgm/YAmQZnDkAR1HY78UAklczbp4I9a9awf2u6Mk0Twx8xTpPvpc6H4zlOXW++A9Xr36Z8F6SMO6Plrfr2bdv1lwPd7hnUzzYs97NK3R+jHqTrs9d3Vm9+Cq7QPJh0yCRELHuXdczIWE7s///M9VM8jVTnmNWkZqKDnGmXMeqZ5mRSGpoxaT5I+kkcNTubUHCdBoZeJ1DhO1hJXhOG+Rhu7WL/3Zzfvpl2SKRJGL9NAv4ydhtfEy7wQJIckijySuvC9Lapl/huECOdSgcqVWkkneG/PJIbfUinIBIV5nHLxPXrfk8WrD3g/zTsJMEnspsOF2A7S52JodeQ5WQKM4V89yHM4KHPJDNOW59gMPJ4oMx9IEy0Ls+hTwxJ+WeHlvthnSGESQ0D3q0h6CpI1gsA6/J3Wxt4SivYCis4S8u45cyjGPa0B1DKEco8BHkHaAQRtFxhVaKVVuirm0jUDyoz6uUjvoGtgLw5XPhXH+8mEt5rBV6u155MwoH4lXRVrbA3/vfYgPPoJwz12IZg4hHpsU8ibvQ3cJ3upxFAsvA2efR7D0CqL2SXnPzIesjEPGx+cRjO1RwuetvIZ86XUE8v5FWV/fS59b7eTSdiU9JZBBIe+auCdCXrteXdKaRaM5jqy9gmTpOEKSVeZT4jeapit87gxXWhUakXHjEHr9RlQaA7ZI5fu+KeD2uNp10dX186NshQ02HuCI22gfOHzANzTMXYzWCWsfuo1e3SmM1kNXJ3c/dvIZXW5cVmYfBWXl3SSTOhhcNQ0kHzjJFPc+5IIyJFIcDmqHbfI6t5UgCeMKp5wUy3AkdiScXPSGfkgoOa/FLt1Lw4rEayRhlohRE8jhr9yy4nd+53fwkY98ZINA2jzRzoVs6IfzEXmdGkYSO8bPuJhn+mN+OXyWJJPXST5JPJkvakgZnnnj3EaSSF4freD0wzmXnO/I+Zx2Gw/GT4zm62rD3vuNCuZchTRzqke6URPAVRW5T9z8IMM3dDK8349xoNbQIayfFzL4GSF31ECuxVx1lUPPqJEwZUF6Z46MS46SiD4PpiV+SP4oKlOrSEF14I+j3ziAZP5BRPN3qVY36pxDcOarwOlnEbROIi76GicHumneNHYLEaY3hkcRTKg8brg5OOxWsJ5yyDuJGQmkvBdFjH44jmT8MPyDjyKYu0PelRhZKoRPSFyxfga+vBdB+7S8K4uIBssIk7buN5cVIdblnWpP3gnv8LtQOfQYYk4sPPpZZK9/HnHrNKp5V948zno27xRXTpYMlLkp0EUF69EM6vvuwvj0HnQXTyI7/QLivpBWEke+Ym+x/RsNufGWbo1OLmzj5LCrse2THYF7og4Ouwk3uix7s+GqaCDtA7ZaP25vwWGfJIJ2YRyCpNGukmpBDRm1dPRL7SSNHXJJ2ApEM+pGMkgiR5JKjSXjIGxeeGQ6JKscQkrix7hJDqkRtHEybzSpCEAkiKNDTenGvDAdEmEahmeeLfG0+SP55AJB1KJyWw+WAUkpr1nYNK82rkUaVxPMPc0oiSQPUy4m95YLUaunOQ4LibxdxM3JqIpE3E7mKY7nGZaFHfYDU+e0JFjuajdHEympHrWa1KlkqvVQjWSRIKJILMcKNSDZAP1cfEZ1hPVxBHFdCWna76DoriDOpS6RiCqxNTpSjV4zbM/UpYTJicO1h20/HC4Fpo6aRTVoBFLPzUrGoQ71RrUpdirjF5EuH0e28Cqw+DLilddRbR1DM1lAPWsjkveIBJRv28CvYVCZASYPIpjYh4DzCFdPIl05Bb/fkphT8VVq9Zm2Jmy+RnOIODfUyaImauMziMIAg9UFIaxnEWXyPuqfzffwHbuc5z4MNQTboa3QtmgbuBq2W7Htky2PxHbXCfdEHRyuNa6VrOxweTBS9VUCHzhJJEmbnQBrySNh7ZZ0WfJGkJSRFNprFtY+KgTQjUSU8yY5nPT48eObSKkNwyOJHsMybqaxNR6e27CWFBI8Mm88MqwdDkvQfTQegv6ovaQh7HUbn8PlYbtum240FEVTKd+BPDcO0E107zkRalULKOUtZljsFCmHhv/ioTzIr/XIgwY1JDPyclTRQz1ZRqV1HMXSa0jXz8HjSq2TB5BPHEYeT0g8Jk3900gNaDUC7dBxI0sO1wX6bJ25RKPVmqUmNZiaddbzAIE4hlyopruE4txLKI59Gf7RLyA6+SXUF5/FWOt1NAdnUMvWEeTSXipxpCZR2kV5R6nF9D1jdHCsz0V4GsjE5EGlTEsfltrph+e5sDiODuBIgSDwETM7SR95rw0/KxfOoU+5zvyP4s33dn4jP28y2/1t549muzid2Q1mu8d1ses0o36cccaZq2kcdjeuKoEcBQmUNbZyjGrtLMEiLJGkoR8aYtSPtY9WtDRNldTZYa7EaBjCuvPIeJkGsZ0/ayxG3UYNw5J08mjPmRdqMDk0lnabzlZsTdfhzbAlxCdhjbGoiCgwe3u1Ag+L8kwX4xDLUSDnAfoqmBqIdw3GJ2GGrJpzhpcnqb+60bhPATcAN0HP7FEEVo8bnec91AZL8FeOIl0+gTzpqQak4MIh9WlJK5bouNA/4y6F2BFjbQ4ONyb4jpj3g0SQ75RQPlTSVVTW3kB16XmMrb6IyfZrmOydwFi6hEox0JWOO34Ta/4k2sEEEn9M3quKxmdiMu/GgCthVsZQmZhFVB+Td5Gbmusba95J8UnySL853eTIfSc5JDbvrwNJR95ttv9yQd9CHsqjg4ODg8MNAytjE05W3n24aovoXAijlWI7XOjahWDjPV94uttKSEI3ek7YcLx2OZV1axw8p6FWlFuS0NB+vnw5XBq09EaK0BSn/IiFYmYtF0E0CNEVAnnay/FGkeK0CLctP0fmS72Qx0RRVMTejWhGnzK1IQRpHzUdG0YEVnoMJAL6YOhMWGka1BA0pnUfO4q0Qesc/NaCEM2kFG3F0wZLNSnRatJmLDYX9ujgsHth6y21fuZNMi6+1PFQ3rU476Kad1Ar5MgVUIU4st73hSh2omn0xg4DU0fgVyekfZRLWaokMI2bKMb3IhubRx5EqKKLet5C0FuC11sXcsiNzKlx5Mcc844SOk9ZCGYYV+W995H12kjbK4jyvr6rZpEbectMQ+Hg4ODg4OCwQ7hmBJKduDX23BKvUberDaaxlSDS7a2kPRreHrkKK+dxcp4kh+86vHWwZLV05ceU8hAkbHykHREczwppPCEk7pQItSsidvbEMzkgRU/qBq3oO6wBFqSBxli7PNDyig0rRk6ywsdACGRRm0LY5PyrEEF7ERAC6aecB8nVgjMNaPin1BH9s7Gpo4PDDYONumvbyo13wwwu5UqpnBFJDSBfRpLDvldDO55Bb+J2FPsfRXXfPahVG/CSLopeC1meox/WMKjPApwDWYkR9ZeA1ZPIVzkPch2BbrXgKXlkSvpm8vWR98eTtjyKQkkzRypksxh0hMwaDaQhuhrUwcHBwcHBYQcx/Jx7jTFK4Ii3QuCuFFvzYHE+9wvB5t+G5ZBWLhjE+Z9pyi/oDm8VLFkaVeqVJzxyNdZMyn8l8vF6WOB5JHip6OO0HNt+rpoIPh0dtjoSz1ZwEF0hEaop3eiqj1ZYo1kYx1OBNsZAt/rIOksoEhFaSSBr3C+ygVSH91mITfLHKJRAcoieGro4ONw40DqtLx4Jnb4tek4X1nAz5Jtzj0N5B2L0/CbWwxl0GkeQ7nkY6fxDSKfuhD82j7DalHeKw1FzIZEJkqSHQo5ccTXtrqK9cgb9jhDCfGQ4qrwz1qopylGHq8r7V/RW4A1a8m4araeZK6keHRwcHBwcHHYY141AXk9cCUG8GC4W59VI81aHFQ95ZOn2Al8EVh+rAbAmNbsrjDHjRTHWrxF2jdkWGxdLi/UowmsuEmtOAdrjupMJ/JxalHVg0DMLgcR1FBUhkL6IwZKg4YgmAhV91cFqIR0cbjCwCsvBGNIze8ZffmCJ5MjB5BxqGqMfjKFb3Yts5l5g7j4k9b3ooYJBKqQxSZALOdTQQiQDnwvpFPCzgbxTa8jFcF4j0zBNp7w3kr55gwx4pOazGBhtpp+aLT887j05CpNFBwcHBwcHhx3CLUkgHW5sWLF1VC6knWJjKlJlqkTPiJrcYoOD3sj7NIw4qynDXBLKsGZOJO0UUlP4RYKCmpO0L/GLCB1VgEoNWRDRh4lfflRpoyfmYKylg4PDLgffpFGYN4tG6jzrvdZlPVPDoaYDIZNtbwyD5kF4M3cBzXnxEijR66+eRX99EXmWAEEgzrHOY4wCH2ExQJR0EWc9XfmYHZTGK+/x1k8vTI2DWrndjs95x3IMJAzdjV7UwcHBwcHB4WrAEUiHmwvK0PRHTylmbhI7Ry9dKkqJ2ZBPiqfGiUNnuRBIkXCIstjDEHko5JGTJOlB3IaD6WzCNA4ONw5GayyrtTWbUFZt1vTE44qrdXQb8yhm7gAm96PwY1SSFqK140iW3kDaXRS/CXLOR5d3xo+FRAaebsHhD7oIk4EQQ4lQEiqj1t/N75E557cikyfri8ZRSAcHBwcHh6sFRyAdbhpQgDTLbFiBUiBCqBU3Lx8aQymY2hgorfoitKpeE0Uu8XMoHtMRYTj3ueWMfa1MmM3pbz5zcLhRoKO31cg7YI2AtZm6ea/IIK8DeojRrUwhnzmCYPYwUG0gzHuorh+Df/Y5YPUNBHlbAmVCIbn3Y6z7qeqnnqQPTwiknw502xxGzvj5a/8IpqzvJd87MRwZoKb0X2bNwcHBwcHB4SrAEUiHGx5GpDRCJSu0NVa43In5p5vk0Q0JVUReCqy6OboYLrLjh+LM1CkOc/jsCJxQ63CTwFZl6gDNC8Hhppm8Ax4GQQNZYx7h9EF4DW7ZkSHoLcBffBHB4guo9BcRoS+RcI5yoFt3+GFVVzcuhECSRHLrDmr4zVt2offXUEpj6LPMmQa5UDgHBwcHBweHK8Um+dbB4UbGUENizE6BUW1Ep5ZSpOWPyquWpFIzGYibIZCEEYAdHG58sIYbI3/lS2Ypm2ogxWTyDiTROIrmXgSNGfhBAD9ZA9aOAUuvIO6cRiXviC9+dAkknlDnQMZxBaGQz7zfQc5Fqbi6qvgxKZ4fG3ni0HJ+wNEcOTg4ODg4OFxNOALpcNPirRM3K4qOaDYs5JIK0vKX69A9I+xyaKtJedQ4ONxE0K8zljxaY8CdIEkgg+Ys4kodFXGJekvIV46haJ1GkLaUHBYFKWSI3Ivg+xEqoY8w7yPtrCEbCMEsF8MxA1NHYVIyOTBGsenEvXMODg4ODg5XE45AOtw0GBUqN8mTVwgrhhrxeDOJ5JBV/tlUdC6k2sRfYYx5vUYIpXgYxuDgcKNhWHv1bdAhplKpteJ7QgYDpH4NeW0Kfn0aQRDpiqph6xywehror9OX+KWmMEbuV8RaQRzFqAQegn4LRXsJnoQhvVTyyLjP89LwFeNlTV5hz4YuDg4ODg4ODjsPRyAdHC4ZlGRVZN4QUVUHyTmQKkwbwrixlE85T3I4J9LAHh0cbizYWm/qtf6WTpwBya070soY0JwD6pPw/UA3+Ud7Eegsw89SHeJdiMk87pUaA6EQyEoFVS9H0F2BJ/6CrCexWc0jUxn5COPg4ODg4OBw3eEIpIPDRTGq0TCL45g/Qx7znMKunAtR1DmQ8loZ3YwVtI3g60Rgh5sDUovtx5ESXAxn4FWRVSeFQE6jiOvimsPrrwt5XEKYtBDoMG8hkEoPPSSFvCdCJKMgQMC9VNvLCHsrCIVAeuqXuAB5HH0tHRwcHBwcHK4ZHIF0cLgCbIizJJAZSaTRQPpCIn3fUkaCUq4124rBDg43KEy9Zs3PECLxa/BqU4gas9KzxPDSBOiuAu0FBElbqGNW+je/ShE9T0LKWbeFZPUM/N4a/CIpfRm4d8bBwcHBwWF3wRFIB4crAMVbsxCl/IjR7UJIHoMQHofukUSWi43YhUDsmYPDDY2NSiwWYXes96kXI4nGgNoMwvoEfF/eg7SLorOkw1ejrGsIJNmgGOrnA3k/qmGBSjFA3l5EunYW/mBd/PF9kbiZjvgxyfHXGgcHBwcHB4frCUcgHRzOAyuqljKvEsYNEVbZo9m6AEUqBFKEY99HEURy5DBWhiBsLOZozxwcblRsvA9iuFgUV17t+1UM4klkQiC9uIEo8IVAdpB3lxAM1hB7CV8Pqf/8sOLBl/cnFuJYSdtA+wwGK8eA7iKCoic+uEqreVeMMX9DFwcHBwcHB4frCUcgHRwuAnLFodxaLqIjP2oT8phnAzmXo0jIeRCiEAJp5kAabBxF4taw5tTB4YaDIY5Su+UF8HQeZIAEkRDIOhIhj2ltWj+iBByG2l0RUriCsOjLeaoV3y4w5Rc54ryLUEhjf+F1DJaOIkjWOBBWPHGPSDno3o48UrvvSKSDg4ODg8NugSOQDg6XAIrKQxgxWuRbkWUz+R8gz1Mhjp4hkAFXmpRLKueakE7kdbjhUb4EPLDj4Exfrr6aekL7ogbQnAcaQiBZ8XtryNYXhUQKKRQySf9K/TyzgA5JKDWQUboGX0ik11tW7WPgZXpNoe+XsTo4ODg4ODjsHjgC6eBwEajga6wboGxL8dnj0NU8QUECSY2JkEfoVgVO+nW42WAY5Mb+jwLSvcSLkMdj8MZm4VWb8PMePCGFnNeYC5Gkf6NNHBrCl9ARUkReglCOZuuOkbdNNZw8lsbBwcHBwcFhV8ARSAeHKwKH8FGYFiu38VB1oxmeRy0LZd+c8q83KhTTODjcyNAKLwczzDQj7fNj+PVJoDYOLwwRZl147QUUQiC9rF+GMjrLUZCGUhvJI/dKNbRUXxrjQc4cHBwcHBwcdh8cgXRwuGwYMmhEXbELgVStjMdhrUYDaYXg7edtWQHZ4VbGKFW6UTBaq6l9TL0IqDQRNafgVxryHuQI+qvA+mmgt4ywSDWMfljRcd16Uh6oc+TarFx3lVr78gOMXHNwcHBwcHDYvXAE0sHhkmBEXvNnzpBnIkWbIaycC0mtjC41ydVYVRA2GpUNgfjNFodbGBv16EYBh6KWVmoOMy9E6leB6hTCxhSCqAIv7cPrLqNonRUiaRbF4Y6PqodX9jm866HNvCOqxC9dHBwcHBwcHHYvHIF0cLgiUNDlUD5LIlN1M1pIX483po7JweECoKadxveRCj0cBDXk1Qn4tUlEYYyAKxK3uffjEkKusqpUk8TTvQsODg4ODg43CxyBdHC4YlAspm6FQjKNCMhCHlULqVC9yhbj4LAzMDXKarlLLZ5euZpgCpz/WAiB9JAGFRSVMXhRDYHvwde9H1fh9VtCILn6Kt8PgeOODg4ODg4ONw0cgXRwuAgurDuxJNIMbtUVJsUMBXkr1l990d7hxsLFa8WFa56hjZyJaI2lkVcbBfKiwID0MKrDq02gCGLd+9FPWkBvXTWRgcf8EBe+DwcHBwcHB4cbC8HExMQ/L+0ODg5bMBR9S5vI5z6HrQpJzPwI/aCKvDqJyuReXUgk63eRrx6H3z4rQnSHS4NoaOonGcacMq5rIeg77AbwaW8Fn/5wlwrWC55sNYQ90mYIGWfXBlIHQzE8Bly4ZsOIH51MyM8ZZbSXWdWGKW4GP45wkRxfDIevtr0xpOMHEM7doSQyzIVSSt33Fl9B2F1AJISSeWbyqofU+n+ZmXFwcHBwcHDYdXAaSAeHC2BbcVfkYMrCHLI6KmxzlUmjAzJ6IBX3NzzQMurb4VYBSZwxw/oxrA9Ds/3f8IqpVIUQOBpD5EgaOUzUkEq6ZfC5KnBOjaQZXs2gBhuWC0KTYXIbRvK8Qf6Yfx8Jd3Dk3o/NWXj1SXhBiKC/Dp9bd3TlqMNXzZ1KQP11cHBwcHBwuDngCKSDw0WwnfhLWdroVoxITVBcNkuGmDBqKIGXYrTDrYsN4kgipvVhqzHY7oo1bKx1U34x3H8x8UL0EKArpifn/cJHJkahlU/13mJM/bxkSKBNdZhu8lvegaQdStpV5DUhjmMzQK2BIJD89Vbgtc7pMFbV0ot/844YIuzg4ODg4OBwc8ARSAeHy4VK1fJjj4Q9CjY0Nk5svqWx3dM3FGyrISxBsxpGY7fwxKoEUupVQtIoBG49mMRKZS9Wq/uxWtuHdnUOnWhSr6Xih7SNWsrRunkhDHNijaWMBPWOhhQmHLodNoDGNPzGFHI/RJH2gfYisC4EMutLPgvkNBqixKVlw8HBwcHBwWGXwxFIB4e3gK0yMbfw8H0K7/JqXaLg7nBzYrunPySFQswKO8iTmkIz3NSSSPWnXkfO5Zd7Lw78GtrxDFoTd6K393EMDr0b2aF3IT3wGAbTd6BbmcGAGkKJ38sZj03zSkHyaIbJUqFOAplWOXxVCGS1iSLPUXTXkLfOAt0lIa0D9WfuyhJQBwcHBwcHh5sFjkA6OFwOKPfLQY3YKR5TPlcZXX6oIRIKKe5G7HdwUO2h1A1qA+0CN9bYeYwBl6UpErFTv8j5g9wkw8xj1GGr4tJHhI7XRL++F/7e+xEfeTvi296BymE5Hno7gsPvQCBu/oEHkYzvQ597NArh9LyA2dD0LhWsuZa4cuEcMxw2k/g8DEIhp/VJBI0phHEFkRBG7vuYtxfgJeviP9VVWjNJbqiNd3BwcHBwcLhZ4Aikg8PlQuRhFcUtD6CWh0YuKIGkBtIjibSwHmkcbkUYQkaQlBltI0miL2TLJ2nMEyGQqRDIAby8L5fFcBXTwmzPwSGpXX8cveZBIY8PIj7wCKrzd6IyNocorMETsojGHmDuLgQHH4K/7z5kJJFRHRn3JmXdU/J6ftirNq/GWBJprkpuhUA2UNRnEHDl1SBAnHXhCXlEdxmh0FwOdS2EcJog5q4NLpy+g4ODg4ODw40BRyAdHK4EpVysQnYuhCCjwEwB2YfvmflnRoC2QrMTnm9dWBI1JI+eJ8RQCCM1ezkXpUEFPUToexESqT+pau3MsFHxjFQIYq82i3zmbgT7HoTXnEfa7WFw9ii6x55H++iLWDt9Eq32AIPqtJDMu+HN34WkNq1zJrWeMq5LqIZeIbWXyWp+GcAehUAWkle/AVSm4cUNzZ83aAl5XAQG66pJNQNXzccUVdNfQpoODg4ODg4ONw4cgXRwuFyUQ/J4UD1jXqDIMj1S7OYFDtujAK1CtJOgHTbAukCCZUhW5sXoBpNYr+7DWv0QVqsHsFaZF7cJvcYaxlVPB0EVWWMO3tQBoD6FZDBA7/Sr6L/+ZWRHn0B67Cn0jz6NzpnX0RNiifo0wrnbkI/vR04NpcaktfOSQH8kkYqyPnNOZVZEyP0mEI/D9ysokgG87opqH5FKuqV/cC5w+SHFxObg4ODg4OBws8ARSAeHC+B84i/djEAuUjYXEVFDiVtc/UAuDEOO0sft4nK4ufFmJVwhZMxD4lXQj6bQHzuMbO+jyI+8D9mh92Aw+zD6zcNIwkmjmRTS1vdrShzDuhDLLMFg5SRw7gXUl17EePsNjHXfQGXtFWDhJSRLJ4Vg5shrc/An98OvNsp0S2hmtq+JttZuGPFrtqIJJM+B3EsFnpDHoDoh1VwIbpKg6KzB63Hvx0wC2IWBzHHzfTs4ODg4ODjcDHAE0sHhCmA0ixSwKWHnRgtJQVu1L+ZaUapwzNkQW88dbgGMPHQuiMON+Dt+E4PmfgT77kd46BGEBx9HePgdiA6/HeHeB4GJQ0IwJ9AV0jYQsuZXq4gqgZC2dRRrJ1FtH8dkehYTxRLG8yVMJGdQXX8D+fJxpELq8qAGn1rLSlM1iLonoxmbWmL7mkhXM4xVbEoePV2MJ0eMQoisLwQyjJsI/Ah+msDvtxCk3ImS9Z3pUGNpg/LHwcHBwcHB4WaCI5AODheAoYBvBuc7qmisK1Ry0RASSArN8kqpFoYwQ1hLnwoVrEu7wy0CPvDyobMukIz1/QY6tXnkM3cimjsC1CbQL0KkqCJszqO6504hkfcinTqEnl9HVviq2I48oZ5ZG2Gygkq2jkrRRpR3EecdNPJV1JNlBJ1FZEIgCwRCOsdRhHVd/CbXumcyY3SDW2qikj2a4TUzBJWbeIQYeDXkJI+6+mpdXD0hkD2gt44w64sPxj6M2Rj5ZRSC8uDg4ODg4OBwg8MRSAeHi2BUIDYYEbQ9s3hOlnPrAi6OQkFfRGvfbOVBf/a4Ed5J0rcUbG1ReAEyv4JBNI504jZ4s7fDiyrIWgvonXkZnVMvo7e6iFz8eLNCLIVI5o0Zs5JqniHQlVrNFh+FR5Pr1hr8C6UeRlzVVUhdMRBiJxWOw0yLIFLSSs2nZoFfOuTsgtVQtedljS3nPnIYbV6bFoI7A2GQ8LIERbeFvL0iaXbhS15sLfckvPl0Iuc2GnNwcHBwcHBwuMHhCKSDw0WwWWs4InarlQKyCPFCIDNqI0WYD4JQTCTWwAxrVY/GjArRIzE53KQYPnUa0r4AiV9FVpuBN3UQ/tgsiqSN/NzLwMmvoDj5JAannkO3tYJeNIZ88iCCiVlpqX1dsIYkktvEBGEESB3LOLSUpFSHmIaSRKT1zw+49yM/bLBuMgc856I2JYnUX2KkFpJYCvHj0OtcQpCcmgV/IPmOkMYTwNgeBI1JqdtyL/02st6SkNVV+NzKo8gYifgnVeUKshK2JKsODg4ODg4ONw8cgXRwuBRsYnvliQjHaitSFBlNpuIztUxKHsXKIXxWfKbfMqTCidW3AlgjDAnTuY/cBgNV+LVpVISISS1Bsb4Ab/l11FuvqSlWXkFv9QR6A6lT1XGE9aZWnHyQIEuFQAo5DMJY3IRUSiWzhqu1pl6MIqwKt5Q0JM180AcYRq7T6NxGvUJja2RZK+XA2mrIo6255phKWllVCGRzDn6lhsCXuj5YQdpZBJKW7l3JHBhY0ihG4nFwcHBwcHC4ueAIpIPDRaAy8IYcPCoQi50bvZeGQ1gNVShXoOTl0p+K6XKyOS6HmxslMdMHLsRMSBhXXk2jcUTNKTTrNYT9NRTLJxC1TqI2WEKcraLor2LQayPJpF55QhalleYKp1k6EC4odYmrnwpBpDaTej6dZyv+BhwaG9aVdMa1ulwVQtdr6ZDWkHVU82Hq59AYaP0s88lf6h7tGQll6gnxjadQ1KaAwEOQ91D0llG0lxBkXaGujN/A1PVhXBsXhhYHBwcHBweHGxiOQDo4XBRmFqMRqcuDGJJBUkUfqfyKEQJpBGYzJ82SSD3To16Vo8OtAz5zqRdSAVLfRxbGQvDGENcnUAulXnQWka+eRCBEEvlACKaQQrmO+rgOUS2ENHKl0zBPkCckkBkKah/jusRVx8CLkEgNHAjBawd19Oqz8Mdn5XJDwnWQt88Bg1WpfwPJCuup6hc3/s4H1ln+kvRyeGwaVJHXJ1GIyaVSF71VQMij11tBXEgONio1uxSt8ZKesQ9x/vQcHBwcHBwcbhw4AungcAEYMVqpoBorBFNA5suj661y7pcI0UU5hM8XokCjoQsjQJt4jHG4lcD6YUgbl74Z+BGyqA6EEfy8B3SWkA3aStK64QR6tX0opm9HZfogKpGPoLuMsLOMKO0Jgexh0O8i4XKqVSGYzTkM4nF0ihhtVNCOp5GNH4A/KXGQiLaXUaydAoTk+TnnKAoZ5XqsHrWFmdh5NAvfsJpaerehKRcfOec++lUUtWkUkl5RbaprLuQxXz+HYNBS7SiHxuobQm2oxjhS/23EDg4ODg4ODjcFHIF0cLgAtsq+mwhgKWjrS0SSwDmRQhwDrsIqTpv8ltjOzeEmR8nISNV0sZsghheGQNZHmvbRzUKsBVPojt0Ob+9DqO17QPjhDGpFD9HqCQRrZ1HJejoUNe120eeeo7UJBEIy08Y+dP0akso48qlD8GbvQNGYQzfN0Fs9KyTvrIRbR+glCCBGSGRYmkA39zAfPQzhk3orhM9nPdYhqGa/yn7QRDG2RzWbeRABeR+FkFpqIKNMSCl3sim4YFQ5dNsTiqlE0sLVegcHBwcHh5sJjkA6OJwXRvA1Q/2MODwUisurKmyXq03STkedk8aLxGYxWrmEOR2xONy0KOuFqQZGO+cFoZo8yzEYAH1vAgMhj/6+h1Hf/yDqE3sQC7n0F95AsPAqos6CELU+AiGb2aAjpDNHHjXgTR5EISaJJ1FUJlVr6U/tRRo20Bvk6LTWkPZaKEg4uYmkb+ZLmmHXuRBFIZBSdzWbmjezSivXa6Ufzq/kirFpdRre+F74Qlp1nm9vDVl7ARis6dxK1neuBMtFfew90piXwZw5ODg4ODg43DxwBNLB4QJQ0ieGJFJXppSTDXFYzj3ufacE0pBIvcbhqySR8sewQ2w+c7gVYJ65zgos64jvi52L3uRiUEMxdhDx3vvQ2HM7atUags4S8tMvIT/5NQQrR1FJ2og4zzDj/o4d5GkiBLQK1PcAzb1CJseF7JmtO0ISRYFwRoB+KhPIKlPoB5Po+2NCVuuSZoyMGkOhivRGY/JnjbjIMZXrg7CGbGwWGJ9BWIkR5j3kQh6z1lldfZUbfMhd6YBY1WLqC2AOpdXBwcHBwcHhJoMjkA4OlwQSAUsAS1IgErIO91NtDudBmn0gud9e4XNPPqORsaEIJ1TfQigfvNk6wzS2XDc1UILmIwkayMb3Idp7O+oze1ELchQrx5EefwaZGCy9jqi/JtQwQcAPFflASFsPXjZQAppHTXi1KYTVJtJBF8nyafitc4jTDuK4isrsEfh7H0J/5gGsj9+D1cZdWK4cxko0j1Y4iZ7fQOpFWif5uUMHoGrezHDbvhdiEI8hb84D1UnJQ4E4WYcnaXjdVQSSD7MwD+s1QxPmzOohHRwcHBwcHG4+OALp4HBeWAGYBGBIA6mFNG5GhxOSOGYJ8jzhVRQ6RLEib1csZ2ZemWonlWAOYx1aHG5qeKb2mK38pQ6kCZKsQBKNIZzci/rEJOKshfTsS0iOPQmc+Sri1jHEeVvCpRLKfKDgcNEgFfI46KPIM6SFxBjUEFMzmLRQnHsFOP08/LWTiLmQ0+RB5PsfR37ovUgPfz2Sw9+A9NB7kO5/G9LZe9GrzgmJrCpZZPyBGhK/Uvvo11DUZ3X4ahHX4XO/x/ZpFO2zko8WYvUloXVc9rAy816Hb4ur5g4ODg4ODjcbHIF0cLgAjPBrROKhnGz0K3TVuWRciIQEkoYCuC8EMqwOCaSGsHPNHG4pqEZamtnCLE7j5zmKpI8kTZGGNYBbdqRdDM6+isHxZxEsvoRq5yQq2brUmQSZBM881p0MUSGETfxi0EbBuiY+iiBCEAaocDBs7zT8s19Dfvo5ZCsnhKcK+axNwpu+DeHe+1E5+DAqhx9D7cjbUJVjMH8P0vo8EqmrXD2VJJL1NBda2Od+lfGUkMf9CJp7EEQV1Yb6K8dQrEo6SUf3fmT911o9QiI3rObUwcHBwcHB4SaDI5AODhfBUBY2g/KM4R+F53L4apYiTweqZeQWCkoe5Ui/XHhkNJYNkFs43NSwnxkKbr0h5NET4lcMukLuulp7uGqv1xf72llATNxfRZR3hID15Xom5LFQEqn1TAilx+08eh3kSYJU4sup7Q6F3AU+6nkXtc5pBOdeQHbiK0hOPIPk7IvIl95Avn5K0lnWVVhVQ96cRXX+DkSztwtRnBb6GSEjuZW6nPgh+tEkMHkQ4dRhIB6DL/U7aJ2Ft3wcYW9F8sjdJ8v6LMR4a9UmXPV2cHBwcHC4OeEIpIPDRUCquJkAimis0jEFZ+qBhArkKQoRstWLkAIK6YUcSRKINwvTpcu2UjYdt73gcAPCzIG0GkgSyDby7joKIYOBPOZaFKDqe6rR04V2WIl0ESYx4s4h07lXarrTrllIJxGCmWdaz/y4Bj+MdThpTUhksy9EdPF5BMe/CO/1zyB/4zNIX/sMBq99Fr2jT6J18iWsLp1D7sdozO5HdWKPpEMtpEQvabb9OvpcoEfIYyDXuDiP310Flk8gWD2NStZFVKoYqbk0WlaemqO5YoyDg4ODg4PDzQdHIB0cLgFWGC5F5Q2huRTzxYMI99xQnc66ZYIYL+SJXDd6KML4tmfl0Z6+Cee94HBDgLXGPG/+kSyGOgy1haK7LCRyDYGcV6oVVGpNeFENGRfHoQabCzCJf8aQyy//dD4kCSiHsaZ9U+eknnlCHnWbDglDklnJOxhLlzHeO46x9RdRX/oa4rNPwz/5JIrjT2Jw4ll0TjyP9sIxBFkftWqMKJK6KkQxDSroRZPIJg4CE/uR+RX4WQf++mkUK6cQDdZQ4T3opxHemy69w5sVOMro4ODg4OBwK8ARSAeHSwBF5E1GuYEHn4ZDVDNqIDMUHAZI4T+MRCAXo6/YkEJuiNhioV/db0H+zdUSGxPIaBxuZOhTlDpiCGCB2EsR5UIAO4u6Gb9fJEAUA80J5LUx9P3IEMhNdcaG53BpIY5JB/mgA49DYvnFQg1X/uWQaYbKEWOAetHGWLaC8XQRE+k5jA/OoNk/haYQy3j1dSSnhESeeA6pEENPiGQmtLAdNtAf2wfMHJY8TUnqCcL2GXgrr6NYP6uEk1pSzRfvS9PWUwcHBwcHB4dbBI5AOjhcBqysTIFe536pyC5HDifk/DZxy4VAFoGQAiGQXGbEhBpK2YYa+EIGSD7lfCMeC3Us7Q43LPQRylOVf60vSHWYapz34HVWkbdXhAj2hOqFSGuTSOsT6AdV1UKaymDrhPnlhwpqMAsJk/W76hoGhmwajaUQSC8U+iipSN1iXSTZo5aTC/BUvQR1dNHM1zGeLaDeOYZi4SXkK8dVq9nzYnQrMyimDwHje1S7GaZt+CtHUSy9Dn+wKmllYszdDGHy5+Dg4ODg4HBrwBFIB4dLAAVmGupeKD6bcyNGKwEUAqlaSBHYdeVVJZBGI2RpgDmakBz4RwI53LjdXFGoF+PP4cYG6wjrTE5tnTxT3Y4jT+D1W8hbi0h668iCCLkQyIyb/ofcVkOaZXn0RhEtdaasJ6bOSGxpH1nSFXfxyQVxWK8Yv/hgOpkQv8wXEilkMvOo0Qz1GquUJ+lHQmBreRv1dBWVZAV+uo5ELrajSSQTh+FPHYRfacDP+whap4HFVxG1TiH2+tJjeMh1XibTY/7kV+uqg4ODg4ODw60CRyAdHC4RKs8bq8LqXVTG59DVNEMuxvN8BFEMz4/kmn3FbGiK++bPl2s6BFb++Gti3GocbnTohwN5zqwXfKLcNzQsBsg7K8haK3rdI2GrTwhxa4rfoHz6o3+mNuiyTHmqq7AWcqSGkaOgORp6E48jwZN4uCVHriSSddFoK32PrtyyI5NTrvIaosOFc8YOwpu7B0FjDqHkNRZyi5UT8NdOIE7XEHA7EZJHiWU0KQcHBwcHB4dbC45AOjhcIjYLzhTniUIEd+qYOIRVSEEqgr1c48ImZh9IDis0/kqdjQr1qV8DKhMIm7PwqpMi4It/aprUBzG0Odz40Kdfau248X4s9SUarAuBXEDa7yPnYjWVMSWQBcleYRdfMn/Qc0MgPW6hkXURZj0xfV3ZleyRGs6yio2AaVIzScO6qHpMPXKo7MCroOU30KvvQzZzN/zJIwijOqpJB9HqKfhLRxH1VhByCxFJW6OX+3BwcHBwcHC4dRGMj4//89Lu4OCwHSi/W0spkHN4IUVxnnHIYd+vIqnOIBybQaVSVaE+XV9E0VpEnPc5y018FkiFHPT9uvidQG32IOqzB3RmXLfbU2LAGWwbgrrgTXzgLUCJiObYEACmwxQKuRlzJ0MjjqUfk4OdzMfFYFIeQvOz1ZG4IYZOSgmScOnHAcmv5pn3IwSuCJCHdfjNOQTVhpDCAfL2IrzOkpJDE4JhJUxJ2kgEUw5JlXCNsSk0I6mLayeRCdnz0o4OkSXJNM+RYDhDQnnOJ60kVI5Mn3WxV98L7LkfwfxD8OszqBUDVNZPoTjzvBDI1xElq9RjSohASCdrPWF+7cHBwcHBwcHh1oHTQDo4nAdGZN8KEcWVDPAoZ2IoUnOhEhX6uUG8uBVRHUVc1/ltJBAka/RHwb7j19Cp7UE6cwe8PXchG9uLQViTa1xYhyttGpF/p2AphCEV9sy6b2YA9rryRzG8utnH1YTNEdM3eTD5EBchUVuNAT3sTmzKGe9FDsbwGQ9QzdoIBytIuZhOmiKu1BBWGkISy88IGoYE3zTTLAtu0xHmXQTdcwiWX1fjdxbgc7EbqYMEaxoTHNYhk2pZsmIlefRV+9irziCfuRuBEMhofA+4bnC4fg7F2ZfhLb6BuL8sdTuTUIZ2WtjSJ4auDg4ODg4ODrcCHIF0cDgPRoXkITaLzhTJ6Ubx2hcCWfRbyIRBcjEUEsgiqpZEwMw5o3CfRE2kjT3o1+bQ9huqvcy56I5vFkoxAjl/d1g034jO5tvYLRE2ZwRPSF0EO5yFi4MJKs3ZyKMlPjqjTwm2Oderw59dDd4PF7ixpJBkLy46CHtLyFpnpN6soRJ6iMNQ6gGHm1r9dvk0Sg0kP0TEQj7jgYQ79wI6x55CuvQGgoQE0qyQSpjSMUSSRsuL2kkdbi11EDG64STS8SPI5+5DNr5ffUadReTnXkF69iWEnTOSVl/rJGu4idPmYwiTooODg4ODg8OtAkcgHRwuAiVYajPivGoTRRDfIDFypGbIS9soBiSQKTI/glepizEEMhf/FMM5wDAJGyhqM0okOyLz97l/JAV7Fe63EcdHpfVN4IVRsz0013LZHO09GPDIRkCNXDKavaHhr/V8/hQs6GPUXA6sxsyWqgmv6QsMATI0xpjSx0Z+Lze96wHehck5PzgERQ9+sgqvfRZh9yxisYfc4oNEcEQDq0OMSzvvlfMRK+k6gtZJFCtvwO8uIJS4Ao8LOElZ0K/6NGB9peEwapZd4lXQCafQHzuCYvY+5EIiM3Hzu8sIll9CsfgiwvZpIY9djdPkhYnTlE9nNAEHBwcHBweHWwqOQDo4XAJULhcJniTLrG0pwnqRijDNxUWo2RF70kbWXUWWJkIaAyWQQbVutlWQOKh95GbteVCFX59EGFd06w9uy4C0J1zIzJM0crmyhYvDyvVqzhOGBEAOHDqpRkgBqaySL2rz5ECtntExmXPChDHmkrE1P9Z+2TABdXXawtJGG9EwZ5ujvqKErjqYU/NpgPlTqi5Gfr0ckQ5HPY184VUk515F0V6Anw/ksUioTc9Tn0xpI/lMEKdtXYjHT7taF80ejXy2fMbqtQzF+plIvBnyIkDHa6JTPwjM3Q9v9i6pp+MIpf6Fa2+gOPc8/PVjkq+W5JIfNmzeGRnjEpueMG4HBwcHBweHWxGOQDo4XASUl3Ueo85FE7FZiZehg2ZYYIpAhH7OQwM1kIMe0lwoT6UGv9pA6se6eI5upxAIadQtG5qIolCIYxdFb1VX1fR0oR0rn5dS+vnAPIif0TmBarYR6w0l5TUaEkcOpy01qBqPBa8bYjDUB146UbDxbTYSjyRxKXGYnBiqqIRWs13qzrwYA7+GnlfBoAiFCNn8mfvQRMoYLh2jdzi8352C5say8Q1IOkqsuaqqr4smVXsr8BZfQ+/kC8hXTyPI+nJNwmn5jUZh8+mBG3LoLqPyLLmFTC5+cx7FTVw1bWou7ccN7lMqFBJtv452ba+uuIo998CrzyDigNbOKcnDS/BXXtN5mZzTyzh00Rw1pmT0mWoal1/aDg4ODg4ODjcHrhmB5Bd1/apeYtTu4LBbwXpK4dyAQrTOdhTBWqiLT8FanOS6aoS48TrnQPbEZDmCqKobsmdhxRAgMVxcJ6pNICS59HIhm2vif1WF+EDiMinxd+T92OZVUSfNlxHoDbUwUCpkHTasW/yVcTL/tJq5eYZ4EEpc9G8Ie+1NGPFkYhBTlhkv2VhG43ozTDibTyWR6s7yDpEJeUyr08jqe5DHY7pyLRcr2kiPuHACl4BLyedlQCIyJW7itPdmXHiHgdQboJr2ELUW4a2egd9ZRshtOuhf7680Up7GLn/qbksplGdII5RSP3DQjT5ZJkYjyQ8GHDrd8epoVeeQzd4Jf14IZGNWlZxVLsizwKGrr0n9XZG6yKGwEr8ljxofUZazg4ODg4ODwy2Na0YgKZDol/cSo3YHh90KiszWECSPiV9FLxxDJxhD168LmYxUI1TN+giTdeSdVZHZ+0AYAVxIJ6QWsi6kpyL2KsJqHWEgQr/4ybrrKAZtUiQjpisjPd+7Ya+Zd8kXJsHhtCWlFWMoBXNrNH+WbJACWALiS1gTijPiUrGncsEMUxy9W8ZBU55eCExHDkYbWOZHyDGPTFfjUo8XQZmYas00DhOOd5VGDfjTh1Hdfz/C6UNCxIWYi7vJGn95Bxbbp7bVdVguxjB9Q6jpc/s4NsP622xMaQyxcYVJbOSTKQby6yEWglfNe4gzIZLUZGu5GT8mLEtA3DjvVokk75t7OkbIfWq2pS5JDZIKJ9e5kq/4V2PCkAT2vQrWq1z59274e+6BP74HfuCj2l9GtPQiwoXnEXfOISyYvpSBJZB6JrmQ+OSE/2ocHBwcHBwcbl1cMwK5W+GIrMP5oMJ7WT3MnLRChHURxqMmssnDwNw9SMYOYxBNinsMbncQJWYYa8F5jRT1ozr8yoQQyCoGhRDKoIaoUlNtY9brCoHsAMlA+A+FfUNlTMoltpwq5NySCtJADjdk2hzOaEjcMJgaK/VzLmEhhBFCOkIhtrUJ5BWjzePMOeORBEcMA14ihmkxTzZflpgxP4yXuEik6k0zKn+G0jIv/M2CCtL6nJCfO1Cdvx2oT+mQ4IKMj9BgGsEFsZEDsQzzx/s16WgMo57OB14aNVtgqZ/+SqRatCV4dyatEYIoHmh4Zgx/5U/DSv50yLR5tua6KWFrN4bUkjSScyu53Qf9B/rBo1ub1WGr3vwDQh73CXkMUR2sIlh8FTj9PMK1k4iyrhJPzapEa/JojIODg4ODg4ODxVUhkFu1jXb46vnMtcJ2aW3Nq4PDZkjdYPWgEC9CuQ4TrIwjmr0dtcOPINj/MIrZe4Xc7EMaCCkTQpOnA+GDCSsXvKgGL26i79XQKypiryOuVIXwCWHpdeD1uwizTIcykjBYCmYSld9NEjw9CW3geyPXqUFMhERlQSyEsIIioDaKYQ21GMJQFcabcLCs5CVv7EFl7k5E04dRVMclHHWo9GeIm/5JJCbpzbGNglcsQWT8qZDUREhqkotdosrkksnN+eMYwvjRdOU+daEfNZzjB7Ql3l40DozPA2NzSMKakl8GUKKlobeHycHIn2aZP0yHv/Yu6NOeGZet0LjkktHQGmPj4gWzaqo5V382zNCXGP6aGYu5eDLLGvFM3KVuGG0jDeMwduNuymMUjJfEj3VK9yOVehrIeV5E6KKB9Wge/el7gb0PwZs6hDCOhTyuIFx8CTjzDPyVN1BJ1iSM1FmBee5lCTByBwcHBwcHB4cRXDMCmaapHn3fJMnr1m6xlcjtBLEbJY3ni28n0nG4+WFrCasUN2LPK1OI9tyD4MBjSOcfwWD8NgziKep/xJfUbalXnpA6r9IUktcQglkF4gaiqKqEIOu24QuBjIRshiQHjJt1keH0z2BT7VR/pBk+Bn4Tg+peYOp2+JOHdY4gt2igrko8Gv9lPHwPdO1YzsUkCRs7IHm/G+H07fBq05Ld2BAG/TPE5lJByst0mHY/GENSmRGCOoesMo50Iz8l9P5K+zYweeAdkspKLqhV9TLh7gP0+wN0hT+lURNoTCMTYk5tKpeT0RTsu36B+HnRF1bEJWzMerrU13E+Je02oM3F+cFrJpdDY8OZstvOEBJSA/Ocdyj1QM51Tq2yTR1YLHlMxYtZWVVDl5lh3Bpcz40jSSXJn9ajjOGkjLjPoz+OVu0gurOPINv7NhRSTzypf3HaQbj8GopTzyBYfBlxf1lKgisKMx351aGr5o5MmarNwcHBwcHBwUERTExM/PPSvmMgIbPEjUeeT09P4+6778Ydd9yh9izLMBhQUyNim1y3JG7UvpVgvhUwzlEySYymtfWag4OpGQLWE/ljbeTqn4PcR0+k/oEv5EhIEuqzZkhlVMfAqwpxmkEwPosoEJoiQn2RDNDrdIQqBIin9qA6tV8EfqEGS0eBleO6FQM3bKfQrhrEsk5ScN/IAyHMgGI9xXsSwXY4A0wcxti+uxA0Z9DpJUiTvpIJXXmTdZ45L+t2JiSx79fQF5LrTx5EPH1YNZKD9SV4vRUJM9C5i0YHybmSJnXe+/nAuLkaKH/7vtx/ZRqVmUNozuxHLuklg0QKLZGrHF5rqNX5UaazcfvGN0lNX4nvpN5ntSpEPE0waK0h77ek7HRJHY3bEvBN0FP+GOKo9yPlnJSLGhVRTUJLuedyF1LG1OYxrwYmnIU5MyVijH1GZRgJvymkubgJG9pJHks7ySTnLBoaK3FIQK7cO2AZ+lWkUte4HQwj5HNhXdS0hTzqKsBSvqwXOt9RnnE7mkarcQjZ3IMo9j2KfOKQLuoUp+sIl14FlDy+hGp/EaHWFeZLYvB0bVdN38HBwcHBwcFhO1wVAmlJoyVlU1NT+NCHPoT3ve99uP/++3HfffcpiVxaWkKr1drk3wqtO4Wt8dk80d0awro7OFiwZmjt2KgnYqSaUCuWkhT2+xhkci4ExK9PANUJpPEkslhIpRATkeqF2GQosgS9Lgmkh3hyDvXxGXjpAMmCEMj1E4jSlnhNhTzKOyAkYVgTt9RJIRtKGsQkQlRb0ZxuAl+bPQzENUmjjaS7hiDrSrrchsFoksyvcC4hTCQXg3gC/sQBRBP7kCQZBiun4PdXEHIVWbk3TUGHtFqipKWwLRg3l3DJvBAdfwz9yiyqM4dRE5KcSva7rXVJuAOhf4xVbmn4zp0fZYraHpAUwRDdaAJhbRK1el0J06C9ovtucvVbc7+MfpSAl9BTibMg7TKxM7+DsAl/bA4VIaVKv1LePzVxjMnGsTkunlkz/GWJ8emWOkxbV+yv/NCHcRHoOVE+IblPX4kgh6cqlRTiWBUyPomkvgepmKI+pcOhVWcp9YnPiXWL9Yakl0nqM/AaWI9n0Rm/Hdm8kMf5+5CN7dU5j3Eqz3jpZeRCHn0hkbXBEipSsgysxHGDPDJr/NnIsYODg4ODg4PDBoxEdRVgyVmtVsOjjz6Kb/qmb1LS+Morr6gG4Xu/93vxnve8B0EQmP3LxJDEbWe/HFyICDIvzENdBFCC+aN/akNtuNHw54vr4gKwgQ1v/Z8vPofdCSNMG0GadsL3MiFDfdRFGK+0TwBnn0f35FfRXTqBPIzgTR8Apg6oZpIkj8NWs1BMXIdXHYdfEdJCGsDtPvprZrVWbuzPRVzsQi6SlG6rYZLcBL0uP5wTyIV7sqiJJGggj8aERDbFzW5vYQzB3BsYzVbhC+ULInM0FEavGorD3xGyc0lg/Fw7lSu6VnW+ZyJkL68KMYslbxob32Oj2xzifKmU+dCyZ+6omUvhJ0LCe+tSZpKSlKdfqSPX+6BecTTezaCST+9I4jNHkmkhkJJHTB5GvOdOhGPzQvg5tFjSK8nThV5XXjLlRqO+1ajrRjjrylTNNXNxNKTUKSGDOsdRXDj0lBv996rzyGbugXfgbfAPvxvBoXciPvAwwslD8szrQs7Ff240zdR5kkKvSbiV2j60p+9HduAxFPuEPI7PCnnMEQ3Owj/7HPITTwGLLyPqLavmkTnZGMbLumAzxbyqcXBwcHBwcHDYjKtCIC0x45GE7b3vfS8ajQY+9alP4f/8n/+D3//938fCwgKazab6OR+BuxJYsmZhz0keH3nkEXzjN34jDhw4oMSVadn0rL/Rox1CuzVPl5pHG5dNx55fLzD9652HGwpSVBSwDcmy2isRtUXwjoseGkIiG93jCBe+hvTE0+idewMFtWFS16gRzPwKEjGp2AshjtRQeiL866IoSRsFCZH45wqgjJ5EwCylMqRa29c042rqlAT3WVeH9fXNKGMqH731H0i6HhK9p821wvi3btvnYQjmOieh4XshRyW3fqDz7aidJcEzsVwsJoI3NCReZDRmmKyQyKwnxFvKLU3hBaEQPiGPJMzin4T7QuBlJXGMUn5yIc9pPIasPouiOSdkVwivuNGLeQ7bw94FDdPkwFxqLzknlqagkWvD7Lw5Y0poaSScDqkth45ycaNeMI5B7QAwez+8fQ8j2/MA+tN3IZm6A97MHQhnDsOrTyH1IyGbfHo+OkWE9WAC7bEjyOYfQiFEM5+7A2hOIvQGiNrH4J9+Gjj5hM55rPRWEAlpJWnk5xCuZmu6AlNKDg4ODg4O1wNWXqZx2N04n8R5RRh94KkIeTRzc3O47bbbcPbsWTz99NNYXFzEM888g9/8zd/El770JSWPJHMkNrbSMJzVQm6F9WOxnZ+toGA9OzurQ2i/7uu+TkntaHrE1jhH07fEy5Ive7ThR8NaWD8Wo+eMe5Q0XyucL68OmzH65AyRKe3lBQ6r5BDKWtHFWLaCid4pVJdfQn7yaeSnX0TQXZBQA/EB+Y0x8LgX5DhQmUARVFBkAxSDVXhZR+cckk3o6Eo5ejwfIXSbapGSKVrEVZ4jqQu1UMjECHHTbSDkWKjW3uTczn/kOW2shr78hD7vgfSD+/5x9U2GYczln73Zi4BxMiXCzscThqfpgMNxhejooiw23xeAvapxmgjEjUZsvL9iACQ9eX8kDWodpSwh8Zv07X2eD7Zc5cgyknjTIEYa1oTk08RK4jTjYsx9bQ+TPx5JXKl1rWAQNJFEYxJfXdyo2dXSV8M727DzGaoL74kuQjx1fucY+rV59MbvQDr3ACBEMBu/Hd1iDN22h07XQ0/qkVebQVGZRFfs62hgLZzEihDO9cl7kOx7BMW+B+FNHYAfRogGK4hXX0F05gnEZ55Ebe01NJJV1Dxpc3XIqty/GN6DKW+5M9c+ODg4ODhcJ1hZe6sM7bD7sKME0j5wS1TiOMbhw4cxPj6OU6dOqdaRbuvr6/jMZz6DF154Qf1ZbSBRqVQwMTGhYcIwVLJlh7HaeC3sOf0xXhJFnjMftPNor3Me5sGDB1XraePgcTR+6z9JEiV4o2AeaWwaNmxari5rTRRFqu0cvScLG4Z55f0xL4zPpn81MZrHnQDLatTsBLbG+VbMW8FoCVkKYGGJgC+OHIrKuXd1Esl0GfXVV+GfegrFmecQdc2m7KkQhhQ1qUBjUrkndRuPPOti0FkE0rbRAjIBSZTElC+kcDslioYsDiF3xpTFHzVWJp8q+EtmTC7La3TncxanNxeFxMF3gwlxzp2QsTznxwzJR5lmqRcbSX/Dsg0kbY2MafPMEEipaXxpdJisMD3NF+Oju167VGicHrgtRUiynPbk3WT88i7GFQT63tMHwfotv2U91zIoDe9PCl7sfK+pfaOml3M3qY1keQbIqT0s81pGqBiNb8PkxnDbEs4rzZt7dGGiTAheyo8EUh68y1z8ZvSvEWqpSvx8iuJD8kRtbc8XAlrdi2L+QYS3vQv53kfQbxxC4jWQdQbIlpeRtdblvqW9kRrXRR1tfwprlb1YH78Xg/3vQHb4Pcj2PoRibF4Xb6r3FxCd+yq8Y19EePqrqLVPoJ62dM6jPJWyXmjhSllIuyQPh/lVbFgcdhu2rYvOOOPMFRmH3YOtMhwNsfU5WXeH648dX0THEiI+9LGxMZ3nyNVXqW38whe+sPHidrtdJWqWkJE4kmzSP4e8cqEdEjEustPr9TRuW3F4ZBiSNGo43/Wud+Ed73iHzm1st9sbpI6w/ubn59UPyeTnPvc5vPHGGxoP06WbjZtDbW+//XYlnFwlttPpaD4eeOABHDp0SPPNPDHf1GoyfabBe+bQWGo5mc7k5KSGZX54jfGTONLPu9/9bvXHe2R69Md4ryaYPg3zTdjyIey9vxWMxncl2Ik87DQ0RzZbJCCUrO1t6v2WJ3LgHL04H8BP2hj0ezqk0w8i+GFVXoqKCOgxvEodUewruUwXXkPRWTAL1wixMcnwl3VbnhWP6mZRUhBx5DUOje1G0wjG96E+PiVEFOi3FtFfO4soXUOsWkXGxTBClqR8uWfkIBACW51GdWIPoloD/fYKBsvHEfVWEXEVVr0vpm3Sl7dVfs8P45MkJNRVaamBCxuTkqdJLYPuyjkEnbOo5F15xvKeqO+NkhNsjt+kyXhpYdxS7nKklmzgVXTrjmhsTvOe9trI1oWodxcRcXgrc6Nk1qQxhFzRuEzsJExc3XQg5RCNz+mc7Kyzinz1DEKSejJ4DSbH8r2xxsI8H9LlCAlXnp09gurMfiGL4tZtwcu6JiW9GfqWsGrnD+/JlARXgu1GU8g4RHXvg0gm75B8zSGXctT8Zn2JU0hfHCCqSBn0B2h3EmThGIqJg8DcPWLuEgK7D4HUrzjvIW6dQnDueeDks4hXXkN1sIyqlA/3iTQfH7RUNTt8vmbPzWH9Zrq85uDg4ODgcL1AudIah92HHSWQVsii9o6GhO6xxx7D/v378YlPfEI1jtQuUvNGTR2JG/3RTjL1Pd/zPUo2Gce9996rbhzyevz48TKFIRj2yJEj+PZv/3YlZCR9HCpLwvbqq68qObUVj6SJw1YffPBBzdPzzz+vWlCSQg5p5dYiJIunT5/GPffcg+///u9XoZLprq2tKUn8ru/6Ljz88MPqduLECU3/ne98pxJBElTm+YMf/CA+8IEPaN4ZD9PgokHMC9Ol+3d8x3douszTnXfeqavS8h6PHj1a3tnOwD6L7Qij1Xja8rHXRs8v14xi6/mlYGt8V2p2HIxTDEVuQx94rv9iDImgNtDLC6ESmQ6x7MpzT9bXkHOJ1jCGT62jEB9EVSGLA4TrJ5AvvqZbZ4Q59/yT5yHPiqI7twlhnLSbNAw0bc2LeXbcc7EnBNJrzqM6NrFBIAdCIONkXcggCaTRgNkFWkhWBkEDXn0Wlck53VC+315GsnIS0UAIJBdlIemRXx12qnVIrGVd2t5Q90j64Zv5nkJ8AiGQjYlppi4E8iz8liWQzAbj1kjLwzAu6yYWvXt1KkuAcx2VQEZNIc0kkEKg+iSQZxF0l3QlVqM5NB+DOM9zmD+N2pShWJRMB9T6TSEcm0VcEshi9SzCpK33Y/80XyPQOI1FDO+5irQ2i9rcbahO7kHS7yFrLSAQIsp46N8X8uuLXw2iBLI04taX8Fwwx5u7G8XkbejHk7oQkZa90FNPHmwh+StiufcggtQe3QfTm9yn8yGD8XndW9Tjxwspi+Lcy0hPPIPBsaeBpddRz9qoCSHWocwsH5+zSflkWA7mNojyrjS/tJqyc2a3Gbbn27k744wzO2tse+jMlZu30l4xrDU8p3xnlTE0Dtcf3qFDh4yEtgPgQ7XDPGnft28ffviHf1gXr/njP/5jJW52GOny8jKee+45JZUkW9/5nd+pGsjPf/7zeu27v/u7sWfPHvzyL/8y/uRP/mSD9BCMn36/7/u+D29/+9vxxS9+UbWU73//+3Vo7C/8wi9skDYaahBJRknemKennnpKySIJKDWCtP/2b/+2zs38gR/4AV0h9vd+7/fUrd/vKwn+uZ/7Oc33z//8z+NjH/uYEswf+7EfUwI6Ski5NQkN80eNK+MhOSV55D2S6PIeSRq/9Vu/Vcn1r/zKr2j52JfkrcK+YIyLRyJNUyW91LgSoyTS+rfn58Oov1Fs50acz30UW/1sTeNS4tgJnD8dQ0ylNE3eSkHbuBjQptswCBnk/MNeHqLrNdFtHECx5x5g5nb0o0ndP7KWrWNy7Xld1ITEp+JzBU4hmmXyjJNPhvGT+hiNo01NGk/VIgXoBONYrNyOZPou1KfnEHNY5sobwOJLaHRPoJ63hSAIHZRg3PKBw0jbQROtcBbJ+BEEM4eEONWQrp+Bd+55NDqndSiuXw4PBYeeknldBCTWvPeUC7n441iPZuFNHUJz7oDcRIbO6VdQW3oRE/my5FspmYZSMnNBSMb13qU0pPxTP0bLG0e7th/F7N2IxyUdKT/v3AsYW38VjXxVPHNRGM4/ZMCyQMsUGYdGqPDR8sew1DiEYvoO1Brj8Ei8z76ARv+ckL2BeC+fwrb1gvGYVWfbcs/t+kFEs3eg2mgiXz2J8NxXUe+flbC5EjVOcNUhvHL/5jmyTmnsWPfGsNq8E8nsg+iPHUbPb4o7543yWQsp1uHAhtKq1pLn1FhLPQsCH5XQQz1I0UjXEKwcFdL4hhBJ+0Ggjzji0HuuzFtqHcv7sSXB+zCG4NHkb9TH+bATbZXDpUPbn23ro8PNCvu8b+V3bSfKYDSOS43PtW9vHbasebT2UYy6WT/WjXL+KFZWVtRQdrVKm9Hn6XDtseMEkmSNmjUSKJIzki+SNmrYqLljpaDGkSTrL/7iL9T9B3/wB1WLyEV2SCpJxKgt/OpXv4qPfOQjeP3118sUOK0q0PioeeRQV5K3//W//peSwZ/6qZ/Ck08+iV/6pV/SIajUGJKEkkRyCCvJG4fVvvzyyzh27JiSKhK/1157TdNmmB/90R9VUkfiSq0ph6lS+/gjP/IjOnSVBPKjH/2o3ufP/MzP6JBbzu0kMeM8zz/4gz/AuXPnNBy1l7xnaj9JHqmtJGH+yle+ooSW98lzhhm9R8K+HDsFzrlkmrw3wr509gW8lJfwfP6s29ZrF4pzNN1Rf5cTx/kwGsY2QhcrywunQ1GfxE3yqkK26pYMORAYF2nUSCLFkPQNvFgIm5CLyhza8QwW+j7OrbRR9/q4s9HHHm8FUdYVCsLhqxJAIqEejyt7UmvI+BmrSYGXDY0ggfSF3HWEuLyazOK5JeDcagvNqMDtUyHumswxXaygmq9rHAwVepmk4kuYJpYwgTc6Nby60EG/18eBqRj3TReYD1tCIAeGBHOWnJAxvRE5uxB431w4J/NIICexVEzg+Drw6inJmFy7e76Ou8e6mPbWVdOaK5HiM7F3dj7wXumLGlFuuxGjK/d8LhvH1yTqY4ttTMYZHpjzcE+zI3fF/WS5IA1n+Jlc8/5ZAsbIudY5iVPqBBegOYoZvLQMeW/PYU+lwON7IhyoJ4h8am9tLCbcKBgX74P3vIYmXm1V8fK5HgZphtumIzw40cNssC7+ONfS1BWq+zhvVuuQEmkgKwIsFk18bX0cz65EWBjUkHC+rC48RB+SD5J/TV5+OAeUmkaJtyaPZ6ZZw8HpOg5NRpJeB2ODBdT6S4izNiISTUmL6XP4r9ZVljszr/ejkZYYfR722uj1C+Ni79bNiCtplxwcHG4s2Pecx1uxnXsrGG0jL2bn0Sqe7NEagqTx5MmTyg8ou1PJRCURMerP4dpixwkkCRrnJJIAcn4f5w2SvFHr9tnPflYfOoetUmNI4kWC97M/+7N6JPmjto5zBUmoPv7xjyspo3/78s7MzOBbvuVbdDuOl156SbcFYYWiNpIkj9pIEkgSOO49Sa3hmTNnlPBRC8j8kZQ+8cQTql0kKSTRYxokg9SYkvSRlHL4Ke/jp3/6p5Wsknj+6q/+Kv70T/9UNZB0//CHP6yVm/fyR3/0R5pn3gPLwn4pedvb3oaf/MmfVPL27LPPanoMT+L6yU9+Ul8Mpk//DMcXiPYrBeOw5cV4GB/vg0T9oYce2kiHhtjaMG7XUI76J0bt58P5/Jwv/vNhu2tvJf3tsF2eCBMFr5nrUgpioyOPdJXnpeeG4JEQkoRRKO+T9Hh1dLwqFtspVtbaqAQF9o+FmK6UO+8JUdAkRIYnVaKxOTG5N782fV1gR4jAusT7xKKH3/70q3j6q1/FkbkJfPu77sU3PLgXc2FfyGnbDIcVv1zohySiHdRxJqngc6+u4Y8/8ywW5L34ukfvxPe8+x7cNl4IueUASeZD6bDabLrbQgpHfcr9cl/F9aCJc2mEzz1/Br/zx5+Tepbh+7/xnfjmh+YkT10tn42y02hNub0JEq+Wrnji0EsSIa5UmvpVnOgG+IMnzuBPP/c0ZpsBfuDrH8CH75vCjN9FlhdIhETaN4dpmNIrU5WfgHFLma+igpf7NXz0Kyfw8U9+EUeEiP3ohx7D44cnEPuppEsizXDmOVvYM5YPV25dlPv97Ksr+MNPf03nMn/T2+/Ftz+6B/urfeF+GQehqn9zT3zM8qsEUtqHIMK5pIo/e6mF3/3SCby2JERf6gq1xVouBbdY4bI5ueQpQ1XyNVbxMD9Rw+H5SdwxP4XbZuvYNxZgQkjvmNdBFZxTK3mXm+dqsNSSkuzq3FAWgObflOsQJJCjMH4uFed7d25WXE678lZxq5WtwxDXsp45bI+dkCFuVZyv7C7FfTs/nJ5GXkDFDg1JpPV3vjgdri52jEDyAfIFoiaORIkEjnZq3agJJNEj8bLEiH5J5qhJ5NxHbvNBckUVNbWKJGskeIyLJIzzGhmWxJFzFLnoDEkeCSO1nCRojz/+uJLUX/zFX9TKRdLEdEjUOI+Rw2KpGSUJpD+SNoLxkmByCOwP/dAPKdn9tV/7Nb1Gsko3LorDhXc41PR3fud3lJT99b/+13XIK0GtJPe3JJklGCcNwzFdEly7hQnJ5osvvqiGZJPDeplPEldqRQme78RLwTyw/DjXkkNu+TxI4kcX92FaNBfDdvmxbpeTV5vm5YBhriStC+HS4mE+TV4NBRieGVpCmwGPqvPRoYbc0VHAOWfcc1BOuIqm2X/Rkk2JUVcQlZDybwgk/yQFOfeFAL4ZdPOFADXwhQUfv/Xxr+p78+ChWXz/1z+Cr7t3DyaFSARZh1RWyRdJLQlPJ2jgdFLH515ZwUc+8YQQyFP4hsfvwvd93QO4fRyoYyC+mAdDOkbv/XzQ+8gTJIiwFozhbFbD5547jd/8yMeRSV3+wW95D77z0b2Yr3ThqXaTIfhxZXO8o8/CXKGvkuhIXnKJvxACfLZfwe8/eQq/+4kvYSzK8QMffBTf9vA8ZsIO8g3CVhIizT7DM35bcjzPsS5U65XBOD769HH82Z9/BnubEX7sm9+Gd9+9B3UhYx61fRKW5Wfrqs0h85UKyeP8xXODCj75/Gl85FNPIU8TfMd7H8a3CmHeW+mX+TF54aNk+PJpG4QxlqS8/vylNfzfz72GFxYG8gSEQDKM5DEQAsm5o5MVqKZx/2QV+8Qcnm3i0EwTe8crUgYc8CqlL/45Q5LE12iwGYd+opD4mCLdzK+mX96TwUaORjB6fTN26v27GXC1y2JrO2nTu9z282YA7/1SyvtmKRv3nl09bFdHLlTel1KnbsV38q1ga3nb99uWI2Vsa6esSpmfvIAjFz/96U8rV7DaSvpz5X/tseMEkkcSFoLDJkn2uLjMb/zGb6jhNVsxOMT1J37iJ1Qr9ru/+7tKMBmew0qpoeSQS5I6zlEkQSMJ5FxEEi7OT/zDP/xD1TCSnH3bt32bai5JypjOl7/8ZdWAsuJRy8gwP/7jP65EihrKT33qUxsEikeSXZJFxsU5lySQJKScD0kyzDyT0HKoK4krSRgJJLV6HLL6P//n/1TiSXfeI+Ok4T2SuJHkkmAyzzZPvEeS3K//+q9XTSvnVtLNvgjM206A8XDxIq4Oy7RIUkmq+ULyvkZxvpdwu7xYN/sSX0p+rZ/Ledlt3DbsqP1KMRr+4nGN5vXS0iXJ0OGmQt7M0RAiM6yQZCiUMqCLjVGvyjX+GiFftY1yJPmgP6mt6k+YB9aDSbyUzeFriylWlxawr5bjgbkItzVTjOXrCIV8kAQyZQ4xpb3rj2ERE3i9XcFr59oY9OS9mIhw/6yP+aCDatHV7TKorST5NKmO3vtWGA1kJPeXehFW/Aks+1M41vLw0oklFFmB+/Y18eBUDzPeMrxM8iFheN9yycQgt7P1ebKMmK6WobrwV1LyqljJx/DVxQgvnDXa3Pv31nDPxADjxYoUUKoRcogqQ6r2sixDQuePSg5Iztp+Eye9eby4BBw/vSBELMPDe6tCpAvUIOUwQiCtRlNzoREKgZRn0BNCvoxxvLIKvHJ6WdO/Z7aKByQ/M77RALMc9ZOAhpPy+v+3d6bJcRxnGn5r7Q0LSUASJVKmtczYoT+emBv4hw/hCB/Ax5hT2GH/sC/gM/gEjpgZhUceeyxLlkRRpAgQay+1zvdmVqKbrQYJik0JIN8HTFR1VWZWVnZVsx/kUhYSey/4nE22Cp6YMP71IMV/f13jQWUKn3MMpL1ndvysOEI+2cf1dIY7OyaQ1/u4nkfYMHEeJjVyTpRUl27crRPdxM47lJfjLl0dsD5Z2Qy+XtcB369nuYdfVp7+2bFevuvjXSaWPydWwWvyZboul/9/Ft8tz/o5F75TivMJ9bNcT/zezG2rAr9Xsychh3yxIYcNRKEBKPiE/j/67llrF9YA30jeSGx9YwsdWxk5mQzFjRdDeMPZGkghvHnzJn7961+7x2twohfuZ1qm4wQ8FC92b/3Zz37mBI9jI9nKyBY9tu5xNlQKEvPmXyUoYgyLZaHI/eIXv3DCFgSSFyDTcEnZpAz+9Kc/dTJLiWTLIyWSMsrW0p/85CdOEimLbDmk/HJsI6WVeXI8J4/HPMNxOTMsW0cpsL/97W9dF1eOAeU5cmwkJ/ZhCy3lmfvW9QEUysBlWGedshsv19miS1kN70U4JtefhZBueUmeNa+nseoYz8vF8gzncZHjWl13v/lV3o+J5NK+1lt9uC/4bBniJDUGq8jl6o7PFLbB1Ztvq6NEUiApBX60JLcmGGc72Nv+AM3r72PQs3vm6C6S/b9jePIFNuoj9Cw2xwMyTUKBZBqTpqN0F5ONt5HtvI1+nqI6+ALJ1/+HzeJr9JuJK6eTntCN0oXzoXDyUf7sYnpggnqU76LZuo2+5W9XHur9z7Bx+BdslvetHmqTKpbf11GAdf9Y/cdhv8V0K37JTr+n0RaOhu8iufFDjAZ91IdfINr7K4bFnu2tLB+rIbum3Ttgac7q172gQPKeb1133v30TcxGVtbrb2CUtUgPP0f06J9IC86Oywls+H5ZXhy86HL0wszy8JEoE6tPjm+tr1l9br2GcmLSuPcpbow/w6a9B3ymZEWJt/O2nFwOnI01tveCIspyTNrMSehp/w3g+tuIN3csmh1zdgIc3UN7cBe5lWcrLTFKra6b2uqcfxawczHJ5OcFS9S4lm4+d9PeN56zBd+CbfvtBX9cFbMY84W4QnzjPnnFeNr5h/9v1v3/zvfJq/6ef988S93zumPQ+/V0luto8TpftWS9smHp8PDwrJde2C++P16oQLIFkt1TKXl//OMf8bvf/c6J16JA/vKXv3Ry96tf/cr1aw4P4ue4Qbb+saslZ1Vl6yJlk2MlKWuUTc7ASoljCyClkml4zD/84Q9nLYyES0oqWyApgb///e/d2ENeiLwIueQEOhRMyigFknny+Gz9pMAyHc+DkscJdngebFlkl9qPPvrIdYtl19TwAeK+2FngI0I4uQ/PlRPwsB4oyZzYh+WntPKvKUzP/t3cF26Ydd4gLAv/wsO6Zb4crxUEeh0s58PyvzzYubnTs3NyX8r9+uIZn53tQj3wS7xPQ3GZv5+u9Y2SwIX7tZiTRbf9jE/V6l44SeBD6yk0nCxmnL+G49f/Hb07/4atzR6a/U9R3v0QycO/o8+JVEymOBEOhZWT+zC302gDJxS8nfex+faPMRgOcPLVP1B89l8Yjb/EoJ2alPi4XnBZUIbzoQillE43ic4mjtMbSF97F7t3fmz3eYqDz/+C+N5/YqO4b/Jk98QKgSShbtx2Ww37XUzeCwwWh62ok413sfHWB7hxYwfjvS9w/Nl/u2dr5hEnmLH4ruK7/PgyZGjltFp01T2J+3iUmLTdeBc33n4PW4MeZg8+xukXH7nnVmbN1CqdiWP7ZwksEXP0JfctrpwVdjI0+bz1I1x/8w4mRw9x9MmfMTr8xEk83yt2YXUtkC6db3lk26AXSC/r42iIMr+GaOsNpBvb7pgUSD7+JJ48RFqfdM8LtTTuI832W3l8SXhq/KOErbOsDLYjtF5zLwXSfxL68jOduHqs67P6qnKR83+5/t8RV/ma17V4PqveV25brrPwOuxjuMrXxMuG/xb7gqCgsOk5yEvYxte8ELgME8pw4h12L6XocTIbdkmlaFIU2dL4/vvvu9ld2WrGPNhSSPmiWLJVkE3bXGcr2yp4LIpiENTFrqJcspwMzIMtgmztZFz2tabYUbiYBycEYmskL2Lmt3hui/lxPwPLyr+c8JjsQsoWUAozxyLyHCmMfKwIx4CGJvwXAeuSZeV5UMpDGQOhvN82LLMqztUNdj7hh+sunK24cBaX594FbueXe9+KxZlNObbQrhXXusfdXfolQl5OJFzw8dj90cmHEwWfT2uS1rbsFp4hzwZIbNk2plFmFHyQPx9HQfmKTdxSS51QgHmd8p9JUBvllg9FszsOZcmulbPzuUDwJ9wiMbtJUSKuJi5kcYU0quxAvquJkzEXVuTR4dasbF6+uerrz7eg1ZafSWJxhOroAZrJAUZ5giH/KJJQeLuPM6a1c+xO0wVfRvvHYFvY0urma2UX0Kq07ZY26aFN8k7ErJ67KvG/Ai43+231S8m2NHHas1cWpzY5bTjxjdc6r2osN0vm3zufXxdsn10RJu5j9AoTxYOPgfsfWfgfRHt/Q3L6JfLqyMls2lJFfespK4dHqC2Pxt6v2mzR3nKrJx6Rde0DY7ltPKgFV8/dUuHqhVcd/p/1tCBeLla9x1cliPNZVV/8fhqWISy+JvocvFx037jWR3iDF994ygvHGFLOiO9iBvcoD07LS8GiULEF8Oc//7kTK0oan+lIOWReFDCm5yM8OPMpn6HI15zUhhPiUAh5bEoYW/fCMQi3U+Q45o/CxrGUlFaWjfsYlzIYHsfBbqvsEvunP/3JTXpD4WL/a6bnMyv5OBCmYSskJZN58fXixc11Bnap5TlSlMM5crZYdn1lqyfLzuPw+KHMPN/FvJ4X5rUqz1DGdR7r5eXb/Ifg5cHVPyXI1fNF6twfi5LCDNyS6dxvnx+VKmkL9OophqjQ431m1zhbuOwusFidqNmaHdgtqVhsLeSzHjmhjZNJahTl6Sy4FBeDce0fW7/YFpZYOfJ2hmR2iJatZ9N9pPXYZK22a5t/HKH0+vxDHawKTpS74Lbxx91fPIcaWXmC+ugeykf3kNh6xmzdGc4J71bY6l4zAxfTt+5S3iiP1ay0NTv3rO+eN8l1RvXlmefhcmErJj/bbGvDx21YmjjJ0HB8ZzFz9cpusmdxbUnnozzy7vZ52QYndtxg9WaSPcAYg/oA/el99CdfoV/4x3HETeHiu/GsVn/splpbXTSJnYXJI8XRSb/98wteLXZck21EpQtsB/WdmVkLjNQFrgshhBCXhMXvAgzL3635XVZcDhITpf/o1tcC3+ggj5QrjrnjJDlsYePzD4PEMR6ljnLGJQWR0kiBo8jxIfwUSK7zAuJ2TphDaWR8di1ld1LGYwslJY7SRxHj4z04G2qQJi4plhRHdoHlYzMYhwIYLlDu5zH4mBCWiV1gKXfMm+kZh/LKLrJ8vAcH8rK1ky2mLCNnwmTrHvNjCLBVkxPmhHMM58B8ObaSgszusoFQ5nXzIvIULx7/Ucn3zq4rt075sHuH4yjTnhsHuBFXJlT3Mdu7i2hy6GblZMdJbxQUMaaz+8DSVLa3tnT5YNPumZFJzymao6/chC2ceIeSQb1iunD0J8EYFD3KsVcX/jXRZIXiU4xRn+ybSFredmReg/7viIbL/8ksxvBn72XMbhHX2seJbqJ6gmpi91cxsRih9Y+E1H7JJE77LAPfnpmijIYo0iGSwTb6G1uWZY3J0Z7V4SP0mBclj+ldFiE/t8V0LMc03UQ02sFwexdZmmF2vI/y6AFyq0u+B/6YTD9POw/MkT+MQfGvTLRLk3oLrCtKtzsXpmeJ+QcIL/sUT59DgHJKRfU/7tEwJpB8BAhbLX1HWp6LpbtAvQshhBDfF/wevMzid1h9n70cvLAxkBQ5ChNb2tiqSHnkGECKZBBIQnGjiFHuOJENhYstk2y5Y6tdkD+2KrLrJyee4WyojMNWQbY8UlYpkJQ5SiiFjscJFyGPxTyYnmMSuY8T3/BY3BfiUQ7v3LnjZDE8rJRwP6WPrY88Bieg4SymlE12q2V5KKQUz8ULm+n4mvlRbtn9lXVCceW5cUAw5ZLlF2KZcGM+9lHJjSYRM/RR9K6hd/1Nu/ZNhE4OMTu0e6s8Qa+dWrySzV6M7CSC6Zqoh2k0wiy/jnz3B9h64w7aeorx3Y+AR//0LV4mLZw91C7c7mBPh3LC4zSWpnSSavc3u3bGmZt5NanG1DUHaSvWAAAQN0lEQVSLYgrX3WtPIpxviOmXFC3qqa21bHLMEdsx4LrwNiZ/hcnXzJXfl31ea16KmYPPg2NCK1PEk2QHJ/lryF5/B7tvv4PWJHT/0w+RPfxfbLWHLi7HbM7zs/SUY1ubmnwe9d9CtPsebtx61wQywdG9jzH78i/YmN7DsJ24o7Htz7XsLjAvmS+bb7H0rZZ+n//tVZcx/HKe0p+NZ77d6yP38MfnybxTez/5w5ZVtmL6PENeQgghhBDPxloFMogYYYsbRZGTzLDbJiea+c1vfuPkji2TQbQWl0wfQmBRyEiQsrC+CEWN+yhkYR9fh8D9DNxHwQ1xuGTgPoom14PUhWMR7mMc7mP6kCeXPF9uD8cKeYb0If+QN9dJ2B/SChHg1cnAq2L5ymAHTLaCxVnfZC3z1181MzmispROdOiBPr1XBp+mh1k0QDu8gcGNm0izGOXeF2iP7yPlLKwWyz2i0V2L/v54Gsybcdmt04+34z1i94EVwI3XdHsofxf7Q0k4X5+rxy/9bz+hTpAqdkT195Wdyby11e0LefHc+UMsHoUzyjCOr+GEk/7s/hCv/fBfbU+DvX+YQD74M7aaA0v3BIGMRzjo30K8+z52br+DzA58ePdvKO6ZQM7uYwiOsaa+dV2EF/Cl87Xm4ZqrPf/SHSEsfe2RxfjLZ0g4cQ7jutl3OT4zS5HaZ1ZUmLybHFOu2TLJ9H5caahDIYQQQoiLs9YurEGeggiFJVvcQrdPtvoFeSKME2SLEhVEi9vDMsD9/KJMwr4QSMgnsJiWMD3LsihrjB/yWCzDclq+5rFZfu7n8bnka24PeYS4Ybm4HvInoQ7CfiFWwatj+Qrha371pyzG9dR14+RYuTDnp9OIs0R2DXZrxGuD3UPVFE1xgmZyCMyOENlrn9ZwCZaPej6M6e86ryOcYZR5uTIyT/Y7fQYWjxzW/ZLnwnuKa5anG2No6y5/Ho/roRSLLB3fxbFaMNFijcW9AYZbW4hNtqZHD93sp7125o7h8loQQG6jpJZRjml2DdHmLobbN9z5zo6+Rn38EL36hB2FXVpXqqV7fP7Kr3W1xpwfC37/42lJ2OpT+TUn1bbmnvcZDVAOd5DsvIvcQpNuo6hsb9N1Z+0m+mF8Xza3JoQQQghxIdY+BjIQxIhdNPl8RI475PjHJ7EoXMsEqaN4BflaJKRdzCMsAyGPxe3LcZb3L7Mq/aryrCKkvWh88WrDq+z8K5H7vCx6QaIQ2NLJ1FyYFq7Ubkk18RPeRNUEUTnu5LNL/xzYlW2hO44Tmi6/J53EMxCyCcfwufvf7pa08PRDzXOh3Lk/R5k49kcjZGnqxjGiE0h/lzLTkMarHV+W7A6cbyPeeh2jLRNJk/nZo/toT/aQN2MnkK5GnXyuKlWo61X7VsOYPjZrejElRbexY7Wuy+xpuoFy+zaSmx8guv4e0NuxfRnaemYFP7Wylm7GXJfevU+2dnaOQgghhBBPJtna2nohAhlgixsnl+E4wQBFTgjxZMJX+lV3C7un8ks/v/4vqoSTCb7sEs1X/ZqPOZdItmK6B+Z/M8EF6CK7TH3O7LZKvD5229xvzzNlTRYSnG3qbNEfym8N+87idEsHN644MDfxvJM4Qr+XI08ilCaQzclDZBxDagcIybhkNuGsCrZAptuI2BV4cwt8HMj08L6l3UOv9gLpa9lU7+z43QoX/tfj2y+AT+UV2v9mOobGfoCZlWvSu47m+jtod/4Fs97rqLMNRFkfdVOhLO1z2Mrq3n+TSPeHg64ozNEXxzboM1oIIYQQ5/CdNIWx1Y3SGIIQ4uKcfb9fxG4j3kmUqM7Z5izdYvPdXhC8BPkWR78lqJ6xlPbJLEU+e9nl1pXNH+EZeVIi2+4+Rr5x4uckOWcj2x9zE+iMrXLH94GDu8hmB4gath4mrjuor6H5cdxhLXBL1DZoTcaairJZoXXd03232tWsLIhx3vbzCe8cy+Fbj7mNfxLI0KYjJIMtNGkf0zbGJM5Qbu2ivfkjtG98gNnmbUyTLRfXn0dlS47tXDxTIYQQQojVvLAWyMVungHJoxDfF4v3o1/n3dh1ynTr3x6nIV24Ovc4S8snZiYmjFE1Qzs9RT09AUwIOc7Rf4TZ+XCdq/Y7SFZt8jVLhojyDWyMhvaqQnH4ABg/Qo8P/rd4oW4Xmvg6+Hp529MIaSwsJHWjJd3nauzGZU7iEZqN1zHcvYN4sI1iPEZjZYqTFtloC3F/0wSz53SxMuF1ky91Y1T9dbBwHCGEEEKIFbzwLqxCiMuFV4O5KDy/8l1N2WCp2QWDLXioCzTFtOveGaSRNeNrJ9QWf3N7w8eVRBmSNMVGP0Nu0lgefY12coC8LS4gkIvLp8E8/GI5qRNId6wEs3joJvZJtt/CaPcWmjjG7OE9NA8/RVQeI8t6iIfXkI6uo8k33ThOd7YUaIblzM+WQgghhBBzvhOBZMvjqhZJIcT3gd2LvB/dPfnq3pdhIho+/oKteH4m07k8flMg+dtec5PVHRexiVcvKt1MtuXRni3HyFrO7QqTTJ/LNwXy2fDHngevpT4kbWNlb8AjjpNNzAavobdzG4PtHbRWltmDT5A8+hjZ2OS2rtEmGdDbRGQSmYxuAPnQtULW7IbbsCts6NoshBBCCLGa70QgJY9CXCaW78dX8/70MuaX/Ix67HPKrS6LVNdGF9l2W3GPK2lnaIsx6vERUJwibTjDqamlj2g5uMVzcSaLFlyLox3XP/2y7p772aBEiuNkG83mW+jt3kKeD9wjReqHH2N0ehfD6gClCeVkNkNRmyvGPaT9EfLBCHGSunGcbTlB0nD2WT+mct4iKYQQQggxR11YhRCvJGd6ZCsUvcbEzM3wuuBNTgADnWDyt5e62j1Tkc/U5HM0ORlNfDaecB3zk82P53OzY7Ymdwzsdusk0k/aM40GOOntILrxNvo3blq5KlT7nyN+9E8Miz0M2qkTxJqyO5tYkU/RlAWyPMNgYwNpbLpYHCIuTkxQOalOwJ+tEEIIIURAAimEeGUJgtiYI7l2Prc8j06knFP5VkG0fDi/X/fy6Ha6wK3rgC2BzJly64LJHp8vyXUqZIkcJ8kmphu3kL/2A4w2t1GfHqD++hOkp/eR1mMkHO3YlsjqAjFnnZ0eoJkeOqFkC+TGIEW/PkV7ut9NIuSPOT8fIYQQQgiPBFII8epibuSeBrIcVtLtCPttGZnI+STuhXtN1iWPzJOyWEeZm2W1THooIobMPYuSM8GO0y1MBjfRXPsBBjtvoZ/FqB59iWb/E+SzRyaDfCYlu75WppoW2pmJpIljeYJ6eoy6mqFvcXrlEeqTffdoEp6HBFIIIYQQq4hu377tvycIIcSrxnlu9KRPxbM0oRWye8kdFL41fqI6eUSKMu6h7W2iTvqY1S3quvL74z7a4S6w/SbSa29ic2sD+fQRpp9/iOjBR+gXJpDmtJzILGlrN46S5XQtl1GKmaUv0xH6eQ99dnM1oeR4yJitnIunJoQQQgjRIYEUQohnYtE6w8fnqm3fDp+Tz6OJ2Pk0R5VvobdzC8nG6+BTJmdVg7JuTCiHaDZv2vZdk8AUg+oE7YO/YvbFh+idfmZSOLYMU8sn9l1tXbb8xeBHUDamlXD7udnvc2NB12nCQgghhHhpWMdMD0II8YpC3VuUx/VA0fOPF2HunciZCObDLWzv3sa1m+/h+u0fYcNCunMH0fC6+zAvjx9itn/XjXFMWz7lkTA9c6EwWnDjG/0ePgYks3g547a1i+vlkXvXf15CCCGEuPpIIIUQ4pmgXT0pPD8cU+l+WrYaWp51gcnxI5zsPcDk4CGq8THqcoaqLFAVhZkjJ8cZu0lwqpN9xPUEqX26czKcIIK+w62XRzcZD9cj/hcQuRloG9syL/36zkUIIYQQLxeaREcIIS4RTveC91H0OsmrqhrVZIpicozy9MAJ5fT4yESyRi9LsJEUSKZ7qE8eIC6OXMsiUzpZjJJ5po8fwO3ncRa3CSGEEEKchwRSCCEuKWwl9P9apJwEp5ohKU8QTw+A6SPUJpNsPez1c2wOU6QoUI4P3OyqWVNydKPLwwtkYC6KQR5Dl1YhhBBCiKehbw1CCHHJYOdRPpuycbPecPbUElk7w6A9xag+xEa5h63iATarr5FN7wPjPbRthbg/AvpbaDi5TpS6vLwsBr7ZLdVJqmMxnhBCCCHEaiSQQghxCZmLHddq+7AubDlF0kxMJsduhtVefYy8OEA7O0BRlWjSvhfIbOhaHTl88ptaSInsAiMwnG0TQgghhHgyEkghhLiEzMWPk9u0qG0DZ1Ct49jW/YyqjrpEWUxQFBWqKEOUDRClvbNuq+yg6ibiCTa5KgghhBBCXBAJpBBCXELYe9W7nR+j2NiSz3OsTQybKDeRzE0STRgZpa5QN417pmOb5PbJnlqyxPYtGiJFsst3OXQxhBBCCCGehgRSCCEuJZ3wnf3w49oH9yiO1gSxjRE39qqo0TI0ERITSNcCaSkYAkEUVwUSlkIIIYQQT0ICKYQQlxDzPRei1uTRQuyWj4tebK/TpkZUFWiKEg3jZH3ETiApmf7Zjk+TQ8mjEEIIIS6KBFIIIa4MQfU6vYwak8jadWEtqxJVbdqYZIizHG1sH+/u+Y5CCCGEEOtDAimEEJcYP4WOV8a5OIatjTmiCWRr8lgWJpAVkCROIKMkdWMmJZFCCCGEWCcSSCGEuPQs6KP5oAvsv2oiSYGMUKGuZ2iaGjEFMs3QWmjixNJ4gZRGCiGEEGIdSCCFEOIK4SSyC2yBTKIKSTNDOxujLSYmin4cZJsNUMcmkmyFFEIIIYRYE/pmIYQQVwKvjL4tkTOs8nWNlE+EbApgdoJmcoq2bZD2+4h6Q9RJZjEMPgNSCCGEEGINSCCFEOIKwRlZg0RGJotRWyK1kFQF6mKGqm6ApI86G2GGDBXjd/1XOSurEEIIIcTzIIEUQoirhpNI4iUyRo3YJLIxgWyKClGaI8430KQDtEi6uEIIIYQQz48EUgghrhBnc7IutEQmbY2smSKaPgKmB+ibUPbzDFGcWswgm/PZXM8LQgghhBBPQwIphBBXEP/hzbGQQIIGvfoU2elXwP6naA/umkweIa5L29uJ48LjPBalMQQhhBBCiIsQ3b59W98dhBDiiuKn04lMITMUFtAfIbVQNy3qyRHS8hg5qk41/W8hhBBCiG9LdOvWLX2fEEKIK8h8JCRbJMO8rAmqKEMTpU4Xk7awULl4AX3oCyGEEOLboi6sQghxRaEIhq6pbIM0dXTtkHk7Qd5MkDYF4rbp4nXxXWwhhBBCiG+HBFIIIa44lELOxeqDF0r/KnRdFUIIIYRYDxJIIYS4yrS+62oTRaijxHVhpToSr5KdQMojhRBCCLEGJJBCCPESwIl0/CM75tooZxRCCCHEupFACiHEy0BrusjQaWNY86+EEEIIIdaDBFIIIYQQQgghxIWQQAohhBBCCCGEuBASSCGEEEIIIYQQF0ICKYQQQgghhBDiQkgghRBCCCGEEEJcCAmkEEIIIYQQQogLAPw/5rOHkqFtJxoAAAAASUVORK5CYII=;" vertex="1" parent="1">
          <mxGeometry width="912" height="460" as="geometry" />
        </mxCell>
      </root>
    </mxGraphModel>
  </diagram>
</mxfile>
